<svg width="121" height="25" viewBox="0 0 121 25" fill="none" xmlns="http://www.w3.org/2000/svg">
<g clip-path="url(#clip0_302_387)">
<path d="M14.5052 24.4999C15.3077 24.4999 16.0075 23.8001 16.0075 22.9977V19.4893H17.0106C17.6125 19.4893 18.0136 19.088 18.0136 18.4862V8.46576H5.98631V18.4863C5.98631 19.0881 6.38755 19.4894 6.98938 19.4894H7.99255V22.9978C7.99255 23.8002 8.69216 24.5 9.49479 24.5C10.2972 24.5 10.9969 23.8002 10.9969 22.9978V19.4894H13.0031V22.9978C13.003 23.8001 13.7028 24.4999 14.5052 24.4999ZM20.519 18.4863C21.3215 18.4863 22.0211 17.7866 22.0211 16.984V9.96735C22.0211 9.16912 21.3215 8.46576 20.519 8.46576C19.7165 8.46576 19.0168 9.16916 19.0168 9.96735V16.984C19.0168 17.7865 19.7164 18.4863 20.519 18.4863ZM3.48099 18.4863C4.28353 18.4863 4.98323 17.7866 4.98323 16.984V9.96735C4.98323 9.16912 4.28362 8.46576 3.48099 8.46576C2.67854 8.46576 1.97888 9.16916 1.97888 9.96735V16.984C1.97893 17.7865 2.67854 18.4863 3.48099 18.4863ZM16.8098 0.651347C16.6093 0.449551 16.3108 0.449551 16.1102 0.651347L14.7649 1.9922L14.7028 2.05417C13.9051 1.6547 13.0107 1.4552 12.0147 1.45328C12.0098 1.45328 12.005 1.45314 12.0001 1.45314H12C11.9949 1.45314 11.9903 1.45328 11.9853 1.45328C10.9893 1.4552 10.0949 1.6547 9.29726 2.05417L9.23506 1.9922L7.88971 0.651347C7.68903 0.449551 7.39063 0.449551 7.1901 0.651347C6.98943 0.852018 6.98943 1.14986 7.1901 1.35039L8.49148 2.65201C8.07214 2.932 7.69189 3.2746 7.36124 3.66648C6.56962 4.60482 6.06463 5.82605 5.99521 7.14923C5.99456 7.16301 5.9932 7.17661 5.99259 7.19039C5.98837 7.28086 5.98629 7.37141 5.98635 7.46198H18.0136C18.0136 7.37109 18.0115 7.28053 18.0074 7.19039C18.0067 7.17661 18.0054 7.16301 18.0046 7.14923C17.9353 5.82605 17.4302 4.60477 16.6386 3.66657C16.3081 3.2747 15.9277 2.93209 15.5083 2.65211L16.8098 1.35049C17.0106 1.14986 17.0106 0.852065 16.8098 0.651347ZM9.49287 5.7106C9.07789 5.7106 8.74142 5.37417 8.74142 4.95914C8.74142 4.54412 9.07784 4.20769 9.49287 4.20769C9.90785 4.20769 10.2443 4.54412 10.2443 4.95914C10.2443 5.37417 9.90785 5.7106 9.49287 5.7106ZM14.5071 5.7106C14.0921 5.7106 13.7556 5.37417 13.7556 4.95914C13.7556 4.54412 14.092 4.20769 14.5071 4.20769C14.9221 4.20769 15.2585 4.54412 15.2585 4.95914C15.2585 5.37417 14.9221 5.7106 14.5071 5.7106Z" fill="#A6D864"/>
</g>
<path d="M37.868 14.64H34.22L33.548 16.5H32.396L35.42 8.184H36.68L39.692 16.5H38.54L37.868 14.64ZM37.556 13.752L36.044 9.528L34.532 13.752H37.556ZM44.2139 9.804C45.0139 9.804 45.6619 10.048 46.1579 10.536C46.6539 11.016 46.9019 11.712 46.9019 12.624V16.5H45.8219V12.78C45.8219 12.124 45.6579 11.624 45.3299 11.28C45.0019 10.928 44.5539 10.752 43.9859 10.752C43.4099 10.752 42.9499 10.932 42.6059 11.292C42.2699 11.652 42.1019 12.176 42.1019 12.864V16.5H41.0099V9.924H42.1019V10.86C42.3179 10.524 42.6099 10.264 42.9779 10.08C43.3539 9.896 43.7659 9.804 44.2139 9.804ZM48.2777 13.188C48.2777 12.516 48.4137 11.928 48.6857 11.424C48.9577 10.912 49.3297 10.516 49.8017 10.236C50.2817 9.956 50.8177 9.816 51.4097 9.816C51.9217 9.816 52.3977 9.936 52.8377 10.176C53.2777 10.408 53.6137 10.716 53.8457 11.1V7.62H54.9497V16.5H53.8457V15.264C53.6297 15.656 53.3097 15.98 52.8857 16.236C52.4617 16.484 51.9657 16.608 51.3977 16.608C50.8137 16.608 50.2817 16.464 49.8017 16.176C49.3297 15.888 48.9577 15.484 48.6857 14.964C48.4137 14.444 48.2777 13.852 48.2777 13.188ZM53.8457 13.2C53.8457 12.704 53.7457 12.272 53.5457 11.904C53.3457 11.536 53.0737 11.256 52.7297 11.064C52.3937 10.864 52.0217 10.764 51.6137 10.764C51.2057 10.764 50.8337 10.86 50.4977 11.052C50.1617 11.244 49.8937 11.524 49.6937 11.892C49.4937 12.26 49.3937 12.692 49.3937 13.188C49.3937 13.692 49.4937 14.132 49.6937 14.508C49.8937 14.876 50.1617 15.16 50.4977 15.36C50.8337 15.552 51.2057 15.648 51.6137 15.648C52.0217 15.648 52.3937 15.552 52.7297 15.36C53.0737 15.16 53.3457 14.876 53.5457 14.508C53.7457 14.132 53.8457 13.696 53.8457 13.2ZM57.8871 10.992C58.0791 10.616 58.3511 10.324 58.7031 10.116C59.0631 9.908 59.4991 9.804 60.0111 9.804V10.932H59.7231C58.4991 10.932 57.8871 11.596 57.8871 12.924V16.5H56.7951V9.924H57.8871V10.992ZM64.1397 16.608C63.5237 16.608 62.9637 16.468 62.4597 16.188C61.9637 15.908 61.5717 15.512 61.2837 15C61.0037 14.48 60.8637 13.88 60.8637 13.2C60.8637 12.528 61.0077 11.936 61.2957 11.424C61.5917 10.904 61.9917 10.508 62.4957 10.236C62.9997 9.956 63.5637 9.816 64.1877 9.816C64.8117 9.816 65.3757 9.956 65.8797 10.236C66.3837 10.508 66.7797 10.9 67.0677 11.412C67.3637 11.924 67.5117 12.52 67.5117 13.2C67.5117 13.88 67.3597 14.48 67.0557 15C66.7597 15.512 66.3557 15.908 65.8437 16.188C65.3317 16.468 64.7637 16.608 64.1397 16.608ZM64.1397 15.648C64.5317 15.648 64.8997 15.556 65.2437 15.372C65.5877 15.188 65.8637 14.912 66.0717 14.544C66.2877 14.176 66.3957 13.728 66.3957 13.2C66.3957 12.672 66.2917 12.224 66.0837 11.856C65.8757 11.488 65.6037 11.216 65.2677 11.04C64.9317 10.856 64.5677 10.764 64.1757 10.764C63.7757 10.764 63.4077 10.856 63.0717 11.04C62.7437 11.216 62.4797 11.488 62.2797 11.856C62.0797 12.224 61.9797 12.672 61.9797 13.2C61.9797 13.736 62.0757 14.188 62.2677 14.556C62.4677 14.924 62.7317 15.2 63.0597 15.384C63.3877 15.56 63.7477 15.648 64.1397 15.648ZM69.5114 8.856C69.3034 8.856 69.1274 8.784 68.9834 8.64C68.8394 8.496 68.7674 8.32 68.7674 8.112C68.7674 7.904 68.8394 7.728 68.9834 7.584C69.1274 7.44 69.3034 7.368 69.5114 7.368C69.7114 7.368 69.8794 7.44 70.0154 7.584C70.1594 7.728 70.2314 7.904 70.2314 8.112C70.2314 8.32 70.1594 8.496 70.0154 8.64C69.8794 8.784 69.7114 8.856 69.5114 8.856ZM70.0394 9.924V16.5H68.9474V9.924H70.0394ZM71.4926 13.188C71.4926 12.516 71.6286 11.928 71.9006 11.424C72.1726 10.912 72.5446 10.516 73.0166 10.236C73.4966 9.956 74.0326 9.816 74.6246 9.816C75.1366 9.816 75.6126 9.936 76.0526 10.176C76.4926 10.408 76.8286 10.716 77.0606 11.1V7.62H78.1646V16.5H77.0606V15.264C76.8446 15.656 76.5246 15.98 76.1006 16.236C75.6766 16.484 75.1806 16.608 74.6126 16.608C74.0286 16.608 73.4966 16.464 73.0166 16.176C72.5446 15.888 72.1726 15.484 71.9006 14.964C71.6286 14.444 71.4926 13.852 71.4926 13.188ZM77.0606 13.2C77.0606 12.704 76.9606 12.272 76.7606 11.904C76.5606 11.536 76.2886 11.256 75.9446 11.064C75.6086 10.864 75.2366 10.764 74.8286 10.764C74.4206 10.764 74.0486 10.86 73.7126 11.052C73.3766 11.244 73.1086 11.524 72.9086 11.892C72.7086 12.26 72.6086 12.692 72.6086 13.188C72.6086 13.692 72.7086 14.132 72.9086 14.508C73.1086 14.876 73.3766 15.16 73.7126 15.36C74.0486 15.552 74.4206 15.648 74.8286 15.648C75.2366 15.648 75.6086 15.552 75.9446 15.36C76.2886 15.16 76.5606 14.876 76.7606 14.508C76.9606 14.132 77.0606 13.696 77.0606 13.2Z" fill="black" fill-opacity="0.88"/>
<defs>
<clipPath id="clip0_302_387">
<rect width="24" height="24" fill="white" transform="translate(0 0.5)"/>
</clipPath>
</defs>
</svg>
