<svg width="115" height="56" viewBox="0 0 115 56" fill="none" xmlns="http://www.w3.org/2000/svg">
<path d="M22.608 9.6663C22.6411 9.6847 22.6816 9.6847 22.7221 9.69943C23.3 9.86507 23.5245 10.5865 23.138 11.0467C22.965 11.2528 22.7479 11.3595 22.4755 11.3559C22.3172 11.3559 22.1552 11.3559 21.9822 11.3559C22.4975 11.816 23.0092 12.2651 23.5282 12.7252C23.3589 12.7252 23.2153 12.7252 23.0644 12.7252C23.0423 12.7252 23.0276 12.7068 23.0092 12.6921C22.6448 12.3681 22.284 12.0442 21.9159 11.7203C21.8129 11.6283 21.7061 11.5362 21.592 11.4332C21.592 11.4663 21.592 11.4847 21.592 11.5031C21.592 11.8933 21.592 12.2798 21.592 12.6663C21.592 12.7142 21.581 12.7289 21.5368 12.7289C21.4669 12.7252 21.3969 12.7252 21.3196 12.7289C21.2718 12.7326 21.2644 12.7141 21.2644 12.6737C21.2644 12.1546 21.2644 11.6356 21.2644 11.1166C21.2644 10.6344 21.2644 10.1522 21.2644 9.67366C21.7172 9.6663 22.1626 9.6663 22.608 9.6663ZM21.5957 10.5129C21.5957 10.6675 21.5957 10.8221 21.5957 10.973C21.5957 11.0209 21.6067 11.0356 21.6509 11.0356C21.927 11.0319 22.2031 11.0356 22.4791 11.0356C22.6705 11.0356 22.8215 10.951 22.9209 10.7853C23.0239 10.616 23.0239 10.4393 22.9319 10.2589C22.8436 10.0933 22.7037 10.0013 22.5159 9.99759C22.2252 9.98654 21.9307 9.99759 21.6399 9.99391C21.5994 9.99391 21.592 10.0086 21.592 10.0454C21.5957 10.2037 21.5957 10.3583 21.5957 10.5129ZM16.0337 9.6663C16.0816 9.68102 16.1258 9.69575 16.1773 9.70679C16.7405 9.89452 16.9429 10.5939 16.5564 11.054C16.3871 11.2528 16.1773 11.3559 15.9123 11.3559C15.754 11.3559 15.5883 11.3559 15.4117 11.3559C15.927 11.816 16.435 12.2651 16.9466 12.7142C16.9282 12.7326 16.9135 12.7252 16.8951 12.7252C16.7736 12.7252 16.6521 12.7252 16.5307 12.7252C16.4939 12.7252 16.4644 12.7141 16.4423 12.6921C16.192 12.4675 15.9417 12.2467 15.6914 12.0221C15.4742 11.8307 15.2571 11.6319 15.0252 11.4295C15.0252 11.4589 15.0252 11.481 15.0252 11.4994C15.0252 11.8896 15.0252 12.2761 15.0252 12.6626C15.0252 12.7142 15.0104 12.7289 14.9626 12.7252C14.889 12.7215 14.8117 12.7252 14.738 12.7252C14.7086 12.7252 14.6975 12.7142 14.7012 12.6884C14.7012 12.6737 14.7012 12.6589 14.7012 12.6405C14.7012 11.6761 14.7012 10.7043 14.7012 9.73624C14.7012 9.71415 14.7012 9.68838 14.7012 9.66262C15.1429 9.6663 15.5883 9.6663 16.0337 9.6663ZM15.0215 10.5129C15.0215 10.6675 15.0215 10.8221 15.0215 10.9804C15.0215 11.0209 15.0325 11.0356 15.073 11.0319C15.3528 11.0319 15.6325 11.0319 15.9123 11.0319C16.1037 11.0319 16.2546 10.9473 16.354 10.778C16.5528 10.4503 16.3429 10.0123 15.9491 9.99391C15.6546 9.97918 15.3638 9.9939 15.0693 9.99022C15.0325 9.99022 15.0215 10.0049 15.0215 10.0381C15.0288 10.1964 15.0215 10.3583 15.0215 10.5129ZM19.5933 9.6663C19.8215 10.1927 20.0534 10.7154 20.2816 11.2418C20.4914 11.7203 20.6975 12.1951 20.911 12.6737C20.9221 12.6921 20.9294 12.7068 20.9258 12.7289C20.8227 12.7289 20.716 12.7289 20.6129 12.7289C20.5798 12.7289 20.5761 12.7068 20.565 12.681C20.4436 12.4013 20.3147 12.1178 20.1932 11.8381C20.1748 11.7976 20.1564 11.7829 20.1049 11.7829C19.6779 11.7829 19.2509 11.7829 18.8202 11.7829C18.7724 11.7829 18.7503 11.7976 18.7356 11.8381C18.6141 12.1178 18.4926 12.4013 18.3712 12.681C18.3564 12.7142 18.338 12.7289 18.3012 12.7289C18.2202 12.7252 18.1429 12.7252 18.0583 12.7289C18.0104 12.7289 17.9957 12.7252 18.0215 12.6737C18.1393 12.4123 18.2497 12.1436 18.3675 11.8822C18.6877 11.1608 19.0006 10.4393 19.3209 9.72151C19.3319 9.70311 19.3356 9.68838 19.3429 9.66998C19.4313 9.6663 19.5086 9.6663 19.5933 9.6663ZM19.4681 10.189C19.2767 10.6197 19.0926 11.0393 18.9049 11.4589C18.927 11.4589 18.938 11.4589 18.9528 11.4589C19.2914 11.4589 19.6264 11.4589 19.965 11.4589C20.0166 11.4589 20.0166 11.4442 19.9982 11.4037C19.884 11.1461 19.7699 10.8884 19.6558 10.627C19.6006 10.4835 19.538 10.3436 19.4681 10.189ZM11.9847 9.6663C12.0325 9.80986 12.0988 9.95341 12.154 10.0933C12.4264 10.7632 12.7025 11.4295 12.9748 12.0994C12.9859 12.1178 12.9932 12.1399 13.008 12.1694C13.0485 12.0626 13.0926 11.9632 13.1294 11.8638C13.4166 11.1497 13.7074 10.4393 13.9908 9.72519C14.0018 9.70679 14.0092 9.6847 14.0202 9.66262C14.1344 9.66262 14.2448 9.66262 14.3589 9.66262C14.2264 9.99391 14.0975 10.3289 13.9613 10.6565C13.689 11.3301 13.4166 12.0037 13.1442 12.6773C13.1294 12.7105 13.1147 12.7252 13.0779 12.7252C13.0117 12.7215 12.938 12.7436 12.8902 12.7142C12.835 12.681 12.8276 12.5964 12.8018 12.5301C12.4117 11.573 12.0178 10.616 11.6313 9.65894C11.7528 9.6663 11.8706 9.6663 11.9847 9.6663ZM18.6951 9.6663C18.592 9.9571 18.4926 10.2442 18.3896 10.535C18.1393 11.2491 17.8926 11.9595 17.6497 12.6737C17.635 12.7141 17.6166 12.7289 17.5761 12.7289C17.5025 12.7252 17.4252 12.7252 17.3515 12.7289C17.3 12.7326 17.2963 12.7141 17.3147 12.6737C17.4877 12.1878 17.6571 11.6945 17.8264 11.2049C17.9957 10.7191 18.1687 10.2258 18.338 9.73624C18.3491 9.71783 18.3564 9.69575 18.3528 9.66998C18.4595 9.6663 18.5773 9.6663 18.6951 9.6663Z" fill="#2EABE2"/>
<path d="M6.14662 9.66628C6.24601 9.69573 6.34539 9.69941 6.4411 9.70677C6.69509 9.7399 6.94171 9.77303 7.1957 9.80616C7.43865 9.83928 7.68159 9.86873 7.9319 9.89818C8.1822 9.93131 8.43251 9.96444 8.68282 9.99757C8.93313 10.0307 9.17975 10.0638 9.43006 10.0896C9.5 10.1006 9.56625 10.1043 9.63619 10.119C9.65828 10.1227 9.68773 10.1227 9.68405 10.1595C9.68036 10.1632 9.673 10.1706 9.673 10.1743C9.54785 10.5276 9.41901 10.881 9.29386 11.2344C9.2092 11.4736 9.12454 11.7129 9.03987 11.9522C8.88159 12.3939 8.71963 12.8319 8.56503 13.2736C8.49509 13.4614 8.42515 13.6528 8.35889 13.8442C8.31104 13.9804 8.25582 14.1129 8.21901 14.2528C8.18957 14.2822 8.15644 14.2749 8.11963 14.2675C7.44969 14.1129 6.77239 13.9583 6.10245 13.8037C6.09141 13.8037 6.08773 13.8 6.08405 13.7927C6.08405 12.4123 6.08405 11.0393 6.08405 9.6626C6.09877 9.66628 6.12086 9.66628 6.14662 9.66628Z" fill="#09A2CC"/>
<path d="M6.07667 9.66626C6.07667 11.0466 6.07667 12.4196 6.07667 13.7963C5.88894 13.8442 5.69753 13.8847 5.5098 13.9325C5.01655 14.0466 4.51962 14.1571 4.02637 14.2748C4.00796 14.2785 3.98956 14.2933 3.97115 14.2748C3.97115 14.2638 3.96747 14.2564 3.96011 14.2454C3.86809 13.9693 3.77238 13.6969 3.67299 13.4245C3.59201 13.1963 3.50735 12.9644 3.43005 12.7362C3.27545 12.3018 3.11717 11.8601 2.96256 11.4221C2.89263 11.2344 2.82637 11.0429 2.75643 10.8552C2.67177 10.616 2.5871 10.373 2.50244 10.1337C2.69385 10.1043 2.89263 10.0822 3.08404 10.0528C3.33434 10.0196 3.57729 9.99019 3.82391 9.96074C4.04477 9.93129 4.26931 9.90552 4.49017 9.87608C4.79937 9.83558 5.10858 9.79509 5.41778 9.7546C5.60919 9.73252 5.8006 9.70675 5.99569 9.68466C6.01042 9.68466 6.02514 9.68466 6.0325 9.67362C6.04723 9.66626 6.06195 9.66626 6.07667 9.66626Z" fill="#2BAAE2"/>
<path d="M2.49877 10.1301C2.58343 10.3694 2.6681 10.6123 2.75276 10.8516C2.81902 11.043 2.88896 11.2307 2.9589 11.4185C3.1135 11.8528 3.27178 12.2945 3.42638 12.7326C3.51104 12.9608 3.59202 13.1927 3.66932 13.4209C3.76871 13.6933 3.86074 13.9657 3.96012 14.2381C3.9638 14.2491 3.9638 14.2565 3.97117 14.2675C3.77239 14.1534 3.57362 14.043 3.37485 13.9363C2.93313 13.686 2.49509 13.4356 2.05337 13.1853C2.01288 13.1633 2.00184 13.1375 2.01288 13.0933C2.0681 12.751 2.11963 12.4087 2.17853 12.07C2.23006 11.7314 2.28528 11.4001 2.34417 11.0614C2.39202 10.7669 2.4362 10.4688 2.48405 10.1743C2.48037 10.1596 2.47301 10.1375 2.49877 10.1301ZM8.21534 14.2565C8.24847 14.1166 8.30736 13.9841 8.35521 13.8479C8.42147 13.6565 8.49141 13.4688 8.56135 13.2774C8.71963 12.8356 8.88159 12.3976 9.0362 11.9559C9.12086 11.7166 9.20552 11.4774 9.29018 11.2381C9.41534 10.8847 9.54417 10.5314 9.66932 10.178C9.66932 10.1743 9.67301 10.1669 9.68037 10.1633C9.70245 10.2958 9.72822 10.4246 9.74662 10.5571C9.79448 10.8516 9.83865 11.1498 9.8865 11.4442C9.94172 11.7866 9.99325 12.1289 10.0521 12.4749C10.0853 12.6847 10.1184 12.9019 10.1552 13.1117C10.1589 13.1485 10.1515 13.1669 10.1184 13.1853C9.62147 13.4651 9.12822 13.7485 8.63129 14.0283C8.49509 14.1019 8.35521 14.1792 8.21534 14.2565Z" fill="#19A3D6"/>
<path d="M1.47545 10.6711C1.63373 10.6343 1.78834 10.5827 1.94294 10.5386C2.00919 10.5201 2.00919 10.5201 1.99815 10.5901C1.96502 10.9508 1.93189 11.3152 1.89508 11.6797C1.873 11.9189 1.84723 12.1582 1.82883 12.4011C1.82515 12.4416 1.81042 12.4379 1.78097 12.4306C1.67791 12.4011 1.57852 12.357 1.47177 12.3422C1.47545 11.7827 1.47545 11.2232 1.47545 10.6711ZM10.6889 11.5103C10.6889 11.7643 10.6889 12.022 10.6889 12.276C10.6889 12.3165 10.6779 12.3386 10.6374 12.3459C10.5454 12.368 10.4534 12.4011 10.365 12.4306C10.3356 12.4416 10.3319 12.4343 10.3282 12.4085C10.3098 12.2171 10.2914 12.0183 10.273 11.8269C10.2509 11.6024 10.2325 11.3705 10.2067 11.1459C10.1883 10.9471 10.1736 10.752 10.1552 10.5533C10.1515 10.5238 10.1663 10.5238 10.1847 10.5312C10.3429 10.579 10.4975 10.6232 10.6595 10.6674C10.6926 10.6784 10.6889 10.7005 10.6889 10.7226C10.6889 10.9839 10.6889 11.249 10.6889 11.5103Z" fill="#09A2CC"/>
<path d="M21.6988 14.297C21.7025 14.2859 21.6951 14.2859 21.6841 14.2823C21.4153 14.2086 21.3086 13.9362 21.3417 13.7043C21.3749 13.4982 21.4816 13.351 21.6877 13.2994C21.9638 13.2295 22.2546 13.3473 22.3172 13.6749C22.3687 13.9326 22.2509 14.1939 21.9969 14.2749C21.9822 14.2786 21.9601 14.2712 21.9454 14.2933C21.8681 14.297 21.7834 14.297 21.6988 14.297ZM21.835 13.3583C21.592 13.3473 21.419 13.5277 21.419 13.7853C21.4153 14.043 21.592 14.227 21.835 14.227C22.0853 14.227 22.262 14.043 22.2583 13.7927C22.2583 13.5313 22.0853 13.3583 21.835 13.3583ZM15.6325 14.297C15.6288 14.2786 15.6141 14.2823 15.5994 14.2786C15.3601 14.2086 15.2534 13.9583 15.2755 13.7448C15.2939 13.5571 15.3749 13.4025 15.5552 13.3289C15.8129 13.2221 16.0926 13.3178 16.2068 13.5461C16.3393 13.8074 16.2362 14.1461 15.9896 14.2638C15.9565 14.2786 15.9233 14.2786 15.8976 14.3007C15.8092 14.297 15.7209 14.297 15.6325 14.297ZM15.7687 13.3583C15.5405 13.3473 15.3565 13.5092 15.3528 13.7853C15.3491 14.043 15.5258 14.227 15.7687 14.227C16.019 14.227 16.192 14.043 16.192 13.7853C16.1884 13.5313 16.0227 13.3583 15.7687 13.3583ZM23.5577 14.2823C23.5209 14.2933 23.5098 14.2602 23.4914 14.2418C23.289 13.9915 23.0828 13.7448 22.8804 13.4908C22.862 13.5056 22.8693 13.5277 22.8693 13.5424C22.8693 13.7706 22.8693 14.0025 22.8693 14.227C22.8693 14.2565 22.8804 14.2786 22.8325 14.2786C22.7847 14.2786 22.792 14.2565 22.792 14.227C22.792 13.9326 22.792 13.6344 22.792 13.3473C22.792 13.3289 22.781 13.3068 22.8031 13.2958C22.8252 13.2847 22.8399 13.3105 22.8509 13.3252C23.0497 13.5645 23.2411 13.8037 23.4362 14.043C23.4472 14.0577 23.4583 14.0724 23.473 14.0835C23.4877 14.0688 23.4841 14.0504 23.4841 14.0356C23.4841 13.8148 23.4841 13.5939 23.4841 13.3804C23.4841 13.2994 23.4841 13.2994 23.565 13.2884C23.5577 13.6197 23.5577 13.9546 23.5577 14.2823ZM13.2031 14.297C13.1847 14.2749 13.1552 14.2749 13.1331 14.2675C13.0595 14.2381 12.9969 14.1976 12.9565 14.1313C12.9454 14.1166 12.916 14.0982 12.9454 14.0798C12.9675 14.0614 12.9933 14.0467 13.019 14.0908C13.1368 14.2565 13.4092 14.2749 13.5638 14.1792C13.6264 14.1424 13.6485 14.0798 13.6374 14.0099C13.6338 13.9436 13.5859 13.9031 13.5307 13.8773C13.4423 13.8405 13.3466 13.8258 13.2546 13.8074C13.2031 13.7964 13.1515 13.7853 13.1 13.7596C13.019 13.7264 12.9638 13.6749 12.9565 13.5829C12.9454 13.4908 12.9785 13.4099 13.0632 13.3583C13.1699 13.2921 13.2877 13.2773 13.4166 13.2921C13.516 13.3031 13.6006 13.3399 13.6595 13.4135C13.6706 13.4283 13.7074 13.443 13.6742 13.4688C13.6522 13.4872 13.6264 13.5019 13.6043 13.4651C13.5822 13.4283 13.5417 13.4025 13.5012 13.3915C13.3834 13.3546 13.2657 13.3546 13.1479 13.4025C13.1111 13.4172 13.0779 13.4393 13.0595 13.4761C13.008 13.5608 13.0411 13.6528 13.1405 13.6933C13.2436 13.7338 13.3577 13.7448 13.4607 13.7669C13.5086 13.7816 13.5528 13.789 13.5969 13.8148C13.7552 13.8957 13.7699 14.1203 13.6264 14.227C13.5785 14.2602 13.5233 14.2675 13.4755 14.297C13.3798 14.297 13.2914 14.297 13.2031 14.297ZM14.3699 14.297C14.3221 14.2786 14.2779 14.2602 14.2301 14.2344C14.1785 14.205 14.138 14.1681 14.1086 14.1203C14.0976 14.1056 14.0755 14.0872 14.1086 14.0724C14.1307 14.0614 14.1454 14.0356 14.1749 14.0761C14.2926 14.2454 14.565 14.2675 14.7123 14.1755C14.8338 14.1019 14.8264 13.9473 14.6976 13.881C14.6092 13.8332 14.5098 13.8295 14.4104 13.8074C14.3479 13.7927 14.2926 13.778 14.2338 13.7559C14.0607 13.6859 14.0828 13.454 14.1969 13.3767C14.3111 13.2957 14.4325 13.2847 14.5614 13.2958C14.6644 13.3068 14.7528 13.3436 14.819 13.4283C14.8301 13.443 14.8595 13.4504 14.8301 13.4761C14.8117 13.4908 14.7933 13.5166 14.7638 13.4798C14.6644 13.3362 14.3589 13.3546 14.2522 13.443C14.1528 13.524 14.1712 13.6528 14.289 13.7043C14.392 13.7522 14.5061 13.7559 14.6129 13.7853C14.635 13.789 14.6644 13.8 14.6865 13.8074C14.819 13.8553 14.8742 13.9252 14.8742 14.043C14.8742 14.1608 14.8117 14.2454 14.6902 14.2933C14.6681 14.3043 14.6387 14.297 14.6203 14.3227C14.543 14.297 14.4583 14.297 14.3699 14.297ZM17.0607 14.297C16.9871 14.2638 16.9061 14.2454 16.8436 14.1939C16.6926 14.0724 16.6264 13.8369 16.689 13.6307C16.7515 13.4319 16.9061 13.3105 17.1123 13.2921C17.2779 13.2773 17.4141 13.3252 17.5356 13.4319C17.5061 13.4798 17.4804 13.4798 17.4362 13.4467C17.2448 13.3031 16.9577 13.3399 16.8252 13.5277C16.6853 13.7264 16.7331 14.0246 16.9246 14.1497C17.0755 14.2491 17.289 14.2491 17.4362 14.135C17.4767 14.1019 17.5061 14.0982 17.5356 14.1497C17.4693 14.2197 17.392 14.2565 17.2963 14.2859C17.2853 14.2859 17.2779 14.2823 17.2779 14.3007C17.2043 14.297 17.1344 14.297 17.0607 14.297ZM19.4166 14.2786C19.3614 14.297 19.3282 14.2823 19.3098 14.2234C19.2951 14.1718 19.2693 14.1313 19.2472 14.0798C19.2362 14.0504 19.2178 14.043 19.1847 14.043C19.0153 14.043 18.8534 14.043 18.6841 14.043C18.6509 14.043 18.6362 14.054 18.6288 14.0798C18.6104 14.1277 18.5884 14.1718 18.5663 14.2197C18.5479 14.2749 18.5147 14.3007 18.4522 14.2823C18.5 14.1755 18.5442 14.0651 18.5957 13.9583C18.6877 13.7522 18.7834 13.5461 18.8718 13.3399C18.8865 13.3105 18.9012 13.2994 18.9344 13.2994C18.9675 13.2994 18.9822 13.3105 18.9969 13.3362C19.1331 13.6454 19.273 13.9546 19.4129 14.2638C19.4129 14.2675 19.4129 14.2712 19.4166 14.2786ZM18.9344 13.3767C18.846 13.5792 18.7614 13.7706 18.6767 13.962C18.8497 13.962 19.019 13.962 19.192 13.962C19.1074 13.7706 19.0227 13.5792 18.9344 13.3767ZM12.6031 14.2786C12.5368 14.297 12.5111 14.2749 12.489 14.216C12.4706 14.1534 12.4522 14.0798 12.4043 14.0467C12.3565 14.0135 12.2792 14.0356 12.2129 14.0356C12.0988 14.0356 11.992 14.0356 11.8816 14.0356C11.8411 14.0356 11.8153 14.0504 11.8006 14.0872C11.7859 14.1277 11.7638 14.1681 11.7491 14.2086C11.716 14.2786 11.716 14.2786 11.635 14.2749C11.7012 14.124 11.7675 13.9804 11.8374 13.8295C11.9111 13.6602 11.9884 13.4908 12.062 13.3215C12.0767 13.2921 12.0914 13.2847 12.1172 13.2884C12.1393 13.2884 12.165 13.2847 12.1798 13.3178C12.3196 13.6454 12.4632 13.9583 12.6031 14.2786ZM11.8632 13.962C12.0362 13.962 12.2055 13.962 12.3785 13.962C12.2939 13.7706 12.2092 13.5792 12.1209 13.3767C12.0325 13.5829 11.9479 13.7706 11.8632 13.962ZM19.9319 13.8221C19.9319 13.6859 19.9319 13.5497 19.9319 13.4099C19.9319 13.3767 19.9209 13.3694 19.8914 13.3694C19.7994 13.3694 19.7074 13.3694 19.6153 13.3694C19.5933 13.3694 19.5785 13.3694 19.5785 13.3362C19.5785 13.3068 19.5822 13.2994 19.6153 13.2994C19.8546 13.2994 20.0939 13.2994 20.3368 13.2994C20.3663 13.2994 20.3699 13.3031 20.3736 13.3326C20.3736 13.3657 20.3626 13.3694 20.3368 13.3694C20.2448 13.3694 20.1528 13.3694 20.0607 13.3694C20.0239 13.3694 20.0129 13.3804 20.0129 13.4172C20.0129 13.6896 20.0129 13.962 20.0129 14.2344C20.0129 14.2638 20.0239 14.2859 19.9724 14.2859C19.9246 14.2859 19.9319 14.2638 19.9356 14.2344C19.9319 14.0945 19.9319 13.9583 19.9319 13.8221ZM18.062 13.789C18.062 13.9399 18.062 14.0908 18.062 14.2381C18.062 14.2675 18.062 14.2859 18.0252 14.2859C17.9847 14.2859 17.9884 14.2675 17.9884 14.2381C17.9884 13.9436 17.9884 13.6418 17.9884 13.3473C17.9884 13.3178 17.9884 13.2994 18.0288 13.2994C18.0693 13.2994 18.0657 13.3215 18.0657 13.351C18.062 13.4945 18.062 13.6381 18.062 13.789ZM20.7859 13.789C20.7859 13.6381 20.7859 13.4872 20.7859 13.3399C20.7859 13.3105 20.7896 13.2994 20.8227 13.2994C20.8558 13.2994 20.8632 13.3105 20.8632 13.3399C20.8632 13.6418 20.8632 13.9436 20.8632 14.2454C20.8632 14.2786 20.8595 14.2859 20.8264 14.2859C20.7933 14.2859 20.7859 14.2749 20.7896 14.2454C20.7859 14.0945 20.7859 13.9399 20.7859 13.789Z" fill="black"/>
<path d="M38.368 14.14H34.72L34.048 16H32.896L35.92 7.684H37.18L40.192 16H39.04L38.368 14.14ZM38.056 13.252L36.544 9.028L35.032 13.252H38.056ZM45.9139 16L43.9219 12.58H42.6019V16H41.5099V7.636H44.2099C44.8419 7.636 45.3739 7.744 45.8059 7.96C46.2459 8.176 46.5739 8.468 46.7899 8.836C47.0059 9.204 47.1139 9.624 47.1139 10.096C47.1139 10.672 46.9459 11.18 46.6099 11.62C46.2819 12.06 45.7859 12.352 45.1219 12.496L47.2219 16H45.9139ZM42.6019 11.704H44.2099C44.8019 11.704 45.2459 11.56 45.5419 11.272C45.8379 10.976 45.9859 10.584 45.9859 10.096C45.9859 9.6 45.8379 9.216 45.5419 8.944C45.2539 8.672 44.8099 8.536 44.2099 8.536H42.6019V11.704ZM52.8907 4.696L49.6027 18.04H48.5227L51.7987 4.696H52.8907ZM61.4298 7.636L58.2738 16H57.0138L53.8578 7.636H55.0218L57.6498 14.848L60.2778 7.636H61.4298ZM67.0311 16L65.0391 12.58H63.7191V16H62.6271V7.636H65.3271C65.9591 7.636 66.4911 7.744 66.9231 7.96C67.3631 8.176 67.6911 8.468 67.9071 8.836C68.1231 9.204 68.2311 9.624 68.2311 10.096C68.2311 10.672 68.0631 11.18 67.7271 11.62C67.3991 12.06 66.9031 12.352 66.2391 12.496L68.3391 16H67.0311ZM63.7191 11.704H65.3271C65.9191 11.704 66.3631 11.56 66.6591 11.272C66.9551 10.976 67.1031 10.584 67.1031 10.096C67.1031 9.6 66.9551 9.216 66.6591 8.944C66.3711 8.672 65.9271 8.536 65.3271 8.536H63.7191V11.704Z" fill="black" fill-opacity="0.88"/>
<g clip-path="url(#clip0_305_423)">
<path d="M16.1471 44.0008L20.451 36.7666L22.5308 44.0008L20.451 51.2333L16.1471 44.0008ZM14.0493 45.1755L18.3539 52.4086L10.857 50.5391L5.44107 45.1755H14.0493ZM18.3529 35.5908L14.0493 42.825H5.44107L10.857 37.4611L18.3529 35.5908ZM24.4972 41.5389L21.8715 32.0303L12.0709 34.5786L10.6201 37.0613L7.67623 37.0408L0.502777 44.0014L7.67623 50.9604H7.67653L10.6191 50.9392L12.072 53.422L21.8715 55.9699L24.4972 46.463L23.0061 44.0008L24.4972 41.5389Z" fill="#222C37"/>
</g>
<path d="M34.492 39.636V44.928C34.492 45.672 34.672 46.224 35.032 46.584C35.4 46.944 35.908 47.124 36.556 47.124C37.196 47.124 37.696 46.944 38.056 46.584C38.424 46.224 38.608 45.672 38.608 44.928V39.636H39.7V44.916C39.7 45.612 39.56 46.2 39.28 46.68C39 47.152 38.62 47.504 38.14 47.736C37.668 47.968 37.136 48.084 36.544 48.084C35.952 48.084 35.416 47.968 34.936 47.736C34.464 47.504 34.088 47.152 33.808 46.68C33.536 46.2 33.4 45.612 33.4 44.916V39.636H34.492ZM44.7257 41.304C45.5257 41.304 46.1737 41.548 46.6697 42.036C47.1657 42.516 47.4137 43.212 47.4137 44.124V48H46.3337V44.28C46.3337 43.624 46.1697 43.124 45.8417 42.78C45.5137 42.428 45.0657 42.252 44.4977 42.252C43.9217 42.252 43.4617 42.432 43.1177 42.792C42.7817 43.152 42.6137 43.676 42.6137 44.364V48H41.5217V41.424H42.6137V42.36C42.8297 42.024 43.1217 41.764 43.4897 41.58C43.8657 41.396 44.2777 41.304 44.7257 41.304ZM49.7614 40.356C49.5534 40.356 49.3774 40.284 49.2334 40.14C49.0894 39.996 49.0174 39.82 49.0174 39.612C49.0174 39.404 49.0894 39.228 49.2334 39.084C49.3774 38.94 49.5534 38.868 49.7614 38.868C49.9614 38.868 50.1294 38.94 50.2654 39.084C50.4094 39.228 50.4814 39.404 50.4814 39.612C50.4814 39.82 50.4094 39.996 50.2654 40.14C50.1294 40.284 49.9614 40.356 49.7614 40.356ZM50.2894 41.424V48H49.1974V41.424H50.2894ZM53.4826 42.324V46.2C53.4826 46.52 53.5506 46.748 53.6866 46.884C53.8226 47.012 54.0586 47.076 54.3946 47.076H55.1986V48H54.2146C53.6066 48 53.1506 47.86 52.8466 47.58C52.5426 47.3 52.3906 46.84 52.3906 46.2V42.324H51.5386V41.424H52.3906V39.768H53.4826V41.424H55.1986V42.324H53.4826ZM62.1857 41.424L58.2257 51.096H57.0977L58.3937 47.928L55.7417 41.424H56.9537L59.0177 46.752L61.0577 41.424H62.1857ZM66.2786 41.508C66.3346 40.772 66.6186 40.196 67.1306 39.78C67.6426 39.364 68.3066 39.156 69.1226 39.156C69.6666 39.156 70.1346 39.256 70.5266 39.456C70.9266 39.648 71.2266 39.912 71.4266 40.248C71.6346 40.584 71.7386 40.964 71.7386 41.388C71.7386 41.884 71.5946 42.312 71.3066 42.672C71.0266 43.032 70.6586 43.264 70.2026 43.368V43.428C70.7226 43.556 71.1346 43.808 71.4386 44.184C71.7426 44.56 71.8946 45.052 71.8946 45.66C71.8946 46.116 71.7906 46.528 71.5826 46.896C71.3746 47.256 71.0626 47.54 70.6466 47.748C70.2306 47.956 69.7306 48.06 69.1466 48.06C68.2986 48.06 67.6026 47.84 67.0586 47.4C66.5146 46.952 66.2106 46.32 66.1466 45.504H67.2026C67.2586 45.984 67.4546 46.376 67.7906 46.68C68.1266 46.984 68.5746 47.136 69.1346 47.136C69.6946 47.136 70.1186 46.992 70.4066 46.704C70.7026 46.408 70.8506 46.028 70.8506 45.564C70.8506 44.964 70.6506 44.532 70.2506 44.268C69.8506 44.004 69.2466 43.872 68.4386 43.872H68.1626V42.96H68.4506C69.1866 42.952 69.7426 42.832 70.1186 42.6C70.4946 42.36 70.6826 41.992 70.6826 41.496C70.6826 41.072 70.5426 40.732 70.2626 40.476C69.9906 40.22 69.5986 40.092 69.0866 40.092C68.5906 40.092 68.1906 40.22 67.8866 40.476C67.5826 40.732 67.4026 41.076 67.3466 41.508H66.2786ZM76.153 39.636C77.065 39.636 77.853 39.808 78.517 40.152C79.189 40.488 79.701 40.972 80.053 41.604C80.413 42.236 80.593 42.98 80.593 43.836C80.593 44.692 80.413 45.436 80.053 46.068C79.701 46.692 79.189 47.172 78.517 47.508C77.853 47.836 77.065 48 76.153 48H73.549V39.636H76.153ZM76.153 47.1C77.233 47.1 78.057 46.816 78.625 46.248C79.193 45.672 79.477 44.868 79.477 43.836C79.477 42.796 79.189 41.984 78.613 41.4C78.045 40.816 77.225 40.524 76.153 40.524H74.641V47.1H76.153Z" fill="black" fill-opacity="0.88"/>
<defs>
<clipPath id="clip0_305_423">
<rect width="24" height="24" fill="white" transform="translate(0.5 32)"/>
</clipPath>
</defs>
</svg>
