<svg width="22" height="22" viewBox="0 0 22 22" fill="none" xmlns="http://www.w3.org/2000/svg">
<rect width="22" height="22" rx="11" fill="#C13584"/>
<path d="M4.78167 12.0501C4.78167 10.9184 5.20167 9.83341 6.04167 8.7834C6.80743 7.82184 7.78587 7.05107 8.9 6.53174L9.23834 7.23174C8.41 7.71007 7.69834 8.30507 7.10334 9.01674C6.52 9.71674 6.22834 10.4167 6.22834 11.1517C6.22834 11.2917 6.275 11.3851 6.35667 11.4667C6.45 11.5367 6.56667 11.5834 6.70667 11.5834L7.955 11.4434C8.34 11.4434 8.77167 11.5951 9.215 11.8751C9.68167 12.1551 9.915 12.6451 9.915 13.3334C9.915 13.9167 9.71667 14.4067 9.33167 14.8034C8.95834 15.2117 8.42167 15.4101 7.72167 15.4101C6.905 15.4101 6.205 15.0951 5.645 14.4767C5.06345 13.8052 4.75899 12.9377 4.79334 12.0501H4.78167Z" fill="black"/>
<path d="M11.7817 12.0501C11.7817 10.9184 12.2017 9.83341 13.0417 8.7834C13.8074 7.82184 14.7859 7.05107 15.9 6.53174L16.2383 7.23174C15.41 7.71007 14.6983 8.30507 14.1033 9.01674C13.52 9.71674 13.2283 10.4167 13.2283 11.1517C13.2283 11.2917 13.275 11.3851 13.3567 11.4667C13.45 11.5367 13.5667 11.5834 13.7067 11.5834L14.955 11.4434C15.34 11.4434 15.7717 11.5951 16.215 11.8751C16.6817 12.1551 16.915 12.6451 16.915 13.3334C16.915 13.9167 16.7167 14.4067 16.3317 14.8034C15.9583 15.2117 15.4217 15.4101 14.7217 15.4101C13.905 15.4101 13.205 15.0951 12.645 14.4767C12.0634 13.8052 11.759 12.9377 11.7933 12.0501H11.7817Z" fill="black"/>
</svg>
