<svg width="121" height="56" viewBox="0 0 121 56" fill="none" xmlns="http://www.w3.org/2000/svg">
<g clip-path="url(#clip0_305_421)">
<path d="M0 24L12.04 11.96L24 24H0Z" fill="url(#paint0_linear_305_421)"/>
<path d="M0 0H12.04L0 13V0Z" fill="url(#paint1_linear_305_421)"/>
<path d="M12.04 0L0 12.68V24L12.04 11.96L24 0H12.04Z" fill="url(#paint2_linear_305_421)"/>
</g>
<path d="M37.46 16L34.016 12.184V16H32.924V7.636H34.016V11.512L37.472 7.636H38.852L35.06 11.824L38.888 16H37.46ZM42.9756 16.108C42.3596 16.108 41.7996 15.968 41.2956 15.688C40.7996 15.408 40.4076 15.012 40.1196 14.5C39.8396 13.98 39.6996 13.38 39.6996 12.7C39.6996 12.028 39.8436 11.436 40.1316 10.924C40.4276 10.404 40.8276 10.008 41.3316 9.736C41.8356 9.456 42.3996 9.316 43.0236 9.316C43.6476 9.316 44.2116 9.456 44.7156 9.736C45.2196 10.008 45.6156 10.4 45.9036 10.912C46.1996 11.424 46.3476 12.02 46.3476 12.7C46.3476 13.38 46.1956 13.98 45.8916 14.5C45.5956 15.012 45.1916 15.408 44.6796 15.688C44.1676 15.968 43.5996 16.108 42.9756 16.108ZM42.9756 15.148C43.3676 15.148 43.7356 15.056 44.0796 14.872C44.4236 14.688 44.6996 14.412 44.9076 14.044C45.1236 13.676 45.2316 13.228 45.2316 12.7C45.2316 12.172 45.1276 11.724 44.9196 11.356C44.7116 10.988 44.4396 10.716 44.1036 10.54C43.7676 10.356 43.4036 10.264 43.0116 10.264C42.6116 10.264 42.2436 10.356 41.9076 10.54C41.5796 10.716 41.3156 10.988 41.1156 11.356C40.9156 11.724 40.8156 12.172 40.8156 12.7C40.8156 13.236 40.9116 13.688 41.1036 14.056C41.3036 14.424 41.5676 14.7 41.8956 14.884C42.2236 15.06 42.5836 15.148 42.9756 15.148ZM49.1154 10.324V14.2C49.1154 14.52 49.1834 14.748 49.3194 14.884C49.4554 15.012 49.6914 15.076 50.0274 15.076H50.8314V16H49.8474C49.2394 16 48.7834 15.86 48.4794 15.58C48.1754 15.3 48.0234 14.84 48.0234 14.2V10.324H47.1714V9.424H48.0234V7.768H49.1154V9.424H50.8314V10.324H49.1154ZM53.2465 7.12V16H52.1545V7.12H53.2465ZM55.6716 8.356C55.4636 8.356 55.2876 8.284 55.1436 8.14C54.9996 7.996 54.9276 7.82 54.9276 7.612C54.9276 7.404 54.9996 7.228 55.1436 7.084C55.2876 6.94 55.4636 6.868 55.6716 6.868C55.8716 6.868 56.0396 6.94 56.1756 7.084C56.3196 7.228 56.3916 7.404 56.3916 7.612C56.3916 7.82 56.3196 7.996 56.1756 8.14C56.0396 8.284 55.8716 8.356 55.6716 8.356ZM56.1996 9.424V16H55.1076V9.424H56.1996ZM61.2647 9.304C62.0647 9.304 62.7127 9.548 63.2087 10.036C63.7047 10.516 63.9527 11.212 63.9527 12.124V16H62.8727V12.28C62.8727 11.624 62.7087 11.124 62.3807 10.78C62.0527 10.428 61.6047 10.252 61.0367 10.252C60.4607 10.252 60.0007 10.432 59.6567 10.792C59.3207 11.152 59.1527 11.676 59.1527 12.364V16H58.0607V9.424H59.1527V10.36C59.3687 10.024 59.6607 9.764 60.0287 9.58C60.4047 9.396 60.8167 9.304 61.2647 9.304Z" fill="black" fill-opacity="0.88"/>
<g clip-path="url(#clip1_305_421)">
<path d="M11.9671 55.9998C5.51885 55.9998 0.0505579 50.5535 0.00030354 44.0644C-0.0109106 42.499 0.288704 40.947 0.881779 39.4983C1.47485 38.0496 2.34959 36.733 3.45529 35.6248C4.56825 34.4849 5.89661 33.5775 7.36321 32.9553C8.8298 32.3331 10.4054 32.0084 11.9985 32.0002C13.5628 31.9989 15.112 32.307 16.5567 32.907C18.0013 33.507 19.313 34.3869 20.4161 35.4961C21.5376 36.5893 22.4317 37.8937 23.0468 39.3341C23.6618 40.7745 23.9858 42.3224 23.9999 43.8885C24.0142 47.0746 22.7668 50.1368 20.5305 52.4062C18.2941 54.6755 15.2504 55.9675 12.0645 55.9998H11.9671ZM12.0048 32.6284C10.4951 32.6373 9.00226 32.9458 7.61281 33.5362C6.22335 34.1266 4.96498 34.9871 3.91072 36.0677C2.86206 37.1161 2.03196 38.3622 1.46853 39.7339C0.905106 41.1055 0.619571 42.5753 0.628482 44.0581C0.675596 50.208 5.85807 55.3654 11.964 55.3654H12.0456C15.0666 55.338 17.9539 54.1157 20.0763 51.9656C22.1986 49.8156 23.3834 46.9128 23.3717 43.8917C23.3576 42.4079 23.0501 40.9417 22.4668 39.5773C21.8835 38.2129 21.0361 36.9775 19.9733 35.9421C18.9304 34.89 17.689 34.0553 16.3212 33.4865C14.9533 32.9177 13.4862 32.626 12.0048 32.6284Z" fill="#F1592A"/>
<path d="M2.69208 47.51V40.4995H4.39758V41.1277H3.49301V46.8944H4.39758V47.5226L2.69208 47.51Z" fill="#F1592A"/>
<path d="M8.48058 43.9358C8.48058 45.2141 7.70478 45.9428 6.65258 45.9428C5.60038 45.9428 4.89996 45.1231 4.89996 44.0018C4.89996 42.8302 5.63493 42.0042 6.70912 42.0042C7.7833 42.0042 8.48058 42.8648 8.48058 43.9358ZM5.63493 43.9923C5.63493 44.7681 6.0244 45.3838 6.69341 45.3838C7.36242 45.3838 7.74561 44.7556 7.74561 43.9641C7.74561 43.2448 7.39069 42.5664 6.69341 42.5664C5.99614 42.5664 5.62865 43.2228 5.62865 44.008L5.63493 43.9923Z" fill="#F1592A"/>
<path d="M9.07117 42.1361C9.40518 42.0784 9.74359 42.05 10.0825 42.0513C10.4633 42.0141 10.846 42.0988 11.1756 42.2931C11.2991 42.3659 11.4009 42.4704 11.4705 42.5957C11.5401 42.7211 11.5749 42.8628 11.5713 43.0061C11.5668 43.1924 11.5037 43.3725 11.3909 43.5208C11.2781 43.6691 11.1214 43.778 10.9431 43.8322C11.1604 43.8764 11.3557 43.9943 11.496 44.1661C11.6362 44.3378 11.7128 44.5527 11.7127 44.7744C11.715 44.9246 11.6832 45.0734 11.6195 45.2094C11.5558 45.3455 11.462 45.4653 11.3452 45.5597C11.0751 45.7984 10.6259 45.9146 9.93177 45.9146C9.64622 45.916 9.36087 45.8992 9.07745 45.8643L9.07117 42.1361ZM9.76216 43.6406H10.1171C10.5976 43.6406 10.8678 43.4144 10.8678 43.0909C10.8678 42.7674 10.5976 42.5695 10.1548 42.5695C10.0222 42.565 9.88958 42.5745 9.75902 42.5978L9.76216 43.6406ZM9.76216 45.3932C9.88423 45.4058 10.0069 45.411 10.1296 45.4089C10.5757 45.4089 10.9714 45.2393 10.9714 44.7807C10.9714 44.3221 10.5882 44.1525 10.1077 44.1525H9.76216V45.3932Z" fill="#F1592A"/>
<path d="M13.0851 42.0859H13.7793V44.5641C13.7793 45.6163 13.2704 45.9681 12.5229 45.9681C12.323 45.9664 12.1246 45.9325 11.9355 45.8676L12.0204 45.3085C12.1597 45.352 12.3046 45.3753 12.4507 45.3776C12.8464 45.3776 13.0788 45.1954 13.0788 44.5358L13.0851 42.0859Z" fill="#F1592A"/>
<path d="M15.755 44.1492V44.6297H14.3102V44.1492H15.755Z" fill="#F1592A"/>
<path d="M19.1283 45.7823C18.816 45.9069 18.4811 45.9646 18.1452 45.9519C16.9359 45.9519 16.201 45.195 16.201 44.036C16.1867 43.766 16.2297 43.496 16.3273 43.2437C16.4248 42.9915 16.5746 42.7628 16.7668 42.5726C16.9591 42.3825 17.1894 42.2351 17.4427 42.1403C17.696 42.0456 17.9664 42.0055 18.2363 42.0227C18.559 42.0093 18.8807 42.0672 19.1785 42.1923L19.0246 42.7451C18.7884 42.6445 18.5338 42.5943 18.2771 42.5975C17.5013 42.5975 16.9422 43.0843 16.9422 44.0015C16.9422 44.8369 17.4354 45.3772 18.2708 45.3772C18.53 45.3809 18.7874 45.3329 19.0278 45.2358L19.1283 45.7823Z" fill="#F1592A"/>
<path d="M21.308 40.4807V47.51H19.6025V46.8819H20.5071V41.1089H19.6025V40.4807H21.308Z" fill="#F1592A"/>
</g>
<path d="M36.716 48.084C35.94 48.084 35.232 47.904 34.592 47.544C33.952 47.176 33.444 46.668 33.068 46.02C32.7 45.364 32.516 44.628 32.516 43.812C32.516 42.996 32.7 42.264 33.068 41.616C33.444 40.96 33.952 40.452 34.592 40.092C35.232 39.724 35.94 39.54 36.716 39.54C37.5 39.54 38.212 39.724 38.852 40.092C39.492 40.452 39.996 40.956 40.364 41.604C40.732 42.252 40.916 42.988 40.916 43.812C40.916 44.636 40.732 45.372 40.364 46.02C39.996 46.668 39.492 47.176 38.852 47.544C38.212 47.904 37.5 48.084 36.716 48.084ZM36.716 47.136C37.3 47.136 37.824 47 38.288 46.728C38.76 46.456 39.128 46.068 39.392 45.564C39.664 45.06 39.8 44.476 39.8 43.812C39.8 43.14 39.664 42.556 39.392 42.06C39.128 41.556 38.764 41.168 38.3 40.896C37.836 40.624 37.308 40.488 36.716 40.488C36.124 40.488 35.596 40.624 35.132 40.896C34.668 41.168 34.3 41.556 34.028 42.06C33.764 42.556 33.632 43.14 33.632 43.812C33.632 44.476 33.764 45.06 34.028 45.564C34.3 46.068 34.668 46.456 35.132 46.728C35.604 47 36.132 47.136 36.716 47.136ZM43.4496 42.648C43.6736 42.256 44.0016 41.936 44.4336 41.688C44.8656 41.44 45.3576 41.316 45.9096 41.316C46.5016 41.316 47.0336 41.456 47.5056 41.736C47.9776 42.016 48.3496 42.412 48.6216 42.924C48.8936 43.428 49.0296 44.016 49.0296 44.688C49.0296 45.352 48.8936 45.944 48.6216 46.464C48.3496 46.984 47.9736 47.388 47.4936 47.676C47.0216 47.964 46.4936 48.108 45.9096 48.108C45.3416 48.108 44.8416 47.984 44.4096 47.736C43.9856 47.488 43.6656 47.172 43.4496 46.788V48H42.3576V39.12H43.4496V42.648ZM47.9136 44.688C47.9136 44.192 47.8136 43.76 47.6136 43.392C47.4136 43.024 47.1416 42.744 46.7976 42.552C46.4616 42.36 46.0896 42.264 45.6816 42.264C45.2816 42.264 44.9096 42.364 44.5656 42.564C44.2296 42.756 43.9576 43.04 43.7496 43.416C43.5496 43.784 43.4496 44.212 43.4496 44.7C43.4496 45.196 43.5496 45.632 43.7496 46.008C43.9576 46.376 44.2296 46.66 44.5656 46.86C44.9096 47.052 45.2816 47.148 45.6816 47.148C46.0896 47.148 46.4616 47.052 46.7976 46.86C47.1416 46.66 47.4136 46.376 47.6136 46.008C47.8136 45.632 47.9136 45.192 47.9136 44.688ZM51.055 40.356C50.847 40.356 50.671 40.284 50.527 40.14C50.391 39.996 50.323 39.82 50.323 39.612C50.323 39.404 50.391 39.228 50.527 39.084C50.671 38.94 50.847 38.868 51.055 38.868C51.263 38.868 51.435 38.94 51.571 39.084C51.715 39.228 51.787 39.404 51.787 39.612C51.787 39.82 51.715 39.996 51.571 40.14C51.435 40.284 51.263 40.356 51.055 40.356ZM51.595 49.428C51.595 50.012 51.447 50.44 51.151 50.712C50.855 50.984 50.423 51.12 49.855 51.12H49.219V50.196H49.675C49.979 50.196 50.191 50.136 50.311 50.016C50.439 49.896 50.503 49.692 50.503 49.404V41.424H51.595V49.428ZM59.4435 44.46C59.4435 44.668 59.4315 44.888 59.4075 45.12H54.1515C54.1915 45.768 54.4115 46.276 54.8115 46.644C55.2195 47.004 55.7115 47.184 56.2875 47.184C56.7595 47.184 57.1515 47.076 57.4635 46.86C57.7835 46.636 58.0075 46.34 58.1355 45.972H59.3115C59.1355 46.604 58.7835 47.12 58.2555 47.52C57.7275 47.912 57.0715 48.108 56.2875 48.108C55.6635 48.108 55.1035 47.968 54.6075 47.688C54.1195 47.408 53.7355 47.012 53.4555 46.5C53.1755 45.98 53.0355 45.38 53.0355 44.7C53.0355 44.02 53.1715 43.424 53.4435 42.912C53.7155 42.4 54.0955 42.008 54.5835 41.736C55.0795 41.456 55.6475 41.316 56.2875 41.316C56.9115 41.316 57.4635 41.452 57.9435 41.724C58.4235 41.996 58.7915 42.372 59.0475 42.852C59.3115 43.324 59.4435 43.86 59.4435 44.46ZM58.3155 44.232C58.3155 43.816 58.2235 43.46 58.0395 43.164C57.8555 42.86 57.6035 42.632 57.2835 42.48C56.9715 42.32 56.6235 42.24 56.2395 42.24C55.6875 42.24 55.2155 42.416 54.8235 42.768C54.4395 43.12 54.2195 43.608 54.1635 44.232H58.3155ZM60.4769 44.7C60.4769 44.02 60.6129 43.428 60.8849 42.924C61.1569 42.412 61.5329 42.016 62.0129 41.736C62.5009 41.456 63.0569 41.316 63.6809 41.316C64.4889 41.316 65.1529 41.512 65.6729 41.904C66.2009 42.296 66.5489 42.84 66.7169 43.536H65.5409C65.4289 43.136 65.2089 42.82 64.8809 42.588C64.5609 42.356 64.1609 42.24 63.6809 42.24C63.0569 42.24 62.5529 42.456 62.1689 42.888C61.7849 43.312 61.5929 43.916 61.5929 44.7C61.5929 45.492 61.7849 46.104 62.1689 46.536C62.5529 46.968 63.0569 47.184 63.6809 47.184C64.1609 47.184 64.5609 47.072 64.8809 46.848C65.2009 46.624 65.4209 46.304 65.5409 45.888H66.7169C66.5409 46.56 66.1889 47.1 65.6609 47.508C65.1329 47.908 64.4729 48.108 63.6809 48.108C63.0569 48.108 62.5009 47.968 62.0129 47.688C61.5329 47.408 61.1569 47.012 60.8849 46.5C60.6129 45.988 60.4769 45.388 60.4769 44.7ZM69.506 42.324V46.2C69.506 46.52 69.574 46.748 69.71 46.884C69.846 47.012 70.082 47.076 70.418 47.076H71.222V48H70.238C69.63 48 69.174 47.86 68.87 47.58C68.566 47.3 68.414 46.84 68.414 46.2V42.324H67.562V41.424H68.414V39.768H69.506V41.424H71.222V42.324H69.506ZM73.1091 40.356C72.9011 40.356 72.7251 40.284 72.5811 40.14C72.4371 39.996 72.3651 39.82 72.3651 39.612C72.3651 39.404 72.4371 39.228 72.5811 39.084C72.7251 38.94 72.9011 38.868 73.1091 38.868C73.3091 38.868 73.4771 38.94 73.6131 39.084C73.7571 39.228 73.8291 39.404 73.8291 39.612C73.8291 39.82 73.7571 39.996 73.6131 40.14C73.4771 40.284 73.3091 40.356 73.1091 40.356ZM73.6371 41.424V48H72.5451V41.424H73.6371ZM77.9462 46.992L79.9862 41.424H81.1502L78.5702 48H77.2982L74.7182 41.424H75.8942L77.9462 46.992ZM88.2248 44.46C88.2248 44.668 88.2128 44.888 88.1888 45.12H82.9328C82.9728 45.768 83.1928 46.276 83.5928 46.644C84.0008 47.004 84.4928 47.184 85.0688 47.184C85.5408 47.184 85.9328 47.076 86.2448 46.86C86.5648 46.636 86.7888 46.34 86.9168 45.972H88.0928C87.9168 46.604 87.5648 47.12 87.0368 47.52C86.5088 47.912 85.8528 48.108 85.0688 48.108C84.4448 48.108 83.8848 47.968 83.3888 47.688C82.9008 47.408 82.5168 47.012 82.2368 46.5C81.9568 45.98 81.8168 45.38 81.8168 44.7C81.8168 44.02 81.9528 43.424 82.2248 42.912C82.4968 42.4 82.8768 42.008 83.3648 41.736C83.8608 41.456 84.4288 41.316 85.0688 41.316C85.6928 41.316 86.2448 41.452 86.7248 41.724C87.2048 41.996 87.5728 42.372 87.8288 42.852C88.0928 43.324 88.2248 43.86 88.2248 44.46ZM87.0968 44.232C87.0968 43.816 87.0048 43.46 86.8208 43.164C86.6368 42.86 86.3848 42.632 86.0648 42.48C85.7528 42.32 85.4048 42.24 85.0208 42.24C84.4688 42.24 83.9968 42.416 83.6048 42.768C83.2208 43.12 83.0008 43.608 82.9448 44.232H87.0968ZM94.2262 43.14V44.064H89.4382V43.14H94.2262ZM95.8676 43.812C95.8676 42.996 96.0516 42.264 96.4196 41.616C96.7876 40.96 97.2876 40.448 97.9196 40.08C98.5596 39.712 99.2676 39.528 100.044 39.528C100.956 39.528 101.752 39.748 102.432 40.188C103.112 40.628 103.608 41.252 103.92 42.06H102.612C102.38 41.556 102.044 41.168 101.604 40.896C101.172 40.624 100.652 40.488 100.044 40.488C99.4596 40.488 98.9356 40.624 98.4716 40.896C98.0076 41.168 97.6436 41.556 97.3796 42.06C97.1156 42.556 96.9836 43.14 96.9836 43.812C96.9836 44.476 97.1156 45.06 97.3796 45.564C97.6436 46.06 98.0076 46.444 98.4716 46.716C98.9356 46.988 99.4596 47.124 100.044 47.124C100.652 47.124 101.172 46.992 101.604 46.728C102.044 46.456 102.38 46.068 102.612 45.564H103.92C103.608 46.364 103.112 46.984 102.432 47.424C101.752 47.856 100.956 48.072 100.044 48.072C99.2676 48.072 98.5596 47.892 97.9196 47.532C97.2876 47.164 96.7876 46.656 96.4196 46.008C96.0516 45.36 95.8676 44.628 95.8676 43.812Z" fill="black" fill-opacity="0.88"/>
<defs>
<linearGradient id="paint0_linear_305_421" x1="6.38376" y1="29.6057" x2="17.7227" y2="18.2667" gradientUnits="userSpaceOnUse">
<stop offset="0.09677" stop-color="#0095D5"/>
<stop offset="0.3007" stop-color="#238AD9"/>
<stop offset="0.6211" stop-color="#557BDE"/>
<stop offset="0.8643" stop-color="#7472E2"/>
<stop offset="1" stop-color="#806EE3"/>
</linearGradient>
<linearGradient id="paint1_linear_305_421" x1="1.68368" y1="4.82364" x2="8.26936" y2="-1.762" gradientUnits="userSpaceOnUse">
<stop offset="0.1183" stop-color="#0095D5"/>
<stop offset="0.4178" stop-color="#3C83DC"/>
<stop offset="0.6962" stop-color="#6D74E1"/>
<stop offset="0.8333" stop-color="#806EE3"/>
</linearGradient>
<linearGradient id="paint2_linear_305_421" x1="-4.04068" y1="22.0655" x2="18.2926" y2="-0.26776" gradientUnits="userSpaceOnUse">
<stop offset="0.1075" stop-color="#C757BC"/>
<stop offset="0.2138" stop-color="#D0609A"/>
<stop offset="0.4254" stop-color="#E1725C"/>
<stop offset="0.6048" stop-color="#EE7E2F"/>
<stop offset="0.743" stop-color="#F58613"/>
<stop offset="0.8232" stop-color="#F88909"/>
</linearGradient>
<clipPath id="clip0_305_421">
<rect width="24" height="24" fill="white"/>
</clipPath>
<clipPath id="clip1_305_421">
<rect width="24" height="24" fill="white" transform="translate(0 32)"/>
</clipPath>
</defs>
</svg>
