<svg width="121" height="25" viewBox="0 0 121 25" fill="none" xmlns="http://www.w3.org/2000/svg">
<g clip-path="url(#clip0_302_389)">
<path d="M6.00002 16.195L2.30402 12.499L14.305 0.5H21.696L6.00002 16.195ZM21.695 11.573H14.304L11.536 14.341L15.232 18.037L21.695 11.573Z" fill="#42A5F5" fill-opacity="0.8"/>
<path d="M11.536 21.732L14.305 24.5H21.696L15.233 18.037L11.536 21.732Z" fill="#0D47A1"/>
<path d="M7.84902 18.039L11.539 14.348L15.229 18.038L11.539 21.729L7.84902 18.039Z" fill="#42A5F5"/>
<path d="M11.539 21.729L15.229 18.039L15.744 18.554L12.054 22.244L11.539 21.729Z" fill="url(#paint0_linear_302_389)"/>
<path d="M11.536 21.732L17.019 19.838L15.231 18.037L11.536 21.732Z" fill="url(#paint1_linear_302_389)"/>
</g>
<path d="M37.652 8.136V9.024H34.016V11.844H36.968V12.732H34.016V16.5H32.924V8.136H37.652ZM40.0629 7.62V16.5H38.9709V7.62H40.0629ZM47.756 9.924V16.5H46.664V15.528C46.456 15.864 46.164 16.128 45.788 16.32C45.42 16.504 45.012 16.596 44.564 16.596C44.052 16.596 43.592 16.492 43.184 16.284C42.776 16.068 42.452 15.748 42.212 15.324C41.98 14.9 41.864 14.384 41.864 13.776V9.924H42.944V13.632C42.944 14.28 43.108 14.78 43.436 15.132C43.764 15.476 44.212 15.648 44.78 15.648C45.364 15.648 45.824 15.468 46.16 15.108C46.496 14.748 46.664 14.224 46.664 13.536V9.924H47.756ZM50.9318 10.824V14.7C50.9318 15.02 50.9998 15.248 51.1358 15.384C51.2718 15.512 51.5078 15.576 51.8438 15.576H52.6478V16.5H51.6638C51.0558 16.5 50.5998 16.36 50.2958 16.08C49.9918 15.8 49.8398 15.34 49.8398 14.7V10.824H48.9878V9.924H49.8398V8.268H50.9318V9.924H52.6478V10.824H50.9318ZM55.3029 10.824V14.7C55.3029 15.02 55.3709 15.248 55.5069 15.384C55.6429 15.512 55.8789 15.576 56.2149 15.576H57.0189V16.5H56.0349C55.4269 16.5 54.9709 16.36 54.6669 16.08C54.3629 15.8 54.2109 15.34 54.2109 14.7V10.824H53.3589V9.924H54.2109V8.268H55.3029V9.924H57.0189V10.824H55.3029ZM64.342 12.96C64.342 13.168 64.33 13.388 64.306 13.62H59.05C59.09 14.268 59.31 14.776 59.71 15.144C60.118 15.504 60.61 15.684 61.186 15.684C61.658 15.684 62.05 15.576 62.362 15.36C62.682 15.136 62.906 14.84 63.034 14.472H64.21C64.034 15.104 63.682 15.62 63.154 16.02C62.626 16.412 61.97 16.608 61.186 16.608C60.562 16.608 60.002 16.468 59.506 16.188C59.018 15.908 58.634 15.512 58.354 15C58.074 14.48 57.934 13.88 57.934 13.2C57.934 12.52 58.07 11.924 58.342 11.412C58.614 10.9 58.994 10.508 59.482 10.236C59.978 9.956 60.546 9.816 61.186 9.816C61.81 9.816 62.362 9.952 62.842 10.224C63.322 10.496 63.69 10.872 63.946 11.352C64.21 11.824 64.342 12.36 64.342 12.96ZM63.214 12.732C63.214 12.316 63.122 11.96 62.938 11.664C62.754 11.36 62.502 11.132 62.182 10.98C61.87 10.82 61.522 10.74 61.138 10.74C60.586 10.74 60.114 10.916 59.722 11.268C59.338 11.62 59.118 12.108 59.062 12.732H63.214ZM66.8754 10.992C67.0674 10.616 67.3394 10.324 67.6914 10.116C68.0514 9.908 68.4874 9.804 68.9994 9.804V10.932H68.7114C67.4874 10.932 66.8754 11.596 66.8754 12.924V16.5H65.7834V9.924H66.8754V10.992Z" fill="black" fill-opacity="0.88"/>
<defs>
<linearGradient id="paint0_linear_302_389" x1="10.6107" y1="10.9211" x2="13.5739" y2="13.3154" gradientUnits="userSpaceOnUse">
<stop offset="0.2" stop-opacity="0.15"/>
<stop offset="0.85" stop-color="#616161" stop-opacity="0.01"/>
</linearGradient>
<linearGradient id="paint1_linear_302_389" x1="11.8263" y1="20.0467" x2="16.9139" y2="20.0467" gradientUnits="userSpaceOnUse">
<stop offset="0.2" stop-opacity="0.55"/>
<stop offset="0.85" stop-color="#616161" stop-opacity="0.01"/>
</linearGradient>
<clipPath id="clip0_302_389">
<rect width="24" height="24" fill="white" transform="translate(0 0.5)"/>
</clipPath>
</defs>
</svg>
