<svg width="297" height="122" viewBox="0 0 297 122" fill="none" xmlns="http://www.w3.org/2000/svg">
<path d="M49.0016 88.1248C45.3768 88.2421 42.1045 87.7076 39.1846 86.5215C36.263 85.282 33.9131 83.5704 32.1349 81.3868C30.41 79.2014 29.4236 76.752 29.1757 74.0386L40.4498 73.6738C40.7182 75.3727 41.5901 76.7585 43.0656 77.8314C44.5944 78.9025 46.4515 79.4027 48.637 79.332C50.7693 79.263 52.4079 78.7831 53.553 77.8922C54.7515 76.9997 55.3291 75.8871 55.286 74.5544C55.2394 73.1152 54.4587 72.0732 52.9437 71.4286C51.4803 70.7288 49.1356 70.0043 45.9097 69.2549C42.5789 68.5623 39.8336 67.824 37.6738 67.0401C35.5672 66.2545 33.7126 65.0072 32.1098 63.2981C30.5603 61.5873 29.7373 59.2394 29.6407 56.2543C29.5614 53.8022 30.1819 51.541 31.5023 49.4705C32.876 47.3984 34.8498 45.7336 37.4239 44.4764C40.0512 43.2174 43.1506 42.5302 46.722 42.4146C51.9993 42.2438 56.2535 43.4402 59.4848 46.0037C62.7143 48.5139 64.5615 52.0026 65.0262 56.47L54.3118 56.8167C54.095 55.0628 53.3039 53.701 51.9384 52.7313C50.6246 51.7066 48.8749 51.2296 46.6894 51.3003C44.6638 51.3658 43.1034 51.7899 42.0081 52.5724C40.9661 53.3531 40.4667 54.4098 40.5099 55.7425C40.5582 57.235 41.3415 58.357 42.8599 59.1082C44.3766 59.8062 46.7204 60.5041 49.8913 61.2019C53.1155 61.898 55.7809 62.6389 57.8874 63.4245C59.9939 64.2101 61.8228 65.485 63.374 67.249C64.9767 68.9581 65.8522 71.2776 66.0004 74.2077C66.0832 76.7664 65.4377 79.0818 64.064 81.154C62.7436 83.2244 60.7698 84.8891 58.1425 86.1481C55.5667 87.352 52.5198 88.0109 49.0016 88.1248Z" fill="url(#paint0_linear_1_42)"/>
<path d="M96.6922 40.8776C100.05 40.769 103.06 41.4187 105.72 42.8267C108.379 44.1814 110.474 46.2747 112.006 49.1067C113.59 51.8835 114.447 55.2709 114.576 59.2689L115.417 85.2552L104.223 85.6175L103.431 61.1503C103.318 57.6321 102.351 54.9687 100.531 53.1599C98.7103 51.2978 96.2805 50.416 93.2421 50.5143C90.1504 50.6143 87.7294 51.6532 85.9791 53.6308C84.2804 55.5534 83.488 58.2738 83.6018 61.792L84.3935 86.2592L73.1994 86.6214L71.2847 27.4524L82.4789 27.0901L83.1387 47.4795C84.5158 45.5139 86.3865 43.9592 88.7507 42.8155C91.1133 41.6185 93.7604 40.9725 96.6922 40.8776Z" fill="url(#paint1_linear_1_42)"/>
<path d="M120.063 62.7732C119.918 58.2956 120.669 54.2959 122.316 50.7741C124.017 47.2506 126.356 44.5068 129.334 42.5428C132.365 40.5771 135.773 39.533 139.558 39.4105C142.863 39.3036 145.763 39.8767 148.258 41.13C150.806 42.3816 152.86 43.996 154.418 45.9733L154.213 39.6566L165.488 39.2918L166.921 83.5886L155.647 83.9535L155.437 77.4768C154.065 79.6023 152.122 81.3994 149.609 82.8682C147.146 84.2819 144.263 85.0422 140.958 85.1492C137.226 85.2699 133.784 84.4208 130.63 82.6018C127.53 80.7812 125.017 78.1677 123.093 74.7615C121.22 71.3003 120.21 67.3042 120.063 62.7732ZM154.93 61.805C154.842 59.0865 154.234 56.7849 153.106 54.9004C151.976 52.9626 150.488 51.5166 148.643 50.5625C146.796 49.555 144.833 49.0849 142.755 49.1522C140.676 49.2195 138.773 49.788 137.047 50.8577C135.32 51.9274 133.929 53.4666 132.874 55.4751C131.87 57.4286 131.411 59.738 131.497 62.4032C131.584 65.0685 132.192 67.3967 133.324 69.3878C134.507 71.3239 135.996 72.7965 137.789 73.8057C139.636 74.8132 141.572 75.2841 143.598 75.2186C145.677 75.1513 147.606 74.5819 149.386 73.5105C151.164 72.3857 152.555 70.8466 153.559 68.8931C154.561 66.8863 155.018 64.5236 154.93 61.805Z" fill="url(#paint2_linear_1_42)"/>
<path d="M185.423 45.0501C186.797 42.9779 188.715 41.2349 191.177 39.8212C193.691 38.3525 196.573 37.5655 199.825 37.4603C203.61 37.3378 207.051 38.1603 210.15 39.9277C213.302 41.6933 215.814 44.2801 217.685 47.688C219.608 51.0409 220.643 54.9828 220.789 59.5138C220.936 64.0448 220.16 68.0987 218.461 71.6755C216.814 75.1972 214.476 77.9676 211.447 79.9867C208.47 82.004 205.09 83.0739 201.305 83.1964C198.053 83.3016 195.153 82.7284 192.605 81.4768C190.11 80.2236 188.056 78.6091 186.445 76.6335L187.332 104.059L176.138 104.421L174.022 39.0157L185.216 38.6534L185.423 45.0501ZM209.355 59.8838C209.269 57.2185 208.635 54.9445 207.454 53.0617C206.324 51.1239 204.836 49.678 202.991 48.7238C201.199 47.7679 199.264 47.3236 197.185 47.3909C195.159 47.4564 193.257 48.0516 191.48 49.1763C189.753 50.2461 188.362 51.7852 187.307 53.7937C186.304 55.8005 185.846 58.1366 185.933 60.8018C186.019 63.4671 186.627 65.7686 187.757 67.7064C188.94 69.6425 190.429 71.1151 192.222 72.1243C194.067 73.0785 196.003 73.5228 198.028 73.4572C200.107 73.39 202.009 72.7948 203.734 71.6718C205.511 70.547 206.902 68.9813 207.904 66.9745C208.959 64.9659 209.443 62.6024 209.355 59.8838Z" fill="url(#paint3_linear_1_42)"/>
<path d="M267.678 57.1961C267.729 58.7953 267.669 60.238 267.497 61.5242L235.114 62.5721C235.484 65.7618 236.685 68.2309 238.716 69.9795C240.747 71.7281 243.202 72.5558 246.08 72.4626C250.238 72.3281 253.139 70.4466 254.782 66.8182L266.856 66.4275C265.714 70.7334 263.376 74.3309 259.841 77.2201C256.304 80.0559 251.897 81.5592 246.62 81.73C242.356 81.868 238.487 81.0593 235.016 79.3041C231.595 77.4937 228.869 74.8872 226.838 71.4844C224.861 68.0799 223.798 64.1122 223.652 59.5813C223.503 54.997 224.306 50.9423 226.06 47.417C227.813 43.8918 230.339 41.142 233.637 39.1677C236.935 37.1933 240.769 36.1354 245.14 35.9939C249.351 35.8577 253.139 36.6423 256.502 38.3477C259.919 40.0514 262.588 42.5531 264.509 45.8527C266.482 49.0972 267.538 52.8784 267.678 57.1961ZM255.98 54.373C255.834 51.4962 254.72 49.2377 252.639 47.5975C250.557 45.9039 248.05 45.1046 245.118 45.1995C242.346 45.2892 240.028 46.218 238.164 47.9858C236.352 49.6987 235.281 52.0545 234.951 55.0534L255.98 54.373Z" fill="url(#paint4_linear_1_42)"/>
<path fill-rule="evenodd" clip-rule="evenodd" d="M286.936 12.6309C289.998 12.5173 292.526 10.085 292.697 6.96421C292.879 3.6555 290.344 0.825803 287.035 0.64391C283.727 0.462017 280.897 2.99681 280.715 6.30552C280.71 6.40834 280.706 6.5107 280.706 6.61254L12.8095 15.2815C12.8109 12.1175 10.3362 9.46894 7.13872 9.29316C3.83001 9.11127 1.00031 11.6461 0.818422 14.9548C0.636529 18.2635 3.17132 21.0932 6.48003 21.2751C6.65029 21.2844 6.81928 21.2866 6.9867 21.2818L9.84605 109.644C6.88816 109.868 4.48299 112.256 4.31576 115.298C4.13387 118.607 6.66866 121.436 9.97737 121.618C13.2861 121.8 16.1158 119.265 16.2977 115.957C16.3113 115.708 16.3097 115.463 16.2936 115.221L284.285 106.549C284.558 109.457 286.924 111.805 289.929 111.971C293.238 112.152 296.067 109.618 296.249 106.309C296.431 103 293.896 100.171 290.588 99.9887C290.309 99.9733 290.033 99.9773 289.763 99.9994L286.936 12.6309ZM281.899 11.5766L11.9579 20.3116L14.8687 110.265L284.81 101.529L281.899 11.5766Z" fill="url(#paint5_linear_1_42)"/>
<defs>
<linearGradient id="paint0_linear_1_42" x1="109.542" y1="-4.3464" x2="110.691" y2="136.32" gradientUnits="userSpaceOnUse">
<stop stop-color="#5851DB" stop-opacity="0.97"/>
<stop offset="0.230762" stop-color="#833AB4" stop-opacity="0.92"/>
<stop offset="0.530082" stop-color="#C13584"/>
<stop offset="0.78125" stop-color="#E1306C"/>
<stop offset="1" stop-color="#FD1D1D"/>
</linearGradient>
<linearGradient id="paint1_linear_1_42" x1="109.542" y1="-4.3464" x2="110.691" y2="136.32" gradientUnits="userSpaceOnUse">
<stop stop-color="#5851DB" stop-opacity="0.97"/>
<stop offset="0.230762" stop-color="#833AB4" stop-opacity="0.92"/>
<stop offset="0.530082" stop-color="#C13584"/>
<stop offset="0.78125" stop-color="#E1306C"/>
<stop offset="1" stop-color="#FD1D1D"/>
</linearGradient>
<linearGradient id="paint2_linear_1_42" x1="109.542" y1="-4.3464" x2="110.691" y2="136.32" gradientUnits="userSpaceOnUse">
<stop stop-color="#5851DB" stop-opacity="0.97"/>
<stop offset="0.230762" stop-color="#833AB4" stop-opacity="0.92"/>
<stop offset="0.530082" stop-color="#C13584"/>
<stop offset="0.78125" stop-color="#E1306C"/>
<stop offset="1" stop-color="#FD1D1D"/>
</linearGradient>
<linearGradient id="paint3_linear_1_42" x1="109.542" y1="-4.3464" x2="110.691" y2="136.32" gradientUnits="userSpaceOnUse">
<stop stop-color="#5851DB" stop-opacity="0.97"/>
<stop offset="0.230762" stop-color="#833AB4" stop-opacity="0.92"/>
<stop offset="0.530082" stop-color="#C13584"/>
<stop offset="0.78125" stop-color="#E1306C"/>
<stop offset="1" stop-color="#FD1D1D"/>
</linearGradient>
<linearGradient id="paint4_linear_1_42" x1="109.542" y1="-4.3464" x2="110.691" y2="136.32" gradientUnits="userSpaceOnUse">
<stop stop-color="#5851DB" stop-opacity="0.97"/>
<stop offset="0.230762" stop-color="#833AB4" stop-opacity="0.92"/>
<stop offset="0.530082" stop-color="#C13584"/>
<stop offset="0.78125" stop-color="#E1306C"/>
<stop offset="1" stop-color="#FD1D1D"/>
</linearGradient>
<linearGradient id="paint5_linear_1_42" x1="109.542" y1="-4.3464" x2="110.691" y2="136.32" gradientUnits="userSpaceOnUse">
<stop stop-color="#5851DB" stop-opacity="0.97"/>
<stop offset="0.230762" stop-color="#833AB4" stop-opacity="0.92"/>
<stop offset="0.530082" stop-color="#C13584"/>
<stop offset="0.78125" stop-color="#E1306C"/>
<stop offset="1" stop-color="#FD1D1D"/>
</linearGradient>
</defs>
</svg>
