<svg width="337" height="408" viewBox="0 0 337 408" fill="none" xmlns="http://www.w3.org/2000/svg">
<g clip-path="url(#clip0_54_20)">
<path d="M10.98 257.53C10.7928 257.713 10.6643 257.948 10.6109 258.205C10.5575 258.461 10.5815 258.727 10.68 258.97C14.43 268.2 19.68 275.92 26.28 281.92C28.38 283.82 30.62 284.98 33.35 285.57L34.52 285.82C36.2232 286.198 37.9874 286.209 39.6948 285.85C41.4021 285.491 43.0131 284.772 44.42 283.74C46.7094 282.086 48.2912 279.629 48.85 276.86C49.71 272.84 48.25 268.56 45.08 265.58C47.0764 264.914 48.8685 263.747 50.2849 262.191C51.7014 260.634 52.6947 258.74 53.17 256.69C53.5118 255.145 53.5181 253.545 53.1886 251.998C52.8591 250.45 52.2015 248.992 51.26 247.72C49.4665 245.181 46.7747 243.419 43.73 242.79L42.55 242.54C39.9166 241.954 37.1725 242.107 34.62 242.98C26.14 245.75 18.18 250.65 10.98 257.53Z" fill="white" stroke="white"/>
<path d="M222.954 297.087L181.201 307.366C176.911 308.422 174.289 312.756 175.345 317.046L180.365 337.438C181.421 341.728 185.755 344.349 190.046 343.293L231.799 333.015C236.089 331.958 238.711 327.624 237.655 323.334L232.635 302.943C231.579 298.653 227.245 296.031 222.954 297.087Z" fill="white" stroke="white"/>
<path d="M176.1 311.71C176.1 311.71 202.6 325.27 207.46 324.07C212.31 322.87 228.89 298.2 228.89 298.2" stroke="white"/>
<path d="M83.2238 364.236L111.559 396.58C114.47 399.904 119.524 400.237 122.848 397.326L138.644 383.488C141.967 380.577 142.301 375.522 139.39 372.199L111.055 339.855C108.143 336.532 103.089 336.198 99.7655 339.109L83.9696 352.947C80.6463 355.859 80.3123 360.913 83.2238 364.236Z" fill="white" stroke="white"/>
<path d="M117.76 399.11C117.76 399.11 117.6 369.34 114.3 365.58C111 361.82 81.4701 358.45 81.4701 358.45" stroke="white"/>
<path d="M330.054 13.2408L288.609 1.77852C284.351 0.60076 279.944 3.09812 278.766 7.35653L273.169 27.5967C271.991 31.8551 274.488 36.262 278.747 37.4397L320.191 48.9021C324.449 50.0798 328.856 47.5825 330.034 43.3241L335.632 23.0839C336.809 18.8255 334.312 14.4186 330.054 13.2408Z" fill="white" stroke="white"/>
<path d="M282.02 3.07031C282.02 3.07031 298.52 27.8703 303.33 29.2003C308.15 30.5303 334.69 17.1203 334.69 17.1203" stroke="white"/>
<path d="M314.642 279.589L295.813 240.931C293.878 236.959 289.09 235.307 285.117 237.242L266.238 246.438C262.266 248.373 260.614 253.161 262.549 257.133L281.379 295.791C283.313 299.763 288.102 301.415 292.074 299.48L310.954 290.284C314.926 288.35 316.577 283.561 314.642 279.589Z" fill="white" stroke="white"/>
<path d="M290.49 236.86C290.49 236.86 282.81 265.62 284.99 270.12C287.19 274.62 314.79 285.64 314.79 285.64" stroke="white"/>
</g>
<g clip-path="url(#clip1_54_20)">
<path d="M116.479 128.775C116.733 128.703 116.959 128.556 117.128 128.354C117.298 128.152 117.403 127.904 117.43 127.641C118.437 117.73 117.426 108.449 114.413 100.045C113.536 97.4902 111.969 95.2272 109.887 93.5066L108.968 92.7352C107.641 91.6044 106.088 90.7699 104.413 90.2872C102.738 89.8046 100.979 89.6851 99.2539 89.9366C96.4486 90.324 93.9792 91.7113 92.1151 93.9328C89.4655 97.0748 88.7488 101.538 90.1457 105.661C88.0697 105.31 85.9385 105.499 83.9561 106.208C81.9737 106.917 80.2065 108.123 78.8237 109.711C77.7981 110.913 77.0422 112.322 76.607 113.842C76.1719 115.361 76.0675 116.957 76.3009 118.52C76.6916 121.608 78.2431 124.431 80.6402 126.417L81.5595 127.188C83.6891 128.975 85.9824 130.038 88.7643 130.518C97.5579 132.049 106.876 131.461 116.471 128.769L116.479 128.775Z" fill="white" stroke="white"/>
</g>
<g clip-path="url(#clip2_54_20)">
<path d="M251.918 148.079C251.945 148.341 252.05 148.589 252.22 148.791C252.389 148.993 252.616 149.14 252.869 149.212C262.456 151.925 271.771 152.541 280.57 151.032C283.239 150.613 285.739 149.463 287.795 147.711L288.715 146.94C290.059 145.829 291.15 144.445 291.916 142.879C292.683 141.313 293.106 139.602 293.158 137.86C293.263 135.03 292.326 132.357 290.462 130.135C287.828 126.98 283.556 125.499 279.254 126.159C279.959 124.176 280.144 122.044 279.79 119.969C279.436 117.893 278.555 115.943 277.232 114.306C276.225 113.087 274.969 112.098 273.548 111.406C272.127 110.713 270.574 110.333 268.994 110.292C265.885 110.14 262.835 111.178 260.464 113.194L259.545 113.965C257.415 115.752 255.97 117.826 255.014 120.482C251.98 128.877 250.941 138.155 251.926 148.072L251.918 148.079Z" fill="white" stroke="white"/>
</g>
<g clip-path="url(#clip3_54_20)">
<path d="M251.886 368.705L209.54 361.238C205.188 360.471 201.039 363.376 200.272 367.728L196.625 388.409C195.858 392.76 198.763 396.909 203.115 397.676L245.461 405.143C249.813 405.91 253.962 403.005 254.729 398.654L258.376 377.973C259.143 373.622 256.237 369.472 251.886 368.705Z" fill="white" stroke="white"/>
<path d="M203.731 362.509C203.731 362.509 222.314 385.769 227.231 386.677C232.148 387.584 257.413 371.914 257.413 371.914" stroke="white"/>
</g>
<g clip-path="url(#clip4_54_20)">
<path d="M249.888 375.202C250.137 375.288 250.407 375.298 250.662 375.23C250.917 375.162 251.145 375.019 251.318 374.819C257.828 367.277 262.323 359.095 264.674 350.483C265.422 347.887 265.437 345.135 264.718 342.531L264.407 341.372C263.969 339.684 263.175 338.11 262.08 336.754C260.985 335.398 259.612 334.291 258.055 333.508C255.535 332.216 252.716 331.936 249.915 332.686C245.943 333.741 242.795 336.986 241.575 341.164C240.076 339.686 238.222 338.618 236.191 338.062C234.161 337.506 232.021 337.48 229.978 337.987C228.448 338.384 227.021 339.105 225.793 340.1C224.564 341.095 223.564 342.342 222.858 343.756C221.407 346.51 221.059 349.713 221.884 352.714L222.194 353.873C222.914 356.558 224.183 358.744 226.186 360.734C232.511 367.031 240.481 371.894 249.886 375.193L249.888 375.202Z" fill="white" stroke="white"/>
</g>
<g clip-path="url(#clip5_54_20)">
<path d="M9.94066 250.486L51.4755 261.615C55.7432 262.759 60.1299 260.226 61.2734 255.959L66.7086 235.674C67.8522 231.406 65.3195 227.02 61.0518 225.876L19.517 214.747C15.2492 213.603 10.8625 216.136 9.719 220.404L4.28381 240.688C3.14027 244.956 5.67293 249.343 9.94066 250.486Z" fill="white" stroke="white"/>
<path d="M57.373 260.856C57.373 260.856 40.8877 236.065 36.0684 234.732C31.2492 233.399 4.71446 246.808 4.71446 246.808" stroke="white"/>
</g>
<g clip-path="url(#clip6_54_20)">
<path d="M280.141 314.829L252.501 347.769C249.661 351.154 250.103 356.2 253.487 359.04L269.574 372.538C272.959 375.378 278.005 374.937 280.845 371.552L308.485 338.612C311.325 335.228 310.883 330.182 307.499 327.342L291.412 313.843C288.027 311.003 282.981 311.445 280.141 314.829Z" fill="white" stroke="white"/>
<path d="M250.697 353.435C250.697 353.435 280.133 348.972 283.377 345.167C286.622 341.363 285.683 311.647 285.683 311.647" stroke="white"/>
</g>
<defs>
<clipPath id="clip0_54_20">
<rect width="327" height="400" fill="white" transform="translate(10 0.69043)"/>
</clipPath>
<clipPath id="clip1_54_20">
<rect width="46" height="43" fill="white" transform="translate(69.74 118.98) rotate(-50)"/>
</clipPath>
<clipPath id="clip2_54_20">
<rect width="46" height="43" fill="white" transform="translate(269.68 103.75) rotate(50)"/>
</clipPath>
<clipPath id="clip3_54_20">
<rect width="61" height="39" fill="white" transform="translate(200.85 358.69) rotate(9.99999)"/>
</clipPath>
<clipPath id="clip4_54_20">
<rect width="46" height="43" fill="white" transform="translate(217.22 340.371) rotate(-15)"/>
</clipPath>
<clipPath id="clip5_54_20">
<rect width="61" height="39" fill="white" transform="translate(59.91 264.911) rotate(-165)"/>
</clipPath>
<clipPath id="clip6_54_20">
<rect width="61" height="39" fill="white" transform="translate(245.95 354.021) rotate(-50)"/>
</clipPath>
</defs>
</svg>
