<svg width="121" height="56" viewBox="0 0 121 56" fill="none" xmlns="http://www.w3.org/2000/svg">
<path d="M8.87241 18.5545C8.87241 18.5545 7.94991 19.1155 9.51366 19.276C11.3962 19.516 12.3989 19.4762 14.4824 19.0757C14.9012 19.3322 15.344 19.547 15.8047 19.717C11.1172 21.721 5.18541 19.597 8.87241 18.5545ZM8.27241 15.9497C8.27241 15.9497 7.27041 16.711 8.83341 16.8722C10.8772 17.0725 12.4799 17.1122 15.2459 16.552C15.5149 16.8248 15.8443 17.0306 16.2074 17.1527C10.5569 18.8357 4.22541 17.3125 8.27241 15.9497ZM19.3327 20.5172C19.3327 20.5172 20.0137 21.0782 18.5714 21.5192C15.8864 22.3217 7.31091 22.5617 4.90641 21.5192C4.06491 21.1592 5.66767 20.638 6.18142 20.5577C6.70267 20.4377 6.98391 20.4377 6.98391 20.4377C6.06141 19.7965 0.852665 21.76 4.33941 22.3202C13.9169 23.8832 21.8114 21.6392 19.3267 20.5172H19.3327ZM9.30591 13.2242C9.30591 13.2242 4.93792 14.2667 7.74292 14.6267C8.94517 14.7872 11.3092 14.7467 13.5134 14.587C15.3164 14.4265 17.1209 14.107 17.1209 14.107C17.1209 14.107 16.4797 14.3875 16.0387 14.668C11.5912 15.8305 3.05466 15.3092 5.49966 14.107C7.58317 13.105 9.30666 13.2257 9.30666 13.2257L9.30591 13.2242ZM17.1209 17.5922C21.6089 15.2672 19.5254 13.0247 18.0824 13.3045C17.7224 13.3847 17.5612 13.465 17.5612 13.465C17.5612 13.465 17.6812 13.225 17.9617 13.1447C20.8072 12.1427 23.0512 16.15 17.0392 17.7122C17.0392 17.7122 17.0789 17.6725 17.1194 17.5922H17.1209ZM9.74841 23.9237C14.0759 24.2042 20.6887 23.7632 20.8484 21.7187C20.8484 21.7187 20.5282 22.5212 17.2822 23.1212C13.5952 23.8022 9.02691 23.7212 6.34191 23.2817C6.34191 23.2817 6.90291 23.7625 9.74841 23.9237Z" fill="#4E7896"/>
<path d="M14.4029 0.000244141C14.4029 0.000244141 16.8877 2.52474 12.0389 6.33174C8.15166 9.41724 11.1577 11.1805 12.0389 13.1845C9.75441 11.1407 8.11192 9.33699 9.23392 7.65474C10.8764 5.16924 15.4049 3.97449 14.4029 0.000244141ZM13.1279 11.5015C14.2904 12.8237 12.8077 14.026 12.8077 14.026C12.8077 14.026 15.7732 12.5035 14.4104 10.6195C13.1684 8.81649 12.2054 7.93449 17.4157 4.92924C17.4157 4.92924 9.20091 6.97299 13.1279 11.5015Z" fill="#F58219"/>
<path d="M37.136 7.636V13.816C37.136 14.504 36.924 15.056 36.5 15.472C36.076 15.88 35.516 16.084 34.82 16.084C34.116 16.084 33.552 15.876 33.128 15.46C32.704 15.036 32.492 14.46 32.492 13.732H33.584C33.592 14.14 33.696 14.472 33.896 14.728C34.104 14.984 34.412 15.112 34.82 15.112C35.228 15.112 35.532 14.992 35.732 14.752C35.932 14.504 36.032 14.192 36.032 13.816V7.636H37.136ZM38.8793 12.688C38.8793 12.016 39.0153 11.428 39.2873 10.924C39.5593 10.412 39.9313 10.016 40.4033 9.736C40.8833 9.456 41.4153 9.316 41.9993 9.316C42.5753 9.316 43.0753 9.44 43.4993 9.688C43.9233 9.936 44.2393 10.248 44.4473 10.624V9.424H45.5513V16H44.4473V14.776C44.2313 15.16 43.9073 15.48 43.4753 15.736C43.0513 15.984 42.5553 16.108 41.9873 16.108C41.4033 16.108 40.8753 15.964 40.4033 15.676C39.9313 15.388 39.5593 14.984 39.2873 14.464C39.0153 13.944 38.8793 13.352 38.8793 12.688ZM44.4473 12.7C44.4473 12.204 44.3473 11.772 44.1473 11.404C43.9473 11.036 43.6753 10.756 43.3313 10.564C42.9953 10.364 42.6233 10.264 42.2153 10.264C41.8073 10.264 41.4353 10.36 41.0993 10.552C40.7633 10.744 40.4953 11.024 40.2953 11.392C40.0953 11.76 39.9953 12.192 39.9953 12.688C39.9953 13.192 40.0953 13.632 40.2953 14.008C40.4953 14.376 40.7633 14.66 41.0993 14.86C41.4353 15.052 41.8073 15.148 42.2153 15.148C42.6233 15.148 42.9953 15.052 43.3313 14.86C43.6753 14.66 43.9473 14.376 44.1473 14.008C44.3473 13.632 44.4473 13.196 44.4473 12.7ZM49.8447 14.992L51.8847 9.424H53.0487L50.4687 16H49.1967L46.6167 9.424H47.7927L49.8447 14.992ZM53.7152 12.688C53.7152 12.016 53.8512 11.428 54.1232 10.924C54.3952 10.412 54.7672 10.016 55.2392 9.736C55.7192 9.456 56.2512 9.316 56.8352 9.316C57.4112 9.316 57.9112 9.44 58.3352 9.688C58.7592 9.936 59.0752 10.248 59.2832 10.624V9.424H60.3872V16H59.2832V14.776C59.0672 15.16 58.7432 15.48 58.3112 15.736C57.8872 15.984 57.3912 16.108 56.8232 16.108C56.2392 16.108 55.7112 15.964 55.2392 15.676C54.7672 15.388 54.3952 14.984 54.1232 14.464C53.8512 13.944 53.7152 13.352 53.7152 12.688ZM59.2832 12.7C59.2832 12.204 59.1832 11.772 58.9832 11.404C58.7832 11.036 58.5112 10.756 58.1672 10.564C57.8312 10.364 57.4592 10.264 57.0512 10.264C56.6432 10.264 56.2712 10.36 55.9352 10.552C55.5992 10.744 55.3312 11.024 55.1312 11.392C54.9312 11.76 54.8312 12.192 54.8312 12.688C54.8312 13.192 54.9312 13.632 55.1312 14.008C55.3312 14.376 55.5992 14.66 55.9352 14.86C56.2712 15.052 56.6432 15.148 57.0512 15.148C57.4592 15.148 57.8312 15.052 58.1672 14.86C58.5112 14.66 58.7832 14.376 58.9832 14.008C59.1832 13.632 59.2832 13.196 59.2832 12.7Z" fill="black" fill-opacity="0.88"/>
<mask id="mask0_305_420" style="mask-type:luminance" maskUnits="userSpaceOnUse" x="0" y="37" width="24" height="14">
<path d="M0.480042 44.0001C0.480042 47.3469 5.63783 50.0601 12 50.0601C18.3622 50.0601 23.5201 47.3469 23.5201 44.0001C23.5201 40.6534 18.3622 37.9401 12 37.9401C5.63783 37.9401 0.480042 40.6534 0.480042 44.0001Z" fill="white"/>
</mask>
<g mask="url(#mask0_305_420)">
<path d="M0.480042 44.0001C0.480042 47.3469 5.63783 50.0601 12 50.0601C18.3622 50.0601 23.5201 47.3469 23.5201 44.0001C23.5201 40.6534 18.3622 37.9401 12 37.9401C5.63783 37.9401 0.480042 40.6534 0.480042 44.0001Z" fill="url(#paint0_radial_305_420)"/>
</g>
<mask id="mask1_305_420" style="mask-type:luminance" maskUnits="userSpaceOnUse" x="0" y="37" width="24" height="14">
<path d="M0 37.25H24V50.75H0V37.25Z" fill="white"/>
</mask>
<g mask="url(#mask1_305_420)">
<path d="M12 49.6101C18.1137 49.6101 23.07 47.0984 23.07 44.0001C23.07 40.9018 18.1137 38.39 12 38.39C5.88631 38.39 0.930023 40.9018 0.930023 44.0001C0.930023 47.0984 5.88631 49.6101 12 49.6101Z" fill="#777BB3"/>
</g>
<mask id="mask2_305_420" style="mask-type:luminance" maskUnits="userSpaceOnUse" x="0" y="37" width="24" height="14">
<path d="M0 37.25H24V50.75H0V37.25Z" fill="white"/>
</mask>
<g mask="url(#mask2_305_420)">
<path d="M6.73889 44.6956C7.2416 44.6956 7.61689 44.6029 7.85435 44.4202C8.08926 44.2393 8.25151 43.9259 8.33656 43.4888C8.41585 43.0802 8.38564 42.7949 8.2468 42.641C8.10485 42.4837 7.79793 42.404 7.3346 42.404H6.53122L6.08585 44.6956H6.73889ZM4.11126 47.5186C4.07397 47.5186 4.03856 47.5019 4.01485 47.4731C3.9911 47.4443 3.98147 47.4063 3.9886 47.3697L5.16893 41.2968C5.18035 41.2381 5.2318 41.1956 5.29164 41.1956H7.83555C8.63505 41.1956 9.23014 41.4127 9.60418 41.8409C9.98022 42.2714 10.0963 42.8731 9.94931 43.6293C9.88947 43.9374 9.78655 44.2235 9.64343 44.4797C9.50014 44.7361 9.31076 44.9734 9.08047 45.1851C8.8048 45.4431 8.4928 45.6302 8.15397 45.7403C7.82051 45.8489 7.39226 45.904 6.88114 45.904H5.85105L5.55689 47.4174C5.54547 47.4761 5.49406 47.5186 5.43422 47.5186H4.11126Z" fill="black"/>
<path d="M6.6343 42.529H7.33464C7.89384 42.529 8.08809 42.6517 8.15409 42.7248C8.26359 42.8462 8.28426 43.1022 8.21389 43.4651C8.1348 43.8713 7.98822 44.1594 7.77814 44.3211C7.56305 44.4867 7.21339 44.5706 6.73893 44.5706H6.23751L6.6343 42.529ZM7.83559 41.0706H5.29164C5.17197 41.0706 5.06909 41.1555 5.04626 41.2729L3.86593 47.3459C3.85168 47.4192 3.87093 47.495 3.91838 47.5526C3.96588 47.6102 4.03664 47.6436 4.1113 47.6436H5.43422C5.55393 47.6436 5.6568 47.5587 5.67963 47.4413L5.95413 46.029H6.88118C7.40543 46.029 7.84676 45.9718 8.1928 45.8591C8.54868 45.7435 8.87609 45.5474 9.16588 45.2764C9.40555 45.0559 9.60297 44.8084 9.75255 44.5407C9.90218 44.2729 10.0097 43.9743 10.0721 43.6531C10.2268 42.8571 10.1011 42.2197 9.69834 41.7587C9.29951 41.3021 8.67276 41.0706 7.83559 41.0706ZM5.93422 44.8206H6.73893C7.2723 44.8206 7.66959 44.7202 7.93063 44.5192C8.19172 44.3182 8.3678 43.9828 8.4593 43.5127C8.54684 43.0613 8.50697 42.7428 8.33968 42.5573C8.17218 42.3718 7.83722 42.279 7.33464 42.279H6.42822L5.93422 44.8206ZM7.83559 41.3206C8.60088 41.3206 9.15918 41.5215 9.51009 41.9232C9.86097 42.3249 9.96663 42.8856 9.82663 43.6055C9.76901 43.902 9.67155 44.1731 9.53434 44.4188C9.39697 44.6646 9.21759 44.8893 8.99593 45.0931C8.73176 45.3403 8.4383 45.5165 8.11539 45.6214C7.79247 45.7266 7.38118 45.779 6.88118 45.779H5.74801L5.43422 47.3936H4.1113L5.29164 41.3206H7.83559Z" fill="white"/>
<path d="M12.9826 45.9038C12.9453 45.9038 12.9099 45.8871 12.8862 45.8583C12.8624 45.8295 12.8528 45.7916 12.8599 45.755L13.382 43.0679C13.4317 42.8124 13.4195 42.629 13.3476 42.5515C13.3036 42.5041 13.1714 42.4246 12.7806 42.4246H11.8347L11.1783 45.8026C11.1668 45.8614 11.1154 45.9038 11.0555 45.9038H9.74305C9.70572 45.9038 9.67034 45.8871 9.64659 45.8583C9.62284 45.8295 9.61322 45.7916 9.62034 45.755L10.8007 39.682C10.8121 39.6233 10.8635 39.5809 10.9234 39.5809H12.2359C12.2732 39.5809 12.3086 39.5976 12.3323 39.6264C12.3561 39.6552 12.3657 39.6931 12.3586 39.7297L12.0738 41.1955H13.0913C13.8665 41.1955 14.3922 41.3321 14.6984 41.6133C15.0105 41.9001 15.1078 42.3588 14.9878 42.9766L14.4387 45.8026C14.4273 45.8614 14.3758 45.9038 14.316 45.9038H12.9826Z" fill="black"/>
<path d="M12.2358 39.4559H10.9233C10.8036 39.4559 10.7007 39.5407 10.6779 39.6582L9.49758 45.7311C9.48333 45.8044 9.50258 45.8802 9.55008 45.9379C9.59758 45.9955 9.66833 46.0288 9.743 46.0288H11.0555C11.1752 46.0288 11.2781 45.944 11.3009 45.8265L11.9377 42.5496H12.7806C13.1707 42.5496 13.2526 42.633 13.2559 42.6366C13.2795 42.662 13.3107 42.7799 13.2593 43.0441L12.7372 45.7311C12.7229 45.8044 12.7422 45.8802 12.7897 45.9379C12.8372 45.9955 12.9079 46.0288 12.9826 46.0288H14.3159C14.4356 46.0288 14.5385 45.944 14.5613 45.8265L15.1105 43.0005C15.2393 42.3371 15.1291 41.8395 14.7829 41.5213C14.4526 41.2179 13.8992 41.0705 13.0913 41.0705H12.2253L12.4812 39.7536C12.4955 39.6803 12.4762 39.6045 12.4287 39.5469C12.3812 39.4893 12.3105 39.4559 12.2358 39.4559ZM12.2358 39.7059L11.922 41.3205H13.0913C13.827 41.3205 14.3345 41.4489 14.6137 41.7054C14.893 41.9621 14.9767 42.3779 14.8651 42.9528L14.3159 45.7788H12.9826L13.5047 43.0918C13.5641 42.7861 13.5423 42.5776 13.4391 42.4665C13.3359 42.3553 13.1164 42.2996 12.7806 42.2996H11.7316L11.0555 45.7788H9.743L10.9233 39.7059H12.2358Z" fill="white"/>
<path d="M17.0645 44.6956C17.5672 44.6956 17.9425 44.6029 18.18 44.4202C18.4149 44.2393 18.5772 43.926 18.6622 43.4888C18.7415 43.0802 18.7113 42.7949 18.5725 42.641C18.4305 42.4837 18.1236 42.404 17.6602 42.404H16.8569L16.4115 44.6956H17.0645ZM14.437 47.5186C14.3997 47.5186 14.3642 47.5019 14.3405 47.4731C14.3168 47.4443 14.3071 47.4063 14.3142 47.3697L15.4946 41.2968C15.506 41.2381 15.5575 41.1956 15.6173 41.1956H18.1612C18.9607 41.1956 19.5558 41.4127 19.9299 41.8409C20.3059 42.2713 20.422 42.8731 20.275 43.6293C20.2151 43.9374 20.1122 44.2235 19.9691 44.4797C19.8258 44.7361 19.6364 44.9734 19.4061 45.1851C19.1305 45.4431 18.8185 45.6302 18.4796 45.7403C18.1462 45.8489 17.7179 45.904 17.2068 45.904H16.1767L15.8826 47.4174C15.8712 47.4761 15.8197 47.5186 15.7599 47.5186H14.437Z" fill="black"/>
<path d="M16.9599 42.529H17.6603C18.2195 42.529 18.4137 42.6517 18.4797 42.7248C18.5893 42.8462 18.6099 43.1022 18.5395 43.4651C18.4604 43.8713 18.3138 44.1594 18.1038 44.3211C17.8887 44.4867 17.539 44.5706 17.0646 44.5706H16.5632L16.9599 42.529ZM18.1612 41.0706H15.6173C15.4977 41.0706 15.3948 41.1555 15.3719 41.2729L14.1916 47.3459C14.1774 47.4192 14.1966 47.495 14.2441 47.5526C14.2916 47.6102 14.3623 47.6436 14.437 47.6436H15.7599C15.8796 47.6436 15.9825 47.5587 16.0053 47.4413L16.2798 46.029H17.2068C17.7311 46.029 18.1724 45.9718 18.5184 45.8591C18.8743 45.7435 19.2018 45.5474 19.4916 45.2763C19.7313 45.0559 19.9286 44.8084 20.0782 44.5407C20.2278 44.2729 20.3353 43.9743 20.3977 43.6531C20.5525 42.8571 20.4267 42.2197 20.024 41.7587C19.6252 41.3021 18.9984 41.0706 18.1612 41.0706ZM16.2599 44.8206H17.0646C17.5979 44.8206 17.9952 44.7202 18.2563 44.5192C18.5174 44.3182 18.6934 43.9828 18.7849 43.5127C18.8725 43.0613 18.8327 42.7428 18.6653 42.5573C18.4978 42.3718 18.1629 42.279 17.6603 42.279H16.7539L16.2599 44.8206ZM18.1612 41.3206C18.9265 41.3206 19.4848 41.5215 19.8357 41.9232C20.1867 42.3249 20.2923 42.8856 20.1523 43.6055C20.0947 43.902 19.9972 44.1731 19.86 44.4188C19.7226 44.6646 19.5432 44.8893 19.3216 45.0931C19.0574 45.3403 18.7639 45.5165 18.441 45.6214C18.1181 45.7266 17.7068 45.779 17.2068 45.779H16.0737L15.7599 47.3936H14.437L15.6173 41.3206H18.1612Z" fill="white"/>
</g>
<path d="M38.516 42.084C38.516 42.78 38.276 43.36 37.796 43.824C37.324 44.28 36.6 44.508 35.624 44.508H34.016V48H32.924V39.636H35.624C36.568 39.636 37.284 39.864 37.772 40.32C38.268 40.776 38.516 41.364 38.516 42.084ZM35.624 43.608C36.232 43.608 36.68 43.476 36.968 43.212C37.256 42.948 37.4 42.572 37.4 42.084C37.4 41.052 36.808 40.536 35.624 40.536H34.016V43.608H35.624ZM46.3172 39.636V48H45.2252V44.208H40.9652V48H39.8732V39.636H40.9652V43.308H45.2252V39.636H46.3172ZM53.7738 42.084C53.7738 42.78 53.5338 43.36 53.0538 43.824C52.5818 44.28 51.8578 44.508 50.8818 44.508H49.2738V48H48.1818V39.636H50.8818C51.8258 39.636 52.5418 39.864 53.0298 40.32C53.5258 40.776 53.7738 41.364 53.7738 42.084ZM50.8818 43.608C51.4898 43.608 51.9378 43.476 52.2258 43.212C52.5138 42.948 52.6578 42.572 52.6578 42.084C52.6578 41.052 52.0658 40.536 50.8818 40.536H49.2738V43.608H50.8818Z" fill="black" fill-opacity="0.88"/>
<defs>
<radialGradient id="paint0_radial_305_420" cx="0" cy="0" r="1" gradientUnits="userSpaceOnUse" gradientTransform="translate(7.39671 40.0706) scale(15.1274)">
<stop stop-color="#AEB2D5"/>
<stop offset="0.3" stop-color="#AEB2D5"/>
<stop offset="0.75" stop-color="#484C89"/>
<stop offset="1" stop-color="#484C89"/>
</radialGradient>
</defs>
</svg>
