<svg width="121" height="56" viewBox="0 0 121 56" fill="none" xmlns="http://www.w3.org/2000/svg">
<g clip-path="url(#clip0_305_425)">
<path d="M14.3075 16.0702L14.2237 16.318L18.6405 23.8094L18.8905 23.9863L23.5056 16.0061L18.8906 7.99379L14.3075 16.0702ZM5.0133 0.0136719L0.494385 7.99388L5.18957 16.0702L9.66039 7.99379L9.64835 7.6675L5.21932 0.176009L5.0133 0.0136719Z" fill="#59666C"/>
<path d="M5.0133 0.0136719L9.66039 7.99379H18.8906L14.2113 0.0136719H5.0133ZM5.18957 16.0702L9.74057 23.9863H18.8905L14.3075 16.0702H5.18957Z" fill="#BCAE79"/>
</g>
<path d="M37.136 7.636V13.816C37.136 14.504 36.924 15.056 36.5 15.472C36.076 15.88 35.516 16.084 34.82 16.084C34.116 16.084 33.552 15.876 33.128 15.46C32.704 15.036 32.492 14.46 32.492 13.732H33.584C33.592 14.14 33.696 14.472 33.896 14.728C34.104 14.984 34.412 15.112 34.82 15.112C35.228 15.112 35.532 14.992 35.732 14.752C35.932 14.504 36.032 14.192 36.032 13.816V7.636H37.136ZM44.8793 10.084C44.8793 10.78 44.6393 11.36 44.1593 11.824C43.6873 12.28 42.9633 12.508 41.9873 12.508H40.3793V16H39.2873V7.636H41.9873C42.9313 7.636 43.6473 7.864 44.1353 8.32C44.6313 8.776 44.8793 9.364 44.8793 10.084ZM41.9873 11.608C42.5953 11.608 43.0433 11.476 43.3313 11.212C43.6193 10.948 43.7633 10.572 43.7633 10.084C43.7633 9.052 43.1713 8.536 41.9873 8.536H40.3793V11.608H41.9873ZM51.1805 14.14H47.5325L46.8605 16H45.7085L48.7325 7.684H49.9925L53.0045 16H51.8525L51.1805 14.14ZM50.8685 13.252L49.3565 9.028L47.8445 13.252H50.8685ZM58.4024 4.696L55.1144 18.04H54.0344L57.3104 4.696H58.4024ZM66.4735 7.636V16H65.3815V12.208H61.1215V16H60.0295V7.636H61.1215V11.308H65.3815V7.636H66.4735ZM68.9021 8.356C68.6941 8.356 68.5181 8.284 68.3741 8.14C68.2301 7.996 68.1581 7.82 68.1581 7.612C68.1581 7.404 68.2301 7.228 68.3741 7.084C68.5181 6.94 68.6941 6.868 68.9021 6.868C69.1021 6.868 69.2701 6.94 69.4061 7.084C69.5501 7.228 69.6221 7.404 69.6221 7.612C69.6221 7.82 69.5501 7.996 69.4061 8.14C69.2701 8.284 69.1021 8.356 68.9021 8.356ZM69.4301 9.424V16H68.3381V9.424H69.4301ZM72.3832 10.648C72.6072 10.256 72.9352 9.936 73.3672 9.688C73.7992 9.44 74.2912 9.316 74.8432 9.316C75.4352 9.316 75.9672 9.456 76.4392 9.736C76.9112 10.016 77.2832 10.412 77.5552 10.924C77.8272 11.428 77.9632 12.016 77.9632 12.688C77.9632 13.352 77.8272 13.944 77.5552 14.464C77.2832 14.984 76.9072 15.388 76.4272 15.676C75.9552 15.964 75.4272 16.108 74.8432 16.108C74.2752 16.108 73.7752 15.984 73.3432 15.736C72.9192 15.488 72.5992 15.172 72.3832 14.788V16H71.2912V7.12H72.3832V10.648ZM76.8472 12.688C76.8472 12.192 76.7472 11.76 76.5472 11.392C76.3472 11.024 76.0752 10.744 75.7312 10.552C75.3952 10.36 75.0232 10.264 74.6152 10.264C74.2152 10.264 73.8432 10.364 73.4992 10.564C73.1632 10.756 72.8912 11.04 72.6832 11.416C72.4832 11.784 72.3832 12.212 72.3832 12.7C72.3832 13.196 72.4832 13.632 72.6832 14.008C72.8912 14.376 73.1632 14.66 73.4992 14.86C73.8432 15.052 74.2152 15.148 74.6152 15.148C75.0232 15.148 75.3952 15.052 75.7312 14.86C76.0752 14.66 76.3472 14.376 76.5472 14.008C76.7472 13.632 76.8472 13.192 76.8472 12.688ZM85.4006 12.46C85.4006 12.668 85.3886 12.888 85.3646 13.12H80.1086C80.1486 13.768 80.3686 14.276 80.7686 14.644C81.1766 15.004 81.6686 15.184 82.2446 15.184C82.7166 15.184 83.1086 15.076 83.4206 14.86C83.7406 14.636 83.9646 14.34 84.0926 13.972H85.2686C85.0926 14.604 84.7406 15.12 84.2126 15.52C83.6846 15.912 83.0286 16.108 82.2446 16.108C81.6206 16.108 81.0606 15.968 80.5646 15.688C80.0766 15.408 79.6926 15.012 79.4126 14.5C79.1326 13.98 78.9926 13.38 78.9926 12.7C78.9926 12.02 79.1286 11.424 79.4006 10.912C79.6726 10.4 80.0526 10.008 80.5406 9.736C81.0366 9.456 81.6046 9.316 82.2446 9.316C82.8686 9.316 83.4206 9.452 83.9006 9.724C84.3806 9.996 84.7486 10.372 85.0046 10.852C85.2686 11.324 85.4006 11.86 85.4006 12.46ZM84.2726 12.232C84.2726 11.816 84.1806 11.46 83.9966 11.164C83.8126 10.86 83.5606 10.632 83.2406 10.48C82.9286 10.32 82.5806 10.24 82.1966 10.24C81.6446 10.24 81.1726 10.416 80.7806 10.768C80.3966 11.12 80.1766 11.608 80.1206 12.232H84.2726ZM87.934 10.492C88.126 10.116 88.398 9.824 88.75 9.616C89.11 9.408 89.546 9.304 90.058 9.304V10.432H89.77C88.546 10.432 87.934 11.096 87.934 12.424V16H86.842V9.424H87.934V10.492ZM94.5225 9.304C95.3225 9.304 95.9705 9.548 96.4665 10.036C96.9625 10.516 97.2105 11.212 97.2105 12.124V16H96.1305V12.28C96.1305 11.624 95.9665 11.124 95.6385 10.78C95.3105 10.428 94.8625 10.252 94.2945 10.252C93.7185 10.252 93.2585 10.432 92.9145 10.792C92.5785 11.152 92.4105 11.676 92.4105 12.364V16H91.3185V9.424H92.4105V10.36C92.6265 10.024 92.9185 9.764 93.2865 9.58C93.6625 9.396 94.0745 9.304 94.5225 9.304ZM98.5863 12.688C98.5863 12.016 98.7223 11.428 98.9943 10.924C99.2663 10.412 99.6383 10.016 100.11 9.736C100.59 9.456 101.122 9.316 101.706 9.316C102.282 9.316 102.782 9.44 103.206 9.688C103.63 9.936 103.946 10.248 104.154 10.624V9.424H105.258V16H104.154V14.776C103.938 15.16 103.614 15.48 103.182 15.736C102.758 15.984 102.262 16.108 101.694 16.108C101.11 16.108 100.582 15.964 100.11 15.676C99.6383 15.388 99.2663 14.984 98.9943 14.464C98.7223 13.944 98.5863 13.352 98.5863 12.688ZM104.154 12.7C104.154 12.204 104.054 11.772 103.854 11.404C103.654 11.036 103.382 10.756 103.038 10.564C102.702 10.364 102.33 10.264 101.922 10.264C101.514 10.264 101.142 10.36 100.806 10.552C100.47 10.744 100.202 11.024 100.002 11.392C99.8023 11.76 99.7023 12.192 99.7023 12.688C99.7023 13.192 99.8023 13.632 100.002 14.008C100.202 14.376 100.47 14.66 100.806 14.86C101.142 15.052 101.514 15.148 101.922 15.148C102.33 15.148 102.702 15.052 103.038 14.86C103.382 14.66 103.654 14.376 103.854 14.008C104.054 13.632 104.154 13.196 104.154 12.7ZM108.436 10.324V14.2C108.436 14.52 108.504 14.748 108.64 14.884C108.776 15.012 109.012 15.076 109.348 15.076H110.152V16H109.168C108.56 16 108.104 15.86 107.8 15.58C107.496 15.3 107.344 14.84 107.344 14.2V10.324H106.492V9.424H107.344V7.768H108.436V9.424H110.152V10.324H108.436ZM117.475 12.46C117.475 12.668 117.463 12.888 117.439 13.12H112.183C112.223 13.768 112.443 14.276 112.843 14.644C113.251 15.004 113.743 15.184 114.319 15.184C114.791 15.184 115.183 15.076 115.495 14.86C115.815 14.636 116.039 14.34 116.167 13.972H117.343C117.167 14.604 116.815 15.12 116.287 15.52C115.759 15.912 115.103 16.108 114.319 16.108C113.695 16.108 113.135 15.968 112.639 15.688C112.151 15.408 111.767 15.012 111.487 14.5C111.207 13.98 111.067 13.38 111.067 12.7C111.067 12.02 111.203 11.424 111.475 10.912C111.747 10.4 112.127 10.008 112.615 9.736C113.111 9.456 113.679 9.316 114.319 9.316C114.943 9.316 115.495 9.452 115.975 9.724C116.455 9.996 116.823 10.372 117.079 10.852C117.343 11.324 117.475 11.86 117.475 12.46ZM116.347 12.232C116.347 11.816 116.255 11.46 116.071 11.164C115.887 10.86 115.635 10.632 115.315 10.48C115.003 10.32 114.655 10.24 114.271 10.24C113.719 10.24 113.247 10.416 112.855 10.768C112.471 11.12 112.251 11.608 112.195 12.232H116.347Z" fill="black" fill-opacity="0.88"/>
<path d="M3.2987 35.1948H24V49.4696C22.8883 50.585 21.773 51.6966 20.6551 52.8052H0V38.4878C1.09506 37.386 2.19948 36.2925 3.2987 35.1948Z" fill="#41CD52"/>
<path d="M6.35688 38.9003C7.14286 38.3803 8.1148 38.2489 9.03896 38.2572C9.91896 38.2681 10.8426 38.4224 11.5719 38.9476C12.1018 39.32 12.4462 39.8951 12.6758 40.4899C13.0473 41.4665 13.1564 42.5211 13.1688 43.559C13.1704 44.6042 13.1231 45.6722 12.7771 46.6681C12.5455 47.3455 12.1044 47.947 11.5226 48.3647C11.9413 49.0431 12.3683 49.7164 12.787 50.3948C12.2608 50.6374 11.7361 50.8816 11.2094 51.1231C10.761 50.3834 10.3148 49.6421 9.86493 48.9034C9.25662 49.0031 8.63428 48.9953 8.02286 48.9278C7.29039 48.84 6.5439 48.6166 5.9787 48.1237C5.54442 47.7476 5.27169 47.2213 5.08519 46.6863C4.77974 45.7813 4.69766 44.8182 4.68364 43.8686C4.67636 42.8421 4.74182 41.7995 5.05143 40.8146C5.29091 40.0738 5.68727 39.3346 6.35688 38.9003Z" fill="white"/>
<path d="M15.2795 38.867C15.8301 38.8665 16.3808 38.8665 16.9314 38.867C16.933 39.5953 16.9309 40.3231 16.9325 41.0514C17.6364 41.0525 18.3403 41.0514 19.0442 41.052C19.0322 41.5247 19.0192 41.9974 19.0057 42.4701C18.3023 42.4717 17.5995 42.4696 16.8961 42.4712C16.8977 43.665 16.8925 44.8587 16.8987 46.0525C16.9122 46.3792 16.9049 46.7242 17.0488 47.026C17.1538 47.2587 17.4364 47.3185 17.6665 47.3263C18.1003 47.3247 18.5335 47.2992 18.9673 47.2914C18.9938 47.7257 19.0192 48.1605 19.0442 48.5948C18.1813 48.7398 17.2758 48.9133 16.4187 48.6421C16.0577 48.5351 15.721 48.2956 15.5745 47.9387C15.3122 47.3314 15.2909 46.6556 15.2795 46.0037C15.2784 44.826 15.2795 43.6489 15.279 42.4712C14.8951 42.4701 14.5112 42.4717 14.1273 42.4701C14.1262 41.9979 14.1262 41.5252 14.1273 41.0525C14.5112 41.0509 14.8945 41.053 15.2784 41.0514C15.28 40.3231 15.2779 39.5953 15.2795 38.867Z" fill="white"/>
<path d="M8.33818 39.7507C8.87273 39.6811 9.43377 39.6998 9.93974 39.9018C10.3496 40.0639 10.6977 40.3813 10.8816 40.7834C11.1636 41.3927 11.2717 42.0655 11.3262 42.7299C11.3855 43.614 11.3771 44.5065 11.2551 45.3855C11.1694 45.9086 11.0473 46.4598 10.693 46.8722C10.3335 47.2863 9.77922 47.4639 9.24727 47.5055C8.68623 47.5465 8.09455 47.5055 7.58805 47.24C7.29247 47.0826 7.04156 46.8359 6.89506 46.5335C6.7174 46.1714 6.61974 45.7761 6.55117 45.3803C6.34442 44.1252 6.29455 42.8265 6.57714 41.5787C6.69351 41.1081 6.86286 40.625 7.20675 40.2701C7.50597 39.9663 7.9226 39.8094 8.33818 39.7507Z" fill="#41CD52"/>
<path d="M39.632 49.584L37.964 47.916C37.556 48.028 37.14 48.084 36.716 48.084C35.94 48.084 35.232 47.904 34.592 47.544C33.952 47.176 33.444 46.668 33.068 46.02C32.7 45.364 32.516 44.628 32.516 43.812C32.516 42.996 32.7 42.264 33.068 41.616C33.444 40.96 33.952 40.452 34.592 40.092C35.232 39.724 35.94 39.54 36.716 39.54C37.5 39.54 38.212 39.724 38.852 40.092C39.492 40.452 39.996 40.956 40.364 41.604C40.732 42.252 40.916 42.988 40.916 43.812C40.916 44.612 40.74 45.332 40.388 45.972C40.036 46.612 39.552 47.116 38.936 47.484L41.048 49.584H39.632ZM33.632 43.812C33.632 44.476 33.764 45.06 34.028 45.564C34.3 46.068 34.668 46.456 35.132 46.728C35.604 47 36.132 47.136 36.716 47.136C37.3 47.136 37.824 47 38.288 46.728C38.76 46.456 39.128 46.068 39.392 45.564C39.664 45.06 39.8 44.476 39.8 43.812C39.8 43.14 39.664 42.556 39.392 42.06C39.128 41.556 38.764 41.168 38.3 40.896C37.836 40.624 37.308 40.488 36.716 40.488C36.124 40.488 35.596 40.624 35.132 40.896C34.668 41.168 34.3 41.556 34.028 42.06C33.764 42.556 33.632 43.14 33.632 43.812ZM47.529 39.636V40.524H45.249V48H44.157V40.524H41.865V39.636H47.529ZM49.2212 48.072C49.0132 48.072 48.8372 48 48.6932 47.856C48.5492 47.712 48.4772 47.536 48.4772 47.328C48.4772 47.12 48.5492 46.944 48.6932 46.8C48.8372 46.656 49.0132 46.584 49.2212 46.584C49.4212 46.584 49.5892 46.656 49.7252 46.8C49.8692 46.944 49.9412 47.12 49.9412 47.328C49.9412 47.536 49.8692 47.712 49.7252 47.856C49.5892 48 49.4212 48.072 49.2212 48.072ZM57.9688 48H56.8768L52.4848 41.34V48H51.3928V39.624H52.4848L56.8768 46.272V39.624H57.9688V48ZM60.9223 40.524V43.32H63.9703V44.22H60.9223V47.1H64.3303V48H59.8303V39.624H64.3303V40.524H60.9223ZM71.1306 39.636V40.524H68.8506V48H67.7586V40.524H65.4666V39.636H71.1306Z" fill="black" fill-opacity="0.88"/>
<defs>
<clipPath id="clip0_305_425">
<rect width="24" height="24" fill="white"/>
</clipPath>
</defs>
</svg>
