<svg width="947" height="240" viewBox="0 0 947 240" fill="none" xmlns="http://www.w3.org/2000/svg">
<g clip-path="url(#clip0_160_1309)">
<path d="M179.757 1.67986L107.614 21.0115L35.4702 40.3432C-0.0844206 49.8692 -11.9939 94.3095 14.0348 120.336L66.8496 173.151L119.664 225.966C145.69 251.992 190.133 240.086 199.659 204.531L218.99 132.386L238.322 60.2422C247.842 24.6873 215.309 -7.84617 179.757 1.67986ZM205.026 109.917C200.283 126.724 194.058 142.203 186.34 156.355C183.848 160.777 181.438 164.396 179.109 167.211C176.777 170.024 174.369 172.016 171.877 173.181C169.384 174.345 166.531 174.929 163.32 174.929C151.904 174.929 142.544 167.61 135.231 152.978C133.059 148.474 131.129 143.362 129.44 137.637C127.749 131.911 126.299 125.298 125.094 117.8C124.689 116.511 124.369 113.853 124.127 109.819H123.525L118.348 120.716C113.611 130.483 109.27 138.421 105.325 144.532C101.381 150.643 97.7186 154.965 94.3388 157.498C90.9563 160.031 87.3756 161.298 83.5913 161.298C79.7282 161.298 76.3457 159.651 73.4518 156.352C67.816 149.761 63.106 137.254 59.3244 118.84C56.3437 103.963 54.856 91.1387 54.856 80.3612C54.856 71.9183 55.8197 65.1831 57.7499 60.1581C59.68 55.1331 62.6961 51.4329 66.7953 49.0602C70.8972 46.6903 76.2425 45.5012 82.8366 45.5012C86.2924 45.5012 88.8062 46.1039 90.3753 47.3092C91.9444 48.5146 93.0086 50.928 93.5705 54.5467C94.1325 58.1655 94.4148 63.6357 94.4148 70.9519C94.4148 84.3003 95.0718 96.8858 96.383 108.706C96.5459 109.349 96.9558 112.566 97.6128 118.357H98.2154C98.7774 117.151 99.2199 116.185 99.5429 115.463C99.8633 114.738 100.186 114.016 100.507 113.291C100.827 112.566 101.128 111.904 101.411 111.301C101.693 110.698 102.076 109.835 102.556 108.708C106.818 99.0576 111.281 87.9625 115.945 75.4176C121.331 61.0241 125.031 52.2582 127.04 49.1227C127.602 48.3978 128.368 47.597 129.331 46.7093C133.189 43.8968 138.697 42.4878 145.851 42.4878C149.627 42.4878 152.442 43.1937 154.291 44.5972C156.137 46.0061 157.404 48.3571 158.088 51.6555C158.77 54.9539 159.193 60.3807 159.356 67.9385C159.356 73.9707 160.059 82.3972 161.468 93.21C162.877 104.026 164.427 113.652 166.119 122.098C166.681 124.992 167.891 130.5 169.743 138.62H170.345C172.096 133.312 173.296 129.172 173.934 126.194C176.244 115.984 177.401 101.267 177.401 82.047V76.6203C177.401 70.9112 177.922 66.3477 178.967 62.9298C180.013 59.512 181.861 56.3982 184.516 53.583C187.329 50.7678 190.586 48.4575 194.286 46.6468C197.984 44.8388 201.242 43.9321 204.057 43.9321C207.352 43.9321 209.706 45.2406 211.112 47.8522C212.518 50.4665 213.222 54.7096 213.222 60.5789C213.224 73.7725 210.491 90.2157 205.026 109.917Z" fill="url(#paint0_linear_160_1309)"/>
</g>
<path d="M460.564 54.464L426.16 193.44H387.244L366.188 106.584L344.38 193.44H305.464L272 54.464H306.404L325.392 157.532L348.892 54.464H384.236L406.796 157.532L425.972 54.464H460.564Z" fill="white"/>
<path d="M584.974 139.296C584.974 142.304 584.786 145.437 584.41 148.696H511.654C512.156 155.213 514.224 160.227 517.858 163.736C521.618 167.12 526.193 168.812 531.582 168.812C539.604 168.812 545.181 165.428 548.314 158.66H582.53C580.776 165.553 577.58 171.757 572.942 177.272C568.43 182.787 562.728 187.111 555.834 190.244C548.941 193.377 541.233 194.944 532.71 194.944C522.433 194.944 513.284 192.751 505.262 188.364C497.241 183.977 490.974 177.711 486.462 169.564C481.95 161.417 479.694 151.892 479.694 140.988C479.694 130.084 481.888 120.559 486.274 112.412C490.786 104.265 497.053 97.9987 505.074 93.612C513.096 89.2253 522.308 87.032 532.71 87.032C542.862 87.032 551.886 89.1627 559.782 93.424C567.678 97.6853 573.82 103.764 578.206 111.66C582.718 119.556 584.974 128.768 584.974 139.296ZM552.074 130.836C552.074 125.321 550.194 120.935 546.434 117.676C542.674 114.417 537.974 112.788 532.334 112.788C526.945 112.788 522.37 114.355 518.61 117.488C514.976 120.621 512.72 125.071 511.842 130.836H552.074Z" fill="white"/>
<path d="M643.482 103.388C646.49 98.5 650.814 94.552 656.454 91.544C662.094 88.536 668.549 87.032 675.818 87.032C684.466 87.032 692.299 89.2253 699.318 93.612C706.337 97.9987 711.851 104.265 715.862 112.412C719.998 120.559 722.066 130.021 722.066 140.8C722.066 151.579 719.998 161.104 715.862 169.376C711.851 177.523 706.337 183.852 699.318 188.364C692.299 192.751 684.466 194.944 675.818 194.944C668.423 194.944 661.969 193.503 656.454 190.62C650.939 187.612 646.615 183.664 643.482 178.776V193.44H611.334V54.32H643.482V103.388ZM689.354 140.8C689.354 132.779 687.098 126.512 682.586 122C678.199 117.363 672.747 115.044 666.23 115.044C659.838 115.044 654.386 117.363 649.874 122C645.487 126.637 643.294 132.967 643.294 140.988C643.294 149.009 645.487 155.339 649.874 159.976C654.386 164.613 659.838 166.932 666.23 166.932C672.622 166.932 678.074 164.613 682.586 159.976C687.098 155.213 689.354 148.821 689.354 140.8Z" fill="white"/>
<path d="M780.48 54.32V193.44H748.332V54.32H780.48Z" fill="white"/>
<path d="M907.177 216L890.257 193.252C885.244 194.255 880.356 194.756 875.593 194.756C863.185 194.756 851.78 191.873 841.377 186.108C831.1 180.343 822.89 172.321 816.749 162.044C810.733 151.641 807.725 139.985 807.725 127.076C807.725 114.167 810.733 102.573 816.749 92.296C822.89 82.0187 831.1 73.9973 841.377 68.232C851.78 62.4667 863.185 59.584 875.593 59.584C888.001 59.584 899.344 62.4667 909.621 68.232C920.024 73.9973 928.17 82.0187 934.061 92.296C940.077 102.573 943.085 114.167 943.085 127.076C943.085 138.356 940.766 148.696 936.129 158.096C931.617 167.371 925.288 175.079 917.141 181.22L946.093 216H907.177ZM840.625 127.076C840.625 138.732 843.758 148.069 850.025 155.088C856.417 161.981 864.94 165.428 875.593 165.428C886.121 165.428 894.518 161.919 900.785 154.9C907.177 147.881 910.373 138.607 910.373 127.076C910.373 115.42 907.177 106.145 900.785 99.252C894.518 92.2333 886.121 88.724 875.593 88.724C864.94 88.724 856.417 92.1707 850.025 99.064C843.758 105.957 840.625 115.295 840.625 127.076Z" fill="white"/>
<defs>
<linearGradient id="paint0_linear_160_1309" x1="121.488" y1="5.84239" x2="161.593" y2="168.986" gradientUnits="userSpaceOnUse">
<stop stop-color="#5851DB" stop-opacity="0.97"/>
<stop offset="0.230762" stop-color="#833AB4" stop-opacity="0.92"/>
<stop offset="0.530082" stop-color="#C13584"/>
<stop offset="0.78125" stop-color="#E1306C"/>
<stop offset="1" stop-color="#FD1D1D"/>
</linearGradient>
<clipPath id="clip0_160_1309">
<rect width="240" height="240" fill="white"/>
</clipPath>
</defs>
</svg>
