<svg width="121" height="56" viewBox="0 0 121 56" fill="none" xmlns="http://www.w3.org/2000/svg">
<g clip-path="url(#clip0_305_418)">
<path fill-rule="evenodd" clip-rule="evenodd" d="M14.0158 0.696045C13.8517 0.696045 13.6993 0.731215 13.5586 0.778107C13.8575 0.977399 14.0217 1.24117 14.1037 1.54011C14.1096 1.58114 14.1213 1.61045 14.1272 1.65148C14.133 1.68665 14.1389 1.72182 14.1389 1.75699C14.1623 2.2728 14.0041 2.33728 13.8927 2.64208C13.7227 3.03481 13.7696 3.45684 13.9748 3.79681C13.9923 3.83784 14.0158 3.88473 14.0451 3.92576C13.8224 2.44279 15.0591 2.22005 15.2877 1.75699C15.3053 1.35254 14.9712 1.08291 14.7075 0.895338C14.4554 0.742938 14.2268 0.696045 14.0158 0.696045ZM15.8798 1.03015C15.8563 1.16497 15.8739 1.1298 15.8681 1.20014C15.8622 1.24703 15.8622 1.30565 15.8563 1.35254C15.8446 1.39943 15.8329 1.44632 15.8153 1.49322C15.8036 1.54011 15.786 1.587 15.7684 1.63389C15.745 1.68079 15.7274 1.72182 15.7039 1.76871C15.6864 1.79217 15.6746 1.8156 15.657 1.83905C15.6453 1.85663 15.6336 1.87422 15.6219 1.8918C15.5926 1.93284 15.5633 1.97386 15.534 2.00903C15.4988 2.0442 15.4695 2.08523 15.4284 2.11454V2.12041C15.3933 2.14972 15.3581 2.18489 15.3171 2.2142C15.194 2.30798 15.0533 2.37832 14.9243 2.46624C14.8833 2.49555 14.8423 2.519 14.8071 2.55417C14.7661 2.58347 14.7309 2.61278 14.6958 2.64795C14.6547 2.68312 14.6254 2.71829 14.5902 2.75932C14.5609 2.79449 14.5258 2.83552 14.5023 2.87655C14.473 2.91758 14.4437 2.95861 14.4203 2.99964C14.3968 3.04654 14.3792 3.08757 14.3558 3.13446C14.3382 3.18135 14.3206 3.22238 14.3089 3.26927C14.2913 3.32203 14.2796 3.36892 14.2679 3.41582C14.262 3.43927 14.262 3.46857 14.2561 3.49202C14.2503 3.51547 14.2503 3.53891 14.2444 3.56235C14.2444 3.60925 14.2386 3.662 14.2386 3.70889C14.2386 3.74406 14.2386 3.77923 14.2444 3.8144C14.2444 3.86129 14.2503 3.90818 14.262 3.96094C14.2679 4.00783 14.2796 4.05472 14.2913 4.10162C14.3089 4.14851 14.3206 4.1954 14.3382 4.24229C14.3499 4.2716 14.3675 4.30091 14.3792 4.32435L13.0311 3.80268C12.8025 3.7382 12.5797 3.67959 12.3511 3.62683C12.2281 3.59752 12.105 3.56822 11.9819 3.53891C11.6302 3.46857 11.2726 3.41582 10.9151 3.38065C10.9034 3.38065 10.8975 3.37478 10.8858 3.37478C10.5341 3.33961 10.1882 3.32202 9.83654 3.32202C9.57863 3.32202 9.32072 3.33374 9.06867 3.35133C8.71112 3.37479 8.35356 3.42167 7.99601 3.48028C7.90809 3.492 7.82016 3.50959 7.73224 3.52718C7.55053 3.56235 7.37469 3.60338 7.2047 3.64441C7.11678 3.66787 7.02885 3.6913 6.94093 3.71475C6.85301 3.74992 6.77095 3.79095 6.68888 3.82612C6.6244 3.85542 6.55993 3.88473 6.49545 3.91404C6.48374 3.91991 6.472 3.91991 6.46614 3.92576C6.40753 3.95506 6.35477 3.97851 6.30202 4.00782C6.28444 4.01369 6.27271 4.01953 6.26099 4.0254C6.19651 4.05471 6.13204 4.08988 6.07928 4.11919C6.03825 4.13677 5.99722 4.16022 5.96205 4.1778C5.94447 4.18952 5.92102 4.20126 5.9093 4.20711C5.85654 4.23642 5.80379 4.26572 5.7569 4.29503C5.70414 4.32434 5.65725 4.35365 5.61622 4.38295C5.57519 4.41226 5.53416 4.43571 5.49899 4.46502C5.49311 4.47089 5.48727 4.47089 5.4814 4.47673C5.44623 4.50019 5.4052 4.52948 5.37003 4.55879C5.37003 4.55879 5.36416 4.56466 5.35832 4.57051C5.32901 4.59396 5.2997 4.6174 5.27039 4.64084C5.25868 4.64671 5.24694 4.65843 5.23523 4.6643C5.20592 4.68776 5.17661 4.71706 5.1473 4.7405C5.14143 4.75222 5.12972 4.75809 5.12385 4.76396C5.08868 4.79913 5.05351 4.82843 5.01834 4.8636C5.01247 4.8636 5.01247 4.86947 5.00663 4.87532C4.97146 4.90463 4.93629 4.93979 4.90112 4.97496C4.89525 4.98083 4.89525 4.98668 4.8894 4.98668C4.8601 5.01598 4.83079 5.04529 4.80148 5.08046C4.78976 5.09218 4.77217 5.10392 4.76045 5.11563C4.73114 5.1508 4.69597 5.18597 4.6608 5.22114C4.65493 5.23285 4.64322 5.23872 4.63735 5.25045C4.59046 5.29734 4.54942 5.34423 4.50253 5.39113C4.49666 5.397 4.49082 5.40284 4.48495 5.40871C4.39116 5.50836 4.29151 5.608 4.18601 5.69593C4.0805 5.78971 3.96913 5.87763 3.85776 5.95383C3.74053 6.0359 3.62916 6.10623 3.50607 6.17657C3.38884 6.24105 3.26574 6.29967 3.13679 6.35242C3.0137 6.40517 2.88474 6.45207 2.75579 6.4931C2.5096 6.54585 2.25755 6.6455 2.04068 6.66308C1.99379 6.66308 1.94103 6.6748 1.89414 6.68067C1.84138 6.69238 1.79449 6.70412 1.7476 6.71584C1.70071 6.73342 1.65381 6.75101 1.60692 6.76859C1.56003 6.78617 1.51314 6.80962 1.46625 6.83307C1.42521 6.86237 1.37832 6.88582 1.33729 6.91513C1.29626 6.94444 1.25523 6.9796 1.22006 7.01477C1.17903 7.04408 1.138 7.08511 1.10283 7.12028C1.06766 7.16132 1.03249 7.19649 1.00318 7.23751C0.973875 7.28441 0.938705 7.32544 0.915258 7.37233C0.885951 7.41336 0.856644 7.46025 0.833197 7.50714C0.809741 7.5599 0.786305 7.60679 0.76872 7.65955C0.751135 7.70644 0.73355 7.75919 0.715966 7.81195C0.704252 7.85884 0.69251 7.90573 0.686659 7.95262C0.686659 7.9585 0.680788 7.96434 0.680788 7.97021C0.669074 8.02296 0.669074 8.0933 0.663203 8.12847C0.657333 8.1695 0.651489 8.20467 0.651489 8.2457C0.651489 8.26916 0.651489 8.29846 0.65736 8.3219C0.66323 8.36294 0.669074 8.3981 0.680815 8.43328C0.692529 8.46844 0.704271 8.50361 0.721845 8.53878V8.54465C0.73943 8.57982 0.762877 8.61499 0.786321 8.65016C0.809777 8.68533 0.833216 8.7205 0.862523 8.75567C0.89183 8.78498 0.927 8.82014 0.962169 8.84945C0.997339 8.88462 1.03251 8.91393 1.07354 8.94324C1.21422 9.06633 1.24939 9.10736 1.43109 9.20115C1.4604 9.21873 1.48971 9.23045 1.52488 9.24804C1.53075 9.24804 1.53659 9.25391 1.54246 9.25391C1.54246 9.26562 1.54246 9.27149 1.54834 9.28322C1.55421 9.33011 1.56592 9.377 1.57764 9.42389C1.58936 9.47665 1.60695 9.52354 1.62454 9.56457C1.64212 9.59974 1.65385 9.63491 1.67143 9.67008C1.6773 9.6818 1.68314 9.69354 1.68901 9.69939C1.71247 9.74628 1.73591 9.78732 1.75935 9.82834C1.78866 9.86937 1.81797 9.9104 1.84728 9.95144C1.87658 9.9866 1.91175 10.0276 1.94692 10.0628C1.98209 10.098 2.01726 10.1273 2.05829 10.1624C2.05829 10.1624 2.06416 10.1683 2.07001 10.1683C2.10518 10.1976 2.14035 10.2269 2.17552 10.2504C2.21655 10.2797 2.25758 10.3031 2.30447 10.3266C2.3455 10.35 2.39239 10.3735 2.43928 10.3911C2.47445 10.4087 2.51548 10.4204 2.55652 10.4321C2.56239 10.438 2.56823 10.438 2.57997 10.4438C2.60343 10.4497 2.63272 10.4555 2.65617 10.4614C2.63859 10.7779 2.63271 11.0769 2.67963 11.1824C2.73238 11.2996 2.99029 10.942 3.2482 10.5317C3.21303 10.9362 3.18958 11.411 3.2482 11.5516C3.31267 11.6982 3.66437 11.241 3.96917 10.7369C8.12501 9.7756 11.9174 12.6478 12.316 16.704C12.2398 16.0709 11.4602 15.7192 11.1027 15.8071C10.9268 16.2409 10.6279 16.7977 10.1472 17.1436C10.1883 16.7567 10.1707 16.3581 10.0886 15.9713C9.95968 16.5105 9.70763 17.0146 9.3618 17.4484C8.80495 17.4894 8.2481 17.2198 7.95502 16.8153C7.93157 16.7977 7.92572 16.7626 7.90813 16.7391C7.89055 16.6981 7.87296 16.6571 7.86124 16.616C7.84365 16.575 7.83193 16.534 7.82607 16.4929C7.8202 16.4519 7.8202 16.4109 7.8202 16.364C7.8202 16.3347 7.8202 16.3054 7.8202 16.2761C7.82607 16.235 7.83778 16.194 7.8495 16.153C7.86122 16.1119 7.87296 16.0709 7.89054 16.0299C7.91399 15.9888 7.93157 15.9478 7.96088 15.9068C8.06052 15.6254 8.06052 15.3968 7.87881 15.262C7.84365 15.2386 7.80848 15.221 7.76744 15.2034C7.74399 15.1975 7.71469 15.1858 7.69125 15.1799C7.67366 15.1741 7.66194 15.1682 7.64435 15.1624C7.60332 15.1506 7.56229 15.1389 7.52126 15.133C7.48023 15.1213 7.4392 15.1155 7.39817 15.1155C7.35714 15.1096 7.31024 15.1037 7.26921 15.1037C7.23991 15.1037 7.2106 15.1096 7.18129 15.1096C7.1344 15.1096 7.09336 15.1155 7.05233 15.1272C7.0113 15.1331 6.97027 15.1389 6.92924 15.1507C6.88821 15.1624 6.84718 15.1741 6.80615 15.1917C6.76512 15.2093 6.72995 15.2269 6.68892 15.2444C6.65375 15.262 6.61858 15.2855 6.57755 15.3031C5.21181 16.194 6.02656 18.2807 6.95855 18.8845C6.60686 18.9489 6.2493 19.0251 6.14966 19.1013C6.14378 19.1072 6.13794 19.1131 6.13794 19.1131C6.38999 19.2655 6.65376 19.3944 6.92925 19.5058C7.30439 19.6289 7.70298 19.7402 7.87882 19.7871V19.793C8.36533 19.8927 8.8577 19.9278 9.35594 19.8985C11.9526 19.7168 14.0804 17.7415 14.4672 15.1389C14.4789 15.1917 14.4907 15.2386 14.5024 15.2913C14.52 15.3968 14.5434 15.5082 14.5551 15.6196V15.6255C14.5668 15.6782 14.5727 15.731 14.5786 15.7779V15.8013C14.5845 15.8541 14.5903 15.9068 14.5903 15.9537C14.5962 16.0182 14.602 16.0827 14.602 16.1471V16.2409C14.602 16.2702 14.6079 16.3054 14.6079 16.3347C14.6079 16.3699 14.602 16.4051 14.602 16.4402V16.5223C14.602 16.5633 14.5961 16.5985 14.5961 16.6395C14.5961 16.663 14.5961 16.6864 14.5903 16.7157C14.5903 16.7567 14.5844 16.7978 14.5844 16.8447C14.5785 16.8623 14.5785 16.8798 14.5785 16.8974C14.5727 16.9443 14.5668 16.9853 14.5609 17.0322C14.5609 17.0498 14.5609 17.0674 14.5551 17.085C14.5492 17.1436 14.5375 17.1964 14.5316 17.255V17.2609V17.2667C14.5199 17.3195 14.5082 17.3781 14.4964 17.4308V17.4484C14.4847 17.5012 14.473 17.5539 14.4613 17.6067C14.4613 17.6126 14.4554 17.6243 14.4554 17.6301C14.4437 17.6829 14.432 17.7357 14.4144 17.7884V17.806C14.3968 17.8646 14.3792 17.9174 14.3675 17.9701C14.3616 17.976 14.3616 17.9818 14.3616 17.9818C14.344 18.0404 14.3264 18.0991 14.3089 18.1577C14.2854 18.2163 14.2678 18.269 14.2444 18.3277C14.2209 18.3863 14.2034 18.4449 14.1799 18.4977C14.1565 18.5563 14.133 18.609 14.1096 18.6676H14.1037C14.0802 18.7204 14.0568 18.779 14.0275 18.8318C14.0216 18.8493 14.0158 18.8611 14.0099 18.8728C14.004 18.8787 14.004 18.8845 13.9982 18.8904C13.6172 19.6582 13.0545 20.3323 12.3511 20.8599C12.3042 20.8892 12.2573 20.9243 12.2104 20.9595C12.1987 20.9712 12.1811 20.9771 12.1694 20.9888C12.1284 21.0181 12.0873 21.0474 12.0404 21.0767L12.058 21.1119H12.0639C12.1459 21.1002 12.228 21.0884 12.3101 21.0767H12.3159C12.4683 21.0533 12.6207 21.024 12.7731 20.9947C12.8142 20.9888 12.8611 20.9771 12.9021 20.9654C12.9314 20.9595 12.9549 20.9536 12.9842 20.9478C13.0252 20.9419 13.0662 20.9302 13.1073 20.9243C13.1424 20.9126 13.1776 20.9067 13.2128 20.895C13.7989 20.7543 14.3675 20.5609 14.9126 20.3323C13.9806 21.6043 12.7321 22.63 11.2726 23.3041C11.9467 23.2572 12.6207 23.1459 13.2714 22.9583C15.6336 22.2608 17.6207 20.6723 18.8105 18.5328C18.5702 19.8868 18.031 21.1764 17.2338 22.3018C17.8024 21.9266 18.324 21.4929 18.7988 21.0005C20.1118 19.6289 20.9735 17.888 21.2665 16.0182C21.4658 16.9443 21.5244 17.8998 21.4365 18.8435C25.6686 12.9409 21.7882 6.82142 20.1646 5.20949C20.1587 5.19778 20.1529 5.19191 20.1529 5.18019C20.147 5.18606 20.147 5.18606 20.147 5.1919C20.147 5.18603 20.147 5.18603 20.1411 5.18019C20.1411 5.25053 20.1352 5.32086 20.1294 5.3912C20.1118 5.52602 20.0942 5.65497 20.0708 5.78393C20.0415 5.91288 20.0063 6.04183 19.9711 6.17079C19.9301 6.29388 19.8832 6.42283 19.8305 6.54593C19.7777 6.66316 19.7191 6.78625 19.6546 6.90348C19.5901 7.01485 19.5198 7.13208 19.4436 7.23759C19.3674 7.34896 19.2853 7.45447 19.2033 7.55411C19.1153 7.65962 19.0216 7.75341 18.9278 7.84719C18.8692 7.89995 18.8164 7.94684 18.7578 7.99373C18.7109 8.03476 18.6699 8.06993 18.623 8.11096C18.5175 8.19302 18.412 8.26922 18.2947 8.33956C18.1834 8.4099 18.0661 8.48024 17.9489 8.53886C17.8258 8.59747 17.7027 8.65023 17.5796 8.70298C17.4565 8.74987 17.3276 8.7909 17.1986 8.82607C17.0697 8.86124 16.9348 8.89055 16.8059 8.91399C16.6711 8.93745 16.5363 8.94916 16.4073 8.96089C16.3135 8.96676 16.2197 8.9726 16.1259 8.9726C15.9911 8.9726 15.8563 8.96089 15.7274 8.94915C15.5926 8.93743 15.4577 8.91984 15.3288 8.89053C15.194 8.86707 15.065 8.83191 14.9361 8.79089H14.9302C15.0591 8.77917 15.1881 8.76743 15.317 8.74399C15.4519 8.72054 15.5808 8.69124 15.7098 8.65607C15.8387 8.6209 15.9677 8.57987 16.0908 8.53297C16.2197 8.48608 16.3428 8.42747 16.4601 8.36885C16.5831 8.31023 16.6945 8.24576 16.8117 8.17542C16.9231 8.09922 17.0345 8.02302 17.14 7.94096C17.2455 7.8589 17.3451 7.77098 17.4389 7.67719C17.5386 7.58926 17.6265 7.48962 17.7144 7.38997C17.8023 7.28447 17.8844 7.17896 17.9606 7.07345C17.9723 7.05586 17.9841 7.03242 17.9958 7.01483C18.0544 6.92105 18.113 6.82726 18.1658 6.73348C18.2302 6.61625 18.2889 6.49901 18.3416 6.37592C18.3944 6.25283 18.4413 6.12974 18.4823 6.00078C18.5233 5.87769 18.5526 5.74874 18.5819 5.61978C18.6054 5.48497 18.6288 5.35601 18.6405 5.22706C18.6523 5.09224 18.664 4.95743 18.664 4.82847C18.664 4.73469 18.6581 4.6409 18.6523 4.54712C18.6406 4.4123 18.623 4.28335 18.6054 4.1544C18.5819 4.01958 18.5526 3.89063 18.5175 3.76167C18.4764 3.63858 18.4354 3.50962 18.3885 3.38653C18.3416 3.26344 18.283 3.14035 18.2244 3.02311C18.1599 2.90588 18.0954 2.78865 18.0251 2.67728C17.9489 2.56592 17.8727 2.46041 17.7906 2.3549C17.7027 2.25525 17.6148 2.1556 17.521 2.05596C17.4741 2.00907 17.4214 1.95631 17.3686 1.90942C17.1048 1.70427 16.8293 1.51083 16.5539 1.33499C16.5128 1.31153 16.4777 1.29396 16.4366 1.27637C16.2432 1.15328 16.0615 1.08877 15.8798 1.03015Z" fill="#E0234E"/>
</g>
<path d="M39.5 16H38.408L34.016 9.34V16H32.924V7.624H34.016L38.408 14.272V7.624H39.5V16ZM47.3615 12.46C47.3615 12.668 47.3495 12.888 47.3255 13.12H42.0695C42.1095 13.768 42.3295 14.276 42.7295 14.644C43.1375 15.004 43.6295 15.184 44.2055 15.184C44.6775 15.184 45.0695 15.076 45.3815 14.86C45.7015 14.636 45.9255 14.34 46.0535 13.972H47.2295C47.0535 14.604 46.7015 15.12 46.1735 15.52C45.6455 15.912 44.9895 16.108 44.2055 16.108C43.5815 16.108 43.0215 15.968 42.5255 15.688C42.0375 15.408 41.6535 15.012 41.3735 14.5C41.0935 13.98 40.9535 13.38 40.9535 12.7C40.9535 12.02 41.0895 11.424 41.3615 10.912C41.6335 10.4 42.0135 10.008 42.5015 9.736C42.9975 9.456 43.5655 9.316 44.2055 9.316C44.8295 9.316 45.3815 9.452 45.8615 9.724C46.3415 9.996 46.7095 10.372 46.9655 10.852C47.2295 11.324 47.3615 11.86 47.3615 12.46ZM46.2335 12.232C46.2335 11.816 46.1415 11.46 45.9575 11.164C45.7735 10.86 45.5215 10.632 45.2015 10.48C44.8895 10.32 44.5415 10.24 44.1575 10.24C43.6055 10.24 43.1335 10.416 42.7415 10.768C42.3575 11.12 42.1375 11.608 42.0815 12.232H46.2335ZM51.1309 16.108C50.6269 16.108 50.1749 16.024 49.7749 15.856C49.3749 15.68 49.0589 15.44 48.8269 15.136C48.5949 14.824 48.4669 14.468 48.4429 14.068H49.5709C49.6029 14.396 49.7549 14.664 50.0269 14.872C50.3069 15.08 50.6709 15.184 51.1189 15.184C51.5349 15.184 51.8629 15.092 52.1029 14.908C52.3429 14.724 52.4629 14.492 52.4629 14.212C52.4629 13.924 52.3349 13.712 52.0789 13.576C51.8229 13.432 51.4269 13.292 50.8909 13.156C50.4029 13.028 50.0029 12.9 49.6909 12.772C49.3869 12.636 49.1229 12.44 48.8989 12.184C48.6829 11.92 48.5749 11.576 48.5749 11.152C48.5749 10.816 48.6749 10.508 48.8749 10.228C49.0749 9.948 49.3589 9.728 49.7269 9.568C50.0949 9.4 50.5149 9.316 50.9869 9.316C51.7149 9.316 52.3029 9.5 52.7509 9.868C53.1989 10.236 53.4389 10.74 53.4709 11.38H52.3789C52.3549 11.036 52.2149 10.76 51.9589 10.552C51.7109 10.344 51.3749 10.24 50.9509 10.24C50.5589 10.24 50.2469 10.324 50.0149 10.492C49.7829 10.66 49.6669 10.88 49.6669 11.152C49.6669 11.368 49.7349 11.548 49.8709 11.692C50.0149 11.828 50.1909 11.94 50.3989 12.028C50.6149 12.108 50.9109 12.2 51.2869 12.304C51.7589 12.432 52.1429 12.56 52.4389 12.688C52.7349 12.808 52.9869 12.992 53.1949 13.24C53.4109 13.488 53.5229 13.812 53.5309 14.212C53.5309 14.572 53.4309 14.896 53.2309 15.184C53.0309 15.472 52.7469 15.7 52.3789 15.868C52.0189 16.028 51.6029 16.108 51.1309 16.108ZM56.4044 10.324V14.2C56.4044 14.52 56.4724 14.748 56.6084 14.884C56.7444 15.012 56.9804 15.076 57.3164 15.076H58.1204V16H57.1364C56.5284 16 56.0724 15.86 55.7684 15.58C55.4644 15.3 55.3124 14.84 55.3124 14.2V10.324H54.4604V9.424H55.3124V7.768H56.4044V9.424H58.1204V10.324H56.4044ZM59.7915 16.072C59.5835 16.072 59.4075 16 59.2635 15.856C59.1195 15.712 59.0475 15.536 59.0475 15.328C59.0475 15.12 59.1195 14.944 59.2635 14.8C59.4075 14.656 59.5835 14.584 59.7915 14.584C59.9915 14.584 60.1595 14.656 60.2955 14.8C60.4395 14.944 60.5115 15.12 60.5115 15.328C60.5115 15.536 60.4395 15.712 60.2955 15.856C60.1595 16 59.9915 16.072 59.7915 16.072ZM62.5511 8.356C62.3431 8.356 62.1671 8.284 62.0231 8.14C61.8871 7.996 61.8191 7.82 61.8191 7.612C61.8191 7.404 61.8871 7.228 62.0231 7.084C62.1671 6.94 62.3431 6.868 62.5511 6.868C62.7591 6.868 62.9311 6.94 63.0671 7.084C63.2111 7.228 63.2831 7.404 63.2831 7.612C63.2831 7.82 63.2111 7.996 63.0671 8.14C62.9311 8.284 62.7591 8.356 62.5511 8.356ZM63.0911 17.428C63.0911 18.012 62.9431 18.44 62.6471 18.712C62.3511 18.984 61.9191 19.12 61.3511 19.12H60.7151V18.196H61.1711C61.4751 18.196 61.6871 18.136 61.8071 18.016C61.9351 17.896 61.9991 17.692 61.9991 17.404V9.424H63.0911V17.428ZM67.2676 16.108C66.7636 16.108 66.3116 16.024 65.9116 15.856C65.5116 15.68 65.1956 15.44 64.9636 15.136C64.7316 14.824 64.6036 14.468 64.5796 14.068H65.7076C65.7396 14.396 65.8916 14.664 66.1636 14.872C66.4436 15.08 66.8076 15.184 67.2556 15.184C67.6716 15.184 67.9996 15.092 68.2396 14.908C68.4796 14.724 68.5996 14.492 68.5996 14.212C68.5996 13.924 68.4716 13.712 68.2156 13.576C67.9596 13.432 67.5636 13.292 67.0276 13.156C66.5396 13.028 66.1396 12.9 65.8276 12.772C65.5236 12.636 65.2596 12.44 65.0356 12.184C64.8196 11.92 64.7116 11.576 64.7116 11.152C64.7116 10.816 64.8116 10.508 65.0116 10.228C65.2116 9.948 65.4956 9.728 65.8636 9.568C66.2316 9.4 66.6516 9.316 67.1236 9.316C67.8516 9.316 68.4396 9.5 68.8876 9.868C69.3356 10.236 69.5756 10.74 69.6076 11.38H68.5156C68.4916 11.036 68.3516 10.76 68.0956 10.552C67.8476 10.344 67.5116 10.24 67.0876 10.24C66.6956 10.24 66.3836 10.324 66.1516 10.492C65.9196 10.66 65.8036 10.88 65.8036 11.152C65.8036 11.368 65.8716 11.548 66.0076 11.692C66.1516 11.828 66.3276 11.94 66.5356 12.028C66.7516 12.108 67.0476 12.2 67.4236 12.304C67.8956 12.432 68.2796 12.56 68.5756 12.688C68.8716 12.808 69.1236 12.992 69.3316 13.24C69.5476 13.488 69.6596 13.812 69.6676 14.212C69.6676 14.572 69.5676 14.896 69.3676 15.184C69.1676 15.472 68.8836 15.7 68.5156 15.868C68.1556 16.028 67.7396 16.108 67.2676 16.108Z" fill="black" fill-opacity="0.88"/>
<g clip-path="url(#clip1_305_418)">
<path d="M12 56C18.6274 56 24 50.6274 24 44C24 37.3726 18.6274 32 12 32C5.37258 32 0 37.3726 0 44C0 50.6274 5.37258 56 12 56Z" fill="#5C2D91"/>
<path opacity="0.1" d="M3.68248 35.375C2.46259 36.4621 1.47755 37.7868 0.787748 39.268C0.097942 40.7492 -0.2821 42.3557 -0.329083 43.989C-0.376066 45.6223 -0.089001 47.2479 0.514517 48.7663C1.11804 50.2848 2.02529 51.6639 3.18067 52.8193C4.33606 53.9747 5.71522 54.8819 7.23364 55.4855C8.75205 56.089 10.3777 56.376 12.011 56.3291C13.6443 56.2821 15.2508 55.902 16.732 55.2122C18.2132 54.5224 19.5379 53.5374 20.625 52.3175L3.68248 35.375Z" fill="white"/>
<path d="M2.77501 45.9687C2.70501 45.9698 2.63554 45.9564 2.571 45.9293C2.50645 45.9021 2.44823 45.8619 2.40001 45.8112C2.35047 45.7622 2.31132 45.7038 2.2849 45.6394C2.25848 45.5749 2.24534 45.5058 2.24626 45.4362C2.24576 45.3666 2.2591 45.2976 2.28549 45.2333C2.31189 45.1689 2.35081 45.1104 2.40001 45.0612C2.44776 45.0096 2.5058 44.9685 2.5704 44.9408C2.635 44.913 2.7047 44.8991 2.77501 44.8999C2.84522 44.8998 2.91472 44.914 2.97921 44.9417C3.04371 44.9695 3.10184 45.0101 3.15001 45.0612C3.20006 45.1099 3.23979 45.1683 3.26685 45.2327C3.2939 45.2971 3.30773 45.3663 3.30751 45.4362C3.30817 45.5061 3.29453 45.5755 3.26745 45.6399C3.24037 45.7044 3.20041 45.7627 3.15001 45.8112C3.10138 45.8614 3.04308 45.9013 2.97863 45.9283C2.91418 45.9554 2.84492 45.9691 2.77501 45.9687Z" fill="white"/>
<path d="M10.2263 45.8751H9.24375L5.73 40.4226C5.64248 40.2882 5.56956 40.1449 5.5125 39.9951H5.4825C5.5159 40.3064 5.52842 40.6196 5.52 40.9326V45.8751H4.72125V39.0388H5.76L9.18 44.3938C9.3225 44.6163 9.415 44.7688 9.4575 44.8513H9.47625C9.43668 44.5179 9.42039 44.182 9.4275 43.8463V39.0388H10.2263V45.8751Z" fill="white"/>
<path d="M15.6337 45.8751H12V39.0388H15.465V39.7626H12.8175V42.0351H15.285V42.7551H12.8175V45.1251H15.6375L15.6337 45.8751Z" fill="white"/>
<path d="M21 39.7626H19.0125V45.8751H18.2138V39.7626H16.2488V39.0388H21V39.7626Z" fill="white"/>
<path d="M9.79502 50.5249C9.52429 50.6561 9.22565 50.7191 8.92502 50.7087C8.72526 50.7177 8.52587 50.6839 8.34025 50.6095C8.15463 50.5351 7.98705 50.4219 7.84877 50.2774C7.57323 49.969 7.42806 49.5657 7.44377 49.1524C7.43369 48.9287 7.46865 48.7052 7.5466 48.4952C7.62454 48.2852 7.74388 48.0929 7.89752 47.9299C8.04725 47.7766 8.22726 47.656 8.42611 47.5759C8.62495 47.4959 8.83828 47.4581 9.05252 47.4649C9.30892 47.4562 9.56434 47.5009 9.80252 47.5962V47.9712C9.5732 47.8442 9.31461 47.7796 9.05252 47.7837C8.88729 47.779 8.72301 47.8101 8.57091 47.8749C8.41881 47.9396 8.28249 48.0364 8.17127 48.1587C7.9374 48.4251 7.81637 48.7721 7.83377 49.1262C7.81626 49.4616 7.92913 49.7908 8.14877 50.0449C8.25413 50.1582 8.38274 50.2474 8.52579 50.3063C8.66885 50.3652 8.82295 50.3925 8.97752 50.3862C9.26545 50.3937 9.5498 50.321 9.79877 50.1762L9.79502 50.5249Z" fill="#F2F2F2"/>
<path d="M11.3287 50.7087C11.1795 50.7135 11.0309 50.6862 10.8931 50.6286C10.7553 50.571 10.6315 50.4845 10.53 50.3749C10.3249 50.1461 10.2185 49.8456 10.2337 49.5387C10.2244 49.3779 10.2471 49.2169 10.3005 49.0649C10.3539 48.913 10.437 48.7732 10.545 48.6537C10.6552 48.5462 10.7862 48.4624 10.9301 48.4076C11.0739 48.3527 11.2275 48.328 11.3812 48.3349C11.5266 48.3272 11.6719 48.351 11.8072 48.4047C11.9425 48.4584 12.0645 48.5408 12.165 48.6462C12.3643 48.8864 12.4648 49.1934 12.4462 49.5049C12.462 49.8211 12.3529 50.1309 12.1425 50.3674C12.0391 50.4792 11.913 50.5674 11.7726 50.6263C11.6323 50.6852 11.4809 50.7132 11.3287 50.7087ZM11.355 48.6574C11.2518 48.6531 11.149 48.6721 11.0542 48.713C10.9594 48.7539 10.8751 48.8156 10.8075 48.8937C10.6632 49.0795 10.5912 49.3113 10.605 49.5462C10.5919 49.774 10.6641 49.9986 10.8075 50.1762C10.8758 50.2531 10.9604 50.3139 11.0551 50.3541C11.1498 50.3943 11.2522 50.4129 11.355 50.4087C11.4556 50.4146 11.5563 50.3974 11.6492 50.3584C11.7422 50.3194 11.825 50.2596 11.8912 50.1837C12.0276 49.9974 12.094 49.769 12.0787 49.5387C12.0936 49.3072 12.0273 49.0778 11.8912 48.8899C11.8259 48.8124 11.7435 48.751 11.6504 48.7107C11.5574 48.6703 11.4563 48.6521 11.355 48.6574Z" fill="#F2F2F2"/>
<path d="M14.1975 48.77C14.1165 48.7169 14.0204 48.6919 13.9238 48.6988C13.8482 48.7015 13.7745 48.7228 13.7091 48.7607C13.6437 48.7986 13.5887 48.8521 13.5488 48.9163C13.4372 49.093 13.3834 49.3001 13.395 49.5088V50.6563H13.02V48.4063H13.395V48.875C13.4362 48.73 13.5182 48.5998 13.6313 48.5C13.7291 48.4151 13.8543 48.3685 13.9838 48.3688C14.0563 48.3655 14.1287 48.3757 14.1975 48.3988V48.77Z" fill="#F2F2F2"/>
<path d="M16.395 49.625H14.8088C14.7981 49.8346 14.8663 50.0406 15 50.2025C15.0695 50.2718 15.1529 50.3257 15.2446 50.3606C15.3364 50.3955 15.4345 50.4106 15.5325 50.405C15.7867 50.4024 16.0326 50.3139 16.23 50.1537V50.4912C15.9982 50.644 15.7236 50.7189 15.4463 50.705C15.3063 50.712 15.1666 50.6881 15.0369 50.635C14.9073 50.5818 14.791 50.5007 14.6963 50.3975C14.501 50.1539 14.4035 49.8465 14.4225 49.535C14.409 49.2227 14.515 48.917 14.7188 48.68C14.8115 48.5728 14.9269 48.4876 15.0566 48.4306C15.1863 48.3735 15.3271 48.346 15.4688 48.35C15.5967 48.3428 15.7245 48.3647 15.8427 48.4141C15.961 48.4634 16.0664 48.539 16.1513 48.635C16.3239 48.8626 16.4091 49.1448 16.3913 49.43L16.395 49.625ZM16.02 49.3212C16.0276 49.1474 15.9746 48.9764 15.87 48.8375C15.8187 48.7795 15.7549 48.7339 15.6835 48.704C15.6121 48.6741 15.5348 48.6608 15.4575 48.665C15.3768 48.664 15.2968 48.6798 15.2225 48.7114C15.1483 48.7431 15.0814 48.7898 15.0263 48.8487C14.9028 48.9793 14.8252 49.1464 14.805 49.325L16.02 49.3212Z" fill="#F2F2F2"/>
</g>
<path d="M37.868 46.14H34.22L33.548 48H32.396L35.42 39.684H36.68L39.692 48H38.54L37.868 46.14ZM37.556 45.252L36.044 41.028L34.532 45.252H37.556ZM43.6619 48.084C43.1099 48.084 42.6139 47.988 42.1739 47.796C41.7419 47.596 41.4019 47.324 41.1539 46.98C40.9059 46.628 40.7779 46.224 40.7699 45.768H41.9339C41.9739 46.16 42.1339 46.492 42.4139 46.764C42.7019 47.028 43.1179 47.16 43.6619 47.16C44.1819 47.16 44.5899 47.032 44.8859 46.776C45.1899 46.512 45.3419 46.176 45.3419 45.768C45.3419 45.448 45.2539 45.188 45.0779 44.988C44.9019 44.788 44.6819 44.636 44.4179 44.532C44.1539 44.428 43.7979 44.316 43.3499 44.196C42.7979 44.052 42.3539 43.908 42.0179 43.764C41.6899 43.62 41.4059 43.396 41.1659 43.092C40.9339 42.78 40.8179 42.364 40.8179 41.844C40.8179 41.388 40.9339 40.984 41.1659 40.632C41.3979 40.28 41.7219 40.008 42.1379 39.816C42.5619 39.624 43.0459 39.528 43.5899 39.528C44.3739 39.528 45.0139 39.724 45.5099 40.116C46.0139 40.508 46.2979 41.028 46.3619 41.676H45.1619C45.1219 41.356 44.9539 41.076 44.6579 40.836C44.3619 40.588 43.9699 40.464 43.4819 40.464C43.0259 40.464 42.6539 40.584 42.3659 40.824C42.0779 41.056 41.9339 41.384 41.9339 41.808C41.9339 42.112 42.0179 42.36 42.1859 42.552C42.3619 42.744 42.5739 42.892 42.8219 42.996C43.0779 43.092 43.4339 43.204 43.8899 43.332C44.4419 43.484 44.8859 43.636 45.2219 43.788C45.5579 43.932 45.8459 44.16 46.0859 44.472C46.3259 44.776 46.4459 45.192 46.4459 45.72C46.4459 46.128 46.3379 46.512 46.1219 46.872C45.9059 47.232 45.5859 47.524 45.1619 47.748C44.7379 47.972 44.2379 48.084 43.6619 48.084ZM53.6449 42.084C53.6449 42.78 53.4049 43.36 52.9249 43.824C52.4529 44.28 51.7289 44.508 50.7529 44.508H49.1449V48H48.0529V39.636H50.7529C51.6969 39.636 52.4129 39.864 52.9009 40.32C53.3969 40.776 53.6449 41.364 53.6449 42.084ZM50.7529 43.608C51.3609 43.608 51.8089 43.476 52.0969 43.212C52.3849 42.948 52.5289 42.572 52.5289 42.084C52.5289 41.052 51.9369 40.536 50.7529 40.536H49.1449V43.608H50.7529ZM55.3501 48.072C55.1421 48.072 54.9661 48 54.8221 47.856C54.6781 47.712 54.6061 47.536 54.6061 47.328C54.6061 47.12 54.6781 46.944 54.8221 46.8C54.9661 46.656 55.1421 46.584 55.3501 46.584C55.5501 46.584 55.7181 46.656 55.8541 46.8C55.9981 46.944 56.0701 47.12 56.0701 47.328C56.0701 47.536 55.9981 47.712 55.8541 47.856C55.7181 48 55.5501 48.072 55.3501 48.072ZM64.0977 48H63.0057L58.6137 41.34V48H57.5217V39.624H58.6137L63.0057 46.272V39.624H64.0977V48ZM67.0512 40.524V43.32H70.0992V44.22H67.0512V47.1H70.4592V48H65.9592V39.624H70.4592V40.524H67.0512ZM77.2595 39.636V40.524H74.9795V48H73.8875V40.524H71.5955V39.636H77.2595ZM81.3949 43.812C81.3949 42.996 81.5789 42.264 81.9469 41.616C82.3149 40.96 82.8149 40.448 83.4469 40.08C84.0869 39.712 84.7949 39.528 85.5709 39.528C86.4829 39.528 87.2789 39.748 87.9589 40.188C88.6389 40.628 89.1349 41.252 89.4469 42.06H88.1389C87.9069 41.556 87.5709 41.168 87.1309 40.896C86.6989 40.624 86.1789 40.488 85.5709 40.488C84.9869 40.488 84.4629 40.624 83.9989 40.896C83.5349 41.168 83.1709 41.556 82.9069 42.06C82.6429 42.556 82.5109 43.14 82.5109 43.812C82.5109 44.476 82.6429 45.06 82.9069 45.564C83.1709 46.06 83.5349 46.444 83.9989 46.716C84.4629 46.988 84.9869 47.124 85.5709 47.124C86.1789 47.124 86.6989 46.992 87.1309 46.728C87.5709 46.456 87.9069 46.068 88.1389 45.564H89.4469C89.1349 46.364 88.6389 46.984 87.9589 47.424C87.2789 47.856 86.4829 48.072 85.5709 48.072C84.7949 48.072 84.0869 47.892 83.4469 47.532C82.8149 47.164 82.3149 46.656 81.9469 46.008C81.5789 45.36 81.3949 44.628 81.3949 43.812ZM93.9404 48.108C93.3244 48.108 92.7644 47.968 92.2604 47.688C91.7644 47.408 91.3724 47.012 91.0844 46.5C90.8044 45.98 90.6644 45.38 90.6644 44.7C90.6644 44.028 90.8084 43.436 91.0964 42.924C91.3924 42.404 91.7924 42.008 92.2964 41.736C92.8004 41.456 93.3644 41.316 93.9884 41.316C94.6124 41.316 95.1764 41.456 95.6804 41.736C96.1844 42.008 96.5804 42.4 96.8684 42.912C97.1644 43.424 97.3124 44.02 97.3124 44.7C97.3124 45.38 97.1604 45.98 96.8564 46.5C96.5604 47.012 96.1564 47.408 95.6444 47.688C95.1324 47.968 94.5644 48.108 93.9404 48.108ZM93.9404 47.148C94.3324 47.148 94.7004 47.056 95.0444 46.872C95.3884 46.688 95.6644 46.412 95.8724 46.044C96.0884 45.676 96.1964 45.228 96.1964 44.7C96.1964 44.172 96.0924 43.724 95.8844 43.356C95.6764 42.988 95.4044 42.716 95.0684 42.54C94.7324 42.356 94.3684 42.264 93.9764 42.264C93.5764 42.264 93.2084 42.356 92.8724 42.54C92.5444 42.716 92.2804 42.988 92.0804 43.356C91.8804 43.724 91.7804 44.172 91.7804 44.7C91.7804 45.236 91.8764 45.688 92.0684 46.056C92.2684 46.424 92.5324 46.7 92.8604 46.884C93.1884 47.06 93.5484 47.148 93.9404 47.148ZM99.8402 42.492C100.032 42.116 100.304 41.824 100.656 41.616C101.016 41.408 101.452 41.304 101.964 41.304V42.432H101.676C100.452 42.432 99.8402 43.096 99.8402 44.424V48H98.7482V41.424H99.8402V42.492ZM109.225 44.46C109.225 44.668 109.213 44.888 109.189 45.12H103.933C103.973 45.768 104.193 46.276 104.593 46.644C105.001 47.004 105.493 47.184 106.069 47.184C106.541 47.184 106.933 47.076 107.245 46.86C107.565 46.636 107.789 46.34 107.917 45.972H109.093C108.917 46.604 108.565 47.12 108.037 47.52C107.509 47.912 106.853 48.108 106.069 48.108C105.445 48.108 104.885 47.968 104.389 47.688C103.901 47.408 103.517 47.012 103.237 46.5C102.957 45.98 102.817 45.38 102.817 44.7C102.817 44.02 102.953 43.424 103.225 42.912C103.497 42.4 103.877 42.008 104.365 41.736C104.861 41.456 105.429 41.316 106.069 41.316C106.693 41.316 107.245 41.452 107.725 41.724C108.205 41.996 108.573 42.372 108.829 42.852C109.093 43.324 109.225 43.86 109.225 44.46ZM108.097 44.232C108.097 43.816 108.005 43.46 107.821 43.164C107.637 42.86 107.385 42.632 107.065 42.48C106.753 42.32 106.405 42.24 106.021 42.24C105.469 42.24 104.997 42.416 104.605 42.768C104.221 43.12 104.001 43.608 103.945 44.232H108.097Z" fill="black" fill-opacity="0.88"/>
<defs>
<clipPath id="clip0_305_418">
<rect width="24" height="24" fill="white"/>
</clipPath>
<clipPath id="clip1_305_418">
<rect width="24" height="24" fill="white" transform="translate(0 32)"/>
</clipPath>
</defs>
</svg>
