<svg width="121" height="56" viewBox="0 0 121 56" fill="none" xmlns="http://www.w3.org/2000/svg">
<g clip-path="url(#clip0_302_386)">
<path d="M24 12C24 18.6274 18.6274 24 12 24C5.88539 24 0.839016 19.4268 0.0950159 13.514C0.0316263 13.0118 -0.000108294 12.5061 2.77636e-07 12C2.77636e-07 11.0606 0.107766 10.1461 0.312 9.26888C1.54823 3.95756 6.312 0 12 0C17.6738 0 22.4282 3.93797 23.6782 9.22973C23.8444 9.93218 23.9466 10.6483 23.9834 11.3692C23.9946 11.5793 24.0001 11.7896 24 12Z" fill="#F2F2F2"/>
<path d="M11.3998 12.9638V9.84389L8.69785 8.28394L5.99593 9.84389V12.9638L8.69785 14.5238L11.3998 12.9638Z" fill="#3B8739"/>
<path d="M22.0407 12.4903L23.8015 13.5071L22.0407 14.5239L19.339 12.9639V9.84394L22.0407 8.28394L23.6781 9.22973C23.8443 9.93217 23.9465 10.6483 23.9833 11.3692L22.9821 11.9471V10.8603L22.0407 10.3171L21.0993 10.8603V11.9471L22.0407 12.4903Z" fill="#333333"/>
<path d="M22.5653 11.7065V11.1009L22.0408 10.7981L21.5163 11.1009V11.7065L22.0408 12.0094L22.5653 11.7065Z" fill="#66A060"/>
<path d="M4.71966 9.84398V13.9582L2.91769 12.9302V10.8211L2.01797 10.3014L1.1182 10.8211V12.9301L0.0950159 13.514C0.0316263 13.0118 -0.000108294 12.5062 2.77636e-07 12C2.77636e-07 11.0606 0.107766 10.1462 0.312 9.26892L2.01797 8.28394L4.71966 9.84398Z" fill="#333333"/>
<path d="M8.69774 8.28369L11.3996 12.9635L8.69776 14.5234L5.99586 9.84362L8.69774 8.28369Z" fill="#6DA75D"/>
<path d="M5.99593 12.9637L6.92368 11.4508L5.99593 9.84375V12.9637Z" fill="#55A344"/>
<path d="M10.4991 11.4037L11.3998 9.84389L8.69786 8.28394L10.4991 11.4037Z" fill="#639D57"/>
<path d="M16.2446 4.66797V8.80722L15.339 8.28409L12.6368 9.84409V12.9641L15.339 14.5241L18.0407 12.9641V5.62942L16.2446 4.66797ZM16.2397 11.9238L15.3389 12.444L14.4382 11.9238V10.884L15.3389 10.3638L16.2397 10.884V11.9238Z" fill="#333333"/>
<path d="M13.2258 16.8147C13.2258 16.8147 13.1727 16.3586 12.6849 16.3586C12.197 16.3586 11.863 16.4222 11.863 16.6927C11.863 16.9632 12.8122 16.9632 13.1728 17.0692C13.5334 17.1752 13.8515 17.451 13.6924 17.9389C13.5333 18.4267 13.0455 18.4798 12.2925 18.4798C11.5395 18.4798 11.3697 17.854 11.3697 17.6101H11.794C11.794 17.6101 11.7409 17.9919 12.2394 18.0555C12.7378 18.1191 13.2145 18.1549 13.2787 17.7692C13.3636 17.2601 11.6666 17.5147 11.5181 17.0162C11.3927 16.595 11.4651 16.0405 12.3136 15.9556C13.162 15.8707 13.6287 16.2453 13.6287 16.8041L13.2258 16.8147Z" fill="#66A060"/>
<path d="M9.12767 18.8032L10.0655 19.3447C10.5368 19.6167 11.1258 19.2766 11.1258 18.7325V16.0374H10.7435V18.6262C10.7435 18.9234 10.4219 19.1091 10.1645 18.9605L9.50989 18.5826V15.8198L11.9025 14.4385L14.2952 15.8198V18.5826L11.9025 19.9638L11.2133 19.5659L10.7632 19.7474L11.9025 20.4052L14.6774 18.8031V15.5991L11.9025 13.9971L9.12762 15.5992V18.8032H9.12767Z" fill="#66A060"/>
</g>
<path d="M39.5 16H38.408L34.016 9.34V16H32.924V7.624H34.016L38.408 14.272V7.624H39.5V16ZM44.2295 16.108C43.6135 16.108 43.0535 15.968 42.5495 15.688C42.0535 15.408 41.6615 15.012 41.3735 14.5C41.0935 13.98 40.9535 13.38 40.9535 12.7C40.9535 12.028 41.0975 11.436 41.3855 10.924C41.6815 10.404 42.0815 10.008 42.5855 9.736C43.0895 9.456 43.6535 9.316 44.2775 9.316C44.9015 9.316 45.4655 9.456 45.9695 9.736C46.4735 10.008 46.8695 10.4 47.1575 10.912C47.4535 11.424 47.6015 12.02 47.6015 12.7C47.6015 13.38 47.4495 13.98 47.1455 14.5C46.8495 15.012 46.4455 15.408 45.9335 15.688C45.4215 15.968 44.8535 16.108 44.2295 16.108ZM44.2295 15.148C44.6215 15.148 44.9895 15.056 45.3335 14.872C45.6775 14.688 45.9535 14.412 46.1615 14.044C46.3775 13.676 46.4855 13.228 46.4855 12.7C46.4855 12.172 46.3815 11.724 46.1735 11.356C45.9655 10.988 45.6935 10.716 45.3575 10.54C45.0215 10.356 44.6575 10.264 44.2655 10.264C43.8655 10.264 43.4975 10.356 43.1615 10.54C42.8335 10.716 42.5695 10.988 42.3695 11.356C42.1695 11.724 42.0695 12.172 42.0695 12.7C42.0695 13.236 42.1655 13.688 42.3575 14.056C42.5575 14.424 42.8215 14.7 43.1495 14.884C43.4775 15.06 43.8375 15.148 44.2295 15.148ZM48.6293 12.688C48.6293 12.016 48.7653 11.428 49.0373 10.924C49.3093 10.412 49.6813 10.016 50.1533 9.736C50.6333 9.456 51.1693 9.316 51.7613 9.316C52.2733 9.316 52.7493 9.436 53.1893 9.676C53.6293 9.908 53.9653 10.216 54.1973 10.6V7.12H55.3013V16H54.1973V14.764C53.9813 15.156 53.6613 15.48 53.2373 15.736C52.8133 15.984 52.3173 16.108 51.7493 16.108C51.1653 16.108 50.6333 15.964 50.1533 15.676C49.6813 15.388 49.3093 14.984 49.0373 14.464C48.7653 13.944 48.6293 13.352 48.6293 12.688ZM54.1973 12.7C54.1973 12.204 54.0973 11.772 53.8973 11.404C53.6973 11.036 53.4253 10.756 53.0813 10.564C52.7453 10.364 52.3733 10.264 51.9653 10.264C51.5573 10.264 51.1853 10.36 50.8493 10.552C50.5133 10.744 50.2453 11.024 50.0453 11.392C49.8453 11.76 49.7453 12.192 49.7453 12.688C49.7453 13.192 49.8453 13.632 50.0453 14.008C50.2453 14.376 50.5133 14.66 50.8493 14.86C51.1853 15.052 51.5573 15.148 51.9653 15.148C52.3733 15.148 52.7453 15.052 53.0813 14.86C53.4253 14.66 53.6973 14.376 53.8973 14.008C54.0973 13.632 54.1973 13.196 54.1973 12.7ZM63.1467 12.46C63.1467 12.668 63.1347 12.888 63.1107 13.12H57.8547C57.8947 13.768 58.1147 14.276 58.5147 14.644C58.9227 15.004 59.4147 15.184 59.9907 15.184C60.4627 15.184 60.8547 15.076 61.1667 14.86C61.4867 14.636 61.7107 14.34 61.8387 13.972H63.0147C62.8387 14.604 62.4867 15.12 61.9587 15.52C61.4307 15.912 60.7747 16.108 59.9907 16.108C59.3667 16.108 58.8067 15.968 58.3107 15.688C57.8227 15.408 57.4387 15.012 57.1587 14.5C56.8787 13.98 56.7387 13.38 56.7387 12.7C56.7387 12.02 56.8747 11.424 57.1467 10.912C57.4187 10.4 57.7987 10.008 58.2867 9.736C58.7827 9.456 59.3507 9.316 59.9907 9.316C60.6147 9.316 61.1667 9.452 61.6467 9.724C62.1267 9.996 62.4947 10.372 62.7507 10.852C63.0147 11.324 63.1467 11.86 63.1467 12.46ZM62.0187 12.232C62.0187 11.816 61.9267 11.46 61.7427 11.164C61.5587 10.86 61.3067 10.632 60.9867 10.48C60.6747 10.32 60.3267 10.24 59.9427 10.24C59.3907 10.24 58.9187 10.416 58.5267 10.768C58.1427 11.12 57.9227 11.608 57.8667 12.232H62.0187ZM64.9361 16.072C64.7281 16.072 64.5521 16 64.4081 15.856C64.2641 15.712 64.1921 15.536 64.1921 15.328C64.1921 15.12 64.2641 14.944 64.4081 14.8C64.5521 14.656 64.7281 14.584 64.9361 14.584C65.1361 14.584 65.3041 14.656 65.4401 14.8C65.5841 14.944 65.6561 15.12 65.6561 15.328C65.6561 15.536 65.5841 15.712 65.4401 15.856C65.3041 16 65.1361 16.072 64.9361 16.072ZM71.3196 7.636V13.816C71.3196 14.504 71.1076 15.056 70.6836 15.472C70.2596 15.88 69.6996 16.084 69.0036 16.084C68.2996 16.084 67.7356 15.876 67.3116 15.46C66.8876 15.036 66.6756 14.46 66.6756 13.732H67.7676C67.7756 14.14 67.8796 14.472 68.0796 14.728C68.2876 14.984 68.5956 15.112 69.0036 15.112C69.4116 15.112 69.7156 14.992 69.9156 14.752C70.1156 14.504 70.2156 14.192 70.2156 13.816V7.636H71.3196ZM76.1229 16.084C75.5709 16.084 75.0749 15.988 74.6349 15.796C74.2029 15.596 73.8629 15.324 73.6149 14.98C73.3669 14.628 73.2389 14.224 73.2309 13.768H74.3949C74.4349 14.16 74.5949 14.492 74.8749 14.764C75.1629 15.028 75.5789 15.16 76.1229 15.16C76.6429 15.16 77.0509 15.032 77.3469 14.776C77.6509 14.512 77.8029 14.176 77.8029 13.768C77.8029 13.448 77.7149 13.188 77.5389 12.988C77.3629 12.788 77.1429 12.636 76.8789 12.532C76.6149 12.428 76.2589 12.316 75.8109 12.196C75.2589 12.052 74.8149 11.908 74.4789 11.764C74.1509 11.62 73.8669 11.396 73.6269 11.092C73.3949 10.78 73.2789 10.364 73.2789 9.844C73.2789 9.388 73.3949 8.984 73.6269 8.632C73.8589 8.28 74.1829 8.008 74.5989 7.816C75.0229 7.624 75.5069 7.528 76.0509 7.528C76.8349 7.528 77.4749 7.724 77.9709 8.116C78.4749 8.508 78.7589 9.028 78.8229 9.676H77.6229C77.5829 9.356 77.4149 9.076 77.1189 8.836C76.8229 8.588 76.4309 8.464 75.9429 8.464C75.4869 8.464 75.1149 8.584 74.8269 8.824C74.5389 9.056 74.3949 9.384 74.3949 9.808C74.3949 10.112 74.4789 10.36 74.6469 10.552C74.8229 10.744 75.0349 10.892 75.2829 10.996C75.5389 11.092 75.8949 11.204 76.3509 11.332C76.9029 11.484 77.3469 11.636 77.6829 11.788C78.0189 11.932 78.3069 12.16 78.5469 12.472C78.7869 12.776 78.9069 13.192 78.9069 13.72C78.9069 14.128 78.7989 14.512 78.5829 14.872C78.3669 15.232 78.0469 15.524 77.6229 15.748C77.1989 15.972 76.6989 16.084 76.1229 16.084Z" fill="black" fill-opacity="0.88"/>
<g clip-path="url(#clip1_302_386)">
<path d="M12 32L0.75 35.984L2.4659 50.756L12 56L21.5341 50.756L23.25 35.984L12 32Z" fill="#DD0031"/>
<path d="M12 32V34.664V34.652V46.808V56L21.5341 50.756L23.25 35.984L12 32Z" fill="#C3002F"/>
<path d="M11.9998 34.6523L4.96709 50.3123H7.58927L9.00307 46.8083H14.9725L16.3863 50.3123H19.0084L11.9998 34.6523ZM14.0541 44.6483H9.9456L11.9998 39.7403L14.0541 44.6483Z" fill="white"/>
</g>
<path d="M37.868 46.14H34.22L33.548 48H32.396L35.42 39.684H36.68L39.692 48H38.54L37.868 46.14ZM37.556 45.252L36.044 41.028L34.532 45.252H37.556ZM44.2139 41.304C45.0139 41.304 45.6619 41.548 46.1579 42.036C46.6539 42.516 46.9019 43.212 46.9019 44.124V48H45.8219V44.28C45.8219 43.624 45.6579 43.124 45.3299 42.78C45.0019 42.428 44.5539 42.252 43.9859 42.252C43.4099 42.252 42.9499 42.432 42.6059 42.792C42.2699 43.152 42.1019 43.676 42.1019 44.364V48H41.0099V41.424H42.1019V42.36C42.3179 42.024 42.6099 41.764 42.9779 41.58C43.3539 41.396 43.7659 41.304 44.2139 41.304ZM51.3977 41.316C51.9657 41.316 52.4617 41.44 52.8857 41.688C53.3177 41.936 53.6377 42.248 53.8457 42.624V41.424H54.9497V48.144C54.9497 48.744 54.8217 49.276 54.5657 49.74C54.3097 50.212 53.9417 50.58 53.4617 50.844C52.9897 51.108 52.4377 51.24 51.8057 51.24C50.9417 51.24 50.2217 51.036 49.6457 50.628C49.0697 50.22 48.7297 49.664 48.6257 48.96H49.7057C49.8257 49.36 50.0737 49.68 50.4497 49.92C50.8257 50.168 51.2777 50.292 51.8057 50.292C52.4057 50.292 52.8937 50.104 53.2697 49.728C53.6537 49.352 53.8457 48.824 53.8457 48.144V46.764C53.6297 47.148 53.3097 47.468 52.8857 47.724C52.4617 47.98 51.9657 48.108 51.3977 48.108C50.8137 48.108 50.2817 47.964 49.8017 47.676C49.3297 47.388 48.9577 46.984 48.6857 46.464C48.4137 45.944 48.2777 45.352 48.2777 44.688C48.2777 44.016 48.4137 43.428 48.6857 42.924C48.9577 42.412 49.3297 42.016 49.8017 41.736C50.2817 41.456 50.8137 41.316 51.3977 41.316ZM53.8457 44.7C53.8457 44.204 53.7457 43.772 53.5457 43.404C53.3457 43.036 53.0737 42.756 52.7297 42.564C52.3937 42.364 52.0217 42.264 51.6137 42.264C51.2057 42.264 50.8337 42.36 50.4977 42.552C50.1617 42.744 49.8937 43.024 49.6937 43.392C49.4937 43.76 49.3937 44.192 49.3937 44.688C49.3937 45.192 49.4937 45.632 49.6937 46.008C49.8937 46.376 50.1617 46.66 50.4977 46.86C50.8337 47.052 51.2057 47.148 51.6137 47.148C52.0217 47.148 52.3937 47.052 52.7297 46.86C53.0737 46.66 53.3457 46.376 53.5457 46.008C53.7457 45.632 53.8457 45.196 53.8457 44.7ZM62.6271 41.424V48H61.5351V47.028C61.3271 47.364 61.0351 47.628 60.6591 47.82C60.2911 48.004 59.8831 48.096 59.4351 48.096C58.9231 48.096 58.4631 47.992 58.0551 47.784C57.6471 47.568 57.3231 47.248 57.0831 46.824C56.8511 46.4 56.7351 45.884 56.7351 45.276V41.424H57.8151V45.132C57.8151 45.78 57.9791 46.28 58.3071 46.632C58.6351 46.976 59.0831 47.148 59.6511 47.148C60.2351 47.148 60.6951 46.968 61.0311 46.608C61.3671 46.248 61.5351 45.724 61.5351 45.036V41.424H62.6271ZM65.5629 39.12V48H64.4709V39.12H65.5629ZM67.016 44.688C67.016 44.016 67.152 43.428 67.424 42.924C67.696 42.412 68.068 42.016 68.54 41.736C69.02 41.456 69.552 41.316 70.136 41.316C70.712 41.316 71.212 41.44 71.636 41.688C72.06 41.936 72.376 42.248 72.584 42.624V41.424H73.688V48H72.584V46.776C72.368 47.16 72.044 47.48 71.612 47.736C71.188 47.984 70.692 48.108 70.124 48.108C69.54 48.108 69.012 47.964 68.54 47.676C68.068 47.388 67.696 46.984 67.424 46.464C67.152 45.944 67.016 45.352 67.016 44.688ZM72.584 44.7C72.584 44.204 72.484 43.772 72.284 43.404C72.084 43.036 71.812 42.756 71.468 42.564C71.132 42.364 70.76 42.264 70.352 42.264C69.944 42.264 69.572 42.36 69.236 42.552C68.9 42.744 68.632 43.024 68.432 43.392C68.232 43.76 68.132 44.192 68.132 44.688C68.132 45.192 68.232 45.632 68.432 46.008C68.632 46.376 68.9 46.66 69.236 46.86C69.572 47.052 69.944 47.148 70.352 47.148C70.76 47.148 71.132 47.052 71.468 46.86C71.812 46.66 72.084 46.376 72.284 46.008C72.484 45.632 72.584 45.196 72.584 44.7ZM76.6254 42.492C76.8174 42.116 77.0894 41.824 77.4414 41.616C77.8014 41.408 78.2374 41.304 78.7494 41.304V42.432H78.4614C77.2374 42.432 76.6254 43.096 76.6254 44.424V48H75.5334V41.424H76.6254V42.492ZM84.2219 39.636V45.816C84.2219 46.504 84.0099 47.056 83.5859 47.472C83.1619 47.88 82.6019 48.084 81.9059 48.084C81.2019 48.084 80.6379 47.876 80.2139 47.46C79.7899 47.036 79.5779 46.46 79.5779 45.732H80.6699C80.6779 46.14 80.7819 46.472 80.9819 46.728C81.1899 46.984 81.4979 47.112 81.9059 47.112C82.3139 47.112 82.6179 46.992 82.8179 46.752C83.0179 46.504 83.1179 46.192 83.1179 45.816V39.636H84.2219ZM89.0252 48.084C88.4732 48.084 87.9772 47.988 87.5372 47.796C87.1052 47.596 86.7652 47.324 86.5172 46.98C86.2692 46.628 86.1412 46.224 86.1332 45.768H87.2972C87.3372 46.16 87.4972 46.492 87.7772 46.764C88.0652 47.028 88.4812 47.16 89.0252 47.16C89.5452 47.16 89.9532 47.032 90.2492 46.776C90.5532 46.512 90.7052 46.176 90.7052 45.768C90.7052 45.448 90.6172 45.188 90.4412 44.988C90.2652 44.788 90.0452 44.636 89.7812 44.532C89.5172 44.428 89.1612 44.316 88.7132 44.196C88.1612 44.052 87.7172 43.908 87.3812 43.764C87.0532 43.62 86.7692 43.396 86.5292 43.092C86.2972 42.78 86.1812 42.364 86.1812 41.844C86.1812 41.388 86.2972 40.984 86.5292 40.632C86.7612 40.28 87.0852 40.008 87.5012 39.816C87.9252 39.624 88.4092 39.528 88.9532 39.528C89.7372 39.528 90.3772 39.724 90.8732 40.116C91.3772 40.508 91.6612 41.028 91.7252 41.676H90.5252C90.4852 41.356 90.3172 41.076 90.0212 40.836C89.7252 40.588 89.3332 40.464 88.8452 40.464C88.3892 40.464 88.0172 40.584 87.7292 40.824C87.4412 41.056 87.2972 41.384 87.2972 41.808C87.2972 42.112 87.3812 42.36 87.5492 42.552C87.7252 42.744 87.9372 42.892 88.1852 42.996C88.4412 43.092 88.7972 43.204 89.2532 43.332C89.8052 43.484 90.2492 43.636 90.5852 43.788C90.9212 43.932 91.2092 44.16 91.4492 44.472C91.6892 44.776 91.8092 45.192 91.8092 45.72C91.8092 46.128 91.7012 46.512 91.4852 46.872C91.2692 47.232 90.9492 47.524 90.5252 47.748C90.1012 47.972 89.6012 48.084 89.0252 48.084Z" fill="black" fill-opacity="0.88"/>
<defs>
<clipPath id="clip0_302_386">
<rect width="24" height="24" fill="white"/>
</clipPath>
<clipPath id="clip1_302_386">
<rect width="24" height="24" fill="white" transform="translate(0 32)"/>
</clipPath>
</defs>
</svg>
