<svg width="217" height="217" viewBox="0 0 217 217" fill="none" xmlns="http://www.w3.org/2000/svg">
<g id="Frame" clip-path="url(#clip0_172_1678)">
<g id="Group">
<path id="Vector" d="M108.45 216.9C168.345 216.9 216.9 168.345 216.9 108.45C216.9 48.5547 168.345 0 108.45 0C48.5547 0 0 48.5547 0 108.45C0 168.345 48.5547 216.9 108.45 216.9Z" fill="#C13584"/>
<g id="Group_2">
<path id="Vector_2" d="M96.1 110.33C99.14 113.38 100.66 118.56 100.66 125.9V129.93C100.66 134.22 100.53 137.45 100.26 139.59C99.99 141.74 99.14 144.25 97.71 147.11C95.03 152.3 88.22 154.89 77.31 154.89C66.39 154.89 59.19 153.1 55.7 149.52C52.21 145.94 50.47 139.14 50.47 129.12C50.47 124.65 50.65 121.34 51.01 119.19C52.26 103.44 56.92 89.98 64.97 78.79C73.02 67.61 83.22 62.01 95.57 62.01C96.82 62.01 97.94 62.95 98.93 64.83C99.91 66.71 100.41 69.13 100.41 72.08C100.41 75.03 100.01 77.41 99.2 79.19C98.39 80.98 97.5 82.01 96.52 82.28C95.53 82.55 94.78 82.73 94.24 82.82C93.7 82.91 92.76 83.36 91.42 84.16C90.08 84.97 88.87 86.08 87.8 87.51C84.75 91.09 83.06 96.9 82.7 104.96C88.59 105.5 93.06 107.29 96.1 110.33ZM148.18 104.96C154.09 105.5 158.6 107.33 161.74 110.46C164.87 113.59 166.44 120.08 166.44 129.92C166.44 140.48 164.56 147.19 160.8 150.05C156.32 153.27 149.48 154.88 140.27 154.88C131.05 154.88 124.7 153.09 121.21 149.51C117.72 145.93 115.98 139.13 115.98 129.11C115.98 124.64 116.16 121.33 116.52 119.18C117.77 103.43 122.47 89.97 130.61 78.78C138.75 67.6 149 62 161.34 62C162.59 62 163.71 62.94 164.7 64.82C165.68 66.7 166.18 69.12 166.18 72.07C166.18 75.02 165.78 77.4 164.97 79.18C164.16 80.97 163.27 82 162.29 82.27C161.3 82.54 160.55 82.72 160.01 82.81C159.47 82.9 158.49 83.35 157.06 84.15C155.63 84.96 154.38 86.07 153.3 87.5C150.23 91.1 148.54 96.91 148.18 104.96Z" fill="white"/>
</g>
</g>
</g>
<defs>
<clipPath id="clip0_172_1678">
<rect width="216.9" height="216.9" fill="white"/>
</clipPath>
</defs>
</svg>
