<svg width="121" height="25" viewBox="0 0 121 25" fill="none" xmlns="http://www.w3.org/2000/svg">
<g clip-path="url(#clip0_302_388)">
<path d="M22.1025 6.03678C21.2084 4.63643 19.2857 4.05474 16.6949 4.38867C16.6033 4.39934 16.5064 4.4156 16.4148 4.42627C16.3772 4.34025 16.3395 4.25397 16.2964 4.16795C15.1816 1.80335 13.6573 0.5 11.9984 0.5C10.3395 0.5 8.8099 1.80341 7.70033 4.16795C7.66263 4.25397 7.61954 4.34025 7.58184 4.42627C7.48489 4.41032 7.39333 4.39934 7.30182 4.38862C4.70584 4.0493 2.78838 4.63648 1.8942 6.03683C1.00024 7.43719 1.27481 9.4245 2.66439 11.6328C2.85143 11.9301 3.05093 12.2194 3.26234 12.5C3.04691 12.7907 2.84768 13.0762 2.66445 13.367C1.27481 15.5752 1.00024 17.568 1.8942 18.9632C2.62131 20.1049 4.03259 20.7028 5.93368 20.7028C6.38933 20.7004 6.84445 20.6698 7.29633 20.6111C7.38789 20.6004 7.48484 20.5842 7.5764 20.5735C7.61426 20.6597 7.65191 20.7458 7.69505 20.832C8.80995 23.1964 10.3342 24.5 11.9929 24.5C13.6518 24.5 15.1816 23.1964 16.2909 20.832C16.3286 20.7458 16.3717 20.6597 16.4094 20.5735C16.5063 20.5897 16.5979 20.6004 16.6896 20.6111C17.1412 20.6723 17.5964 20.7029 18.0521 20.7029C19.9534 20.7029 21.3645 20.1049 22.0916 18.9632C22.9857 17.5628 22.711 15.5752 21.3216 13.367C21.1345 13.0697 20.935 12.7805 20.7236 12.5C20.9391 12.209 21.1383 11.9237 21.3216 11.6328C22.7272 9.41928 23.002 7.43164 22.1025 6.03678ZM8.6753 4.62576C9.58542 2.68681 10.7973 1.57719 11.9983 1.57719C13.1994 1.57719 14.4113 2.68681 15.3215 4.62576C15.3221 4.62982 15.324 4.63357 15.3269 4.63648C14.1829 4.91166 13.0668 5.29204 11.9929 5.77276C10.92 5.28962 9.8037 4.90916 8.65904 4.63648C8.66981 4.63648 8.66981 4.63099 8.67525 4.62571L8.6753 4.62576ZM16.8512 12.5C16.8514 13.3618 16.8047 14.2231 16.7111 15.0798C16.0398 15.6215 15.3385 16.125 14.6105 16.5878C13.7705 17.1273 12.8961 17.6114 11.9929 18.0368C11.0915 17.6081 10.2173 17.1241 9.37542 16.5878C8.64834 16.1237 7.94712 15.6203 7.27489 15.0798C7.08807 13.3649 7.08807 11.6349 7.27489 9.92001C8.72662 8.7534 10.3101 7.76101 11.993 6.96317C12.8945 7.39177 13.7687 7.8756 14.6106 8.41189C15.3377 8.876 16.0389 9.37944 16.7111 9.91996C16.8047 10.7768 16.8515 11.6381 16.8513 12.5H16.8512ZM17.8798 10.9326C18.4073 11.4238 18.9037 11.9473 19.3664 12.5C18.9037 13.0526 18.4072 13.5759 17.8798 14.0672C17.9122 13.5503 17.9284 13.0279 17.9284 12.5C17.9284 11.9721 17.9122 11.4497 17.8798 10.9326ZM16.4902 16.6096C16.3201 17.5421 16.0733 18.459 15.7523 19.3509C14.9158 19.162 14.0949 18.9099 13.2965 18.5969C13.9446 18.2562 14.5788 17.8897 15.1976 17.4982C15.6394 17.2127 16.0702 16.9165 16.4902 16.6096ZM10.7003 18.5969C9.90329 18.914 9.08198 19.1661 8.24437 19.3509C7.92335 18.459 7.67657 17.5421 7.50655 16.6096C7.92127 16.9165 8.35214 17.2127 8.79918 17.4927C9.42934 17.8967 10.0649 18.2629 10.7003 18.5969ZM6.11686 14.0672C5.58952 13.5759 5.09305 13.0525 4.63027 12.5C5.09299 11.9474 5.58947 11.4239 6.11686 10.9326C6.08449 11.4497 6.06828 11.9721 6.06828 12.5C6.06828 13.0279 6.08443 13.5503 6.11686 14.0672ZM7.50655 8.39045C7.67654 7.45789 7.92334 6.54098 8.24442 5.6491C9.08098 5.8378 9.90196 6.08987 10.7003 6.40313C10.0522 6.74385 9.41797 7.11035 8.79918 7.50176C8.35987 7.78554 7.92881 8.08189 7.50655 8.39045ZM15.1923 7.50176C14.5674 7.10331 13.9318 6.73157 13.291 6.40313C14.088 6.086 14.9094 5.83384 15.7471 5.6491C16.068 6.54105 16.3148 7.45794 16.485 8.39045C16.0702 8.08345 15.6394 7.78722 15.1923 7.50176ZM3.57479 11.0565C2.4328 9.24671 2.15278 7.62564 2.7991 6.61308C3.3162 5.80518 4.43654 5.36881 5.94989 5.36881C6.35508 5.37053 6.75989 5.39768 7.16174 5.4496H7.17245C6.73677 6.71645 6.43359 8.02505 6.26777 9.35443C5.43778 10.0469 4.66505 10.8052 3.95708 11.622C3.82243 11.439 3.69322 11.2505 3.57479 11.0565ZM7.15646 19.5449C6.75459 19.5971 6.34985 19.624 5.94461 19.6257C4.43105 19.6257 3.31077 19.1948 2.79382 18.3814C2.1475 17.3689 2.42757 15.7478 3.56929 13.938C3.68778 13.7495 3.81715 13.5555 3.9518 13.367C4.65958 14.1839 5.43226 14.9422 6.26228 15.6346C6.42822 16.964 6.73147 18.2726 7.16718 19.5394C7.16718 19.5449 7.16174 19.5449 7.15646 19.5449ZM15.3215 20.3742C14.4113 22.3132 13.1995 23.4228 11.9983 23.4228C10.7972 23.4228 9.58542 22.3132 8.67525 20.3742C8.67462 20.3702 8.67271 20.3664 8.66981 20.3635C9.81383 20.0883 10.9299 19.7079 12.0038 19.227C13.0767 19.7103 14.193 20.0908 15.3376 20.3635C15.3269 20.3635 15.3269 20.3687 15.3215 20.3742ZM20.4219 13.9435C21.5639 15.753 21.844 17.3743 21.1976 18.3869C20.5513 19.3993 18.9625 19.8249 16.8403 19.5449H16.8295C17.2653 18.2781 17.5685 16.9695 17.7344 15.6401C18.5644 14.9477 19.3371 14.1893 20.045 13.3725C20.1744 13.561 20.3035 13.7495 20.422 13.9435H20.4219ZM17.729 9.35992C17.5632 8.03054 17.26 6.72193 16.8243 5.45509H16.8351C18.957 5.1803 20.5459 5.60052 21.1922 6.61308C21.8385 7.62564 21.5584 9.24671 20.4167 11.0565C20.2982 11.245 20.1689 11.439 20.0342 11.6275C19.3297 10.8094 18.5586 10.0509 17.729 9.35992Z" fill="url(#paint0_linear_302_388)"/>
<path d="M11.9984 10.3671C10.8205 10.3671 9.86548 11.3221 9.86548 12.5C9.86548 13.678 10.8204 14.6327 11.9984 14.6327C13.1764 14.6327 14.1313 13.678 14.1313 12.5C14.1305 11.3223 13.176 10.368 11.9984 10.3671ZM11.9984 13.5555C11.4154 13.5555 10.9427 13.083 10.9427 12.5C10.9427 11.917 11.4154 11.4443 11.9984 11.4443C12.5814 11.4443 13.0541 11.917 13.0541 12.5C13.0531 13.0826 12.581 13.5547 11.9984 13.5555Z" fill="url(#paint1_linear_302_388)"/>
</g>
<path d="M37.328 16.5L35.336 13.08H34.016V16.5H32.924V8.136H35.624C36.256 8.136 36.788 8.244 37.22 8.46C37.66 8.676 37.988 8.968 38.204 9.336C38.42 9.704 38.528 10.124 38.528 10.596C38.528 11.172 38.36 11.68 38.024 12.12C37.696 12.56 37.2 12.852 36.536 12.996L38.636 16.5H37.328ZM34.016 12.204H35.624C36.216 12.204 36.66 12.06 36.956 11.772C37.252 11.476 37.4 11.084 37.4 10.596C37.4 10.1 37.252 9.716 36.956 9.444C36.668 9.172 36.224 9.036 35.624 9.036H34.016V12.204ZM46.2248 12.96C46.2248 13.168 46.2128 13.388 46.1888 13.62H40.9328C40.9728 14.268 41.1928 14.776 41.5928 15.144C42.0008 15.504 42.4928 15.684 43.0688 15.684C43.5408 15.684 43.9328 15.576 44.2448 15.36C44.5648 15.136 44.7888 14.84 44.9168 14.472H46.0928C45.9168 15.104 45.5648 15.62 45.0368 16.02C44.5088 16.412 43.8528 16.608 43.0688 16.608C42.4448 16.608 41.8848 16.468 41.3888 16.188C40.9008 15.908 40.5168 15.512 40.2368 15C39.9568 14.48 39.8168 13.88 39.8168 13.2C39.8168 12.52 39.9528 11.924 40.2248 11.412C40.4968 10.9 40.8768 10.508 41.3648 10.236C41.8608 9.956 42.4288 9.816 43.0688 9.816C43.6928 9.816 44.2448 9.952 44.7248 10.224C45.2048 10.496 45.5728 10.872 45.8288 11.352C46.0928 11.824 46.2248 12.36 46.2248 12.96ZM45.0968 12.732C45.0968 12.316 45.0048 11.96 44.8208 11.664C44.6368 11.36 44.3848 11.132 44.0648 10.98C43.7528 10.82 43.4048 10.74 43.0208 10.74C42.4688 10.74 41.9968 10.916 41.6048 11.268C41.2208 11.62 41.0008 12.108 40.9448 12.732H45.0968ZM47.2582 13.188C47.2582 12.516 47.3942 11.928 47.6662 11.424C47.9382 10.912 48.3102 10.516 48.7822 10.236C49.2622 9.956 49.7942 9.816 50.3782 9.816C50.9542 9.816 51.4542 9.94 51.8782 10.188C52.3022 10.436 52.6182 10.748 52.8262 11.124V9.924H53.9302V16.5H52.8262V15.276C52.6102 15.66 52.2862 15.98 51.8542 16.236C51.4302 16.484 50.9342 16.608 50.3662 16.608C49.7822 16.608 49.2542 16.464 48.7822 16.176C48.3102 15.888 47.9382 15.484 47.6662 14.964C47.3942 14.444 47.2582 13.852 47.2582 13.188ZM52.8262 13.2C52.8262 12.704 52.7262 12.272 52.5262 11.904C52.3262 11.536 52.0542 11.256 51.7102 11.064C51.3742 10.864 51.0022 10.764 50.5942 10.764C50.1862 10.764 49.8142 10.86 49.4782 11.052C49.1422 11.244 48.8742 11.524 48.6742 11.892C48.4742 12.26 48.3742 12.692 48.3742 13.188C48.3742 13.692 48.4742 14.132 48.6742 14.508C48.8742 14.876 49.1422 15.16 49.4782 15.36C49.8142 15.552 50.1862 15.648 50.5942 15.648C51.0022 15.648 51.3742 15.552 51.7102 15.36C52.0542 15.16 52.3262 14.876 52.5262 14.508C52.7262 14.132 52.8262 13.696 52.8262 13.2ZM55.3676 13.2C55.3676 12.52 55.5036 11.928 55.7756 11.424C56.0476 10.912 56.4236 10.516 56.9036 10.236C57.3916 9.956 57.9476 9.816 58.5716 9.816C59.3796 9.816 60.0436 10.012 60.5636 10.404C61.0916 10.796 61.4396 11.34 61.6076 12.036H60.4316C60.3196 11.636 60.0996 11.32 59.7716 11.088C59.4516 10.856 59.0516 10.74 58.5716 10.74C57.9476 10.74 57.4436 10.956 57.0596 11.388C56.6756 11.812 56.4836 12.416 56.4836 13.2C56.4836 13.992 56.6756 14.604 57.0596 15.036C57.4436 15.468 57.9476 15.684 58.5716 15.684C59.0516 15.684 59.4516 15.572 59.7716 15.348C60.0916 15.124 60.3116 14.804 60.4316 14.388H61.6076C61.4316 15.06 61.0796 15.6 60.5516 16.008C60.0236 16.408 59.3636 16.608 58.5716 16.608C57.9476 16.608 57.3916 16.468 56.9036 16.188C56.4236 15.908 56.0476 15.512 55.7756 15C55.5036 14.488 55.3676 13.888 55.3676 13.2ZM64.3966 10.824V14.7C64.3966 15.02 64.4646 15.248 64.6006 15.384C64.7366 15.512 64.9726 15.576 65.3086 15.576H66.1126V16.5H65.1286C64.5206 16.5 64.0646 16.36 63.7606 16.08C63.4566 15.8 63.3046 15.34 63.3046 14.7V10.824H62.4526V9.924H63.3046V8.268H64.3966V9.924H66.1126V10.824H64.3966ZM74.0117 16.5H72.9197L68.5277 9.84V16.5H67.4357V8.124H68.5277L72.9197 14.772V8.124H74.0117V16.5ZM75.4652 13.188C75.4652 12.516 75.6012 11.928 75.8732 11.424C76.1452 10.912 76.5172 10.516 76.9892 10.236C77.4692 9.956 78.0012 9.816 78.5852 9.816C79.1612 9.816 79.6612 9.94 80.0852 10.188C80.5092 10.436 80.8252 10.748 81.0332 11.124V9.924H82.1372V16.5H81.0332V15.276C80.8172 15.66 80.4932 15.98 80.0612 16.236C79.6372 16.484 79.1412 16.608 78.5732 16.608C77.9892 16.608 77.4612 16.464 76.9892 16.176C76.5172 15.888 76.1452 15.484 75.8732 14.964C75.6012 14.444 75.4652 13.852 75.4652 13.188ZM81.0332 13.2C81.0332 12.704 80.9332 12.272 80.7332 11.904C80.5332 11.536 80.2612 11.256 79.9172 11.064C79.5812 10.864 79.2092 10.764 78.8012 10.764C78.3932 10.764 78.0212 10.86 77.6852 11.052C77.3492 11.244 77.0812 11.524 76.8812 11.892C76.6812 12.26 76.5812 12.692 76.5812 13.188C76.5812 13.692 76.6812 14.132 76.8812 14.508C77.0812 14.876 77.3492 15.16 77.6852 15.36C78.0212 15.552 78.3932 15.648 78.8012 15.648C79.2092 15.648 79.5812 15.552 79.9172 15.36C80.2612 15.16 80.5332 14.876 80.7332 14.508C80.9332 14.132 81.0332 13.696 81.0332 13.2ZM85.3146 10.824V14.7C85.3146 15.02 85.3826 15.248 85.5186 15.384C85.6546 15.512 85.8906 15.576 86.2266 15.576H87.0306V16.5H86.0466C85.4386 16.5 84.9826 16.36 84.6786 16.08C84.3746 15.8 84.2226 15.34 84.2226 14.7V10.824H83.3706V9.924H84.2226V8.268H85.3146V9.924H87.0306V10.824H85.3146ZM88.9177 8.856C88.7097 8.856 88.5337 8.784 88.3897 8.64C88.2457 8.496 88.1737 8.32 88.1737 8.112C88.1737 7.904 88.2457 7.728 88.3897 7.584C88.5337 7.44 88.7097 7.368 88.9177 7.368C89.1177 7.368 89.2857 7.44 89.4217 7.584C89.5657 7.728 89.6377 7.904 89.6377 8.112C89.6377 8.32 89.5657 8.496 89.4217 8.64C89.2857 8.784 89.1177 8.856 88.9177 8.856ZM89.4457 9.924V16.5H88.3537V9.924H89.4457ZM93.7548 15.492L95.7948 9.924H96.9588L94.3788 16.5H93.1068L90.5268 9.924H91.7028L93.7548 15.492ZM104.033 12.96C104.033 13.168 104.021 13.388 103.997 13.62H98.7414C98.7814 14.268 99.0014 14.776 99.4014 15.144C99.8094 15.504 100.301 15.684 100.877 15.684C101.349 15.684 101.741 15.576 102.053 15.36C102.373 15.136 102.597 14.84 102.725 14.472H103.901C103.725 15.104 103.373 15.62 102.845 16.02C102.317 16.412 101.661 16.608 100.877 16.608C100.253 16.608 99.6934 16.468 99.1974 16.188C98.7094 15.908 98.3254 15.512 98.0454 15C97.7654 14.48 97.6254 13.88 97.6254 13.2C97.6254 12.52 97.7614 11.924 98.0334 11.412C98.3054 10.9 98.6854 10.508 99.1734 10.236C99.6694 9.956 100.237 9.816 100.877 9.816C101.501 9.816 102.053 9.952 102.533 10.224C103.013 10.496 103.381 10.872 103.637 11.352C103.901 11.824 104.033 12.36 104.033 12.96ZM102.905 12.732C102.905 12.316 102.813 11.96 102.629 11.664C102.445 11.36 102.193 11.132 101.873 10.98C101.561 10.82 101.213 10.74 100.829 10.74C100.277 10.74 99.8054 10.916 99.4134 11.268C99.0294 11.62 98.8094 12.108 98.7534 12.732H102.905Z" fill="black" fill-opacity="0.88"/>
<defs>
<linearGradient id="paint0_linear_302_388" x1="12" y1="-0.426387" x2="12" y2="25.6853" gradientUnits="userSpaceOnUse">
<stop stop-color="#00EFD1"/>
<stop offset="1" stop-color="#00ACEA"/>
</linearGradient>
<linearGradient id="paint1_linear_302_388" x1="11.9984" y1="-0.42637" x2="11.9984" y2="25.6853" gradientUnits="userSpaceOnUse">
<stop stop-color="#00EFD1"/>
<stop offset="1" stop-color="#00ACEA"/>
</linearGradient>
<clipPath id="clip0_302_388">
<rect width="24" height="24" fill="white" transform="translate(0 0.5)"/>
</clipPath>
</defs>
</svg>
