<svg width="121" height="56" viewBox="0 0 121 56" fill="none" xmlns="http://www.w3.org/2000/svg">
<path d="M22.1026 5.53678C21.2084 4.13643 19.2857 3.55474 16.6949 3.88867C16.6034 3.89934 16.5064 3.9156 16.4149 3.92627C16.3772 3.84025 16.3396 3.75397 16.2964 3.66795C15.1816 1.30335 13.6573 0 11.9984 0C10.3395 0 8.80993 1.30341 7.70036 3.66795C7.66266 3.75397 7.61957 3.84025 7.58187 3.92627C7.48492 3.91032 7.39336 3.89934 7.30186 3.88862C4.70587 3.5493 2.78841 4.13648 1.89423 5.53683C1.00027 6.93719 1.27484 8.9245 2.66443 11.1328C2.85146 11.4301 3.05096 11.7194 3.26238 12C3.04694 12.2907 2.84771 12.5762 2.66448 12.867C1.27484 15.0752 1.00027 17.068 1.89423 18.4632C2.62134 19.6049 4.03262 20.2028 5.93371 20.2028C6.38936 20.2004 6.84448 20.1698 7.29636 20.1111C7.38792 20.1004 7.48487 20.0842 7.57643 20.0735C7.6143 20.1597 7.65194 20.2458 7.69509 20.332C8.80998 22.6964 10.3342 24 11.9929 24C13.6518 24 15.1816 22.6964 16.2909 20.332C16.3286 20.2458 16.3717 20.1597 16.4094 20.0735C16.5064 20.0897 16.5979 20.1004 16.6897 20.1111C17.1412 20.1723 17.5964 20.2029 18.0522 20.2029C19.9534 20.2029 21.3645 19.6049 22.0916 18.4632C22.9858 17.0628 22.711 15.0752 21.3216 12.867C21.1345 12.5697 20.935 12.2805 20.7236 12C20.9391 11.709 21.1384 11.4237 21.3216 11.1328C22.7272 8.91928 23.002 6.93164 22.1026 5.53678ZM8.67533 4.12576C9.58545 2.18681 10.7973 1.07719 11.9984 1.07719C13.1994 1.07719 14.4113 2.18681 15.3215 4.12576C15.3222 4.12982 15.3241 4.13357 15.327 4.13648C14.183 4.41166 13.0669 4.79204 11.9929 5.27276C10.92 4.78962 9.80373 4.40916 8.65907 4.13648C8.66984 4.13648 8.66984 4.13099 8.67528 4.12571L8.67533 4.12576ZM16.8512 12C16.8515 12.8618 16.8048 13.7231 16.7111 14.5798C16.0398 15.1215 15.3385 15.625 14.6106 16.0878C13.7705 16.6273 12.8961 17.1114 11.9929 17.5368C11.0915 17.1081 10.2174 16.6241 9.37546 16.0878C8.64837 15.6237 7.94715 15.1203 7.27493 14.5798C7.0881 12.8649 7.0881 11.1349 7.27493 9.42001C8.72665 8.2534 10.3101 7.26101 11.993 6.46317C12.8945 6.89177 13.7687 7.3756 14.6106 7.91189C15.3377 8.376 16.0389 8.87944 16.7112 9.41996C16.8047 10.2768 16.8515 11.1381 16.8513 12H16.8512ZM17.8799 10.4326C18.4073 10.9238 18.9038 11.4473 19.3664 12C18.9037 12.5526 18.4072 13.0759 17.8799 13.5672C17.9122 13.0503 17.9284 12.5279 17.9284 12C17.9284 11.4721 17.9123 10.9497 17.8799 10.4326ZM16.4902 16.1096C16.3202 17.0421 16.0734 17.959 15.7523 18.8509C14.9158 18.662 14.0949 18.4099 13.2965 18.0969C13.9446 17.7562 14.5788 17.3897 15.1976 16.9982C15.6394 16.7127 16.0703 16.4165 16.4902 16.1096ZM10.7003 18.0969C9.90332 18.414 9.08201 18.6661 8.2444 18.8509C7.92338 17.959 7.6766 17.0421 7.50658 16.1096C7.9213 16.4165 8.35217 16.7127 8.79921 16.9927C9.42937 17.3967 10.0649 17.7629 10.7003 18.0969ZM6.11689 13.5672C5.58955 13.0759 5.09308 12.5525 4.63031 12C5.09302 11.4474 5.5895 10.9239 6.11689 10.4326C6.08452 10.9497 6.06831 11.4721 6.06831 12C6.06831 12.5279 6.08446 13.0503 6.11689 13.5672ZM7.50658 7.89045C7.67657 6.95789 7.92337 6.04098 8.24445 5.1491C9.08101 5.3378 9.90199 5.58987 10.7003 5.90313C10.0522 6.24385 9.418 6.61035 8.79921 7.00176C8.3599 7.28554 7.92884 7.58189 7.50658 7.89045ZM15.1924 7.00176C14.5675 6.60331 13.9319 6.23157 13.291 5.90313C14.088 5.586 14.9094 5.33384 15.7471 5.1491C16.068 6.04105 16.3148 6.95794 16.485 7.89045C16.0703 7.58345 15.6394 7.28722 15.1924 7.00176ZM3.57482 10.5565C2.43283 8.74671 2.15281 7.12564 2.79913 6.11308C3.31624 5.30518 4.43657 4.86881 5.94992 4.86881C6.35511 4.87053 6.75992 4.89768 7.16177 4.9496H7.17248C6.7368 6.21645 6.43362 7.52505 6.2678 8.85443C5.43781 9.5469 4.66508 10.3052 3.95711 11.122C3.82246 10.939 3.69325 10.7505 3.57482 10.5565ZM7.15649 19.0449C6.75462 19.0971 6.34988 19.124 5.94464 19.1257C4.43108 19.1257 3.3108 18.6948 2.79385 17.8814C2.14753 16.8689 2.4276 15.2478 3.56932 13.438C3.68781 13.2495 3.81718 13.0555 3.95183 12.867C4.65961 13.6839 5.43229 14.4422 6.26231 15.1346C6.42825 16.464 6.7315 17.7726 7.16721 19.0394C7.16721 19.0449 7.16177 19.0449 7.15649 19.0449ZM15.3215 19.8742C14.4113 21.8132 13.1995 22.9228 11.9984 22.9228C10.7972 22.9228 9.58545 21.8132 8.67528 19.8742C8.67465 19.8702 8.67275 19.8664 8.66984 19.8635C9.81386 19.5883 10.93 19.2079 12.0039 18.727C13.0767 19.2103 14.193 19.5908 15.3377 19.8635C15.327 19.8635 15.327 19.8687 15.3215 19.8742ZM20.422 13.4435C21.564 15.253 21.844 16.8743 21.1977 17.8869C20.5513 18.8993 18.9625 19.3249 16.8403 19.0449H16.8295C17.2653 17.7781 17.5685 16.4695 17.7344 15.1401C18.5644 14.4477 19.3371 13.6893 20.045 12.8725C20.1744 13.061 20.3035 13.2495 20.422 13.4435H20.422ZM17.729 8.85992C17.5632 7.53054 17.26 6.22193 16.8243 4.95509H16.8351C18.957 4.6803 20.5459 5.10052 21.1922 6.11308C21.8385 7.12564 21.5585 8.74671 20.4167 10.5565C20.2983 10.745 20.1689 10.939 20.0342 11.1275C19.3297 10.3094 18.5586 9.55091 17.729 8.85992Z" fill="url(#paint0_linear_305_416)"/>
<path d="M11.9984 9.867C10.8205 9.867 9.86548 10.8219 9.86548 11.9998C9.86548 13.1779 10.8204 14.1326 11.9984 14.1326C13.1764 14.1326 14.1313 13.1779 14.1313 11.9999C14.1305 10.8221 13.176 9.86786 11.9984 9.867ZM11.9984 13.0554C11.4154 13.0554 10.9427 12.5829 10.9427 11.9999C10.9427 11.4169 11.4154 10.9441 11.9984 10.9441C12.5814 10.9441 13.0541 11.4169 13.0541 11.9999C13.0531 12.5824 12.581 13.0546 11.9984 13.0554Z" fill="url(#paint1_linear_305_416)"/>
<path d="M37.328 16L35.336 12.58H34.016V16H32.924V7.636H35.624C36.256 7.636 36.788 7.744 37.22 7.96C37.66 8.176 37.988 8.468 38.204 8.836C38.42 9.204 38.528 9.624 38.528 10.096C38.528 10.672 38.36 11.18 38.024 11.62C37.696 12.06 37.2 12.352 36.536 12.496L38.636 16H37.328ZM34.016 11.704H35.624C36.216 11.704 36.66 11.56 36.956 11.272C37.252 10.976 37.4 10.584 37.4 10.096C37.4 9.6 37.252 9.216 36.956 8.944C36.668 8.672 36.224 8.536 35.624 8.536H34.016V11.704ZM46.2248 12.46C46.2248 12.668 46.2128 12.888 46.1888 13.12H40.9328C40.9728 13.768 41.1928 14.276 41.5928 14.644C42.0008 15.004 42.4928 15.184 43.0688 15.184C43.5408 15.184 43.9328 15.076 44.2448 14.86C44.5648 14.636 44.7888 14.34 44.9168 13.972H46.0928C45.9168 14.604 45.5648 15.12 45.0368 15.52C44.5088 15.912 43.8528 16.108 43.0688 16.108C42.4448 16.108 41.8848 15.968 41.3888 15.688C40.9008 15.408 40.5168 15.012 40.2368 14.5C39.9568 13.98 39.8168 13.38 39.8168 12.7C39.8168 12.02 39.9528 11.424 40.2248 10.912C40.4968 10.4 40.8768 10.008 41.3648 9.736C41.8608 9.456 42.4288 9.316 43.0688 9.316C43.6928 9.316 44.2448 9.452 44.7248 9.724C45.2048 9.996 45.5728 10.372 45.8288 10.852C46.0928 11.324 46.2248 11.86 46.2248 12.46ZM45.0968 12.232C45.0968 11.816 45.0048 11.46 44.8208 11.164C44.6368 10.86 44.3848 10.632 44.0648 10.48C43.7528 10.32 43.4048 10.24 43.0208 10.24C42.4688 10.24 41.9968 10.416 41.6048 10.768C41.2208 11.12 41.0008 11.608 40.9448 12.232H45.0968ZM47.2582 12.688C47.2582 12.016 47.3942 11.428 47.6662 10.924C47.9382 10.412 48.3102 10.016 48.7822 9.736C49.2622 9.456 49.7942 9.316 50.3782 9.316C50.9542 9.316 51.4542 9.44 51.8782 9.688C52.3022 9.936 52.6182 10.248 52.8262 10.624V9.424H53.9302V16H52.8262V14.776C52.6102 15.16 52.2862 15.48 51.8542 15.736C51.4302 15.984 50.9342 16.108 50.3662 16.108C49.7822 16.108 49.2542 15.964 48.7822 15.676C48.3102 15.388 47.9382 14.984 47.6662 14.464C47.3942 13.944 47.2582 13.352 47.2582 12.688ZM52.8262 12.7C52.8262 12.204 52.7262 11.772 52.5262 11.404C52.3262 11.036 52.0542 10.756 51.7102 10.564C51.3742 10.364 51.0022 10.264 50.5942 10.264C50.1862 10.264 49.8142 10.36 49.4782 10.552C49.1422 10.744 48.8742 11.024 48.6742 11.392C48.4742 11.76 48.3742 12.192 48.3742 12.688C48.3742 13.192 48.4742 13.632 48.6742 14.008C48.8742 14.376 49.1422 14.66 49.4782 14.86C49.8142 15.052 50.1862 15.148 50.5942 15.148C51.0022 15.148 51.3742 15.052 51.7102 14.86C52.0542 14.66 52.3262 14.376 52.5262 14.008C52.7262 13.632 52.8262 13.196 52.8262 12.7ZM55.3676 12.7C55.3676 12.02 55.5036 11.428 55.7756 10.924C56.0476 10.412 56.4236 10.016 56.9036 9.736C57.3916 9.456 57.9476 9.316 58.5716 9.316C59.3796 9.316 60.0436 9.512 60.5636 9.904C61.0916 10.296 61.4396 10.84 61.6076 11.536H60.4316C60.3196 11.136 60.0996 10.82 59.7716 10.588C59.4516 10.356 59.0516 10.24 58.5716 10.24C57.9476 10.24 57.4436 10.456 57.0596 10.888C56.6756 11.312 56.4836 11.916 56.4836 12.7C56.4836 13.492 56.6756 14.104 57.0596 14.536C57.4436 14.968 57.9476 15.184 58.5716 15.184C59.0516 15.184 59.4516 15.072 59.7716 14.848C60.0916 14.624 60.3116 14.304 60.4316 13.888H61.6076C61.4316 14.56 61.0796 15.1 60.5516 15.508C60.0236 15.908 59.3636 16.108 58.5716 16.108C57.9476 16.108 57.3916 15.968 56.9036 15.688C56.4236 15.408 56.0476 15.012 55.7756 14.5C55.5036 13.988 55.3676 13.388 55.3676 12.7ZM64.3966 10.324V14.2C64.3966 14.52 64.4646 14.748 64.6006 14.884C64.7366 15.012 64.9726 15.076 65.3086 15.076H66.1126V16H65.1286C64.5206 16 64.0646 15.86 63.7606 15.58C63.4566 15.3 63.3046 14.84 63.3046 14.2V10.324H62.4526V9.424H63.3046V7.768H64.3966V9.424H66.1126V10.324H64.3966ZM67.7837 16.072C67.5757 16.072 67.3997 16 67.2557 15.856C67.1117 15.712 67.0397 15.536 67.0397 15.328C67.0397 15.12 67.1117 14.944 67.2557 14.8C67.3997 14.656 67.5757 14.584 67.7837 14.584C67.9837 14.584 68.1517 14.656 68.2877 14.8C68.4317 14.944 68.5037 15.12 68.5037 15.328C68.5037 15.536 68.4317 15.712 68.2877 15.856C68.1517 16 67.9837 16.072 67.7837 16.072ZM74.1673 7.636V13.816C74.1673 14.504 73.9553 15.056 73.5313 15.472C73.1073 15.88 72.5473 16.084 71.8513 16.084C71.1473 16.084 70.5833 15.876 70.1593 15.46C69.7353 15.036 69.5233 14.46 69.5233 13.732H70.6152C70.6233 14.14 70.7273 14.472 70.9273 14.728C71.1353 14.984 71.4433 15.112 71.8513 15.112C72.2593 15.112 72.5633 14.992 72.7633 14.752C72.9633 14.504 73.0633 14.192 73.0633 13.816V7.636H74.1673ZM78.9705 16.084C78.4185 16.084 77.9225 15.988 77.4825 15.796C77.0505 15.596 76.7105 15.324 76.4625 14.98C76.2145 14.628 76.0865 14.224 76.0785 13.768H77.2425C77.2825 14.16 77.4425 14.492 77.7225 14.764C78.0105 15.028 78.4265 15.16 78.9705 15.16C79.4905 15.16 79.8985 15.032 80.1945 14.776C80.4985 14.512 80.6505 14.176 80.6505 13.768C80.6505 13.448 80.5625 13.188 80.3865 12.988C80.2105 12.788 79.9905 12.636 79.7265 12.532C79.4625 12.428 79.1065 12.316 78.6585 12.196C78.1065 12.052 77.6625 11.908 77.3265 11.764C76.9985 11.62 76.7145 11.396 76.4745 11.092C76.2425 10.78 76.1265 10.364 76.1265 9.844C76.1265 9.388 76.2425 8.984 76.4745 8.632C76.7065 8.28 77.0305 8.008 77.4465 7.816C77.8705 7.624 78.3545 7.528 78.8985 7.528C79.6825 7.528 80.3225 7.724 80.8185 8.116C81.3225 8.508 81.6065 9.028 81.6705 9.676H80.4705C80.4305 9.356 80.2625 9.076 79.9665 8.836C79.6705 8.588 79.2785 8.464 78.7905 8.464C78.3345 8.464 77.9625 8.584 77.6745 8.824C77.3865 9.056 77.2425 9.384 77.2425 9.808C77.2425 10.112 77.3265 10.36 77.4945 10.552C77.6705 10.744 77.8825 10.892 78.1305 10.996C78.3865 11.092 78.7425 11.204 79.1985 11.332C79.7505 11.484 80.1945 11.636 80.5305 11.788C80.8665 11.932 81.1545 12.16 81.3945 12.472C81.6345 12.776 81.7545 13.192 81.7545 13.72C81.7545 14.128 81.6465 14.512 81.4305 14.872C81.2145 15.232 80.8945 15.524 80.4705 15.748C80.0465 15.972 79.5465 16.084 78.9705 16.084Z" fill="black" fill-opacity="0.88"/>
<path d="M14.7713 33.6075L12 38.4075L9.22873 33.6075H0L12 54.3923L24 33.6075H14.7713Z" fill="#41B883"/>
<path d="M14.7713 33.6075L12 38.4075L9.22875 33.6075H4.80002L12 46.0781L19.2 33.6075H14.7713Z" fill="#34495E"/>
<path d="M39.836 39.636L36.68 48H35.42L32.264 39.636H33.428L36.056 46.848L38.684 39.636H39.836ZM46.8654 41.424V48H45.7734V47.028C45.5654 47.364 45.2734 47.628 44.8974 47.82C44.5294 48.004 44.1214 48.096 43.6734 48.096C43.1614 48.096 42.7014 47.992 42.2934 47.784C41.8854 47.568 41.5614 47.248 41.3214 46.824C41.0894 46.4 40.9734 45.884 40.9734 45.276V41.424H42.0534V45.132C42.0534 45.78 42.2174 46.28 42.5454 46.632C42.8734 46.976 43.3214 47.148 43.8894 47.148C44.4734 47.148 44.9334 46.968 45.2694 46.608C45.6054 46.248 45.7734 45.724 45.7734 45.036V41.424H46.8654ZM54.7092 44.46C54.7092 44.668 54.6972 44.888 54.6732 45.12H49.4172C49.4572 45.768 49.6772 46.276 50.0772 46.644C50.4852 47.004 50.9772 47.184 51.5532 47.184C52.0252 47.184 52.4172 47.076 52.7292 46.86C53.0492 46.636 53.2732 46.34 53.4012 45.972H54.5772C54.4012 46.604 54.0492 47.12 53.5212 47.52C52.9932 47.912 52.3372 48.108 51.5532 48.108C50.9292 48.108 50.3692 47.968 49.8732 47.688C49.3852 47.408 49.0012 47.012 48.7212 46.5C48.4412 45.98 48.3012 45.38 48.3012 44.7C48.3012 44.02 48.4372 43.424 48.7092 42.912C48.9812 42.4 49.3612 42.008 49.8492 41.736C50.3452 41.456 50.9132 41.316 51.5532 41.316C52.1772 41.316 52.7292 41.452 53.2092 41.724C53.6892 41.996 54.0572 42.372 54.3132 42.852C54.5772 43.324 54.7092 43.86 54.7092 44.46ZM53.5812 44.232C53.5812 43.816 53.4892 43.46 53.3052 43.164C53.1212 42.86 52.8692 42.632 52.5492 42.48C52.2372 42.32 51.8892 42.24 51.5052 42.24C50.9532 42.24 50.4812 42.416 50.0892 42.768C49.7052 43.12 49.4852 43.608 49.4292 44.232H53.5812ZM56.4986 48.072C56.2906 48.072 56.1146 48 55.9706 47.856C55.8266 47.712 55.7546 47.536 55.7546 47.328C55.7546 47.12 55.8266 46.944 55.9706 46.8C56.1146 46.656 56.2906 46.584 56.4986 46.584C56.6986 46.584 56.8666 46.656 57.0026 46.8C57.1466 46.944 57.2186 47.12 57.2186 47.328C57.2186 47.536 57.1466 47.712 57.0026 47.856C56.8666 48 56.6986 48.072 56.4986 48.072ZM62.8821 39.636V45.816C62.8821 46.504 62.6701 47.056 62.2461 47.472C61.8221 47.88 61.2621 48.084 60.5661 48.084C59.8621 48.084 59.2981 47.876 58.8741 47.46C58.4501 47.036 58.2381 46.46 58.2381 45.732H59.3301C59.3381 46.14 59.4421 46.472 59.6421 46.728C59.8501 46.984 60.1581 47.112 60.5661 47.112C60.9741 47.112 61.2781 46.992 61.4781 46.752C61.6781 46.504 61.7781 46.192 61.7781 45.816V39.636H62.8821ZM67.6854 48.084C67.1334 48.084 66.6374 47.988 66.1974 47.796C65.7654 47.596 65.4254 47.324 65.1774 46.98C64.9294 46.628 64.8014 46.224 64.7934 45.768H65.9574C65.9974 46.16 66.1574 46.492 66.4374 46.764C66.7254 47.028 67.1414 47.16 67.6854 47.16C68.2054 47.16 68.6134 47.032 68.9094 46.776C69.2134 46.512 69.3654 46.176 69.3654 45.768C69.3654 45.448 69.2774 45.188 69.1014 44.988C68.9254 44.788 68.7054 44.636 68.4414 44.532C68.1774 44.428 67.8214 44.316 67.3734 44.196C66.8214 44.052 66.3774 43.908 66.0414 43.764C65.7134 43.62 65.4294 43.396 65.1894 43.092C64.9574 42.78 64.8414 42.364 64.8414 41.844C64.8414 41.388 64.9574 40.984 65.1894 40.632C65.4214 40.28 65.7454 40.008 66.1614 39.816C66.5854 39.624 67.0694 39.528 67.6134 39.528C68.3974 39.528 69.0374 39.724 69.5334 40.116C70.0374 40.508 70.3214 41.028 70.3854 41.676H69.1854C69.1454 41.356 68.9774 41.076 68.6814 40.836C68.3854 40.588 67.9934 40.464 67.5054 40.464C67.0494 40.464 66.6774 40.584 66.3894 40.824C66.1014 41.056 65.9574 41.384 65.9574 41.808C65.9574 42.112 66.0414 42.36 66.2094 42.552C66.3854 42.744 66.5974 42.892 66.8454 42.996C67.1014 43.092 67.4574 43.204 67.9134 43.332C68.4654 43.484 68.9094 43.636 69.2454 43.788C69.5814 43.932 69.8694 44.16 70.1094 44.472C70.3494 44.776 70.4694 45.192 70.4694 45.72C70.4694 46.128 70.3614 46.512 70.1454 46.872C69.9294 47.232 69.6094 47.524 69.1854 47.748C68.7614 47.972 68.2614 48.084 67.6854 48.084Z" fill="black" fill-opacity="0.88"/>
<defs>
<linearGradient id="paint0_linear_305_416" x1="12" y1="-0.926387" x2="12" y2="25.1853" gradientUnits="userSpaceOnUse">
<stop stop-color="#00EFD1"/>
<stop offset="1" stop-color="#00ACEA"/>
</linearGradient>
<linearGradient id="paint1_linear_305_416" x1="11.9984" y1="-0.926492" x2="11.9984" y2="25.1852" gradientUnits="userSpaceOnUse">
<stop stop-color="#00EFD1"/>
<stop offset="1" stop-color="#00ACEA"/>
</linearGradient>
</defs>
</svg>
