<svg width="115" height="56" viewBox="0 0 115 56" fill="none" xmlns="http://www.w3.org/2000/svg">
<g clip-path="url(#clip0_305_422)">
<path d="M12.2535 0.00611798C12.5188 -0.00213202 12.7843 -0.00203827 13.0497 0.00639923L18.0591 0.165024C21.479 0.273305 24.2259 3.02102 24.333 6.44093L24.4937 11.5719C24.5021 11.8372 24.5021 12.1025 24.4938 12.3678L24.332 17.5581C24.2254 20.9785 21.4784 23.7268 18.0582 23.835L13.0497 23.9937C12.7843 24.0021 12.5188 24.0022 12.2535 23.9939L6.947 23.8302C3.52457 23.7247 0.774504 20.9756 0.667816 17.5531L0.506191 12.3678C0.497941 12.1025 0.497941 11.8372 0.506285 11.5719L0.666879 6.44581C0.774035 3.02393 3.524 0.275274 6.94597 0.169712L12.2535 0.00611798Z" fill="#444F5C"/>
<path d="M12.5 2.02319C18.01 2.02319 22.4767 6.48991 22.4767 11.9999C22.4767 17.5098 18.01 21.9766 12.5 21.9766C6.99003 21.9766 2.52332 17.5098 2.52332 11.9999C2.52332 6.48991 6.99003 2.02319 12.5 2.02319Z" fill="#313942"/>
<path d="M6.40035 15.9004L8.60544 15.1639C8.96498 15.0439 9.30716 15.3857 9.18754 15.7453L8.45244 17.955C8.35466 18.2491 7.98126 18.3371 7.76235 18.1177L6.23741 16.5898C6.01888 16.3708 6.10691 15.9984 6.40035 15.9004Z" fill="#EEB545"/>
<path d="M8.49931 6.04136L9.2 8.25086C9.31456 8.61208 8.96759 8.94901 8.60984 8.82404L6.40409 8.05323C6.11037 7.95058 6.02872 7.57398 6.25353 7.35892L7.81428 5.86623C8.03712 5.65314 8.40612 5.74745 8.49931 6.04136Z" fill="#42AADF"/>
<path d="M16.5391 17.955L15.804 15.7453C15.6844 15.3857 16.0267 15.0439 16.3861 15.1639L18.5913 15.9004C18.8847 15.9984 18.9727 16.3708 18.7542 16.5898L17.2293 18.1177C17.0103 18.3371 16.637 18.2491 16.5391 17.9549" fill="#ED042B"/>
<path d="M15.804 8.25468L16.5391 6.04508C16.637 5.7509 17.0103 5.66287 17.2293 5.88224L18.7542 7.41018C18.9727 7.62918 18.8847 8.00155 18.5913 8.09962L16.3861 8.83612C16.0267 8.95612 15.6844 8.6143 15.804 8.25468Z" fill="#2EA757"/>
<path d="M14.2979 13.7552C15.2674 12.7858 15.2674 11.214 14.2979 10.2446C13.3286 9.27523 11.7568 9.27523 10.7874 10.2446C9.818 11.214 9.818 12.7857 10.7874 13.7552C11.7568 14.7245 13.3286 14.7245 14.2979 13.7552ZM11.282 12.504C11.2158 12.4378 11.1633 12.3592 11.1275 12.2727C11.0916 12.1862 11.0732 12.0935 11.0732 11.9999C11.0732 11.9063 11.0916 11.8136 11.1275 11.7271C11.1633 11.6406 11.2158 11.562 11.282 11.4958L12.0386 10.7392C12.1048 10.673 12.1834 10.6205 12.2698 10.5847C12.3563 10.5489 12.449 10.5304 12.5427 10.5304C12.6363 10.5304 12.729 10.5489 12.8155 10.5847C12.902 10.6205 12.9806 10.673 13.0468 10.7392L13.8033 11.4958C13.8695 11.562 13.922 11.6406 13.9579 11.7271C13.9937 11.8136 14.0121 11.9063 14.0121 11.9999C14.0121 12.0935 13.9937 12.1862 13.9579 12.2727C13.922 12.3592 13.8695 12.4378 13.8033 12.504L13.0468 13.2605C12.9806 13.3267 12.902 13.3793 12.8155 13.4151C12.729 13.4509 12.6363 13.4694 12.5427 13.4694C12.449 13.4694 12.3563 13.4509 12.2698 13.4151C12.1834 13.3793 12.1048 13.3267 12.0386 13.2605L11.282 12.504Z" fill="#596778"/>
<path d="M14.286 10.7569C14.286 10.8047 14.2766 10.852 14.2583 10.8961C14.24 10.9403 14.2132 10.9804 14.1794 11.0141C14.1112 11.0824 14.0187 11.1207 13.9222 11.1207C13.8257 11.1206 13.7332 11.0823 13.665 11.0141C13.5967 10.9458 13.5584 10.8533 13.5584 10.7568C13.5585 10.6603 13.5968 10.5678 13.665 10.4996C13.7333 10.4314 13.8258 10.3931 13.9223 10.3931C14.0188 10.3931 14.1113 10.4314 14.1795 10.4997C14.2477 10.5679 14.286 10.6604 14.286 10.7569Z" fill="#2EA757"/>
<path d="M14.286 13.2694C14.286 13.3659 14.2477 13.4584 14.1795 13.5266C14.1112 13.5949 14.0187 13.6332 13.9222 13.6332C13.8257 13.6332 13.7332 13.5949 13.6649 13.5266C13.5967 13.4584 13.5583 13.3659 13.5583 13.2694C13.5583 13.1729 13.5967 13.0803 13.6649 13.0121C13.7332 12.9439 13.8257 12.9055 13.9222 12.9055C14.0187 12.9055 14.1112 12.9439 14.1795 13.0121C14.2477 13.0803 14.286 13.1729 14.286 13.2694Z" fill="#ED042B"/>
<path d="M11.546 10.7569C11.546 10.8047 11.5366 10.852 11.5183 10.8961C11.5 10.9403 11.4732 10.9804 11.4394 11.0141C11.4056 11.0479 11.3655 11.0747 11.3214 11.093C11.2772 11.1113 11.2299 11.1207 11.1822 11.1207C11.1344 11.1207 11.0871 11.1112 11.0429 11.0929C10.9988 11.0747 10.9587 11.0479 10.9249 11.0141C10.8911 10.9803 10.8644 10.9402 10.8461 10.896C10.8278 10.8519 10.8184 10.8046 10.8184 10.7568C10.8184 10.6603 10.8568 10.5678 10.925 10.4996C10.9932 10.4314 11.0858 10.3931 11.1822 10.3931C11.2787 10.3931 11.3713 10.4314 11.4395 10.4997C11.5077 10.5679 11.546 10.6604 11.546 10.7569Z" fill="#42AADF"/>
<path d="M11.546 13.2694C11.546 13.3659 11.5077 13.4584 11.4394 13.5266C11.3712 13.5949 11.2787 13.6332 11.1822 13.6332C11.0857 13.6332 10.9931 13.5949 10.9249 13.5266C10.8566 13.4584 10.8183 13.3659 10.8183 13.2694C10.8183 13.1729 10.8566 13.0803 10.9249 13.0121C10.9931 12.9439 11.0857 12.9055 11.1822 12.9055C11.2787 12.9055 11.3712 12.9439 11.4394 13.0121C11.5077 13.0803 11.546 13.1729 11.546 13.2694Z" fill="#EEB545"/>
</g>
<path d="M37.828 16L35.836 12.58H34.516V16H33.424V7.636H36.124C36.756 7.636 37.288 7.744 37.72 7.96C38.16 8.176 38.488 8.468 38.704 8.836C38.92 9.204 39.028 9.624 39.028 10.096C39.028 10.672 38.86 11.18 38.524 11.62C38.196 12.06 37.7 12.352 37.036 12.496L39.136 16H37.828ZM34.516 11.704H36.124C36.716 11.704 37.16 11.56 37.456 11.272C37.752 10.976 37.9 10.584 37.9 10.096C37.9 9.6 37.752 9.216 37.456 8.944C37.168 8.672 36.724 8.536 36.124 8.536H34.516V11.704ZM41.8168 8.524V11.32H44.8648V12.22H41.8168V15.1H45.2248V16H40.7248V7.624H45.2248V8.524H41.8168ZM49.5291 16.084C48.9771 16.084 48.4811 15.988 48.0411 15.796C47.6091 15.596 47.2691 15.324 47.0211 14.98C46.7731 14.628 46.6451 14.224 46.6371 13.768H47.8011C47.8411 14.16 48.0011 14.492 48.2811 14.764C48.5691 15.028 48.9851 15.16 49.5291 15.16C50.0491 15.16 50.4571 15.032 50.7531 14.776C51.0571 14.512 51.2091 14.176 51.2091 13.768C51.2091 13.448 51.1211 13.188 50.9451 12.988C50.7691 12.788 50.5491 12.636 50.2851 12.532C50.0211 12.428 49.6651 12.316 49.2171 12.196C48.6651 12.052 48.2211 11.908 47.8851 11.764C47.5571 11.62 47.2731 11.396 47.0331 11.092C46.8011 10.78 46.6851 10.364 46.6851 9.844C46.6851 9.388 46.8011 8.984 47.0331 8.632C47.2651 8.28 47.5891 8.008 48.0051 7.816C48.4291 7.624 48.9131 7.528 49.4571 7.528C50.2411 7.528 50.8811 7.724 51.3771 8.116C51.8811 8.508 52.1651 9.028 52.2291 9.676H51.0291C50.9891 9.356 50.8211 9.076 50.5251 8.836C50.2291 8.588 49.8371 8.464 49.3491 8.464C48.8931 8.464 48.5211 8.584 48.2331 8.824C47.9451 9.056 47.8011 9.384 47.8011 9.808C47.8011 10.112 47.8851 10.36 48.0531 10.552C48.2291 10.744 48.4411 10.892 48.6891 10.996C48.9451 11.092 49.3011 11.204 49.7571 11.332C50.3091 11.484 50.7531 11.636 51.0891 11.788C51.4251 11.932 51.7131 12.16 51.9531 12.472C52.1931 12.776 52.3131 13.192 52.3131 13.72C52.3131 14.128 52.2051 14.512 51.9891 14.872C51.7731 15.232 51.4531 15.524 51.0291 15.748C50.6051 15.972 50.1051 16.084 49.5291 16.084ZM59.0681 7.636V8.524H56.7881V16H55.6961V8.524H53.4041V7.636H59.0681Z" fill="black" fill-opacity="0.88"/>
<path d="M9.37241 50.5545C9.37241 50.5545 8.44991 51.1155 10.0137 51.276C11.8962 51.516 12.8989 51.4762 14.9824 51.0757C15.4012 51.3322 15.844 51.547 16.3047 51.717C11.6172 53.721 5.68541 51.597 9.37241 50.5545ZM8.77241 47.9497C8.77241 47.9497 7.77041 48.711 9.33341 48.8722C11.3772 49.0725 12.9799 49.1122 15.7459 48.552C16.0149 48.8248 16.3443 49.0306 16.7074 49.1527C11.0569 50.8357 4.72541 49.3125 8.77241 47.9497ZM19.8327 52.5172C19.8327 52.5172 20.5137 53.0782 19.0714 53.5192C16.3864 54.3217 7.81091 54.5617 5.40641 53.5192C4.56491 53.1592 6.16767 52.638 6.68142 52.5577C7.20267 52.4377 7.48391 52.4377 7.48391 52.4377C6.56141 51.7965 1.35266 53.76 4.83941 54.3202C14.4169 55.8832 22.3114 53.6392 19.8267 52.5172H19.8327ZM9.80591 45.2242C9.80591 45.2242 5.43792 46.2667 8.24292 46.6267C9.44517 46.7872 11.8092 46.7467 14.0134 46.587C15.8164 46.4265 17.6209 46.107 17.6209 46.107C17.6209 46.107 16.9797 46.3875 16.5387 46.668C12.0912 47.8305 3.55466 47.3092 5.99966 46.107C8.08317 45.105 9.80666 45.2257 9.80666 45.2257L9.80591 45.2242ZM17.6209 49.5922C22.1089 47.2672 20.0254 45.0247 18.5824 45.3045C18.2224 45.3847 18.0612 45.465 18.0612 45.465C18.0612 45.465 18.1812 45.225 18.4617 45.1447C21.3072 44.1427 23.5512 48.15 17.5392 49.7122C17.5392 49.7122 17.5789 49.6725 17.6194 49.5922H17.6209ZM10.2484 55.9237C14.5759 56.2042 21.1887 55.7632 21.3484 53.7187C21.3484 53.7187 21.0282 54.5212 17.7822 55.1212C14.0952 55.8022 9.52691 55.7212 6.84191 55.2817C6.84191 55.2817 7.40291 55.7625 10.2484 55.9237Z" fill="#4E7896"/>
<path d="M14.9029 32.0002C14.9029 32.0002 17.3877 34.5247 12.5389 38.3317C8.65166 41.4172 11.6577 43.1805 12.5389 45.1845C10.2544 43.1407 8.61192 41.337 9.73392 39.6547C11.3764 37.1692 15.9049 35.9745 14.9029 32.0002ZM13.6279 43.5015C14.7904 44.8237 13.3077 46.026 13.3077 46.026C13.3077 46.026 16.2732 44.5035 14.9104 42.6195C13.6684 40.8165 12.7054 39.9345 17.9157 36.9292C17.9157 36.9292 9.70091 38.973 13.6279 43.5015Z" fill="#F58219"/>
<path d="M37.636 39.636V45.816C37.636 46.504 37.424 47.056 37 47.472C36.576 47.88 36.016 48.084 35.32 48.084C34.616 48.084 34.052 47.876 33.628 47.46C33.204 47.036 32.992 46.46 32.992 45.732H34.084C34.092 46.14 34.196 46.472 34.396 46.728C34.604 46.984 34.912 47.112 35.32 47.112C35.728 47.112 36.032 46.992 36.232 46.752C36.432 46.504 36.532 46.192 36.532 45.816V39.636H37.636ZM39.3793 44.688C39.3793 44.016 39.5153 43.428 39.7873 42.924C40.0593 42.412 40.4313 42.016 40.9033 41.736C41.3833 41.456 41.9153 41.316 42.4993 41.316C43.0753 41.316 43.5753 41.44 43.9993 41.688C44.4233 41.936 44.7393 42.248 44.9473 42.624V41.424H46.0513V48H44.9473V46.776C44.7313 47.16 44.4073 47.48 43.9753 47.736C43.5513 47.984 43.0553 48.108 42.4873 48.108C41.9033 48.108 41.3753 47.964 40.9033 47.676C40.4313 47.388 40.0593 46.984 39.7873 46.464C39.5153 45.944 39.3793 45.352 39.3793 44.688ZM44.9473 44.7C44.9473 44.204 44.8473 43.772 44.6473 43.404C44.4473 43.036 44.1753 42.756 43.8313 42.564C43.4953 42.364 43.1233 42.264 42.7153 42.264C42.3073 42.264 41.9353 42.36 41.5993 42.552C41.2633 42.744 40.9953 43.024 40.7953 43.392C40.5953 43.76 40.4953 44.192 40.4953 44.688C40.4953 45.192 40.5953 45.632 40.7953 46.008C40.9953 46.376 41.2633 46.66 41.5993 46.86C41.9353 47.052 42.3073 47.148 42.7153 47.148C43.1233 47.148 43.4953 47.052 43.8313 46.86C44.1753 46.66 44.4473 46.376 44.6473 46.008C44.8473 45.632 44.9473 45.196 44.9473 44.7ZM50.3447 46.992L52.3847 41.424H53.5487L50.9687 48H49.6967L47.1167 41.424H48.2927L50.3447 46.992ZM54.2152 44.688C54.2152 44.016 54.3512 43.428 54.6232 42.924C54.8952 42.412 55.2672 42.016 55.7392 41.736C56.2192 41.456 56.7512 41.316 57.3352 41.316C57.9112 41.316 58.4112 41.44 58.8352 41.688C59.2592 41.936 59.5752 42.248 59.7832 42.624V41.424H60.8872V48H59.7832V46.776C59.5672 47.16 59.2432 47.48 58.8112 47.736C58.3872 47.984 57.8912 48.108 57.3232 48.108C56.7392 48.108 56.2112 47.964 55.7392 47.676C55.2672 47.388 54.8952 46.984 54.6232 46.464C54.3512 45.944 54.2152 45.352 54.2152 44.688ZM59.7832 44.7C59.7832 44.204 59.6832 43.772 59.4832 43.404C59.2832 43.036 59.0112 42.756 58.6672 42.564C58.3312 42.364 57.9592 42.264 57.5512 42.264C57.1432 42.264 56.7712 42.36 56.4352 42.552C56.0992 42.744 55.8312 43.024 55.6312 43.392C55.4312 43.76 55.3312 44.192 55.3312 44.688C55.3312 45.192 55.4312 45.632 55.6312 46.008C55.8312 46.376 56.0992 46.66 56.4352 46.86C56.7712 47.052 57.1432 47.148 57.5512 47.148C57.9592 47.148 58.3312 47.052 58.6672 46.86C59.0112 46.66 59.2832 46.376 59.4832 46.008C59.6832 45.632 59.7832 45.196 59.7832 44.7ZM63.8246 40.524V43.32H66.8726V44.22H63.8246V47.1H67.2326V48H62.7326V39.624H67.2326V40.524H63.8246ZM69.9769 40.524V43.32H73.0249V44.22H69.9769V47.1H73.3849V48H68.8849V39.624H73.3849V40.524H69.9769Z" fill="black" fill-opacity="0.88"/>
<defs>
<clipPath id="clip0_305_422">
<rect width="24" height="24" fill="white" transform="translate(0.5)"/>
</clipPath>
</defs>
</svg>
