<svg width="331" height="506" viewBox="0 0 331 506" fill="none" xmlns="http://www.w3.org/2000/svg">
<g clip-path="url(#clip0_329_546)">
<path d="M70.7298 12.6504C67.9358 17.6789 67.2537 23.6114 68.8337 29.1428C70.4137 34.6742 74.1263 39.3514 79.1548 42.1454C84.1833 44.9395 90.1158 45.6215 95.6472 44.0415C101.179 42.4616 105.856 38.7489 108.65 33.7204C111.444 28.6919 112.126 22.7594 110.546 17.2281C108.966 11.6967 105.253 7.01949 100.225 4.22543C95.1963 1.43138 89.2638 0.749324 83.7325 2.32932C78.2011 3.90931 73.5239 7.62193 70.7298 12.6504Z" fill="white" stroke="white"/>
<path d="M86.0099 27.2504C86.4499 26.4504 85.0099 24.8104 82.7699 23.5704C80.5399 22.3304 78.3699 21.9704 77.9399 22.7704C77.4999 23.5504 78.9399 25.2004 81.1799 26.4404C83.4099 27.6804 85.5799 28.0404 86.0099 27.2504ZM91.1999 17.9204C91.6399 17.1204 90.1899 15.4804 87.9599 14.2404C85.7299 13.0004 83.5599 12.6404 83.1199 13.4304C82.6799 14.2204 84.1399 15.8704 86.3699 17.1004C88.5999 18.3404 90.7599 18.7004 91.1999 17.9204Z" fill="white"/>
<path d="M99.06 14.0206C99.4016 14.0451 99.7447 14.0018 100.07 13.8933C100.394 13.7848 100.695 13.6132 100.953 13.3883C101.211 13.1634 101.423 12.8897 101.575 12.5829C101.727 12.2762 101.817 11.9423 101.84 11.6006M86.85 35.9906C87.0497 36.2677 87.1928 36.5813 87.2712 36.9137C87.3496 37.2461 87.3618 37.5907 87.307 37.9278C87.2522 38.2649 87.1316 38.5879 86.9519 38.8784C86.7723 39.1688 86.5372 39.421 86.26 39.6206" stroke="white"/>
<path d="M100.96 13.4106C102.963 15.7048 104.207 18.5624 104.523 21.5916C104.838 24.6208 104.208 27.6734 102.72 30.3306C101.226 32.9942 98.9555 35.1384 96.2108 36.4768C93.466 37.8153 90.3782 38.2841 87.3599 37.8206" stroke="white"/>
<path d="M316.45 200.391C315.085 197.856 313.229 195.619 310.99 193.809C308.752 191.999 306.175 190.653 303.411 189.849C300.647 189.045 297.75 188.8 294.89 189.127C292.03 189.454 289.264 190.347 286.752 191.754C284.241 193.161 282.035 195.054 280.262 197.322C278.49 199.59 277.187 202.189 276.429 204.966C275.671 207.743 275.474 210.643 275.848 213.497C276.222 216.352 277.161 219.103 278.61 221.591C281.473 226.508 286.154 230.103 291.643 231.601C297.133 233.099 302.991 232.38 307.955 229.599C312.919 226.818 316.592 222.197 318.181 216.733C319.77 211.27 319.148 205.4 316.45 200.391Z" fill="white" stroke="white"/>
<path d="M296 205.73C296.44 206.52 298.6 206.15 300.83 204.9C303.06 203.65 304.5 202 304.06 201.2C303.61 200.42 301.46 200.79 299.23 202.04C297 203.29 295.55 204.94 296 205.73ZM301.22 215.04C301.66 215.84 303.82 215.46 306.05 214.22C308.28 212.97 309.72 211.32 309.28 210.52C308.84 209.73 306.68 210.11 304.45 211.35C302.22 212.6 300.78 214.25 301.22 215.05V215.04Z" fill="white"/>
<path d="M300.41 223.79C300.013 224.351 299.854 225.046 299.966 225.723C300.079 226.401 300.454 227.007 301.01 227.41M288.12 201.86C287.432 201.907 286.754 201.68 286.233 201.228C285.712 200.777 285.391 200.138 285.34 199.45" stroke="white"/>
<path d="M299.93 225.72C296.923 226.221 293.836 225.778 291.091 224.453C288.346 223.128 286.079 220.986 284.6 218.32C283.12 215.65 282.489 212.592 282.793 209.555C283.097 206.517 284.32 203.644 286.3 201.32" stroke="white"/>
<path d="M236.11 408.35C233.8 406.586 231.159 405.305 228.344 404.581C225.529 403.857 222.597 403.706 219.723 404.137C216.849 404.568 214.09 405.572 211.611 407.09C209.132 408.607 206.983 410.607 205.292 412.971C203.601 415.335 202.402 418.015 201.766 420.851C201.13 423.687 201.071 426.622 201.591 429.482C202.111 432.341 203.201 435.067 204.795 437.498C206.389 439.928 208.455 442.014 210.87 443.63C215.555 446.767 221.278 447.956 226.825 446.947C232.372 445.938 237.309 442.809 240.589 438.224C243.87 433.638 245.237 427.956 244.401 422.38C243.565 416.804 240.591 411.772 236.11 408.35Z" fill="white" stroke="white"/>
<path d="M219.87 421.87C220.61 422.4 222.41 421.14 223.89 419.07C225.38 416.99 225.99 414.88 225.25 414.36C224.51 413.83 222.71 415.08 221.22 417.16C219.74 419.23 219.13 421.34 219.87 421.86V421.87ZM228.56 428.09C229.29 428.61 231.09 427.36 232.58 425.29C234.06 423.21 234.67 421.09 233.93 420.57C233.2 420.04 231.4 421.3 229.91 423.37C228.43 425.45 227.81 427.56 228.56 428.08V428.09Z" fill="white"/>
<path d="M231.54 436.34C231.417 437.018 231.567 437.716 231.956 438.284C232.346 438.851 232.944 439.242 233.62 439.37M211.1 421.71C210.802 421.879 210.473 421.987 210.132 422.028C209.792 422.069 209.447 422.042 209.117 421.949C208.787 421.856 208.479 421.699 208.21 421.486C207.941 421.274 207.717 421.01 207.55 420.71" stroke="white"/>
<path d="M231.92 438.29C229.414 440.022 226.434 440.935 223.388 440.904C220.342 440.874 217.381 439.901 214.91 438.12C212.435 436.333 210.564 433.833 209.547 430.955C208.53 428.076 208.416 424.956 209.22 422.01" stroke="white"/>
<path d="M276.88 448.12C274.569 446.372 271.931 445.104 269.122 444.392C266.312 443.679 263.389 443.537 260.524 443.973C257.659 444.409 254.91 445.414 252.44 446.93C249.97 448.445 247.828 450.44 246.142 452.797C244.455 455.153 243.258 457.824 242.62 460.651C241.982 463.478 241.917 466.404 242.429 469.256C242.94 472.109 244.018 474.83 245.598 477.259C247.179 479.689 249.229 481.777 251.63 483.4C256.315 486.569 262.051 487.784 267.618 486.785C273.185 485.787 278.142 482.655 281.434 478.056C284.726 473.456 286.092 467.754 285.241 462.162C284.39 456.571 281.39 451.533 276.88 448.12Z" fill="white" stroke="white"/>
<path d="M260.64 461.64C261.38 462.17 263.18 460.91 264.66 458.84C266.15 456.76 266.76 454.65 266.02 454.13C265.28 453.6 263.48 454.85 262 456.93C260.51 459 259.9 461.11 260.64 461.64ZM269.32 467.86C270.06 468.38 271.86 467.13 273.35 465.06C274.83 462.98 275.44 460.86 274.7 460.34C273.97 459.81 272.17 461.07 270.68 463.14C269.19 465.22 268.58 467.33 269.32 467.86Z" fill="white"/>
<path d="M272.3 476.11C272.236 476.447 272.241 476.794 272.312 477.129C272.384 477.464 272.521 477.782 272.716 478.064C272.912 478.346 273.161 478.586 273.45 478.771C273.739 478.956 274.062 479.081 274.4 479.14M251.86 461.49C251.41 461.738 250.897 461.849 250.385 461.808C249.873 461.767 249.384 461.577 248.98 461.26C248.711 461.049 248.487 460.788 248.32 460.49" stroke="white"/>
<path d="M272.7 478.06C270.192 479.791 267.21 480.704 264.163 480.673C261.116 480.643 258.153 479.671 255.68 477.89C253.205 476.103 251.334 473.603 250.317 470.725C249.3 467.846 249.186 464.726 249.99 461.78" stroke="white"/>
<path d="M236.8 280.791C234.006 280.226 231.128 280.217 228.331 280.764C225.534 281.312 222.872 282.405 220.497 283.981C218.122 285.558 216.081 287.586 214.49 289.951C212.899 292.316 211.79 294.972 211.225 297.766C210.66 300.559 210.651 303.437 211.199 306.234C211.746 309.032 212.839 311.694 214.416 314.069C215.992 316.444 218.02 318.485 220.386 320.076C222.751 321.666 225.406 322.776 228.2 323.341C233.842 324.481 239.707 323.333 244.503 320.15C249.299 316.966 252.634 312.008 253.775 306.366C254.915 300.723 253.768 294.859 250.584 290.062C247.401 285.266 242.442 281.931 236.8 280.791Z" fill="white" stroke="white"/>
<path d="M227.5 299.78C228.4 299.96 229.52 298.08 230.03 295.58C230.53 293.08 230.23 290.9 229.33 290.72C228.45 290.54 227.32 292.42 226.81 294.92C226.31 297.42 226.61 299.6 227.51 299.78H227.5ZM237.97 301.89C238.86 302.08 239.99 300.19 240.49 297.69C241 295.19 240.69 293.02 239.8 292.84C238.91 292.66 237.78 294.54 237.28 297.04C236.78 299.54 237.08 301.72 237.98 301.9L237.97 301.89Z" fill="white"/>
<path d="M244.07 308.21C244.233 308.88 244.656 309.457 245.245 309.815C245.834 310.174 246.54 310.283 247.21 310.12M219.43 303.23C219.227 303.505 218.971 303.737 218.678 303.913C218.385 304.089 218.06 304.205 217.722 304.255C217.384 304.305 217.039 304.288 216.708 304.205C216.376 304.122 216.064 303.974 215.79 303.77" stroke="white"/>
<path d="M245.22 309.83C243.639 312.435 241.292 314.487 238.498 315.705C235.705 316.922 232.604 317.246 229.62 316.63C226.631 316.012 223.902 314.496 221.797 312.286C219.692 310.076 218.312 307.276 217.84 304.26" stroke="white"/>
<path d="M37.6399 341.07C38.6171 343.77 40.1206 346.249 42.0631 348.363C44.0056 350.477 46.3485 352.185 48.956 353.386C51.5635 354.588 54.3836 355.26 57.2528 355.364C60.122 355.467 62.9833 355 65.6706 353.99C68.3579 352.979 70.8178 351.445 72.9076 349.476C74.9975 347.507 76.6757 345.143 77.8449 342.521C79.0141 339.899 79.6511 337.071 79.7189 334.2C79.7867 331.33 79.284 328.475 78.2399 325.8C76.165 320.485 72.0793 316.202 66.8681 313.878C61.6569 311.555 55.7399 311.378 50.3994 313.386C45.0588 315.395 40.7249 319.427 38.3365 324.609C35.9482 329.791 35.6979 335.705 37.6399 341.07Z" fill="white" stroke="white"/>
<path d="M58.66 338.871C58.34 338.021 56.15 338.071 53.76 338.971C51.37 339.861 49.69 341.271 50.01 342.121C50.33 342.971 52.52 342.921 54.91 342.031C57.31 341.131 58.98 339.721 58.66 338.871ZM54.9 328.871C54.58 328.021 52.38 328.071 50 328.971C47.6 329.871 45.93 331.271 46.25 332.131C46.57 332.981 48.76 332.931 51.15 332.031C53.54 331.131 55.22 329.721 54.9 328.871Z" fill="white"/>
<path d="M57.01 320.35C57.2486 320.106 57.4366 319.816 57.5633 319.499C57.6899 319.181 57.7528 318.842 57.7481 318.5C57.7435 318.158 57.6715 317.821 57.5362 317.507C57.401 317.193 57.2052 316.909 56.96 316.67M65.87 343.89C66.5548 343.947 67.1897 344.272 67.6356 344.794C68.0816 345.317 68.3025 345.995 68.25 346.68" stroke="white"/>
<path d="M57.77 318.52C60.8164 318.475 63.8022 319.373 66.3177 321.092C68.8332 322.811 70.7553 325.266 71.82 328.12C72.887 330.984 73.0537 334.106 72.2977 337.067C71.5417 340.028 69.8992 342.688 67.59 344.69" stroke="white"/>
</g>
<g clip-path="url(#clip1_329_546)">
<path d="M118.623 389.425C116.146 388.019 113.416 387.115 110.589 386.764C107.762 386.413 104.894 386.622 102.148 387.38C99.4021 388.137 96.8324 389.428 94.5854 391.179C92.3384 392.929 90.4583 395.105 89.0523 397.583C87.6463 400.06 86.742 402.79 86.391 405.617C86.0401 408.443 86.2493 411.312 87.0068 414.057C87.7643 416.803 89.0553 419.373 90.8059 421.62C92.5566 423.867 94.7326 425.747 97.2099 427.153C102.213 429.993 108.139 430.728 113.685 429.199C119.23 427.669 123.941 423.999 126.78 418.996C129.62 413.992 130.356 408.066 128.826 402.521C127.296 396.975 123.626 392.265 118.623 389.425Z" fill="white" stroke="white"/>
<path d="M103.883 404.575C104.663 405.025 106.335 403.588 107.584 401.365C108.855 399.143 109.236 396.984 108.451 396.543C107.663 396.088 106 397.529 104.742 399.747C103.484 401.966 103.104 404.125 103.888 404.566L103.883 404.575ZM113.172 409.845C113.952 410.295 115.624 408.859 116.873 406.636C118.139 404.422 118.52 402.263 117.727 401.817C116.947 401.367 115.289 402.8 114.031 405.018C112.773 407.236 112.388 409.404 113.172 409.845Z" fill="white"/>
<path d="M117.003 417.75C116.977 418.091 117.018 418.433 117.125 418.758C117.231 419.082 117.4 419.383 117.622 419.642C117.845 419.901 118.116 420.114 118.421 420.269C118.726 420.423 119.058 420.516 119.398 420.542M95.1414 405.336C94.5781 405.733 93.88 405.891 93.2006 405.774C92.5212 405.656 91.9162 405.274 91.5187 404.711" stroke="white"/>
<path d="M117.593 419.649C115.28 421.633 112.41 422.851 109.376 423.139C106.343 423.426 103.295 422.767 100.651 421.253C98.0025 419.733 95.8811 417.44 94.5704 414.682C93.2596 411.924 92.822 408.831 93.316 405.818" stroke="white"/>
</g>
<g clip-path="url(#clip2_329_546)">
<path d="M273.18 414.75C276.028 414.729 278.845 414.148 281.468 413.038C284.092 411.929 286.471 410.313 288.47 408.284C290.47 406.255 292.05 403.853 293.12 401.213C294.191 398.573 294.731 395.749 294.71 392.9C294.689 390.052 294.107 387.236 292.998 384.612C291.888 381.989 290.273 379.609 288.244 377.61C286.215 375.611 283.812 374.031 281.173 372.96C278.533 371.89 275.708 371.349 272.86 371.37C267.108 371.413 261.607 373.739 257.57 377.836C253.532 381.934 251.288 387.468 251.33 393.22C251.373 398.973 253.698 404.473 257.796 408.511C261.894 412.548 267.428 414.793 273.18 414.75Z" fill="white" stroke="white"/>
<path d="M278.37 394.26C277.47 394.26 276.74 396.34 276.77 398.89C276.78 401.45 277.53 403.51 278.43 403.5C279.34 403.5 280.06 401.42 280.04 398.87C280.02 396.32 279.27 394.26 278.37 394.27V394.26ZM267.69 394.34C266.79 394.34 266.06 396.42 266.09 398.97C266.1 401.52 266.85 403.58 267.76 403.57C268.66 403.57 269.38 401.5 269.36 398.95C269.34 396.4 268.59 394.33 267.69 394.34Z" fill="white"/>
<path d="M260.42 389.41C260.272 389.102 260.065 388.826 259.811 388.598C259.557 388.37 259.26 388.194 258.938 388.081C258.616 387.968 258.274 387.919 257.933 387.938C257.592 387.957 257.258 388.042 256.95 388.19M285.56 389.23C285.849 388.604 286.375 388.119 287.022 387.881C287.669 387.643 288.384 387.671 289.01 387.96" stroke="white"/>
<path d="M258.96 388.061C259.972 385.186 261.848 382.696 264.331 380.93C266.814 379.165 269.783 378.211 272.83 378.201C275.884 378.193 278.867 379.118 281.382 380.851C283.896 382.584 285.821 385.044 286.9 387.901" stroke="white"/>
</g>
<g clip-path="url(#clip3_329_546)">
<path d="M313.112 327.811C311.083 325.812 308.68 324.232 306.04 323.161C303.401 322.091 300.576 321.551 297.728 321.572C294.879 321.593 292.063 322.174 289.439 323.284C286.816 324.393 284.437 326.009 282.437 328.038C280.438 330.067 278.858 332.469 277.788 335.109C276.717 337.749 276.177 340.573 276.198 343.422C276.219 346.27 276.801 349.086 277.91 351.71C279.019 354.333 280.635 356.713 282.664 358.712C286.761 362.749 292.295 364.994 298.048 364.952C303.8 364.909 309.3 362.583 313.338 358.486C317.376 354.388 319.62 348.854 319.578 343.102C319.535 337.349 317.209 331.849 313.112 327.811Z" fill="white" stroke="white"/>
<path d="M294.953 338.63C295.59 339.266 297.577 338.312 299.358 336.488C301.162 334.67 302.088 332.683 301.444 332.054C300.801 331.411 298.821 332.372 297.032 334.189C295.243 336.007 294.317 337.994 294.96 338.623L294.953 338.63ZM302.562 346.125C303.198 346.762 305.185 345.807 306.967 343.983C308.763 342.173 309.689 340.186 309.039 339.549C308.402 338.913 306.43 339.868 304.641 341.685C302.852 343.502 301.918 345.496 302.562 346.125Z" fill="white"/>
<path d="M304.216 354.752C304.103 355.074 304.054 355.415 304.073 355.757C304.091 356.098 304.177 356.432 304.325 356.74C304.472 357.048 304.679 357.323 304.934 357.551C305.188 357.779 305.485 357.955 305.807 358.068M286.312 337.102C285.665 337.34 284.95 337.312 284.324 337.023C283.698 336.734 283.213 336.208 282.975 335.561" stroke="white"/>
<path d="M304.294 356.739C301.547 358.056 298.459 358.491 295.455 357.983C292.45 357.475 289.677 356.05 287.515 353.903C285.35 351.75 283.894 348.986 283.342 345.983C282.79 342.979 283.167 339.879 284.424 337.096" stroke="white"/>
</g>
<g clip-path="url(#clip4_329_546)">
<path d="M174.368 459.464C172.554 461.659 171.189 464.19 170.352 466.913C169.516 469.636 169.224 472.497 169.493 475.333C169.762 478.169 170.587 480.923 171.921 483.44C173.255 485.957 175.072 488.187 177.267 490.001C179.463 491.816 181.994 493.181 184.717 494.017C187.44 494.854 190.301 495.146 193.137 494.877C195.972 494.607 198.727 493.782 201.244 492.448C203.761 491.115 205.99 489.298 207.805 487.103C211.47 482.669 213.224 476.96 212.68 471.233C212.137 465.506 209.34 460.23 204.906 456.565C200.472 452.9 194.764 451.146 189.037 451.69C183.31 452.233 178.034 455.03 174.368 459.464Z" fill="white" stroke="white"/>
<path d="M186.729 476.61C187.307 475.921 186.183 474.024 184.21 472.408C182.243 470.77 180.183 470.021 179.612 470.717C179.027 471.414 180.157 473.302 182.124 474.926C184.09 476.55 186.15 477.299 186.721 476.604L186.729 476.61ZM193.532 468.377C194.111 467.688 192.987 465.792 191.014 464.175C189.054 462.544 186.994 461.794 186.417 462.498C185.838 463.187 186.961 465.07 188.927 466.693C190.894 468.317 192.961 469.073 193.532 468.377Z" fill="white"/>
<path d="M201.982 465.977C202.313 466.062 202.657 466.081 202.995 466.033C203.333 465.984 203.659 465.87 203.953 465.696C204.247 465.522 204.503 465.292 204.708 465.018C204.913 464.745 205.062 464.434 205.147 464.103M185.96 485.351C186.254 485.975 186.287 486.69 186.054 487.339C185.82 487.987 185.339 488.517 184.715 488.81" stroke="white"/>
<path d="M203.955 465.727C205.506 468.349 206.208 471.387 205.964 474.424C205.72 477.461 204.542 480.348 202.592 482.69C200.635 485.034 198.009 486.725 195.065 487.537C192.121 488.349 189 488.243 186.118 487.233" stroke="white"/>
</g>
<defs>
<clipPath id="clip0_329_546">
<rect width="285" height="488" fill="white" transform="translate(35 0.69043)"/>
</clipPath>
<clipPath id="clip1_329_546">
<rect width="46" height="45" fill="white" transform="translate(99.3301 377.201) rotate(30)"/>
</clipPath>
<clipPath id="clip2_329_546">
<rect width="46" height="45" fill="white" transform="matrix(-1 0 0 -1 296 415.69)"/>
</clipPath>
<clipPath id="clip3_329_546">
<rect width="46" height="45" fill="white" transform="translate(297.64 311.01) rotate(45)"/>
</clipPath>
<clipPath id="clip4_329_546">
<rect width="46" height="45" fill="white" transform="translate(158.98 476.34) rotate(-50)"/>
</clipPath>
</defs>
</svg>
