<svg width="285" height="488" viewBox="0 0 285 488" fill="none" xmlns="http://www.w3.org/2000/svg">
<path d="M35.7298 12.6504C32.9358 17.6789 32.2537 23.6114 33.8337 29.1428C35.4137 34.6742 39.1263 39.3514 44.1548 42.1454C49.1833 44.9395 55.1158 45.6215 60.6472 44.0415C66.1786 42.4616 70.8558 38.7489 73.6498 33.7204C76.4439 28.6919 77.1259 22.7594 75.5459 17.2281C73.9659 11.6967 70.2533 7.01949 65.2248 4.22543C60.1963 1.43138 54.2638 0.749324 48.7325 2.32932C43.2011 3.90931 38.5239 7.62193 35.7298 12.6504Z" fill="white" stroke="white"/>
<path d="M51.0099 27.2504C51.4499 26.4504 50.0099 24.8104 47.7699 23.5704C45.5399 22.3304 43.3699 21.9704 42.9399 22.7704C42.4999 23.5504 43.9399 25.2004 46.1799 26.4404C48.4099 27.6804 50.5799 28.0404 51.0099 27.2504ZM56.1999 17.9204C56.6399 17.1204 55.1899 15.4804 52.9599 14.2404C50.7299 13.0004 48.5599 12.6404 48.1199 13.4304C47.6799 14.2204 49.1399 15.8704 51.3699 17.1004C53.5999 18.3404 55.7599 18.7004 56.1999 17.9204Z" fill="white"/>
<path d="M64.06 14.0206C64.4016 14.0451 64.7447 14.0018 65.0695 13.8933C65.3944 13.7848 65.6946 13.6132 65.9529 13.3883C66.2112 13.1634 66.4226 12.8897 66.5748 12.5829C66.7271 12.2762 66.8172 11.9423 66.84 11.6006M51.85 35.9906C52.0497 36.2677 52.1928 36.5813 52.2712 36.9137C52.3496 37.2461 52.3618 37.5907 52.307 37.9278C52.2522 38.2649 52.1316 38.5879 51.9519 38.8784C51.7723 39.1688 51.5372 39.421 51.26 39.6206" stroke="white"/>
<path d="M65.9599 13.4106C67.963 15.7048 69.2075 18.5624 69.5226 21.5916C69.8377 24.6208 69.208 27.6734 67.7199 30.3306C66.2264 32.9942 63.9555 35.1384 61.2108 36.4768C58.466 37.8153 55.3782 38.2841 52.3599 37.8206" stroke="white"/>
<path d="M281.45 200.391C280.085 197.856 278.229 195.619 275.99 193.809C273.752 191.999 271.175 190.653 268.411 189.849C265.647 189.045 262.75 188.8 259.89 189.127C257.03 189.454 254.264 190.347 251.752 191.754C249.241 193.161 247.035 195.054 245.262 197.322C243.49 199.59 242.187 202.189 241.429 204.966C240.671 207.743 240.474 210.643 240.848 213.497C241.222 216.352 242.161 219.103 243.61 221.591C246.473 226.508 251.154 230.103 256.643 231.601C262.133 233.099 267.991 232.38 272.955 229.599C277.919 226.818 281.592 222.197 283.181 216.733C284.77 211.27 284.148 205.4 281.45 200.391Z" fill="white" stroke="white"/>
<path d="M261 205.73C261.44 206.52 263.6 206.15 265.83 204.9C268.06 203.65 269.5 202 269.06 201.2C268.61 200.42 266.46 200.79 264.23 202.04C262 203.29 260.55 204.94 261 205.73ZM266.22 215.04C266.66 215.84 268.82 215.46 271.05 214.22C273.28 212.97 274.72 211.32 274.28 210.52C273.84 209.73 271.68 210.11 269.45 211.35C267.22 212.6 265.78 214.25 266.22 215.05V215.04Z" fill="white"/>
<path d="M265.41 223.79C265.013 224.351 264.854 225.046 264.966 225.723C265.079 226.401 265.454 227.007 266.01 227.41M253.12 201.86C252.432 201.907 251.754 201.68 251.233 201.228C250.712 200.777 250.391 200.138 250.34 199.45" stroke="white"/>
<path d="M264.93 225.72C261.923 226.221 258.836 225.778 256.091 224.453C253.346 223.128 251.079 220.986 249.6 218.32C248.12 215.65 247.489 212.592 247.793 209.555C248.097 206.517 249.32 203.644 251.3 201.32" stroke="white"/>
<path d="M201.11 408.35C198.8 406.586 196.159 405.305 193.344 404.581C190.529 403.857 187.597 403.706 184.723 404.137C181.849 404.568 179.09 405.572 176.611 407.09C174.132 408.607 171.983 410.607 170.292 412.971C168.601 415.335 167.402 418.015 166.766 420.851C166.13 423.687 166.071 426.622 166.591 429.482C167.111 432.341 168.201 435.067 169.795 437.498C171.389 439.928 173.455 442.014 175.87 443.63C180.555 446.767 186.278 447.956 191.825 446.947C197.372 445.938 202.309 442.809 205.589 438.224C208.87 433.638 210.237 427.956 209.401 422.38C208.565 416.804 205.591 411.772 201.11 408.35Z" fill="white" stroke="white"/>
<path d="M184.87 421.87C185.61 422.4 187.41 421.14 188.89 419.07C190.38 416.99 190.99 414.88 190.25 414.36C189.51 413.83 187.71 415.08 186.22 417.16C184.74 419.23 184.13 421.34 184.87 421.86V421.87ZM193.56 428.09C194.29 428.61 196.09 427.36 197.58 425.29C199.06 423.21 199.67 421.09 198.93 420.57C198.2 420.04 196.4 421.3 194.91 423.37C193.43 425.45 192.81 427.56 193.56 428.08V428.09Z" fill="white"/>
<path d="M196.54 436.34C196.417 437.018 196.567 437.716 196.956 438.284C197.346 438.851 197.944 439.242 198.62 439.37M176.1 421.71C175.802 421.879 175.473 421.987 175.132 422.028C174.792 422.069 174.447 422.042 174.117 421.949C173.787 421.856 173.479 421.699 173.21 421.486C172.941 421.274 172.717 421.01 172.55 420.71" stroke="white"/>
<path d="M196.92 438.29C194.414 440.022 191.434 440.935 188.388 440.904C185.342 440.874 182.381 439.901 179.91 438.12C177.435 436.333 175.564 433.833 174.547 430.955C173.53 428.076 173.416 424.956 174.22 422.01" stroke="white"/>
<path d="M241.88 448.12C239.569 446.372 236.931 445.104 234.122 444.392C231.312 443.679 228.389 443.537 225.524 443.973C222.659 444.409 219.91 445.414 217.44 446.93C214.97 448.445 212.828 450.44 211.142 452.797C209.455 455.153 208.258 457.824 207.62 460.651C206.982 463.478 206.917 466.404 207.429 469.256C207.94 472.109 209.018 474.83 210.598 477.259C212.179 479.689 214.229 481.777 216.63 483.4C221.315 486.569 227.051 487.784 232.618 486.785C238.185 485.787 243.142 482.655 246.434 478.056C249.726 473.456 251.092 467.754 250.241 462.162C249.39 456.571 246.39 451.533 241.88 448.12Z" fill="white" stroke="white"/>
<path d="M225.64 461.64C226.38 462.17 228.18 460.91 229.66 458.84C231.15 456.76 231.76 454.65 231.02 454.13C230.28 453.6 228.48 454.85 227 456.93C225.51 459 224.9 461.11 225.64 461.64ZM234.32 467.86C235.06 468.38 236.86 467.13 238.35 465.06C239.83 462.98 240.44 460.86 239.7 460.34C238.97 459.81 237.17 461.07 235.68 463.14C234.19 465.22 233.58 467.33 234.32 467.86Z" fill="white"/>
<path d="M237.3 476.11C237.236 476.447 237.241 476.794 237.312 477.129C237.384 477.464 237.521 477.782 237.716 478.064C237.912 478.346 238.161 478.586 238.45 478.771C238.739 478.956 239.062 479.081 239.4 479.14M216.86 461.49C216.41 461.738 215.897 461.849 215.385 461.808C214.873 461.767 214.384 461.577 213.98 461.26C213.711 461.049 213.487 460.788 213.32 460.49" stroke="white"/>
<path d="M237.7 478.06C235.192 479.791 232.21 480.704 229.163 480.673C226.116 480.643 223.153 479.671 220.68 477.89C218.205 476.103 216.334 473.603 215.317 470.725C214.3 467.846 214.186 464.726 214.99 461.78" stroke="white"/>
<path d="M201.8 280.791C199.006 280.226 196.128 280.217 193.331 280.764C190.534 281.312 187.872 282.405 185.497 283.981C183.122 285.558 181.081 287.586 179.49 289.951C177.899 292.316 176.79 294.972 176.225 297.766C175.66 300.559 175.651 303.437 176.199 306.234C176.746 309.032 177.839 311.694 179.416 314.069C180.992 316.444 183.02 318.485 185.386 320.076C187.751 321.666 190.406 322.776 193.2 323.341C198.842 324.481 204.707 323.333 209.503 320.15C214.299 316.966 217.634 312.008 218.775 306.366C219.915 300.723 218.768 294.859 215.584 290.062C212.401 285.266 207.442 281.931 201.8 280.791Z" fill="white" stroke="white"/>
<path d="M192.5 299.78C193.4 299.96 194.52 298.08 195.03 295.58C195.53 293.08 195.23 290.9 194.33 290.72C193.45 290.54 192.32 292.42 191.81 294.92C191.31 297.42 191.61 299.6 192.51 299.78H192.5ZM202.97 301.89C203.86 302.08 204.99 300.19 205.49 297.69C206 295.19 205.69 293.02 204.8 292.84C203.91 292.66 202.78 294.54 202.28 297.04C201.78 299.54 202.08 301.72 202.98 301.9L202.97 301.89Z" fill="white"/>
<path d="M209.07 308.21C209.233 308.88 209.656 309.457 210.245 309.815C210.834 310.174 211.54 310.283 212.21 310.12M184.43 303.23C184.227 303.505 183.971 303.737 183.678 303.913C183.385 304.089 183.06 304.205 182.722 304.255C182.384 304.305 182.039 304.288 181.708 304.205C181.376 304.122 181.064 303.974 180.79 303.77" stroke="white"/>
<path d="M210.22 309.83C208.639 312.435 206.292 314.487 203.498 315.705C200.705 316.922 197.604 317.246 194.62 316.63C191.631 316.012 188.902 314.496 186.797 312.286C184.692 310.076 183.312 307.276 182.84 304.26" stroke="white"/>
<path d="M2.63995 341.07C3.61714 343.77 5.12059 346.249 7.0631 348.363C9.00562 350.477 11.3485 352.185 13.956 353.386C16.5635 354.588 19.3836 355.26 22.2528 355.364C25.122 355.467 27.9833 355 30.6706 353.99C33.3579 352.979 35.8178 351.445 37.9076 349.476C39.9975 347.507 41.6757 345.143 42.8449 342.521C44.0141 339.899 44.6511 337.071 44.7189 334.2C44.7867 331.33 44.284 328.475 43.2399 325.8C41.165 320.485 37.0793 316.202 31.8681 313.878C26.6569 311.555 20.7399 311.378 15.3994 313.386C10.0588 315.395 5.72486 319.427 3.33654 324.609C0.948219 329.791 0.697945 335.705 2.63995 341.07Z" fill="white" stroke="white"/>
<path d="M23.66 338.871C23.34 338.021 21.15 338.071 18.76 338.971C16.37 339.861 14.69 341.271 15.01 342.121C15.33 342.971 17.52 342.921 19.91 342.031C22.31 341.131 23.98 339.721 23.66 338.871ZM19.9 328.871C19.58 328.021 17.38 328.071 15 328.971C12.6 329.871 10.93 331.271 11.25 332.131C11.57 332.981 13.76 332.931 16.15 332.031C18.54 331.131 20.22 329.721 19.9 328.871Z" fill="white"/>
<path d="M22.01 320.35C22.2486 320.106 22.4366 319.816 22.5633 319.499C22.6899 319.181 22.7528 318.842 22.7481 318.5C22.7435 318.158 22.6715 317.821 22.5362 317.507C22.401 317.193 22.2052 316.909 21.96 316.67M30.87 343.89C31.5548 343.947 32.1897 344.272 32.6356 344.794C33.0816 345.317 33.3025 345.995 33.25 346.68" stroke="white"/>
<path d="M22.77 318.52C25.8164 318.475 28.8022 319.373 31.3177 321.092C33.8332 322.811 35.7553 325.266 36.82 328.12C37.887 330.984 38.0537 334.106 37.2977 337.067C36.5417 340.028 34.8992 342.688 32.59 344.69" stroke="white"/>
</svg>
