<svg width="800" height="400" viewBox="0 0 297 122" fill="none" xmlns="http://www.w3.org/2000/svg">
<path fill-rule="evenodd" clip-rule="evenodd" d="M286.936 12.6309C289.998 12.5173 292.526 10.085 292.697 6.96421C292.879 3.6555 290.344 0.825803 287.035 0.64391C283.727 0.462017 280.897 2.99681 280.715 6.30552C280.71 6.40834 280.706 6.5107 280.706 6.61254L12.8095 15.2815C12.8109 12.1175 10.3362 9.46894 7.13872 9.29316C3.83001 9.11127 1.00031 11.6461 0.818422 14.9548C0.636529 18.2635 3.17132 21.0932 6.48003 21.2751C6.65029 21.2844 6.81928 21.2866 6.9867 21.2818L9.84605 109.644C6.88816 109.868 4.48299 112.256 4.31576 115.298C4.13387 118.607 6.66866 121.436 9.97737 121.618C13.2861 121.8 16.1158 119.265 16.2977 115.957C16.3113 115.708 16.3097 115.463 16.2936 115.221L284.285 106.549C284.558 109.457 286.924 111.805 289.929 111.971C293.238 112.152 296.067 109.618 296.249 106.309C296.431 103 293.896 100.171 290.588 99.9887C290.309 99.9733 290.033 99.9773 289.763 99.9994L286.936 12.6309ZM281.899 11.5766L11.9579 20.3116L14.8687 110.265L284.81 101.529L281.899 11.5766Z" fill="url(#paint0_linear_1_42)"/>
<defs>
<linearGradient id="paint0_linear_1_42" x1="109.542" y1="-4.3464" x2="110.691" y2="136.32" gradientUnits="userSpaceOnUse">
<stop stop-color="#5851DB" stop-opacity="0.97"/>
<stop offset="0.230762" stop-color="#833AB4" stop-opacity="0.92"/>
<stop offset="0.530082" stop-color="#C13584"/>
<stop offset="0.78125" stop-color="#E1306C"/>
<stop offset="1" stop-color="#FD1D1D"/>
</linearGradient>
</defs>
</svg>
