<svg width="115" height="56" viewBox="0 0 115 56" fill="none" xmlns="http://www.w3.org/2000/svg">
<g clip-path="url(#clip0_305_424)">
<path d="M22.3351 1.27148C21.999 2.07742 21.5686 2.84073 21.053 3.54548C19.9274 2.41517 18.5883 1.5199 17.1136 0.911728C15.6389 0.303552 14.058 -0.0053955 12.4629 0.0028462C10.8677 0.0110879 9.29012 0.336355 7.82179 0.959736C6.35346 1.58312 5.02371 2.49217 3.90984 3.63405C2.79597 4.77593 1.92021 6.12785 1.33349 7.6112C0.746757 9.09456 0.460764 10.6798 0.492135 12.2746C0.523505 13.8695 0.871613 15.4422 1.51622 16.9013C2.16083 18.3605 3.08907 19.6769 4.24698 20.7741L4.69173 21.1667C6.38893 22.5968 8.44866 23.5295 10.643 23.8616C12.8374 24.1938 15.0809 23.9124 17.1253 23.0487C19.1697 22.1849 20.9353 20.7724 22.2268 18.9675C23.5183 17.1626 24.2853 15.0356 24.443 12.8219C24.7711 9.7581 23.8715 5.8806 22.3355 1.27185L22.3351 1.27148ZM5.95885 20.8439C5.83078 21.0021 5.65866 21.1188 5.46425 21.1792C5.26984 21.2396 5.06189 21.241 4.8667 21.1831C4.67151 21.1253 4.49786 21.0109 4.36772 20.8543C4.23757 20.6978 4.15679 20.5062 4.13558 20.3037C4.11437 20.1012 4.1537 19.897 4.24858 19.7169C4.34346 19.5368 4.48963 19.3889 4.6686 19.2919C4.84757 19.1949 5.05129 19.1531 5.254 19.1719C5.4567 19.1907 5.64927 19.2692 5.80735 19.3975C6.01909 19.5693 6.15398 19.8181 6.18238 20.0893C6.21079 20.3605 6.13039 20.6319 5.95885 20.8439ZM22.2856 17.2401C19.3156 21.1964 12.9744 19.8614 8.9086 20.0534C8.9086 20.0534 8.18785 20.0957 7.46223 20.2146C7.46223 20.2146 7.73598 20.0984 8.08585 19.966C10.9411 18.9722 12.2907 18.781 14.0251 17.8885C17.2906 16.2284 20.5209 12.5927 21.1921 8.81348C19.9497 12.4491 16.1772 15.5755 12.7434 16.8452C10.3899 17.7126 6.1381 18.5575 6.1381 18.5575L5.96673 18.4656C3.07398 17.0594 2.98473 10.7942 8.2456 8.77373C10.5492 7.88648 12.7531 8.3736 15.2409 7.77998C17.8974 7.14885 20.9709 5.15873 22.2215 2.56148C23.6202 6.71648 25.3055 13.2197 22.2837 17.2427L22.2856 17.2401Z" fill="#68BD45"/>
</g>
<path d="M36.076 16.084C35.524 16.084 35.028 15.988 34.588 15.796C34.156 15.596 33.816 15.324 33.568 14.98C33.32 14.628 33.192 14.224 33.184 13.768H34.348C34.388 14.16 34.548 14.492 34.828 14.764C35.116 15.028 35.532 15.16 36.076 15.16C36.596 15.16 37.004 15.032 37.3 14.776C37.604 14.512 37.756 14.176 37.756 13.768C37.756 13.448 37.668 13.188 37.492 12.988C37.316 12.788 37.096 12.636 36.832 12.532C36.568 12.428 36.212 12.316 35.764 12.196C35.212 12.052 34.768 11.908 34.432 11.764C34.104 11.62 33.82 11.396 33.58 11.092C33.348 10.78 33.232 10.364 33.232 9.844C33.232 9.388 33.348 8.984 33.58 8.632C33.812 8.28 34.136 8.008 34.552 7.816C34.976 7.624 35.46 7.528 36.004 7.528C36.788 7.528 37.428 7.724 37.924 8.116C38.428 8.508 38.712 9.028 38.776 9.676H37.576C37.536 9.356 37.368 9.076 37.072 8.836C36.776 8.588 36.384 8.464 35.896 8.464C35.44 8.464 35.068 8.584 34.78 8.824C34.492 9.056 34.348 9.384 34.348 9.808C34.348 10.112 34.432 10.36 34.6 10.552C34.776 10.744 34.988 10.892 35.236 10.996C35.492 11.092 35.848 11.204 36.304 11.332C36.856 11.484 37.3 11.636 37.636 11.788C37.972 11.932 38.26 12.16 38.5 12.472C38.74 12.776 38.86 13.192 38.86 13.72C38.86 14.128 38.752 14.512 38.536 14.872C38.32 15.232 38 15.524 37.576 15.748C37.152 15.972 36.652 16.084 36.076 16.084ZM41.559 10.636C41.775 10.26 42.095 9.948 42.519 9.7C42.951 9.444 43.451 9.316 44.019 9.316C44.603 9.316 45.131 9.456 45.603 9.736C46.083 10.016 46.459 10.412 46.731 10.924C47.003 11.428 47.139 12.016 47.139 12.688C47.139 13.352 47.003 13.944 46.731 14.464C46.459 14.984 46.083 15.388 45.603 15.676C45.131 15.964 44.603 16.108 44.019 16.108C43.459 16.108 42.963 15.984 42.531 15.736C42.107 15.48 41.783 15.164 41.559 14.788V19.12H40.467V9.424H41.559V10.636ZM46.023 12.688C46.023 12.192 45.923 11.76 45.723 11.392C45.523 11.024 45.251 10.744 44.907 10.552C44.571 10.36 44.199 10.264 43.791 10.264C43.391 10.264 43.019 10.364 42.675 10.564C42.339 10.756 42.067 11.04 41.859 11.416C41.659 11.784 41.559 12.212 41.559 12.7C41.559 13.196 41.659 13.632 41.859 14.008C42.067 14.376 42.339 14.66 42.675 14.86C43.019 15.052 43.391 15.148 43.791 15.148C44.199 15.148 44.571 15.052 44.907 14.86C45.251 14.66 45.523 14.376 45.723 14.008C45.923 13.632 46.023 13.192 46.023 12.688ZM49.6683 10.492C49.8603 10.116 50.1323 9.824 50.4843 9.616C50.8443 9.408 51.2803 9.304 51.7923 9.304V10.432H51.5043C50.2803 10.432 49.6683 11.096 49.6683 12.424V16H48.5763V9.424H49.6683V10.492ZM53.6169 8.356C53.4089 8.356 53.2329 8.284 53.0889 8.14C52.9449 7.996 52.8729 7.82 52.8729 7.612C52.8729 7.404 52.9449 7.228 53.0889 7.084C53.2329 6.94 53.4089 6.868 53.6169 6.868C53.8169 6.868 53.9849 6.94 54.1209 7.084C54.2649 7.228 54.3369 7.404 54.3369 7.612C54.3369 7.82 54.2649 7.996 54.1209 8.14C53.9849 8.284 53.8169 8.356 53.6169 8.356ZM54.1449 9.424V16H53.0529V9.424H54.1449ZM59.21 9.304C60.01 9.304 60.658 9.548 61.154 10.036C61.65 10.516 61.898 11.212 61.898 12.124V16H60.818V12.28C60.818 11.624 60.654 11.124 60.326 10.78C59.998 10.428 59.55 10.252 58.982 10.252C58.406 10.252 57.946 10.432 57.602 10.792C57.266 11.152 57.098 11.676 57.098 12.364V16H56.006V9.424H57.098V10.36C57.314 10.024 57.606 9.764 57.974 9.58C58.35 9.396 58.762 9.304 59.21 9.304ZM66.3938 9.316C66.9618 9.316 67.4578 9.44 67.8818 9.688C68.3138 9.936 68.6338 10.248 68.8418 10.624V9.424H69.9458V16.144C69.9458 16.744 69.8178 17.276 69.5618 17.74C69.3058 18.212 68.9378 18.58 68.4578 18.844C67.9858 19.108 67.4338 19.24 66.8018 19.24C65.9378 19.24 65.2178 19.036 64.6418 18.628C64.0658 18.22 63.7258 17.664 63.6218 16.96H64.7018C64.8218 17.36 65.0698 17.68 65.4458 17.92C65.8218 18.168 66.2738 18.292 66.8018 18.292C67.4018 18.292 67.8898 18.104 68.2658 17.728C68.6498 17.352 68.8418 16.824 68.8418 16.144V14.764C68.6258 15.148 68.3058 15.468 67.8818 15.724C67.4578 15.98 66.9618 16.108 66.3938 16.108C65.8098 16.108 65.2778 15.964 64.7978 15.676C64.3258 15.388 63.9538 14.984 63.6818 14.464C63.4098 13.944 63.2738 13.352 63.2738 12.688C63.2738 12.016 63.4098 11.428 63.6818 10.924C63.9538 10.412 64.3258 10.016 64.7978 9.736C65.2778 9.456 65.8098 9.316 66.3938 9.316ZM68.8418 12.7C68.8418 12.204 68.7418 11.772 68.5418 11.404C68.3418 11.036 68.0698 10.756 67.7258 10.564C67.3898 10.364 67.0178 10.264 66.6098 10.264C66.2018 10.264 65.8298 10.36 65.4938 10.552C65.1578 10.744 64.8898 11.024 64.6898 11.392C64.4898 11.76 64.3898 12.192 64.3898 12.688C64.3898 13.192 64.4898 13.632 64.6898 14.008C64.8898 14.376 65.1578 14.66 65.4938 14.86C65.8298 15.052 66.2018 15.148 66.6098 15.148C67.0178 15.148 67.3898 15.052 67.7258 14.86C68.0698 14.66 68.3418 14.376 68.5418 14.008C68.7418 13.632 68.8418 13.196 68.8418 12.7Z" fill="black" fill-opacity="0.88"/>
<path d="M3.08552 49.6617L3.94806 50.1597L13.5571 33.5169L12.6945 33.0189L3.08552 49.6617Z" fill="#E535AB"/>
<path d="M22.106 48.332H2.888V49.328H22.106V48.332Z" fill="#E535AB"/>
<path d="M3.26826 48.8917L12.8809 54.4417L13.3789 53.5791L3.76626 48.0291L3.26826 48.8917Z" fill="#E535AB"/>
<path d="M11.6187 34.4268L21.2313 39.9768L21.7293 39.1143L12.1167 33.5643L11.6187 34.4268Z" fill="#E535AB"/>
<path d="M3.27092 39.1106L3.76892 39.9731L13.3815 34.4231L12.8835 33.5606L3.27092 39.1106Z" fill="#E535AB"/>
<path d="M11.4451 33.5171L21.0541 50.1599L21.9166 49.6619L12.3076 33.0191L11.4451 33.5171Z" fill="#E535AB"/>
<path d="M4.64596 38.45H3.64996V49.55H4.64596V38.45Z" fill="#E535AB"/>
<path d="M21.35 38.45H20.354V49.55H21.35V38.45Z" fill="#E535AB"/>
<path d="M12.2763 53.2664L12.7113 54.0198L21.0717 49.1928L20.6367 48.4394L12.2763 53.2664Z" fill="#E535AB"/>
<path d="M22.67 49.874C22.094 50.876 20.81 51.218 19.808 50.642C18.806 50.066 18.464 48.782 19.04 47.78C19.616 46.778 20.9 46.436 21.902 47.012C22.91 47.594 23.252 48.872 22.67 49.874Z" fill="#E535AB"/>
<path d="M5.95398 40.22C5.37798 41.222 4.09398 41.564 3.09198 40.988C2.08998 40.412 1.74798 39.128 2.32398 38.126C2.89998 37.124 4.18398 36.782 5.18598 37.358C6.18798 37.94 6.52998 39.218 5.95398 40.22Z" fill="#E535AB"/>
<path d="M2.32996 49.874C1.75396 48.872 2.09596 47.594 3.09796 47.012C4.09996 46.436 5.37796 46.778 5.95996 47.78C6.53596 48.782 6.19396 50.06 5.19196 50.642C4.18396 51.218 2.90596 50.876 2.32996 49.874Z" fill="#E535AB"/>
<path d="M19.046 40.22C18.47 39.218 18.812 37.94 19.814 37.358C20.816 36.782 22.094 37.124 22.676 38.126C23.252 39.128 22.91 40.406 21.908 40.988C20.906 41.564 19.622 41.222 19.046 40.22Z" fill="#E535AB"/>
<path d="M12.5 55.7481C11.342 55.7481 10.406 54.8121 10.406 53.6541C10.406 52.4961 11.342 51.5601 12.5 51.5601C13.658 51.5601 14.594 52.4961 14.594 53.6541C14.594 54.8061 13.658 55.7481 12.5 55.7481Z" fill="#E535AB"/>
<path d="M12.5 36.44C11.342 36.44 10.406 35.504 10.406 34.346C10.406 33.188 11.342 32.252 12.5 32.252C13.658 32.252 14.594 33.188 14.594 34.346C14.594 35.504 13.658 36.44 12.5 36.44Z" fill="#E535AB"/>
<path d="M39.76 42.06C39.528 41.572 39.192 41.196 38.752 40.932C38.312 40.66 37.8 40.524 37.216 40.524C36.632 40.524 36.104 40.66 35.632 40.932C35.168 41.196 34.8 41.58 34.528 42.084C34.264 42.58 34.132 43.156 34.132 43.812C34.132 44.468 34.264 45.044 34.528 45.54C34.8 46.036 35.168 46.42 35.632 46.692C36.104 46.956 36.632 47.088 37.216 47.088C38.032 47.088 38.704 46.844 39.232 46.356C39.76 45.868 40.068 45.208 40.156 44.376H36.82V43.488H41.32V44.328C41.256 45.016 41.04 45.648 40.672 46.224C40.304 46.792 39.82 47.244 39.22 47.58C38.62 47.908 37.952 48.072 37.216 48.072C36.44 48.072 35.732 47.892 35.092 47.532C34.452 47.164 33.944 46.656 33.568 46.008C33.2 45.36 33.016 44.628 33.016 43.812C33.016 42.996 33.2 42.264 33.568 41.616C33.944 40.96 34.452 40.452 35.092 40.092C35.732 39.724 36.44 39.54 37.216 39.54C38.104 39.54 38.888 39.76 39.568 40.2C40.256 40.64 40.756 41.26 41.068 42.06H39.76ZM43.8558 42.492C44.0478 42.116 44.3198 41.824 44.6718 41.616C45.0318 41.408 45.4678 41.304 45.9798 41.304V42.432H45.6918C44.4678 42.432 43.8558 43.096 43.8558 44.424V48H42.7638V41.424H43.8558V42.492ZM46.8324 44.688C46.8324 44.016 46.9684 43.428 47.2404 42.924C47.5124 42.412 47.8844 42.016 48.3564 41.736C48.8364 41.456 49.3684 41.316 49.9524 41.316C50.5284 41.316 51.0284 41.44 51.4524 41.688C51.8764 41.936 52.1924 42.248 52.4004 42.624V41.424H53.5044V48H52.4004V46.776C52.1844 47.16 51.8604 47.48 51.4284 47.736C51.0044 47.984 50.5084 48.108 49.9404 48.108C49.3564 48.108 48.8284 47.964 48.3564 47.676C47.8844 47.388 47.5124 46.984 47.2404 46.464C46.9684 45.944 46.8324 45.352 46.8324 44.688ZM52.4004 44.7C52.4004 44.204 52.3004 43.772 52.1004 43.404C51.9004 43.036 51.6284 42.756 51.2844 42.564C50.9484 42.364 50.5764 42.264 50.1684 42.264C49.7604 42.264 49.3884 42.36 49.0524 42.552C48.7164 42.744 48.4484 43.024 48.2484 43.392C48.0484 43.76 47.9484 44.192 47.9484 44.688C47.9484 45.192 48.0484 45.632 48.2484 46.008C48.4484 46.376 48.7164 46.66 49.0524 46.86C49.3884 47.052 49.7604 47.148 50.1684 47.148C50.5764 47.148 50.9484 47.052 51.2844 46.86C51.6284 46.66 51.9004 46.376 52.1004 46.008C52.3004 45.632 52.4004 45.196 52.4004 44.7ZM56.4418 42.636C56.6578 42.26 56.9778 41.948 57.4018 41.7C57.8338 41.444 58.3338 41.316 58.9018 41.316C59.4858 41.316 60.0138 41.456 60.4858 41.736C60.9658 42.016 61.3418 42.412 61.6138 42.924C61.8858 43.428 62.0218 44.016 62.0218 44.688C62.0218 45.352 61.8858 45.944 61.6138 46.464C61.3418 46.984 60.9658 47.388 60.4858 47.676C60.0138 47.964 59.4858 48.108 58.9018 48.108C58.3418 48.108 57.8458 47.984 57.4138 47.736C56.9898 47.48 56.6658 47.164 56.4418 46.788V51.12H55.3498V41.424H56.4418V42.636ZM60.9058 44.688C60.9058 44.192 60.8058 43.76 60.6058 43.392C60.4058 43.024 60.1338 42.744 59.7898 42.552C59.4538 42.36 59.0818 42.264 58.6738 42.264C58.2738 42.264 57.9018 42.364 57.5578 42.564C57.2218 42.756 56.9498 43.04 56.7418 43.416C56.5418 43.784 56.4418 44.212 56.4418 44.7C56.4418 45.196 56.5418 45.632 56.7418 46.008C56.9498 46.376 57.2218 46.66 57.5578 46.86C57.9018 47.052 58.2738 47.148 58.6738 47.148C59.0818 47.148 59.4538 47.052 59.7898 46.86C60.1338 46.66 60.4058 46.376 60.6058 46.008C60.8058 45.632 60.9058 45.192 60.9058 44.688ZM66.7232 41.304C67.2192 41.304 67.6672 41.412 68.0672 41.628C68.4672 41.836 68.7792 42.152 69.0032 42.576C69.2352 43 69.3512 43.516 69.3512 44.124V48H68.2712V44.28C68.2712 43.624 68.1072 43.124 67.7792 42.78C67.4512 42.428 67.0032 42.252 66.4352 42.252C65.8592 42.252 65.3992 42.432 65.0552 42.792C64.7192 43.152 64.5512 43.676 64.5512 44.364V48H63.4592V39.12H64.5512V42.36C64.7672 42.024 65.0632 41.764 65.4392 41.58C65.8232 41.396 66.2512 41.304 66.7232 41.304ZM77.8429 49.584L76.1749 47.916C75.7669 48.028 75.3509 48.084 74.9269 48.084C74.1509 48.084 73.4429 47.904 72.8029 47.544C72.1629 47.176 71.6549 46.668 71.2789 46.02C70.9109 45.364 70.7269 44.628 70.7269 43.812C70.7269 42.996 70.9109 42.264 71.2789 41.616C71.6549 40.96 72.1629 40.452 72.8029 40.092C73.4429 39.724 74.1509 39.54 74.9269 39.54C75.7109 39.54 76.4229 39.724 77.0629 40.092C77.7029 40.452 78.2069 40.956 78.5749 41.604C78.9429 42.252 79.1269 42.988 79.1269 43.812C79.1269 44.612 78.9509 45.332 78.5989 45.972C78.2469 46.612 77.7629 47.116 77.1469 47.484L79.2589 49.584H77.8429ZM71.8429 43.812C71.8429 44.476 71.9749 45.06 72.2389 45.564C72.5109 46.068 72.8789 46.456 73.3429 46.728C73.8149 47 74.3429 47.136 74.9269 47.136C75.5109 47.136 76.0349 47 76.4989 46.728C76.9709 46.456 77.3389 46.068 77.6029 45.564C77.8749 45.06 78.0109 44.476 78.0109 43.812C78.0109 43.14 77.8749 42.556 77.6029 42.06C77.3389 41.556 76.9749 41.168 76.5109 40.896C76.0469 40.624 75.5189 40.488 74.9269 40.488C74.3349 40.488 73.8069 40.624 73.3429 40.896C72.8789 41.168 72.5109 41.556 72.2389 42.06C71.9749 42.556 71.8429 43.14 71.8429 43.812ZM81.684 47.112H84.612V48H80.592V39.636H81.684V47.112Z" fill="black" fill-opacity="0.88"/>
<defs>
<clipPath id="clip0_305_424">
<rect width="24" height="24" fill="white" transform="translate(0.5)"/>
</clipPath>
</defs>
</svg>
