<svg width="121" height="56" viewBox="0 0 121 56" fill="none" xmlns="http://www.w3.org/2000/svg">
<g clip-path="url(#clip0_305_417)">
<path d="M21.8351 1.27148C21.499 2.07742 21.0686 2.84073 20.553 3.54548C19.4274 2.41517 18.0883 1.5199 16.6136 0.911728C15.1389 0.303552 13.558 -0.0053955 11.9629 0.0028462C10.3677 0.0110879 8.79012 0.336355 7.32179 0.959736C5.85346 1.58312 4.52371 2.49217 3.40984 3.63405C2.29597 4.77593 1.42021 6.12785 0.833486 7.6112C0.246757 9.09456 -0.0392356 10.6798 -0.0078652 12.2746C0.0235052 13.8695 0.371613 15.4422 1.01622 16.9013C1.66083 18.3605 2.58907 19.6769 3.74698 20.7741L4.19173 21.1667C5.88893 22.5968 7.94866 23.5295 10.143 23.8616C12.3374 24.1938 14.5809 23.9124 16.6253 23.0487C18.6697 22.1849 20.4353 20.7724 21.7268 18.9675C23.0183 17.1626 23.7853 15.0356 23.943 12.8219C24.2711 9.7581 23.3715 5.8806 21.8355 1.27185L21.8351 1.27148ZM5.45885 20.8439C5.33078 21.0021 5.15866 21.1188 4.96425 21.1792C4.76984 21.2396 4.56189 21.241 4.3667 21.1831C4.17151 21.1253 3.99786 21.0109 3.86772 20.8543C3.73757 20.6978 3.65679 20.5062 3.63558 20.3037C3.61437 20.1012 3.6537 19.897 3.74858 19.7169C3.84346 19.5368 3.98963 19.3889 4.1686 19.2919C4.34757 19.1949 4.55129 19.1531 4.754 19.1719C4.9567 19.1907 5.14927 19.2692 5.30735 19.3975C5.51909 19.5693 5.65398 19.8181 5.68238 20.0893C5.71079 20.3605 5.63039 20.6319 5.45885 20.8439ZM21.7856 17.2401C18.8156 21.1964 12.4744 19.8614 8.4086 20.0534C8.4086 20.0534 7.68785 20.0957 6.96223 20.2146C6.96223 20.2146 7.23598 20.0984 7.58585 19.966C10.4411 18.9722 11.7907 18.781 13.5251 17.8885C16.7906 16.2284 20.0209 12.5927 20.6921 8.81348C19.4497 12.4491 15.6772 15.5755 12.2434 16.8452C9.88985 17.7126 5.6381 18.5575 5.6381 18.5575L5.46673 18.4656C2.57398 17.0594 2.48473 10.7942 7.7456 8.77373C10.0492 7.88648 12.2531 8.3736 14.7409 7.77998C17.3974 7.14885 20.4709 5.15873 21.7215 2.56148C23.1202 6.71648 24.8055 13.2197 21.7837 17.2427L21.7856 17.2401Z" fill="#68BD45"/>
</g>
<path d="M35.576 16.084C35.024 16.084 34.528 15.988 34.088 15.796C33.656 15.596 33.316 15.324 33.068 14.98C32.82 14.628 32.692 14.224 32.684 13.768H33.848C33.888 14.16 34.048 14.492 34.328 14.764C34.616 15.028 35.032 15.16 35.576 15.16C36.096 15.16 36.504 15.032 36.8 14.776C37.104 14.512 37.256 14.176 37.256 13.768C37.256 13.448 37.168 13.188 36.992 12.988C36.816 12.788 36.596 12.636 36.332 12.532C36.068 12.428 35.712 12.316 35.264 12.196C34.712 12.052 34.268 11.908 33.932 11.764C33.604 11.62 33.32 11.396 33.08 11.092C32.848 10.78 32.732 10.364 32.732 9.844C32.732 9.388 32.848 8.984 33.08 8.632C33.312 8.28 33.636 8.008 34.052 7.816C34.476 7.624 34.96 7.528 35.504 7.528C36.288 7.528 36.928 7.724 37.424 8.116C37.928 8.508 38.212 9.028 38.276 9.676H37.076C37.036 9.356 36.868 9.076 36.572 8.836C36.276 8.588 35.884 8.464 35.396 8.464C34.94 8.464 34.568 8.584 34.28 8.824C33.992 9.056 33.848 9.384 33.848 9.808C33.848 10.112 33.932 10.36 34.1 10.552C34.276 10.744 34.488 10.892 34.736 10.996C34.992 11.092 35.348 11.204 35.804 11.332C36.356 11.484 36.8 11.636 37.136 11.788C37.472 11.932 37.76 12.16 38 12.472C38.24 12.776 38.36 13.192 38.36 13.72C38.36 14.128 38.252 14.512 38.036 14.872C37.82 15.232 37.5 15.524 37.076 15.748C36.652 15.972 36.152 16.084 35.576 16.084ZM41.059 10.636C41.275 10.26 41.595 9.948 42.019 9.7C42.451 9.444 42.951 9.316 43.519 9.316C44.103 9.316 44.631 9.456 45.103 9.736C45.583 10.016 45.959 10.412 46.231 10.924C46.503 11.428 46.639 12.016 46.639 12.688C46.639 13.352 46.503 13.944 46.231 14.464C45.959 14.984 45.583 15.388 45.103 15.676C44.631 15.964 44.103 16.108 43.519 16.108C42.959 16.108 42.463 15.984 42.031 15.736C41.607 15.48 41.283 15.164 41.059 14.788V19.12H39.967V9.424H41.059V10.636ZM45.523 12.688C45.523 12.192 45.423 11.76 45.223 11.392C45.023 11.024 44.751 10.744 44.407 10.552C44.071 10.36 43.699 10.264 43.291 10.264C42.891 10.264 42.519 10.364 42.175 10.564C41.839 10.756 41.567 11.04 41.359 11.416C41.159 11.784 41.059 12.212 41.059 12.7C41.059 13.196 41.159 13.632 41.359 14.008C41.567 14.376 41.839 14.66 42.175 14.86C42.519 15.052 42.891 15.148 43.291 15.148C43.699 15.148 44.071 15.052 44.407 14.86C44.751 14.66 45.023 14.376 45.223 14.008C45.423 13.632 45.523 13.192 45.523 12.688ZM49.1683 10.492C49.3603 10.116 49.6323 9.824 49.9843 9.616C50.3443 9.408 50.7803 9.304 51.2923 9.304V10.432H51.0043C49.7803 10.432 49.1683 11.096 49.1683 12.424V16H48.0763V9.424H49.1683V10.492ZM53.1169 8.356C52.9089 8.356 52.7329 8.284 52.5889 8.14C52.4449 7.996 52.3729 7.82 52.3729 7.612C52.3729 7.404 52.4449 7.228 52.5889 7.084C52.7329 6.94 52.9089 6.868 53.1169 6.868C53.3169 6.868 53.4849 6.94 53.6209 7.084C53.7649 7.228 53.8369 7.404 53.8369 7.612C53.8369 7.82 53.7649 7.996 53.6209 8.14C53.4849 8.284 53.3169 8.356 53.1169 8.356ZM53.6449 9.424V16H52.5529V9.424H53.6449ZM58.71 9.304C59.51 9.304 60.158 9.548 60.654 10.036C61.15 10.516 61.398 11.212 61.398 12.124V16H60.318V12.28C60.318 11.624 60.154 11.124 59.826 10.78C59.498 10.428 59.05 10.252 58.482 10.252C57.906 10.252 57.446 10.432 57.102 10.792C56.766 11.152 56.598 11.676 56.598 12.364V16H55.506V9.424H56.598V10.36C56.814 10.024 57.106 9.764 57.474 9.58C57.85 9.396 58.262 9.304 58.71 9.304ZM65.8938 9.316C66.4618 9.316 66.9578 9.44 67.3818 9.688C67.8138 9.936 68.1338 10.248 68.3418 10.624V9.424H69.4458V16.144C69.4458 16.744 69.3178 17.276 69.0618 17.74C68.8058 18.212 68.4378 18.58 67.9578 18.844C67.4858 19.108 66.9338 19.24 66.3018 19.24C65.4378 19.24 64.7178 19.036 64.1418 18.628C63.5658 18.22 63.2258 17.664 63.1218 16.96H64.2018C64.3218 17.36 64.5698 17.68 64.9458 17.92C65.3218 18.168 65.7738 18.292 66.3018 18.292C66.9018 18.292 67.3898 18.104 67.7658 17.728C68.1498 17.352 68.3418 16.824 68.3418 16.144V14.764C68.1258 15.148 67.8058 15.468 67.3818 15.724C66.9578 15.98 66.4618 16.108 65.8938 16.108C65.3098 16.108 64.7778 15.964 64.2978 15.676C63.8258 15.388 63.4538 14.984 63.1818 14.464C62.9098 13.944 62.7738 13.352 62.7738 12.688C62.7738 12.016 62.9098 11.428 63.1818 10.924C63.4538 10.412 63.8258 10.016 64.2978 9.736C64.7778 9.456 65.3098 9.316 65.8938 9.316ZM68.3418 12.7C68.3418 12.204 68.2418 11.772 68.0418 11.404C67.8418 11.036 67.5698 10.756 67.2258 10.564C66.8898 10.364 66.5178 10.264 66.1098 10.264C65.7018 10.264 65.3298 10.36 64.9938 10.552C64.6578 10.744 64.3898 11.024 64.1898 11.392C63.9898 11.76 63.8898 12.192 63.8898 12.688C63.8898 13.192 63.9898 13.632 64.1898 14.008C64.3898 14.376 64.6578 14.66 64.9938 14.86C65.3298 15.052 65.7018 15.148 66.1098 15.148C66.5178 15.148 66.8898 15.052 67.2258 14.86C67.5698 14.66 67.8418 14.376 68.0418 14.008C68.2418 13.632 68.3418 13.196 68.3418 12.7ZM82.9744 7.696V16H81.8824V9.808L79.1224 16H78.3544L75.5824 9.796V16H74.4904V7.696H75.6664L78.7384 14.56L81.8104 7.696H82.9744ZM91.7383 7.636L88.5823 16H87.3223L84.1663 7.636H85.3303L87.9583 14.848L90.5863 7.636H91.7383ZM92.5277 11.812C92.5277 10.996 92.7117 10.264 93.0797 9.616C93.4477 8.96 93.9477 8.448 94.5797 8.08C95.2197 7.712 95.9277 7.528 96.7037 7.528C97.6157 7.528 98.4117 7.748 99.0917 8.188C99.7717 8.628 100.268 9.252 100.58 10.06H99.2717C99.0397 9.556 98.7037 9.168 98.2637 8.896C97.8317 8.624 97.3117 8.488 96.7037 8.488C96.1197 8.488 95.5957 8.624 95.1317 8.896C94.6677 9.168 94.3037 9.556 94.0397 10.06C93.7757 10.556 93.6437 11.14 93.6437 11.812C93.6437 12.476 93.7757 13.06 94.0397 13.564C94.3037 14.06 94.6677 14.444 95.1317 14.716C95.5957 14.988 96.1197 15.124 96.7037 15.124C97.3117 15.124 97.8317 14.992 98.2637 14.728C98.7037 14.456 99.0397 14.068 99.2717 13.564H100.58C100.268 14.364 99.7717 14.984 99.0917 15.424C98.4117 15.856 97.6157 16.072 96.7037 16.072C95.9277 16.072 95.2197 15.892 94.5797 15.532C93.9477 15.164 93.4477 14.656 93.0797 14.008C92.7117 13.36 92.5277 12.628 92.5277 11.812Z" fill="black" fill-opacity="0.88"/>
<g clip-path="url(#clip1_305_417)">
<path d="M20.1316 44.6137C20.1316 44.5731 20.1205 44.5441 20.0976 44.5251C20.0723 44.5047 20.0286 44.4938 19.9677 44.4938H19.8801V44.7353H19.9858C20.0834 44.7353 20.1316 44.6946 20.1316 44.6137ZM20.2681 45.1173H20.1478L20.071 44.9474C20.0321 44.8622 19.9904 44.8196 19.9449 44.8196H19.8801V45.1173H19.781V44.409H19.9796C20.0679 44.409 20.1343 44.4282 20.1798 44.4682C20.2184 44.5027 20.2376 44.5468 20.2376 44.6018C20.2376 44.6505 20.2219 44.6916 20.1902 44.7256C20.1593 44.76 20.115 44.7833 20.0583 44.7953V44.7983C20.0976 44.8076 20.137 44.851 20.1751 44.9292L20.2681 45.1177V45.1173ZM20.4879 44.7701C20.4879 44.6308 20.4405 44.5131 20.346 44.4198C20.2511 44.3266 20.1354 44.2797 19.9989 44.2797C19.8581 44.2797 19.7409 44.3266 19.6479 44.4206C19.5549 44.5151 19.5087 44.6319 19.5087 44.7701C19.5087 44.9114 19.5569 45.0294 19.6525 45.1235C19.747 45.2175 19.8627 45.2639 19.9989 45.2639C20.1343 45.2639 20.25 45.2171 20.3452 45.1219C20.4405 45.0282 20.4879 44.9106 20.4879 44.7701ZM20.5547 44.767C20.5547 44.9234 20.5011 45.0546 20.3935 45.1603C20.2858 45.2667 20.1539 45.3197 19.9962 45.3197C19.8373 45.3197 19.7054 45.2675 19.6004 45.1649C19.4956 45.0608 19.4435 44.93 19.4435 44.7713C19.4435 44.6161 19.4967 44.4857 19.6032 44.3785C19.7096 44.2717 19.8423 44.2183 20.0008 44.2183C20.1562 44.2183 20.2866 44.2693 20.3923 44.3711C20.5007 44.4756 20.5547 44.6072 20.5547 44.767Z" fill="black"/>
<path d="M5.46894 46.7422H5.12684V44.7776C5.12684 44.6224 5.13703 44.4336 5.15524 44.2106H5.14752C5.11549 44.3411 5.08617 44.4355 5.06035 44.4939L4.06602 46.7422H3.8994L2.90312 44.5102C2.87504 44.4479 2.84567 44.3476 2.81595 44.2106H2.80855C2.81904 44.3279 2.82491 44.5179 2.82491 44.7815V46.7422H2.49512V43.8167H2.94638L3.84084 45.8567C3.90832 46.0103 3.95192 46.1272 3.97311 46.2069H3.98731C4.04553 46.0471 4.09182 45.9271 4.12693 45.8481L5.04064 43.8167H5.46876V46.7422H5.46894Z" fill="black"/>
<path d="M6.52134 46.7419H6.18889V44.6527H6.52134V46.7419ZM6.57882 43.9038C6.57882 43.9653 6.55722 44.0168 6.51439 44.059C6.47237 44.1012 6.42031 44.1225 6.35934 44.1225C6.29995 44.1225 6.24826 44.102 6.20586 44.0613C6.16344 44.0203 6.14258 43.968 6.14258 43.9038C6.14258 43.8434 6.16356 43.792 6.20586 43.7502C6.24826 43.7084 6.29995 43.6882 6.35934 43.6882C6.42028 43.6882 6.47237 43.7084 6.51439 43.7502C6.55722 43.792 6.57882 43.8434 6.57882 43.9038Z" fill="black"/>
<path d="M8.59899 46.6453C8.43931 46.7436 8.24878 46.7924 8.02853 46.7924C7.73003 46.7924 7.48973 46.6929 7.30613 46.4944C7.12794 46.3016 7.03809 46.0528 7.03809 45.7478C7.03809 45.4056 7.13565 45.1286 7.33236 44.918C7.52792 44.7071 7.79097 44.6018 8.1219 44.6018C8.30278 44.6018 8.46323 44.6374 8.60362 44.7079V45.0512C8.4482 44.9416 8.28389 44.8874 8.10761 44.8874C7.89548 44.8874 7.72309 44.9617 7.58923 45.11C7.44998 45.2617 7.37941 45.4645 7.37941 45.7176C7.37941 45.9607 7.44384 46.153 7.57189 46.2951C7.70032 46.4363 7.8712 46.5072 8.08678 46.5072C8.26883 46.5072 8.43931 46.4471 8.59899 46.3276V46.6453Z" fill="black"/>
<path d="M10.1892 44.9916C10.1306 44.9464 10.0462 44.9243 9.93468 44.9243C9.79932 44.9243 9.68552 44.9851 9.59336 45.1077C9.48881 45.2447 9.43676 45.4344 9.43676 45.6767V46.7418H9.10352V44.6526H9.43676V45.0834H9.44478C9.49378 44.9309 9.56938 44.8136 9.67043 44.7304C9.76491 44.6545 9.87177 44.6162 9.98939 44.6162C10.0781 44.6162 10.1441 44.6258 10.1892 44.6447V44.9915L10.1892 44.9916Z" fill="black"/>
<path d="M12.0466 45.7012C12.0466 45.4338 11.9864 45.2295 11.8661 45.0894C11.7492 44.9547 11.5861 44.8873 11.3759 44.8873C11.1687 44.8873 11.0025 44.9555 10.8783 45.0917C10.7468 45.2372 10.6812 45.4427 10.6812 45.7094C10.6812 45.9594 10.7437 46.1556 10.8698 46.2957C10.9952 46.4366 11.1641 46.507 11.3759 46.507C11.5949 46.507 11.7627 46.4355 11.8776 46.293C11.9903 46.1537 12.0466 45.9567 12.0466 45.7012ZM12.3883 45.6895C12.3883 46.0223 12.2946 46.2898 12.1079 46.4903C11.9205 46.6915 11.6682 46.7921 11.3512 46.7921C11.0388 46.7921 10.79 46.6915 10.6076 46.4903C10.429 46.2963 10.3391 46.0401 10.3391 45.7216C10.3391 45.3582 10.4405 45.078 10.6442 44.8791C10.8324 44.6945 11.0842 44.6016 11.3998 44.6016C11.7103 44.6016 11.9529 44.6987 12.1276 44.8911C12.3008 45.0846 12.3883 45.3509 12.3883 45.6895Z" fill="black"/>
<path d="M14.0409 46.183C14.0409 46.354 13.9773 46.4957 13.8496 46.6087C13.7104 46.731 13.5191 46.7921 13.2784 46.7921C13.0813 46.7921 12.9085 46.7507 12.762 46.6664V46.3068C12.9251 46.4399 13.1052 46.5069 13.3031 46.5069C13.5669 46.5069 13.6992 46.4094 13.6992 46.2151C13.6992 46.1334 13.6702 46.0657 13.6117 46.0134C13.553 45.96 13.4392 45.8962 13.2699 45.8215C13.0956 45.7448 12.9714 45.6663 12.8981 45.5846C12.8102 45.4878 12.7658 45.3621 12.7658 45.2073C12.7658 45.0339 12.8349 44.8895 12.9714 44.7746C13.1083 44.6592 13.2842 44.6016 13.5002 44.6016C13.6657 44.6016 13.8138 44.6341 13.9453 44.6995V45.0362C13.808 44.9367 13.651 44.8872 13.4728 44.8872C13.3625 44.8872 13.2738 44.9147 13.2078 44.9685C13.1411 45.0234 13.1075 45.0935 13.1075 45.179C13.1075 45.2715 13.1356 45.3435 13.1913 45.395C13.2406 45.4426 13.3455 45.5006 13.5037 45.5683C13.6815 45.6431 13.8099 45.7205 13.8882 45.7998C13.9897 45.9 14.0409 46.0278 14.0409 46.183Z" fill="black"/>
<path d="M16.0776 45.7012C16.0776 45.4338 16.0174 45.2295 15.8967 45.0894C15.7802 44.9547 15.6167 44.8873 15.4069 44.8873C15.1997 44.8873 15.0335 44.9555 14.9086 45.0917C14.7774 45.2372 14.7122 45.4427 14.7122 45.7094C14.7122 45.9594 14.7747 46.1556 14.8997 46.2957C15.0266 46.4366 15.1955 46.507 15.4069 46.507C15.6263 46.507 15.7937 46.4355 15.9087 46.293C16.0213 46.1537 16.0776 45.9567 16.0776 45.7012ZM16.4201 45.6895C16.4201 46.0223 16.3256 46.2898 16.1385 46.4903C15.9519 46.6915 15.6996 46.7921 15.3826 46.7921C15.0698 46.7921 14.821 46.6915 14.6386 46.4903C14.46 46.2963 14.3701 46.0401 14.3701 45.7216C14.3701 45.3582 14.4723 45.078 14.6748 44.8791C14.863 44.6945 15.1153 44.6016 15.4312 44.6016C15.7417 44.6016 15.9839 44.6987 16.1582 44.8911C16.3318 45.0846 16.4201 45.3509 16.4201 45.6895Z" fill="black"/>
<path d="M17.8886 43.943C17.823 43.9066 17.7501 43.888 17.6672 43.888C17.4338 43.888 17.3181 44.0355 17.3181 44.3308V44.6528H17.806V44.9361H17.3181V46.742H16.9845V44.9361H16.6304V44.6528H16.9845V44.3142C16.9845 44.0843 17.0547 43.9039 17.1974 43.7739C17.3197 43.6608 17.4693 43.6047 17.6471 43.6047C17.7501 43.6047 17.8304 43.6171 17.8886 43.6411V43.943Z" fill="black"/>
<path d="M19.2038 46.7208C19.1252 46.7661 19.0203 46.7885 18.8907 46.7885C18.5273 46.7885 18.3457 46.583 18.3457 46.172V44.9362H17.9885V44.6525H18.3457V44.1428C18.4521 44.1091 18.5628 44.0724 18.6797 44.0344V44.6525H19.2038V44.9362H18.6797V46.1151C18.6797 46.2552 18.7025 46.3554 18.7503 46.4135C18.7985 46.4735 18.8772 46.5029 18.9883 46.5029C19.0712 46.5029 19.1429 46.4806 19.2038 46.4355V46.7208Z" fill="black"/>
<path d="M1.18872 54.8958C1.18872 55.0595 1.1305 55.2011 1.01284 55.3208C0.895592 55.44 0.753254 55.5 0.586262 55.5C0.423096 55.5 0.284244 55.44 0.170479 55.3208C0.0566826 55.2011 0 55.0595 0 54.8958C0 54.7275 0.0566826 54.5854 0.170479 54.4677C0.284244 54.3497 0.423096 54.2913 0.586262 54.2913C0.753254 54.2913 0.895592 54.3505 1.01284 54.4701C1.1305 54.5897 1.18872 54.7317 1.18872 54.8958Z" fill="black"/>
<path d="M8.65033 55.377H7.56344L3.61814 49.2632C3.52594 49.1161 3.44649 48.9562 3.37901 48.7817H3.34658C3.37466 48.9454 3.38904 49.2968 3.38904 49.8352V55.377H2.49304V47.7065H3.65594L7.48322 53.724C7.63558 53.9628 7.73969 54.1339 7.79254 54.2368H7.81383C7.77835 54.0162 7.75987 53.64 7.75987 53.109V47.7065H8.65043V55.377H8.65033Z" fill="black"/>
<path d="M14.3944 55.377H10.343V47.7065H14.2185V48.5193H11.2382V51.0709H13.9998V51.8841H11.2382V54.5639H14.3944V55.377Z" fill="black"/>
<path d="M20.5396 48.5194H18.3376V55.3772H17.442V48.5194H15.2358V47.7063H20.5396V48.5194Z" fill="black"/>
<path d="M8.34644 34.4578C9.21078 37.1101 9.53824 41.8415 12.0657 41.8415C12.2582 41.8415 12.4526 41.8226 12.6477 41.7854C10.3501 41.2478 10.0778 36.5678 8.67582 34.1443C8.56589 34.2445 8.45674 34.349 8.34644 34.4578Z" fill="url(#paint0_linear_305_417)"/>
<path d="M8.67578 34.1444C10.0778 36.568 10.3501 41.2479 12.6477 41.7855C12.8282 41.7522 13.0091 41.7019 13.1904 41.6384C11.1281 40.6244 10.558 36.08 8.96583 33.8921C8.8694 33.9726 8.77259 34.057 8.67578 34.1444Z" fill="url(#paint1_linear_305_417)"/>
<path d="M10.696 32.7029C10.5039 32.7029 10.3091 32.7218 10.1136 32.759C9.60213 32.8558 9.08262 33.0767 8.55884 33.4111C8.70192 33.5528 8.83806 33.7149 8.96611 33.8918C9.49877 33.4483 10.028 33.1205 10.5552 32.9235C10.7531 32.85 10.9502 32.7946 11.148 32.7582C11.0053 32.7218 10.8549 32.7029 10.696 32.7029Z" fill="#14559A"/>
<path d="M14.8004 40.7038C15.0114 40.5354 15.2227 40.3492 15.4345 40.1461C14.5562 37.5062 14.2419 32.707 11.6967 32.707C11.5146 32.707 11.331 32.7241 11.1478 32.7581C13.4663 33.3367 13.7633 38.3983 14.8004 40.7038Z" fill="url(#paint2_linear_305_417)"/>
<path d="M11.1478 32.758C11.0051 32.7218 10.8547 32.7029 10.6958 32.7029L11.6967 32.7065C11.5146 32.7065 11.331 32.7235 11.1478 32.7579" fill="#3092C4"/>
<path d="M14.7558 41.2645C14.6563 41.1693 14.5619 41.0648 14.4689 40.9534C14.0408 41.2576 13.6142 41.4882 13.1903 41.6384C13.3411 41.7123 13.4992 41.7673 13.667 41.8014C13.797 41.828 13.9316 41.8416 14.0732 41.8416C14.5487 41.8416 14.9248 41.7851 15.2449 41.6311C15.0687 41.5355 14.907 41.4116 14.7558 41.2645Z" fill="#1969BC"/>
<path d="M10.5549 32.9241C12.6315 34.014 12.812 38.9493 14.469 40.9534C14.5801 40.8748 14.69 40.7916 14.7999 40.7037C13.7628 38.3982 13.4662 33.3363 11.1481 32.7581C10.9503 32.7952 10.7528 32.8502 10.5549 32.9241Z" fill="url(#paint3_linear_305_417)"/>
<path d="M8.96582 33.892C10.558 36.0799 11.128 40.6243 13.1904 41.6384C13.6143 41.4882 14.0408 41.2575 14.469 40.9533C12.812 38.9493 12.6315 34.0139 10.5549 32.9241C10.0276 33.1207 9.49847 33.4485 8.96582 33.892Z" fill="url(#paint4_linear_305_417)"/>
<path d="M7.32769 34.3942C7.07814 34.9604 6.82319 35.7046 6.51501 36.6761C7.12789 35.8095 7.73884 35.0629 8.34631 34.458C8.26262 34.1999 8.17275 33.9619 8.07594 33.7498C7.82755 33.9406 7.57723 34.1554 7.32769 34.3942Z" fill="url(#paint5_linear_305_417)"/>
<path d="M8.29728 33.5864C8.224 33.6391 8.15034 33.6929 8.07629 33.7497C8.17309 33.9618 8.26257 34.1999 8.34628 34.458C8.45656 34.3496 8.5661 34.2448 8.67564 34.1445C8.55801 33.9417 8.43305 33.7544 8.29728 33.5864Z" fill="#2B74B1"/>
<path d="M8.55886 33.4114C8.47169 33.4667 8.38493 33.5252 8.29736 33.5863C8.43313 33.7543 8.55809 33.9416 8.67612 34.1448C8.77294 34.0569 8.86974 33.9722 8.96617 33.8921C8.83811 33.7152 8.70198 33.553 8.55886 33.4114Z" fill="#125A9E"/>
<path d="M22.723 32.5011C21.5485 37.0459 19.0955 40.6963 17.039 41.6167H17.0351C16.9977 41.6337 16.9606 41.6492 16.924 41.6643C16.9189 41.6673 16.9144 41.6677 16.9105 41.6696C16.8997 41.6739 16.8896 41.6773 16.8788 41.6816C16.8738 41.6847 16.8692 41.6857 16.8646 41.6875C16.8472 41.6937 16.8303 41.699 16.8133 41.7058C16.806 41.7089 16.799 41.7108 16.7921 41.7132C16.7843 41.7163 16.7755 41.7191 16.7666 41.7216C16.7589 41.7247 16.7508 41.7269 16.7419 41.7303C16.7346 41.7333 16.7269 41.7346 16.7199 41.7377C16.7049 41.7421 16.691 41.7458 16.676 41.751C16.6698 41.751 16.664 41.7544 16.6575 41.756C16.6482 41.7591 16.6378 41.7613 16.6277 41.7641C16.6208 41.7671 16.615 41.7681 16.6077 41.7696C16.5973 41.7727 16.5857 41.7756 16.5753 41.778C16.5614 41.7811 16.5491 41.7839 16.5359 41.7867C16.6289 41.8211 16.7257 41.8385 16.8302 41.8385C18.7803 41.8385 20.7466 38.3317 24 32.5H22.7225L22.723 32.5011Z" fill="url(#paint6_linear_305_417)"/>
<path d="M6.09161 32.8875C6.09283 32.8875 6.09436 32.8845 6.09512 32.8845C6.09665 32.8845 6.09902 32.8845 6.09978 32.8814H6.10223C6.11302 32.8777 6.12305 32.8734 6.13385 32.8693C6.1366 32.8693 6.13805 32.8693 6.14004 32.8663C6.14279 32.8663 6.14546 32.8632 6.14815 32.8628C6.15973 32.8591 6.1713 32.8548 6.1821 32.8507H6.18393C6.20979 32.843 6.23369 32.8334 6.25876 32.8244C6.26227 32.8244 6.26571 32.8214 6.26993 32.8214C6.28035 32.818 6.29116 32.8142 6.30194 32.8118C6.30698 32.8087 6.31197 32.8087 6.31659 32.8071C6.32776 32.8037 6.3386 32.8 6.349 32.7975C6.35366 32.7975 6.35788 32.7944 6.36134 32.7941C6.39721 32.7842 6.43269 32.7749 6.46856 32.7663C6.4736 32.7663 6.47782 32.7632 6.48322 32.7629C6.49361 32.7598 6.50328 32.7582 6.51446 32.7567C6.51912 32.7536 6.52449 32.7536 6.52989 32.752C6.54029 32.7489 6.55031 32.7486 6.56151 32.7461H6.56885C6.59045 32.7417 6.61244 32.738 6.63404 32.734H6.64715C6.65755 32.7309 6.66681 32.7306 6.67724 32.7287C6.68297 32.7287 6.6888 32.7257 6.69421 32.7257C6.70383 32.7257 6.71349 32.7226 6.72312 32.7213C6.72816 32.7213 6.73314 32.7213 6.73895 32.7182C6.76169 32.7152 6.78523 32.7139 6.80914 32.712C6.74164 32.7055 6.67222 32.7012 6.60163 32.7012C4.40547 32.7012 1.37966 36.7901 0.0166016 42.0854H0.279263C0.715488 41.3048 1.10736 40.5663 1.46567 39.8731C2.42028 36.1225 4.36458 33.5646 6.09174 32.8869" fill="url(#paint7_linear_305_417)"/>
<path d="M7.32788 34.3941C7.57744 34.1553 7.82775 33.9405 8.07614 33.7497C8.01945 33.6251 7.96083 33.5097 7.89794 33.4041C7.697 33.6487 7.51341 33.9714 7.32788 34.3941Z" fill="#0D82CA"/>
<path d="M7.50824 32.9186C7.65172 33.0394 7.78014 33.2054 7.89779 33.4043C7.93482 33.3587 7.97225 33.3165 8.01119 33.277C7.84806 33.1241 7.67178 32.9987 7.48047 32.9043C7.48819 32.9086 7.49589 32.912 7.50392 32.9154C7.50392 32.9154 7.50697 32.9185 7.50827 32.9185" fill="#0D82CA"/>
<path d="M1.46558 39.8734C3.46812 36.0012 4.41694 33.5506 6.09165 32.8872C4.36487 33.5653 2.42018 36.1231 1.46558 39.8734Z" fill="url(#paint8_linear_305_417)"/>
<path d="M8.0111 33.2769C7.97216 33.3167 7.93514 33.3585 7.89771 33.4042C7.96059 33.5098 8.01919 33.6248 8.0763 33.7498C8.15035 33.6929 8.224 33.6391 8.29729 33.5865C8.20667 33.4742 8.11101 33.3701 8.0111 33.2769Z" fill="#127BCA"/>
<path d="M2.3747 42.0683C2.36236 42.0714 2.35002 42.0714 2.33844 42.0727H2.3315C2.32107 42.0727 2.31027 42.0757 2.30064 42.0757H2.29562C2.27056 42.0788 2.24586 42.0788 2.22195 42.0807H2.21423C4.24108 42.0238 5.16753 41.0055 5.62728 39.5286C5.97672 38.409 6.26369 37.4658 6.51516 36.6743C5.66624 37.8733 4.81346 39.3026 3.95605 40.9037C3.54258 41.6755 2.91389 41.9978 2.37468 42.0668" fill="url(#paint9_linear_305_417)"/>
<path d="M2.37476 42.0677C2.91396 41.9987 3.54265 41.6767 3.95612 40.9046C4.81353 39.3039 5.66669 37.8742 6.51484 36.6752C6.8234 35.7034 7.07797 34.9596 7.3279 34.3933C5.63738 36.008 3.94031 38.6928 2.37476 42.0669" fill="url(#paint10_linear_305_417)"/>
<path d="M1.46546 39.8738C1.10716 40.567 0.715294 41.3054 0.279053 42.086H1.04314C1.14419 41.3108 1.28767 40.5716 1.46546 39.8741" fill="#05A1E6"/>
<path d="M6.73884 32.7202C6.73265 32.7202 6.72804 32.7232 6.72265 32.7232C6.71339 32.7263 6.70373 32.7263 6.6941 32.7273C6.68837 32.7273 6.68293 32.7273 6.67713 32.7304C6.6667 32.7334 6.65708 32.7337 6.64704 32.7356C6.64238 32.7356 6.63779 32.7356 6.63393 32.7387C6.61193 32.7424 6.59034 32.7465 6.56874 32.7502H6.56141C6.55024 32.7532 6.54018 32.7548 6.52979 32.7564C6.52436 32.7594 6.51898 32.7594 6.51396 32.7607C6.50356 32.7637 6.49313 32.765 6.4831 32.7669C6.47768 32.7699 6.47348 32.7699 6.46844 32.7703C6.43258 32.7789 6.39709 32.7882 6.36122 32.7981C6.3574 32.7981 6.35351 32.8012 6.34888 32.8018C6.33808 32.8049 6.32765 32.808 6.31648 32.8114C6.31182 32.8145 6.30645 32.8145 6.30182 32.8157C6.29102 32.8188 6.28022 32.8219 6.26981 32.8253C6.2656 32.8253 6.2621 32.8284 6.25824 32.8284C6.23355 32.8376 6.20926 32.8469 6.1838 32.8547C6.173 32.8581 6.16143 32.8624 6.14986 32.8664C6.1452 32.8695 6.14097 32.8702 6.1356 32.8723C6.1248 32.8757 6.114 32.8801 6.10397 32.8841C6.10015 32.8872 6.09626 32.8875 6.09357 32.8891C4.41887 33.5525 3.47005 36.0031 1.46751 39.8753C1.2897 40.5727 1.14583 41.312 1.04517 42.0872H1.15239C1.45439 42.0872 1.53963 42.0841 1.88715 42.0841H1.90489H1.95657H1.97431H1.97934H1.99708H2.00711H2.01406H2.02794H2.07114H2.11434H2.15059H2.16022H2.22386C2.24777 42.081 2.27246 42.081 2.29753 42.0791H2.30216C2.31259 42.0791 2.32299 42.076 2.33302 42.076H2.34033C2.3515 42.076 2.36424 42.073 2.37658 42.0717C3.94213 38.6976 5.63921 36.0128 7.32972 34.3981C7.51563 33.9755 7.69884 33.6527 7.89941 33.4085C7.78215 33.2096 7.65371 33.0431 7.51023 32.9224C7.51023 32.9224 7.50634 32.9224 7.50603 32.9193C7.49792 32.9159 7.49024 32.9118 7.48212 32.9078C7.474 32.9035 7.46706 32.9001 7.45861 32.8958C7.45127 32.8927 7.44278 32.8886 7.43546 32.8846C7.42544 32.8815 7.41733 32.8772 7.40847 32.8731C7.40114 32.8701 7.39458 32.8669 7.38724 32.8639C7.37218 32.858 7.35716 32.8518 7.34289 32.8453C7.33632 32.8422 7.33017 32.8406 7.32397 32.8382C7.31357 32.8344 7.3016 32.8295 7.2908 32.8248C7.28538 32.8218 7.27923 32.8212 7.27306 32.8189C7.25726 32.8136 7.24182 32.8081 7.22716 32.8031H7.22334C7.20559 32.7972 7.18824 32.7929 7.17011 32.788C7.1659 32.7849 7.16239 32.7849 7.15816 32.7843C7.14233 32.7799 7.12845 32.7756 7.11342 32.7716C7.1096 32.7716 7.10609 32.7685 7.10302 32.7685C7.06677 32.7589 7.02935 32.7512 6.99156 32.7441C6.98766 32.7441 6.98385 32.741 6.97999 32.741C6.96379 32.7379 6.94798 32.7351 6.93178 32.7333C6.92788 32.7302 6.92559 32.7302 6.92215 32.7302C6.90287 32.7271 6.88397 32.7249 6.86506 32.7228H6.85504C6.83961 32.7197 6.82536 32.7194 6.81107 32.7178C6.78676 32.7208 6.76363 32.7221 6.74087 32.7243" fill="url(#paint11_linear_305_417)"/>
<path d="M18.1355 35.0172C17.7502 36.2557 17.4382 37.2774 17.1666 38.118C18.2238 36.6582 19.2652 34.8217 20.2569 32.7024C19.1001 33.0669 18.483 33.9014 18.1355 35.0172Z" fill="url(#paint12_linear_305_417)"/>
<path d="M17.2002 41.5394C17.1462 41.567 17.0922 41.5932 17.0389 41.6168C19.0955 40.6965 21.5485 37.0461 22.723 32.5012H22.485C19.7867 37.3379 18.9188 40.5757 17.2002 41.5394Z" fill="url(#paint13_linear_305_417)"/>
<path d="M15.8572 41.1329C16.3046 40.5848 16.6691 39.6533 17.1666 38.1179C16.5927 38.909 16.015 39.589 15.4368 40.1436C15.4368 40.1467 15.4368 40.1467 15.4337 40.1486C15.5599 40.5279 15.6983 40.8626 15.8561 41.1328" fill="#079AE1"/>
<path d="M15.8572 41.1328C15.7049 41.3194 15.5437 41.4614 15.3643 41.5667C15.325 41.5896 15.2853 41.6112 15.2448 41.6309C15.4341 41.7335 15.6409 41.802 15.8723 41.8295C15.9062 41.8328 15.9398 41.836 15.9749 41.8384H15.9811C15.9968 41.8384 16.0135 41.8384 16.0304 41.8415H16.0372H16.0878H16.1422H16.1591H16.1977C16.2039 41.8415 16.2104 41.8415 16.2165 41.8384C16.2286 41.8384 16.2412 41.8384 16.2536 41.8354H16.2579H16.2718C16.2844 41.8354 16.2983 41.8323 16.3119 41.831H16.315C16.319 41.831 16.3233 41.8279 16.3273 41.8279C16.3415 41.8249 16.3563 41.8236 16.3701 41.8214H16.3828C16.3985 41.8184 16.4148 41.8164 16.431 41.8134H16.434H16.4387C16.4711 41.8072 16.5027 41.801 16.5347 41.7929C16.2694 41.6954 16.0472 41.4655 15.8559 41.1381" fill="#1969BC"/>
<path d="M12.0658 41.8407C12.2583 41.8407 12.4527 41.8219 12.6478 41.7844C12.8283 41.7516 13.0092 41.7014 13.1905 41.6382C13.3413 41.7119 13.4994 41.7666 13.6668 41.8006C13.7968 41.8271 13.9318 41.8407 14.0734 41.8407H12.0658Z" fill="#1E5CB3"/>
<path d="M14.0734 41.8409C14.5486 41.8409 14.925 41.7846 15.2448 41.6311C15.4341 41.7333 15.6409 41.8016 15.8723 41.829C15.9062 41.8323 15.9398 41.8355 15.9749 41.8379H15.9811C15.9968 41.8379 16.0135 41.8379 16.0304 41.841H16.0375H16.0881H14.072L14.0734 41.8409Z" fill="#1E5CB3"/>
<path d="M16.0894 41.8416H16.1441H16.1611H16.1993C16.2058 41.8416 16.2119 41.8416 16.2181 41.8385C16.2302 41.8385 16.2428 41.8385 16.2555 41.8355H16.2596H16.2738C16.2864 41.8355 16.3003 41.8324 16.3135 41.8312H16.3169C16.3209 41.8312 16.3249 41.8282 16.3289 41.8282C16.3431 41.8251 16.3579 41.8239 16.3717 41.8217C16.3764 41.8217 16.3801 41.8217 16.385 41.8186C16.4007 41.8155 16.417 41.8139 16.4332 41.8109H16.4363H16.4409C16.4733 41.8047 16.505 41.7985 16.537 41.7905C16.6299 41.8248 16.7267 41.8422 16.8312 41.8422L16.0899 41.8453L16.0894 41.8416Z" fill="#1D60B5"/>
<path d="M15.435 40.1486V40.1455C15.2233 40.3487 15.0119 40.5349 14.8009 40.7032C14.6906 40.7911 14.5807 40.8743 14.4696 40.9528C14.5625 41.0643 14.6571 41.1688 14.7566 41.264C14.9078 41.4111 15.0693 41.5349 15.2456 41.6305C15.2857 41.6107 15.3258 41.5891 15.3648 41.5663C15.5445 41.461 15.7058 41.319 15.8581 41.1324C15.7004 40.8623 15.5619 40.5275 15.4358 40.1482" fill="#175FAB"/>
<path d="M21.7314 32.5012H20.7309H20.6314H20.5373H20.5336C20.4688 32.5043 20.4059 32.5065 20.3438 32.5105C20.3145 32.5736 20.2844 32.6367 20.2555 32.7002C19.2639 34.8195 18.2225 36.656 17.1653 38.1158C16.6681 39.6511 16.3032 40.5827 15.8558 41.1308C16.0471 41.4582 16.2697 41.6885 16.5343 41.786C16.542 41.7829 16.5482 41.7829 16.5551 41.7813H16.5594C16.564 41.7813 16.569 41.7782 16.574 41.7782C16.5848 41.7752 16.5964 41.7733 16.6072 41.7699C16.6142 41.7668 16.6199 41.7665 16.6269 41.7643C16.6369 41.7612 16.6473 41.759 16.6566 41.7565C16.6628 41.7535 16.6689 41.7525 16.6751 41.7513C16.6905 41.7463 16.7044 41.7426 16.7191 41.7379C16.726 41.7349 16.7334 41.7323 16.7411 41.7305C16.7496 41.7274 16.758 41.7252 16.7658 41.7215C16.7746 41.7185 16.7835 41.7168 16.7912 41.7135C16.7982 41.7104 16.8055 41.7085 16.812 41.7057C16.8294 41.6995 16.8464 41.6943 16.8637 41.6875C16.8684 41.6875 16.873 41.6832 16.878 41.6822C16.8884 41.6778 16.8992 41.6744 16.9096 41.6698C16.9135 41.6667 16.9181 41.6664 16.9231 41.6648C16.9594 41.6496 16.9968 41.6341 17.0342 41.6172H17.0381C17.0913 41.5937 17.1453 41.5673 17.1989 41.5398C18.918 40.5761 19.7858 37.3383 22.4842 32.5016H21.7305L21.7314 32.5012Z" fill="url(#paint14_linear_305_417)"/>
<path d="M6.8092 32.7136C6.81348 32.7136 6.81732 32.7136 6.82154 32.7167C6.83194 32.7167 6.84237 32.7167 6.85279 32.7201H6.86321C6.8821 32.7231 6.90101 32.7247 6.9203 32.7275C6.92381 32.7275 6.92687 32.7275 6.92992 32.7306C6.94572 32.7336 6.96194 32.7362 6.97813 32.7386C6.98165 32.7386 6.98626 32.7417 6.99011 32.7417C7.02714 32.7491 7.06494 32.7568 7.10119 32.7664C7.10463 32.7664 7.10814 32.7695 7.11122 32.7695C7.12665 32.7732 7.14053 32.7779 7.15596 32.7822C7.16062 32.7822 7.16404 32.7853 7.1683 32.786C7.18644 32.7906 7.2034 32.7952 7.22114 32.8011C7.22191 32.8011 7.22298 32.8011 7.22504 32.8042C7.24006 32.8088 7.2555 32.8147 7.27132 32.82C7.27751 32.823 7.28326 32.8243 7.28906 32.8259C7.29986 32.8306 7.31184 32.8352 7.32223 32.8395C7.32842 32.8395 7.33457 32.8438 7.34111 32.846C7.35537 32.8525 7.37043 32.8584 7.38508 32.8646C7.3928 32.8677 7.39934 32.8711 7.40668 32.8739C7.41517 32.8783 7.42403 32.8822 7.43329 32.8853C7.441 32.889 7.44949 32.8931 7.4568 32.8965C7.46491 32.9009 7.4726 32.9042 7.48034 32.9086C7.67165 33.003 7.84791 33.1288 8.01106 33.2813C8.07123 33.2178 8.1341 33.1609 8.19928 33.1098C7.84251 32.8559 7.4383 32.7112 6.97199 32.7112C6.91799 32.7112 6.86399 32.7142 6.80923 32.7183" fill="#7DCBEC"/>
<path d="M8.01099 33.2769C8.11088 33.3702 8.20653 33.4743 8.29717 33.5866C8.38472 33.5254 8.47151 33.4666 8.55868 33.4116C8.44451 33.2971 8.32417 33.1941 8.19882 33.1055C8.13364 33.1562 8.07115 33.2135 8.01099 33.2769Z" fill="#5EC5ED"/>
<path d="M6.80907 32.7136C6.86384 32.7089 6.91784 32.707 6.97183 32.707C7.43814 32.707 7.84236 32.8517 8.19913 33.1052C8.57557 32.8072 9.03069 32.7031 9.66285 32.7031H6.60156C6.67215 32.7031 6.74119 32.7074 6.80907 32.7136Z" fill="url(#paint15_linear_305_417)"/>
<path d="M9.66282 32.7031C9.03066 32.7031 8.57554 32.8072 8.1991 33.1052C8.32406 33.1939 8.4444 33.2968 8.55857 33.4114C9.08273 33.077 9.60188 32.8556 10.1137 32.7589C10.3089 32.7221 10.5036 32.7031 10.6957 32.7031H9.66282Z" fill="url(#paint16_linear_305_417)"/>
<path d="M17.1666 38.1188C17.4385 37.2774 17.7498 36.256 18.1359 35.0172C18.4838 33.901 19.0997 33.0665 20.2564 32.7024C20.287 32.64 20.3158 32.5758 20.3456 32.5127C18.4599 32.6261 17.5785 33.5886 17.135 35.0141C16.3593 37.5026 15.8896 39.1158 15.4371 40.1437C16.0149 39.5895 16.5927 38.9091 17.1666 38.1188Z" fill="url(#paint17_linear_305_417)"/>
<path d="M19.9331 41.1787H19.7195V41.8451H19.6323V41.1787H19.4178V41.0994H19.9331V41.1787Z" fill="black"/>
<path d="M20.808 41.8451H20.7212V41.3443C20.7212 41.3049 20.7243 41.2565 20.7283 41.1996C20.7194 41.2336 20.712 41.2573 20.7052 41.2723L20.4521 41.8451H20.4097L20.1559 41.2766C20.1485 41.2608 20.1411 41.2352 20.1331 41.1996H20.13C20.1331 41.2296 20.1341 41.2782 20.1341 41.3455V41.8451H20.0508V41.0994H20.1657L20.3937 41.6199C20.4109 41.659 20.4217 41.6892 20.4272 41.7093H20.4306C20.4457 41.6683 20.458 41.6377 20.4665 41.6176L20.699 41.0994H20.8086V41.8451H20.808Z" fill="black"/>
</g>
<path d="M37.868 46.14H34.22L33.548 48H32.396L35.42 39.684H36.68L39.692 48H38.54L37.868 46.14ZM37.556 45.252L36.044 41.028L34.532 45.252H37.556ZM43.6619 48.084C43.1099 48.084 42.6139 47.988 42.1739 47.796C41.7419 47.596 41.4019 47.324 41.1539 46.98C40.9059 46.628 40.7779 46.224 40.7699 45.768H41.9339C41.9739 46.16 42.1339 46.492 42.4139 46.764C42.7019 47.028 43.1179 47.16 43.6619 47.16C44.1819 47.16 44.5899 47.032 44.8859 46.776C45.1899 46.512 45.3419 46.176 45.3419 45.768C45.3419 45.448 45.2539 45.188 45.0779 44.988C44.9019 44.788 44.6819 44.636 44.4179 44.532C44.1539 44.428 43.7979 44.316 43.3499 44.196C42.7979 44.052 42.3539 43.908 42.0179 43.764C41.6899 43.62 41.4059 43.396 41.1659 43.092C40.9339 42.78 40.8179 42.364 40.8179 41.844C40.8179 41.388 40.9339 40.984 41.1659 40.632C41.3979 40.28 41.7219 40.008 42.1379 39.816C42.5619 39.624 43.0459 39.528 43.5899 39.528C44.3739 39.528 45.0139 39.724 45.5099 40.116C46.0139 40.508 46.2979 41.028 46.3619 41.676H45.1619C45.1219 41.356 44.9539 41.076 44.6579 40.836C44.3619 40.588 43.9699 40.464 43.4819 40.464C43.0259 40.464 42.6539 40.584 42.3659 40.824C42.0779 41.056 41.9339 41.384 41.9339 41.808C41.9339 42.112 42.0179 42.36 42.1859 42.552C42.3619 42.744 42.5739 42.892 42.8219 42.996C43.0779 43.092 43.4339 43.204 43.8899 43.332C44.4419 43.484 44.8859 43.636 45.2219 43.788C45.5579 43.932 45.8459 44.16 46.0859 44.472C46.3259 44.776 46.4459 45.192 46.4459 45.72C46.4459 46.128 46.3379 46.512 46.1219 46.872C45.9059 47.232 45.5859 47.524 45.1619 47.748C44.7379 47.972 44.2379 48.084 43.6619 48.084ZM53.6449 42.084C53.6449 42.78 53.4049 43.36 52.9249 43.824C52.4529 44.28 51.7289 44.508 50.7529 44.508H49.1449V48H48.0529V39.636H50.7529C51.6969 39.636 52.4129 39.864 52.9009 40.32C53.3969 40.776 53.6449 41.364 53.6449 42.084ZM50.7529 43.608C51.3609 43.608 51.8089 43.476 52.0969 43.212C52.3849 42.948 52.5289 42.572 52.5289 42.084C52.5289 41.052 51.9369 40.536 50.7529 40.536H49.1449V43.608H50.7529ZM55.3501 48.072C55.1421 48.072 54.9661 48 54.8221 47.856C54.6781 47.712 54.6061 47.536 54.6061 47.328C54.6061 47.12 54.6781 46.944 54.8221 46.8C54.9661 46.656 55.1421 46.584 55.3501 46.584C55.5501 46.584 55.7181 46.656 55.8541 46.8C55.9981 46.944 56.0701 47.12 56.0701 47.328C56.0701 47.536 55.9981 47.712 55.8541 47.856C55.7181 48 55.5501 48.072 55.3501 48.072ZM64.0977 48H63.0057L58.6137 41.34V48H57.5217V39.624H58.6137L63.0057 46.272V39.624H64.0977V48ZM67.0512 40.524V43.32H70.0992V44.22H67.0512V47.1H70.4592V48H65.9592V39.624H70.4592V40.524H67.0512ZM77.2595 39.636V40.524H74.9795V48H73.8875V40.524H71.5955V39.636H77.2595Z" fill="black" fill-opacity="0.88"/>
<defs>
<linearGradient id="paint0_linear_305_417" x1="223.4" y1="-116.075" x2="223.4" y2="1031.9" gradientUnits="userSpaceOnUse">
<stop stop-color="#0994DC"/>
<stop offset="0.350006" stop-color="#66CEF5"/>
<stop offset="0.846161" stop-color="#127BCA"/>
<stop offset="1" stop-color="#127BCA"/>
</linearGradient>
<linearGradient id="paint1_linear_305_417" x1="234.409" y1="-120.157" x2="234.409" y2="1057.07" gradientUnits="userSpaceOnUse">
<stop stop-color="#0E76BC"/>
<stop offset="0.360001" stop-color="#36AEE8"/>
<stop offset="0.846161" stop-color="#00ADEF"/>
<stop offset="1" stop-color="#00ADEF"/>
</linearGradient>
<linearGradient id="paint2_linear_305_417" x1="225.477" y1="919.719" x2="225.477" y2="-16.9843" gradientUnits="userSpaceOnUse">
<stop stop-color="#1C63B7"/>
<stop offset="0.5" stop-color="#33BDF2"/>
<stop offset="1" stop-color="#33BDF2" stop-opacity="0.419608"/>
</linearGradient>
<linearGradient id="paint3_linear_305_417" x1="222.809" y1="-127.173" x2="222.809" y2="1095.09" gradientUnits="userSpaceOnUse">
<stop stop-color="#166AB8"/>
<stop offset="0.399994" stop-color="#36AEE8"/>
<stop offset="0.846161" stop-color="#0798DD"/>
<stop offset="1" stop-color="#0798DD"/>
</linearGradient>
<linearGradient id="paint4_linear_305_417" x1="284.115" y1="-137.189" x2="284.115" y2="1162.53" gradientUnits="userSpaceOnUse">
<stop stop-color="#124379"/>
<stop offset="0.389999" stop-color="#1487CB"/>
<stop offset="0.780228" stop-color="#165197"/>
<stop offset="1" stop-color="#165197"/>
</linearGradient>
<linearGradient id="paint5_linear_305_417" x1="6.51557" y1="180.067" x2="189.645" y2="180.067" gradientUnits="userSpaceOnUse">
<stop stop-color="#33BDF2" stop-opacity="0.698039"/>
<stop offset="1" stop-color="#1DACD8"/>
</linearGradient>
<linearGradient id="paint6_linear_305_417" x1="389.809" y1="916.733" x2="389.809" y2="4.25482" gradientUnits="userSpaceOnUse">
<stop stop-color="#136AB4"/>
<stop offset="0.6" stop-color="#59CAF5" stop-opacity="0.54902"/>
<stop offset="1" stop-color="#59CAF5" stop-opacity="0.235294"/>
</linearGradient>
<linearGradient id="paint7_linear_305_417" x1="0.0114334" y1="501.909" x2="679.265" y2="501.909" gradientUnits="userSpaceOnUse">
<stop stop-color="#05A1E6" stop-opacity="0.247059"/>
<stop offset="1" stop-color="#05A1E6"/>
</linearGradient>
<linearGradient id="paint8_linear_305_417" x1="232.761" y1="901.371" x2="232.761" y2="-32.9327" gradientUnits="userSpaceOnUse">
<stop stop-color="#318ED5"/>
<stop offset="1" stop-color="#38A7E4"/>
</linearGradient>
<linearGradient id="paint9_linear_305_417" x1="217.255" y1="529.737" x2="217.255" y2="-378.457" gradientUnits="userSpaceOnUse">
<stop stop-color="#05A1E6"/>
<stop offset="1" stop-color="#05A1E6" stop-opacity="0.54902"/>
</linearGradient>
<linearGradient id="paint10_linear_305_417" x1="250.032" y1="801.91" x2="250.032" y2="34.4715" gradientUnits="userSpaceOnUse">
<stop stop-color="#1959A6"/>
<stop offset="0.5" stop-color="#05A1E6"/>
<stop offset="0.917587" stop-color="#7EC5EA"/>
<stop offset="1" stop-color="#7EC5EA"/>
</linearGradient>
<linearGradient id="paint11_linear_305_417" x1="410.957" y1="918.76" x2="150.094" y2="124.282" gradientUnits="userSpaceOnUse">
<stop stop-color="#165096"/>
<stop offset="1" stop-color="#0D82CA"/>
</linearGradient>
<linearGradient id="paint12_linear_305_417" x1="171.662" y1="449.697" x2="171.662" y2="14.8365" gradientUnits="userSpaceOnUse">
<stop stop-color="#05A1E6"/>
<stop offset="0.873627" stop-color="#0495D6"/>
<stop offset="1" stop-color="#0495D6"/>
</linearGradient>
<linearGradient id="paint13_linear_305_417" x1="387.998" y1="-5.43286" x2="-18.2143" y2="893.383" gradientUnits="userSpaceOnUse">
<stop stop-color="#38A7E4" stop-opacity="0.329412"/>
<stop offset="0.961533" stop-color="#0E88D3"/>
<stop offset="1" stop-color="#0E88D3"/>
</linearGradient>
<linearGradient id="paint14_linear_305_417" x1="347.384" y1="29.755" x2="347.384" y2="978.451" gradientUnits="userSpaceOnUse">
<stop stop-color="#168CD4"/>
<stop offset="0.5" stop-color="#1C87CC"/>
<stop offset="1" stop-color="#154B8D"/>
</linearGradient>
<linearGradient id="paint15_linear_305_417" x1="57.6449" y1="-49.5566" x2="61.7698" y2="49.9392" gradientUnits="userSpaceOnUse">
<stop stop-color="#97D6EE"/>
<stop offset="0.703293" stop-color="#55C1EA"/>
<stop offset="1" stop-color="#55C1EA"/>
</linearGradient>
<linearGradient id="paint16_linear_305_417" x1="25.4013" y1="28.9491" x2="44.0433" y2="-76.4237" gradientUnits="userSpaceOnUse">
<stop stop-color="#7ACCEC"/>
<stop offset="1" stop-color="#3FB7ED"/>
</linearGradient>
<linearGradient id="paint17_linear_305_417" x1="260.842" y1="81.0675" x2="260.842" y2="1008.99" gradientUnits="userSpaceOnUse">
<stop stop-color="#1DA7E7"/>
<stop offset="1" stop-color="#37ABE7" stop-opacity="0"/>
</linearGradient>
<clipPath id="clip0_305_417">
<rect width="24" height="24" fill="white"/>
</clipPath>
<clipPath id="clip1_305_417">
<rect width="24" height="24" fill="white" transform="translate(0 32)"/>
</clipPath>
</defs>
</svg>
