<svg width="121" height="56" viewBox="0 0 121 56" fill="none" xmlns="http://www.w3.org/2000/svg">
<g clip-path="url(#clip0_305_419)">
<path d="M23.9983 6.67877C23.9969 6.4374 23.9942 6.19615 23.9876 5.9545C23.9735 5.42884 23.9424 4.89842 23.849 4.37838C23.7542 3.85026 23.5992 3.35919 23.355 2.87944C23.1152 2.4083 22.8018 1.97716 22.4279 1.60329C22.0541 1.22941 21.623 0.916032 21.1517 0.676157C20.6723 0.4322 20.1812 0.277267 19.6535 0.182465C19.1332 0.0887537 18.6028 0.0578803 18.0767 0.0436559C17.8352 0.0371095 17.5939 0.0343616 17.3525 0.0328664C17.0659 0.03125 16.7791 0.03125 16.4926 0.03125H10.1394H7.50747C7.22068 0.03125 6.93421 0.03125 6.6477 0.0329068C6.40617 0.034402 6.1646 0.0371499 5.92343 0.0436963C5.79193 0.0472524 5.66016 0.0518592 5.5283 0.0582036C5.13276 0.0772772 4.73662 0.112232 4.34658 0.182505C3.95084 0.253627 3.57559 0.358532 3.21053 0.509464C3.08885 0.559735 2.96827 0.615178 2.84841 0.676157C2.4949 0.856063 2.16394 1.07731 1.86293 1.3344C1.76259 1.42011 1.66556 1.50978 1.57214 1.60325C1.19818 1.97712 0.884757 2.40826 0.645003 2.8794C0.400764 3.35915 0.245993 3.85022 0.151109 4.37834C0.0577616 4.89838 0.0267266 5.4288 0.012583 5.95446C0.00595571 6.19611 0.0031674 6.43736 0.0015914 6.67873C-0.000227061 6.9654 1.54008e-05 7.25211 1.54008e-05 7.5387V11.4512V16.5237C1.54008e-05 16.8105 -0.000267471 17.097 0.0015914 17.3838C0.0031674 17.6252 0.00595571 17.8665 0.012583 18.1077C0.0267266 18.6336 0.0577212 19.1642 0.151109 19.684C0.245993 20.2119 0.400764 20.7035 0.645003 21.1831C0.884757 21.6543 1.19818 22.0854 1.57214 22.4591C1.94581 22.8331 2.37707 23.1465 2.84845 23.3865C3.32784 23.6305 3.81894 23.7852 4.3467 23.88C4.8667 23.9736 5.39753 24.0047 5.92347 24.0188C6.16464 24.0252 6.40621 24.0281 6.64774 24.0295C6.93425 24.0315 7.22072 24.0312 7.50751 24.0312H16.4926C16.7791 24.0312 17.0659 24.0315 17.3524 24.0295C17.5939 24.0281 17.8352 24.0252 18.0767 24.0188C18.6027 24.0047 19.1332 23.9736 19.6535 23.88C20.1811 23.7852 20.6723 23.6304 21.1516 23.3865C21.623 23.1465 22.0541 22.8331 22.4279 22.4591C22.8018 22.0853 23.1152 21.6543 23.355 21.1831C23.5992 20.7035 23.7542 20.212 23.849 19.684C23.9424 19.1642 23.9735 18.6336 23.9875 18.1077C23.9942 17.8665 23.9968 17.6252 23.9983 17.3838C24.0001 17.097 24 16.8105 24 16.5237V7.5387C24 7.25211 24.0001 6.9654 23.9983 6.67877Z" fill="#F05138"/>
<path d="M19.0169 14.8458C19.0164 14.8451 19.0158 14.8446 19.0152 14.8439C19.0418 14.7535 19.0692 14.6637 19.0924 14.5711C20.0885 10.6024 17.6574 5.91042 13.5435 3.43994C15.3463 5.88391 16.1434 8.84412 15.4352 11.4329C15.372 11.6638 15.2961 11.8854 15.2122 12.1008C15.1211 12.0409 15.0063 11.973 14.8522 11.888C14.8522 11.888 10.7599 9.36129 6.32448 4.89212C6.2081 4.77481 8.68961 8.43893 11.5058 11.4143C10.179 10.6697 6.48132 7.97926 4.14043 5.83675C4.42803 6.31638 4.7701 6.77823 5.14612 7.22286C7.10097 9.70199 9.65033 12.7608 12.7046 15.1097C10.5586 16.4229 7.52637 16.525 4.50728 15.1111C3.76054 14.7611 3.05853 14.3389 2.40869 13.8591C3.68667 15.9033 5.65493 17.6669 8.05049 18.6965C10.9073 19.9242 13.7482 19.841 15.864 18.7167L15.8624 18.7191C15.8721 18.713 15.8843 18.7063 15.8944 18.7001C15.9812 18.6534 16.0675 18.6059 16.1518 18.5556C17.1684 18.0279 19.1764 17.4926 20.2542 19.5896C20.5181 20.1028 21.079 17.3831 19.0169 14.8458Z" fill="white"/>
</g>
<path d="M35.576 16.1153C35.024 16.1153 34.528 16.0192 34.088 15.8272C33.656 15.6272 33.316 15.3552 33.068 15.0112C32.82 14.6592 32.692 14.2552 32.684 13.7992H33.848C33.888 14.1912 34.048 14.5232 34.328 14.7952C34.616 15.0592 35.032 15.1912 35.576 15.1912C36.096 15.1912 36.504 15.0632 36.8 14.8072C37.104 14.5432 37.256 14.2072 37.256 13.7992C37.256 13.4792 37.168 13.2192 36.992 13.0192C36.816 12.8192 36.596 12.6672 36.332 12.5632C36.068 12.4592 35.712 12.3472 35.264 12.2272C34.712 12.0832 34.268 11.9392 33.932 11.7952C33.604 11.6512 33.32 11.4272 33.08 11.1232C32.848 10.8112 32.732 10.3952 32.732 9.87525C32.732 9.41925 32.848 9.01525 33.08 8.66325C33.312 8.31125 33.636 8.03925 34.052 7.84725C34.476 7.65525 34.96 7.55925 35.504 7.55925C36.288 7.55925 36.928 7.75525 37.424 8.14725C37.928 8.53925 38.212 9.05925 38.276 9.70725H37.076C37.036 9.38725 36.868 9.10725 36.572 8.86725C36.276 8.61925 35.884 8.49525 35.396 8.49525C34.94 8.49525 34.568 8.61525 34.28 8.85525C33.992 9.08725 33.848 9.41525 33.848 9.83925C33.848 10.1432 33.932 10.3912 34.1 10.5832C34.276 10.7752 34.488 10.9232 34.736 11.0272C34.992 11.1232 35.348 11.2352 35.804 11.3632C36.356 11.5152 36.8 11.6672 37.136 11.8192C37.472 11.9632 37.76 12.1912 38 12.5033C38.24 12.8072 38.36 13.2232 38.36 13.7512C38.36 14.1592 38.252 14.5432 38.036 14.9032C37.82 15.2632 37.5 15.5552 37.076 15.7792C36.652 16.0032 36.152 16.1153 35.576 16.1153ZM48.727 9.45525L46.675 16.0312H45.547L43.963 10.8112L42.379 16.0312H41.251L39.187 9.45525H40.303L41.815 14.9752L43.447 9.45525H44.563L46.159 14.9872L47.647 9.45525H48.727ZM50.3747 8.38725C50.1667 8.38725 49.9907 8.31525 49.8467 8.17125C49.7027 8.02725 49.6307 7.85125 49.6307 7.64325C49.6307 7.43525 49.7027 7.25925 49.8467 7.11525C49.9907 6.97125 50.1667 6.89925 50.3747 6.89925C50.5747 6.89925 50.7427 6.97125 50.8787 7.11525C51.0227 7.25925 51.0947 7.43525 51.0947 7.64325C51.0947 7.85125 51.0227 8.02725 50.8787 8.17125C50.7427 8.31525 50.5747 8.38725 50.3747 8.38725ZM50.9027 9.45525V16.0312H49.8107V9.45525H50.9027ZM55.4398 10.3552H54.0598V16.0312H52.9678V10.3552H52.1158V9.45525H52.9678V8.98725C52.9678 8.25125 53.1558 7.71525 53.5318 7.37925C53.9158 7.03525 54.5278 6.86325 55.3678 6.86325V7.77525C54.8878 7.77525 54.5478 7.87125 54.3478 8.06325C54.1558 8.24725 54.0598 8.55525 54.0598 8.98725V9.45525H55.4398V10.3552ZM58.0451 10.3552V14.2312C58.0451 14.5512 58.1131 14.7792 58.2491 14.9152C58.3851 15.0432 58.6211 15.1072 58.9571 15.1072H59.7611V16.0312H58.7771C58.1691 16.0312 57.7131 15.8912 57.4091 15.6112C57.1051 15.3312 56.9531 14.8712 56.9531 14.2312V10.3552H56.1011V9.45525H56.9531V7.79925H58.0451V9.45525H59.7611V10.3552H58.0451Z" fill="black" fill-opacity="0.88"/>
<g clip-path="url(#clip1_305_419)">
<path d="M21.2974 39.0689C21.2973 38.6664 21.2112 38.3108 21.0371 38.0055C20.8661 37.7054 20.61 37.4538 20.2665 37.2549C17.4311 35.6199 14.5929 33.99 11.7584 32.3534C10.9943 31.9123 10.2533 31.9284 9.49483 32.3759C8.36625 33.0414 2.71583 36.2787 1.03208 37.2539C0.338667 37.6554 0.00125 38.2697 0.00108333 39.0682C0 42.3561 0.00108333 45.6439 0 48.9319C0 49.3256 0.0825833 49.6744 0.249 49.975C0.420083 50.2843 0.67975 50.5428 1.03117 50.7462C2.715 51.7214 8.36617 54.9585 9.4945 55.6242C10.2533 56.0719 10.9943 56.0879 11.7587 55.6466C14.5933 54.0099 17.4316 52.3801 20.2674 50.7452C20.6188 50.5419 20.8785 50.2832 21.0496 49.9742C21.2158 49.6735 21.2985 49.3248 21.2985 48.931C21.2985 48.931 21.2985 42.3569 21.2974 39.0689Z" fill="#A179DC"/>
<path d="M10.6818 43.968L0.248993 49.975C0.420076 50.2843 0.679743 50.5428 1.03116 50.7462C2.71499 51.7214 8.36616 54.9584 9.49449 55.6242C10.2533 56.0719 10.9942 56.0879 11.7587 55.6466C14.5932 54.0099 17.4316 52.3801 20.2674 50.7452C20.6188 50.5419 20.8785 50.2832 21.0496 49.9742L10.6818 43.968Z" fill="#280068"/>
<path d="M21.2974 39.069C21.2973 38.6665 21.2112 38.3109 21.0371 38.0056L10.6818 43.9681L21.0496 49.9743C21.2158 49.6736 21.2983 49.3249 21.2985 48.9311C21.2985 48.9311 21.2985 42.357 21.2974 39.069Z" fill="#390091"/>
<path d="M16.8244 41.7224V42.8452H17.9472V41.7224H18.5086V42.8452H19.6314V43.4066H18.5086V44.5294H19.6314V45.0908H18.5086V46.2136H17.9472V45.0908H16.8244V46.2136H16.263V45.0908H15.1402V44.5294H16.263V43.4066H15.1402V42.8452H16.263V41.7224H16.8244ZM17.9472 43.4066H16.8244V44.5294H17.9472V43.4066Z" fill="white"/>
<path d="M10.7047 36.0835C13.6334 36.0835 16.1903 37.674 17.5599 40.0382L17.5465 40.0154L14.1008 41.9994C13.4219 40.85 12.1773 40.0743 10.7497 40.0583L10.7047 40.058C8.52759 40.058 6.76255 41.823 6.76255 44.0001C6.76255 44.7121 6.95236 45.3795 7.28246 45.9559C7.96197 47.1422 9.23937 47.9423 10.7047 47.9423C12.1791 47.9423 13.4638 47.132 14.1399 45.9331L14.1234 45.9618L17.564 47.955C16.2094 50.2991 13.6875 51.8847 10.7929 51.9163L10.7047 51.9168C7.76684 51.9168 5.20262 50.3165 3.83651 47.9399C3.1696 46.7796 2.78801 45.4345 2.78801 44.0001C2.78801 39.6279 6.33237 36.0835 10.7047 36.0835Z" fill="white"/>
</g>
<path d="M29.8145 43.812C29.8145 42.996 29.9985 42.264 30.3665 41.616C30.7345 40.96 31.2345 40.448 31.8665 40.08C32.5065 39.712 33.2145 39.528 33.9905 39.528C34.9025 39.528 35.6985 39.748 36.3785 40.188C37.0585 40.628 37.5545 41.252 37.8665 42.06H36.5585C36.3265 41.556 35.9905 41.168 35.5505 40.896C35.1185 40.624 34.5985 40.488 33.9905 40.488C33.4065 40.488 32.8825 40.624 32.4185 40.896C31.9545 41.168 31.5905 41.556 31.3265 42.06C31.0625 42.556 30.9305 43.14 30.9305 43.812C30.9305 44.476 31.0625 45.06 31.3265 45.564C31.5905 46.06 31.9545 46.444 32.4185 46.716C32.8825 46.988 33.4065 47.124 33.9905 47.124C34.5985 47.124 35.1185 46.992 35.5505 46.728C35.9905 46.456 36.3265 46.068 36.5585 45.564H37.8665C37.5545 46.364 37.0585 46.984 36.3785 47.424C35.6985 47.856 34.9025 48.072 33.9905 48.072C33.2145 48.072 32.5065 47.892 31.8665 47.532C31.2345 47.164 30.7345 46.656 30.3665 46.008C29.9985 45.36 29.8145 44.628 29.8145 43.812ZM46.116 42.48L45.66 44.64H47.316V45.6H45.456L44.94 48H43.896L44.412 45.6H41.892L41.376 48H40.332L40.848 45.6H38.964V44.64H41.052L41.508 42.48H39.648V41.52H41.712L42.228 39.12H43.272L42.756 41.52H45.276L45.792 39.12H46.836L46.32 41.52H47.988V42.48H46.116ZM45.072 42.48H42.552L42.096 44.64H44.616L45.072 42.48Z" fill="black" fill-opacity="0.88"/>
<defs>
<clipPath id="clip0_305_419">
<rect width="24" height="24" fill="white" transform="translate(0 0.03125)"/>
</clipPath>
<clipPath id="clip1_305_419">
<rect width="21.2985" height="23.9377" fill="white" transform="translate(0 32.0312)"/>
</clipPath>
</defs>
</svg>
