<svg width="121" height="24" viewBox="0 0 121 24" fill="none" xmlns="http://www.w3.org/2000/svg">
<g clip-path="url(#clip0_145_842)">
<path d="M21.6562 0H2.34375C1.04933 0 0 1.04933 0 2.34375V21.6562C0 22.9507 1.04933 24 2.34375 24H21.6562C22.9507 24 24 22.9507 24 21.6562V2.34375C24 1.04933 22.9507 0 21.6562 0Z" fill="#3178C6"/>
<path d="M21.6562 0H2.34375C1.04933 0 0 1.04933 0 2.34375V21.6562C0 22.9507 1.04933 24 2.34375 24H21.6562C22.9507 24 24 22.9507 24 21.6562V2.34375C24 1.04933 22.9507 0 21.6562 0Z" fill="#3178C6"/>
<path fill-rule="evenodd" clip-rule="evenodd" d="M14.8565 19.098V21.4446C15.238 21.6402 15.6892 21.7868 16.21 21.8846C16.7309 21.9824 17.2799 22.0312 17.857 22.0312C18.4194 22.0312 18.9537 21.9775 19.4599 21.8699C19.9661 21.7624 20.41 21.5851 20.7915 21.3383C21.1729 21.0914 21.4749 20.7687 21.6975 20.3703C21.92 19.9718 22.0312 19.4793 22.0312 18.8927C22.0312 18.4673 21.9677 18.0946 21.8405 17.7744C21.7133 17.4542 21.53 17.1694 21.2903 16.9201C21.0507 16.6708 20.7633 16.4471 20.4283 16.2491C20.0933 16.0511 19.7155 15.8641 19.2949 15.6881C18.9868 15.561 18.7104 15.4376 18.4659 15.3178C18.2213 15.198 18.0135 15.0758 17.8423 14.9512C17.6711 14.8265 17.5391 14.6945 17.4462 14.5552C17.3533 14.4158 17.3068 14.2582 17.3068 14.0821C17.3068 13.9208 17.3483 13.7754 17.4315 13.6458C17.5147 13.5163 17.632 13.4051 17.7836 13.3122C17.9353 13.2193 18.1211 13.1472 18.3412 13.0958C18.5613 13.0445 18.8058 13.0189 19.0748 13.0189C19.2704 13.0189 19.477 13.0335 19.6947 13.0628C19.9123 13.0922 20.1312 13.1374 20.3513 13.1985C20.5714 13.2596 20.7853 13.3366 20.9932 13.4295C21.201 13.5224 21.393 13.6299 21.5691 13.7522V11.5596C21.2121 11.4227 20.822 11.3212 20.399 11.2552C19.9759 11.1892 19.4905 11.1562 18.9427 11.1562C18.3852 11.1562 17.857 11.2162 17.3581 11.3359C16.8593 11.4557 16.4204 11.6427 16.0413 11.8969C15.6622 12.1511 15.3627 12.475 15.1426 12.8685C14.9226 13.2621 14.8125 13.7326 14.8125 14.2801C14.8125 14.9792 15.0142 15.5757 15.4177 16.0695C15.8212 16.5632 16.4338 16.9812 17.2554 17.3234C17.5782 17.4554 17.879 17.5849 18.1578 17.712C18.4365 17.8392 18.6774 17.9712 18.8804 18.108C19.0833 18.2449 19.2435 18.394 19.3609 18.5554C19.4783 18.7167 19.537 18.9 19.537 19.1054C19.537 19.2569 19.5003 19.3974 19.4269 19.527C19.3536 19.6566 19.2423 19.769 19.0931 19.8643C18.944 19.9597 18.7581 20.0342 18.5356 20.088C18.313 20.1418 18.0526 20.1686 17.7543 20.1686C17.2456 20.1686 16.7419 20.0794 16.243 19.901C15.7442 19.7226 15.282 19.4549 14.8565 19.098ZM10.9116 13.3163H13.9219V11.3906H5.53125V13.3163H8.52684V21.8906H10.9116V13.3163Z" fill="white"/>
</g>
<path d="M38.072 7.636V8.524H35.792V16H34.7V8.524H32.408V7.636H38.072ZM45.0802 9.424L41.1202 19.096H39.9922L41.2882 15.928L38.6362 9.424H39.8482L41.9122 14.752L43.9522 9.424H45.0802ZM47.2699 10.636C47.4859 10.26 47.8059 9.948 48.2299 9.7C48.6619 9.444 49.1619 9.316 49.7299 9.316C50.3139 9.316 50.8419 9.456 51.3139 9.736C51.7939 10.016 52.1699 10.412 52.4419 10.924C52.7139 11.428 52.8499 12.016 52.8499 12.688C52.8499 13.352 52.7139 13.944 52.4419 14.464C52.1699 14.984 51.7939 15.388 51.3139 15.676C50.8419 15.964 50.3139 16.108 49.7299 16.108C49.1699 16.108 48.6739 15.984 48.2419 15.736C47.8179 15.48 47.4939 15.164 47.2699 14.788V19.12H46.1779V9.424H47.2699V10.636ZM51.7339 12.688C51.7339 12.192 51.6339 11.76 51.4339 11.392C51.2339 11.024 50.9619 10.744 50.6179 10.552C50.2819 10.36 49.9099 10.264 49.5019 10.264C49.1019 10.264 48.7299 10.364 48.3859 10.564C48.0499 10.756 47.7779 11.04 47.5699 11.416C47.3699 11.784 47.2699 12.212 47.2699 12.7C47.2699 13.196 47.3699 13.632 47.5699 14.008C47.7779 14.376 48.0499 14.66 48.3859 14.86C48.7299 15.052 49.1019 15.148 49.5019 15.148C49.9099 15.148 50.2819 15.052 50.6179 14.86C50.9619 14.66 51.2339 14.376 51.4339 14.008C51.6339 13.632 51.7339 13.192 51.7339 12.688ZM60.2873 12.46C60.2873 12.668 60.2753 12.888 60.2513 13.12H54.9953C55.0353 13.768 55.2553 14.276 55.6553 14.644C56.0633 15.004 56.5553 15.184 57.1313 15.184C57.6033 15.184 57.9953 15.076 58.3073 14.86C58.6273 14.636 58.8513 14.34 58.9793 13.972H60.1553C59.9793 14.604 59.6273 15.12 59.0993 15.52C58.5713 15.912 57.9153 16.108 57.1313 16.108C56.5073 16.108 55.9473 15.968 55.4513 15.688C54.9633 15.408 54.5793 15.012 54.2993 14.5C54.0193 13.98 53.8793 13.38 53.8793 12.7C53.8793 12.02 54.0153 11.424 54.2873 10.912C54.5593 10.4 54.9393 10.008 55.4273 9.736C55.9233 9.456 56.4913 9.316 57.1313 9.316C57.7553 9.316 58.3073 9.452 58.7873 9.724C59.2673 9.996 59.6353 10.372 59.8913 10.852C60.1553 11.324 60.2873 11.86 60.2873 12.46ZM59.1593 12.232C59.1593 11.816 59.0673 11.46 58.8833 11.164C58.6993 10.86 58.4473 10.632 58.1273 10.48C57.8153 10.32 57.4673 10.24 57.0833 10.24C56.5313 10.24 56.0593 10.416 55.6673 10.768C55.2833 11.12 55.0633 11.608 55.0073 12.232H59.1593ZM64.0567 16.108C63.5527 16.108 63.1007 16.024 62.7007 15.856C62.3007 15.68 61.9847 15.44 61.7527 15.136C61.5207 14.824 61.3927 14.468 61.3687 14.068H62.4967C62.5287 14.396 62.6807 14.664 62.9527 14.872C63.2327 15.08 63.5967 15.184 64.0447 15.184C64.4607 15.184 64.7887 15.092 65.0287 14.908C65.2687 14.724 65.3887 14.492 65.3887 14.212C65.3887 13.924 65.2607 13.712 65.0047 13.576C64.7487 13.432 64.3527 13.292 63.8167 13.156C63.3287 13.028 62.9287 12.9 62.6167 12.772C62.3127 12.636 62.0487 12.44 61.8247 12.184C61.6087 11.92 61.5007 11.576 61.5007 11.152C61.5007 10.816 61.6007 10.508 61.8007 10.228C62.0007 9.948 62.2847 9.728 62.6527 9.568C63.0207 9.4 63.4407 9.316 63.9127 9.316C64.6407 9.316 65.2287 9.5 65.6767 9.868C66.1247 10.236 66.3647 10.74 66.3967 11.38H65.3047C65.2807 11.036 65.1407 10.76 64.8847 10.552C64.6367 10.344 64.3007 10.24 63.8767 10.24C63.4847 10.24 63.1727 10.324 62.9407 10.492C62.7087 10.66 62.5927 10.88 62.5927 11.152C62.5927 11.368 62.6607 11.548 62.7967 11.692C62.9407 11.828 63.1167 11.94 63.3247 12.028C63.5407 12.108 63.8367 12.2 64.2127 12.304C64.6847 12.432 65.0687 12.56 65.3647 12.688C65.6607 12.808 65.9127 12.992 66.1207 13.24C66.3367 13.488 66.4487 13.812 66.4567 14.212C66.4567 14.572 66.3567 14.896 66.1567 15.184C65.9567 15.472 65.6727 15.7 65.3047 15.868C64.9447 16.028 64.5287 16.108 64.0567 16.108ZM67.5902 12.7C67.5902 12.02 67.7262 11.428 67.9982 10.924C68.2702 10.412 68.6462 10.016 69.1262 9.736C69.6142 9.456 70.1702 9.316 70.7942 9.316C71.6022 9.316 72.2662 9.512 72.7862 9.904C73.3142 10.296 73.6622 10.84 73.8302 11.536H72.6542C72.5422 11.136 72.3222 10.82 71.9942 10.588C71.6742 10.356 71.2742 10.24 70.7942 10.24C70.1702 10.24 69.6662 10.456 69.2822 10.888C68.8982 11.312 68.7062 11.916 68.7062 12.7C68.7062 13.492 68.8982 14.104 69.2822 14.536C69.6662 14.968 70.1702 15.184 70.7942 15.184C71.2742 15.184 71.6742 15.072 71.9942 14.848C72.3142 14.624 72.5342 14.304 72.6542 13.888H73.8302C73.6542 14.56 73.3022 15.1 72.7742 15.508C72.2462 15.908 71.5862 16.108 70.7942 16.108C70.1702 16.108 69.6142 15.968 69.1262 15.688C68.6462 15.408 68.2702 15.012 67.9982 14.5C67.7262 13.988 67.5902 13.388 67.5902 12.7ZM76.3793 10.492C76.5713 10.116 76.8433 9.824 77.1953 9.616C77.5553 9.408 77.9913 9.304 78.5033 9.304V10.432H78.2153C76.9913 10.432 76.3793 11.096 76.3793 12.424V16H75.2873V9.424H76.3793V10.492ZM80.3278 8.356C80.1198 8.356 79.9438 8.284 79.7998 8.14C79.6558 7.996 79.5838 7.82 79.5838 7.612C79.5838 7.404 79.6558 7.228 79.7998 7.084C79.9438 6.94 80.1198 6.868 80.3278 6.868C80.5278 6.868 80.6958 6.94 80.8318 7.084C80.9758 7.228 81.0478 7.404 81.0478 7.612C81.0478 7.82 80.9758 7.996 80.8318 8.14C80.6958 8.284 80.5278 8.356 80.3278 8.356ZM80.8558 9.424V16H79.7638V9.424H80.8558ZM83.809 10.636C84.025 10.26 84.345 9.948 84.769 9.7C85.201 9.444 85.701 9.316 86.269 9.316C86.853 9.316 87.381 9.456 87.853 9.736C88.333 10.016 88.709 10.412 88.981 10.924C89.253 11.428 89.389 12.016 89.389 12.688C89.389 13.352 89.253 13.944 88.981 14.464C88.709 14.984 88.333 15.388 87.853 15.676C87.381 15.964 86.853 16.108 86.269 16.108C85.709 16.108 85.213 15.984 84.781 15.736C84.357 15.48 84.033 15.164 83.809 14.788V19.12H82.717V9.424H83.809V10.636ZM88.273 12.688C88.273 12.192 88.173 11.76 87.973 11.392C87.773 11.024 87.501 10.744 87.157 10.552C86.821 10.36 86.449 10.264 86.041 10.264C85.641 10.264 85.269 10.364 84.925 10.564C84.589 10.756 84.317 11.04 84.109 11.416C83.909 11.784 83.809 12.212 83.809 12.7C83.809 13.196 83.909 13.632 84.109 14.008C84.317 14.376 84.589 14.66 84.925 14.86C85.269 15.052 85.641 15.148 86.041 15.148C86.449 15.148 86.821 15.052 87.157 14.86C87.501 14.66 87.773 14.376 87.973 14.008C88.173 13.632 88.273 13.192 88.273 12.688ZM92.1583 10.324V14.2C92.1583 14.52 92.2263 14.748 92.3623 14.884C92.4983 15.012 92.7343 15.076 93.0703 15.076H93.8743V16H92.8903C92.2823 16 91.8263 15.86 91.5223 15.58C91.2183 15.3 91.0663 14.84 91.0663 14.2V10.324H90.2143V9.424H91.0663V7.768H92.1583V9.424H93.8743V10.324H92.1583Z" fill="black" fill-opacity="0.88"/>
<defs>
<clipPath id="clip0_145_842">
<rect width="24" height="24" fill="white"/>
</clipPath>
</defs>
</svg>
