<svg width="32" height="22" viewBox="0 0 32 22" fill="none" xmlns="http://www.w3.org/2000/svg">
<g id="Group">
<path id="Vector" d="M29.6034 6.10352e-05H2.39656C1.07294 6.10352e-05 0 1.12593 0 2.51486V19.4852C0 20.8741 1.07294 22 2.39656 22H29.6034C30.927 22 32 20.8741 32 19.4852V2.51486C32 1.12593 30.9271 6.10352e-05 29.6034 6.10352e-05Z" fill="#41479B"/>
<path id="Vector_2" d="M31.9668 2.09913C31.7779 0.908201 30.792 0 29.6034 0H28.9799L18.7586 7.02708V6.55475e-05H13.2414V7.02715L3.02012 6.55475e-05H2.39656C1.208 6.55475e-05 0.222062 0.908201 0.0331875 2.0992L8.76931 8.10534H0V13.8948H8.76931L0.0331875 19.9008C0.222062 21.0917 1.208 21.9999 2.39656 21.9999H3.02012L13.2414 14.9729V21.9999H18.7586V14.9729L28.9799 21.9999H29.6034C30.792 21.9999 31.7779 21.0918 31.9668 19.9008L23.2307 13.8947H32V8.10521H23.2307L31.9668 2.09913Z" fill="#F5F5F5"/>
<path id="Vector_3" d="M17.6552 6.10352e-05H14.3448V9.26315H0V12.7368H14.3448V21.9999H17.6552V12.7368H32V9.26315H17.6552V6.10352e-05Z" fill="#FF4B55"/>
<path id="Vector_4" d="M1.54955 21.8378L13.211 13.8947H11.1842L0.576489 21.1202C0.838315 21.4413 1.17295 21.6881 1.54955 21.8378ZM21.6492 13.8947H19.6225L30.9172 21.588C31.234 21.3696 31.4971 21.0758 31.6852 20.7305L21.6492 13.8947ZM0.253052 1.39035L10.1112 8.10526H12.1379L0.967177 0.496254C0.665885 0.731705 0.421316 1.03791 0.253052 1.39035ZM20.7854 8.10526L31.4126 0.866473C31.1478 0.546181 30.8103 0.301199 30.4314 0.154236L18.7586 8.10526H20.7854Z" fill="#FF4B55"/>
</g>
</svg>
