<svg width="130" height="215" viewBox="0 0 130 215" fill="none" xmlns="http://www.w3.org/2000/svg">
<path id="Vector 6" d="M25.204 214.934C25.9961 215.177 26.8349 214.731 27.0775 213.939L31.0304 201.031C31.273 200.239 30.8275 199.4 30.0354 199.157C29.2433 198.915 28.4045 199.36 28.1619 200.152L24.6482 211.627L13.1742 208.113C12.382 207.87 11.5433 208.316 11.3007 209.108C11.0581 209.9 11.5036 210.739 12.2957 210.981L25.204 214.934ZM129.143 0.5C83.1492 0.5 40.767 23.4994 17.9792 61.7955C-4.83428 100.135 -7.88251 153.575 24.3185 214.204L26.968 212.796C-4.83106 152.925 -1.62928 100.615 20.5573 63.3295C42.7695 26.0006 84.1373 3.5 129.143 3.5V0.5Z" fill="#833AB4"/>
</svg>
