<svg width="97" height="166" viewBox="0 0 97 166" fill="none" xmlns="http://www.w3.org/2000/svg">
<path id="Vector 5" d="M81.9483 164.547C82.3217 165.286 83.2239 165.583 83.9634 165.209L96.014 159.124C96.7535 158.75 97.0502 157.848 96.6768 157.109C96.3033 156.369 95.4012 156.073 94.6617 156.446L83.95 161.855L78.5407 151.144C78.1673 150.404 77.2651 150.107 76.5256 150.481C75.7861 150.854 75.4893 151.757 75.8628 152.496L81.9483 164.547ZM0.744047 3.55479C2.10481 4.00235 32.348 13.9503 57.256 38.8162C69.6929 51.2321 80.7725 67.3403 86.2872 87.8237C91.7995 108.298 91.7803 133.247 81.8623 163.402L84.7122 164.339C94.7904 133.698 94.8662 108.149 89.1841 87.0437C83.5044 65.948 72.1002 49.3963 59.3756 36.6931C33.9607 11.3211 3.17042 1.19473 1.68137 0.704977L0.744047 3.55479Z" fill="#833AB4"/>
</svg>
